<svg width="38" height="38" viewBox="0 0 38 38" fill="none" xmlns="http://www.w3.org/2000/svg">
<path d="M2.88614 1.1821L36.8532 17.4073C37.1965 17.571 37.4864 17.8285 37.6894 18.1499C37.8923 18.4713 38 18.8435 38 19.2235C38 19.6035 37.8923 19.9757 37.6894 20.2971C37.4864 20.6185 37.1965 20.876 36.8532 21.0397L2.88614 37.2649C2.53793 37.4314 2.14913 37.4946 1.76601 37.4468C1.38289 37.3991 1.02158 37.2424 0.725059 36.9954C0.428538 36.7485 0.209294 36.4216 0.0934127 36.0538C-0.0224685 35.6859 -0.0301084 35.2926 0.0714022 34.9205L3.46972 22.4775C3.51132 22.325 3.59694 22.1881 3.71591 22.0839C3.83488 21.9797 3.98194 21.9128 4.13874 21.8914L20.5983 19.6582C20.6671 19.6484 20.7322 19.6211 20.7873 19.5787C20.8424 19.5364 20.8856 19.4806 20.9127 19.4167L20.9417 19.3169C20.9544 19.227 20.9363 19.1354 20.8904 19.0571C20.8445 18.9788 20.7733 18.9182 20.6886 18.8854L20.5999 18.8612L4.15648 16.628C3.99996 16.6064 3.85326 16.5393 3.7346 16.4351C3.61593 16.3309 3.53055 16.1942 3.48906 16.0419L0.0714022 3.52804C-0.0305195 3.15588 -0.0231906 2.76231 0.092516 2.39419C0.208223 2.02608 0.42743 1.69894 0.72403 1.45174C1.02063 1.20453 1.38212 1.04769 1.76545 0.999885C2.14878 0.95208 2.53778 1.01533 2.88614 1.1821Z" fill="#19123C"/>
</svg>
