<svg width="367" height="445" viewBox="0 0 367 445" fill="none" xmlns="http://www.w3.org/2000/svg">
    <path fill-rule="evenodd" clip-rule="evenodd" d="M98.3838 188.926L27.0871 117.534L118.143 26.4479L189.511 97.7686L215.68 0.294742L340.051 33.6197L313.977 131.119L411.443 105.038L444.758 229.449L347.316 255.627L418.614 327.019L327.557 418.106L256.189 346.785L230.02 444.259L105.65 410.934L131.724 313.435L34.2564 339.516L0.943077 215.105L98.3838 188.926Z" fill="#F8B3B8"/>
    <path d="M192.061 113.235C161.791 121.259 143.757 152.302 151.781 182.571C152.431 185.026 150.969 187.543 148.515 188.193C118.245 196.217 100.211 227.26 108.235 257.53C116.258 287.8 147.301 305.834 177.571 297.811C180.026 297.16 182.543 298.622 183.193 301.076C191.217 331.346 222.26 349.38 252.53 341.356C282.8 333.333 300.834 302.289 292.81 272.019C292.16 269.565 293.622 267.049 296.076 266.398C326.346 258.374 344.38 227.331 336.356 197.061C328.332 166.791 297.289 148.757 267.019 156.781C264.565 157.431 262.049 155.969 261.398 153.515C253.374 123.245 222.331 105.211 192.061 113.235Z" fill="#ADB4F9"/>
    <path d="M152.532 186.767C141.745 205.335 148.053 229.131 166.62 239.918C168.126 240.792 168.637 242.722 167.763 244.227C156.976 262.795 163.284 286.591 181.851 297.377C200.419 308.164 224.215 301.856 235.002 283.289C235.877 281.783 237.806 281.272 239.311 282.146C257.879 292.933 281.675 286.625 292.462 268.057C303.248 249.49 296.94 225.693 278.373 214.907C276.868 214.032 276.356 212.103 277.231 210.598C288.017 192.03 281.709 168.234 263.142 157.447C244.574 146.661 220.778 152.969 209.991 171.536C209.117 173.042 207.188 173.553 205.682 172.678C187.115 161.892 163.318 168.2 152.532 186.767Z" fill="#A8EFE4"/>
    <path d="M209.447 177.885C196.289 181.373 188.437 194.817 191.908 207.913C192.19 208.975 191.553 210.065 190.486 210.348C177.328 213.836 169.475 227.28 172.947 240.377C176.418 253.473 189.899 261.262 203.058 257.774C204.124 257.492 205.217 258.123 205.499 259.185C208.97 272.281 222.451 280.071 235.609 276.583C248.768 273.095 256.62 259.65 253.149 246.554C252.867 245.492 253.504 244.402 254.571 244.12C267.729 240.632 275.582 227.188 272.11 214.091C268.638 200.995 255.157 193.206 241.999 196.693C240.933 196.976 239.84 196.345 239.558 195.283C236.087 182.186 222.606 174.397 209.447 177.885Z" fill="#FFA3AF"/>
    <path d="M215.031 247.986C216.235 248.45 217.502 248.493 218.667 248.184C220.419 247.72 221.936 246.46 222.65 244.66C222.653 244.656 222.655 244.652 222.657 244.647C222.659 244.643 222.66 244.639 222.662 244.635L222.664 244.628C222.666 244.624 222.668 244.619 222.669 244.615L225.174 238.162L230.547 242.527C230.552 242.532 230.557 242.535 230.563 242.539C230.565 242.541 230.567 242.543 230.57 242.545C233.094 244.577 236.806 244.188 238.856 241.673C240.908 239.158 240.532 235.446 238.025 233.389L238.019 233.384C238.015 233.379 238.011 233.376 238.006 233.373L232.641 229.003L238.46 225.245C241.193 223.48 241.983 219.82 240.217 217.09C238.452 214.36 234.791 213.572 232.054 215.335L226.233 219.085L224.456 212.394C223.621 209.253 220.382 207.374 217.237 208.207C214.092 209.041 212.209 212.277 213.04 215.423L214.807 222.11L207.893 221.737C207.89 221.738 207.887 221.738 207.884 221.738C207.879 221.738 207.875 221.737 207.871 221.737C204.629 221.571 201.85 224.065 201.67 227.304C201.49 230.544 203.975 233.324 207.212 233.516C207.215 233.516 207.217 233.517 207.22 233.517L207.232 233.518L207.237 233.519L214.15 233.901L211.655 240.355C211.654 240.358 211.653 240.361 211.651 240.365C211.65 240.368 211.648 240.372 211.648 240.375C210.487 243.404 212.002 246.817 215.031 247.986Z" fill="#FFCA69"/>
    </svg>
    