<svg width="32" height="32" viewBox="0 0 32 32" fill="none" xmlns="http://www.w3.org/2000/svg">
<path d="M14.7692 7.38462H17.2308V9.84615H14.7692V7.38462Z" fill="#FC6D83"/>
<path d="M12.3077 4.92308H14.7692V7.38462H12.3077V4.92308Z" fill="#FC6D83"/>
<path d="M17.2308 4.92308H19.6923V7.38462H17.2308V4.92308Z" fill="#FC6D83"/>
<path d="M19.6923 2.46154H22.1538V4.92308H19.6923V2.46154Z" fill="#FC6D83"/>
<path d="M22.1538 2.46154H24.6154V4.92308H22.1538V2.46154Z" fill="#FC6D83"/>
<path d="M27.0769 4.92308H29.5385V7.38462H27.0769V4.92308Z" fill="#FC6D83"/>
<path d="M24.6154 2.46154H27.0769V4.92308H24.6154V2.46154Z" fill="#FC6D83"/>
<path d="M9.84615 2.46154H12.3077V4.92308H9.84615V2.46154Z" fill="#FC6D83"/>
<path d="M9.84615 4.92308H12.3077V7.38462H9.84615V4.92308Z" fill="#FC6D83"/>
<path d="M9.84615 7.38462H12.3077V9.84615H9.84615V7.38462Z" fill="#FC6D83"/>
<path d="M12.3077 7.38462H14.7692V9.84615H12.3077V7.38462Z" fill="#FC6D83"/>
<path d="M24.6154 4.92308H27.0769V7.38462H24.6154V4.92308Z" fill="#FC6D83"/>
<path d="M9.84615 9.84615H12.3077V12.3077H9.84615V9.84615Z" fill="#FC6D83"/>
<path d="M27.0769 7.38462H24.6154V9.84615H27.0769V7.38462Z" fill="#FC6D83"/>
<path d="M29.5385 7.38462H27.0769V9.84615H29.5385V7.38462Z" fill="#FC6D83"/>
<path d="M9.84615 12.3077H12.3077V14.7692H9.84615V12.3077Z" fill="#FC6D83"/>
<path d="M17.2308 12.3077H19.6923V14.7692H17.2308V12.3077Z" fill="#FC6D83"/>
<path d="M17.2308 19.6923H19.6923V22.1538H17.2308V19.6923Z" fill="#FC6D83"/>
<path d="M19.6923 19.6923H22.1538V22.1538H19.6923V19.6923Z" fill="#FC6D83"/>
<path d="M22.1538 19.6923H24.6154V22.1538H22.1538V19.6923Z" fill="#FC6D83"/>
<path d="M27.0769 9.84615H24.6154V12.3077H27.0769V9.84615Z" fill="#FC6D83"/>
<path d="M29.5385 9.84615H27.0769V12.3077H29.5385V9.84615Z" fill="#FC6D83"/>
<path d="M9.84615 14.7692H12.3077V17.2308H9.84615V14.7692Z" fill="#FC6D83"/>
<path d="M17.2308 14.7692H19.6923V17.2308H17.2308V14.7692Z" fill="#FC6D83"/>
<path d="M17.2308 22.1538H19.6923V24.6154H17.2308V22.1538Z" fill="#FC6D83"/>
<path d="M19.6923 22.1538H22.1538V24.6154H19.6923V22.1538Z" fill="#FC6D83"/>
<path d="M27.0769 12.3077H24.6154V14.7692H27.0769V12.3077Z" fill="#FC6D83"/>
<path d="M29.5385 12.3077H27.0769V14.7692H29.5385V12.3077Z" fill="#FC6D83"/>
<path d="M9.84615 17.2308H12.3077V19.6923H9.84615V17.2308Z" fill="#FC6D83"/>
<path d="M9.84615 19.6923H12.3077V22.1538H9.84615V19.6923Z" fill="#FC6D83"/>
<path d="M17.2308 17.2308H19.6923V19.6923H17.2308V17.2308Z" fill="#FC6D83"/>
<path d="M17.2308 24.6154H19.6923V27.0769H17.2308V24.6154Z" fill="#FC6D83"/>
<path d="M27.0769 14.7692H24.6154V17.2308H27.0769V14.7692Z" fill="#FC6D83"/>
<path d="M29.5385 14.7692H27.0769V17.2308H29.5385V14.7692Z" fill="#FC6D83"/>
<path d="M24.6154 17.2308H27.0769V19.6923H24.6154V17.2308Z" fill="#FC6D83"/>
<path d="M17.2308 9.84615H19.6923V12.3077H17.2308V9.84615Z" fill="#FC6D83"/>
<path d="M7.38462 2.46154H9.84615V4.92308H7.38462V2.46154Z" fill="#FC6D83"/>
<path d="M7.38462 4.92308H9.84615V7.38462H7.38462V4.92308Z" fill="#FFA3AF"/>
<path d="M7.38462 7.38462H9.84615V9.84615H7.38462V7.38462Z" fill="#FFA3AF"/>
<path d="M22.1538 4.92308H24.6154V7.38462H22.1538V4.92308Z" fill="#FC6D83"/>
<path d="M7.38462 9.84615H9.84615V12.3077H7.38462V9.84615Z" fill="#FC6D83"/>
<path d="M22.1538 7.38462H24.6154V9.84615H22.1538V7.38462Z" fill="#FC6D83"/>
<path d="M7.38462 12.3077H9.84615V14.7692H7.38462V12.3077Z" fill="#FC6D83"/>
<path d="M14.7692 12.3077H17.2308V14.7692H14.7692V12.3077Z" fill="#FC6D83"/>
<path d="M14.7692 19.6923H17.2308V22.1538H14.7692V19.6923Z" fill="#FC6D83"/>
<path d="M22.1538 9.84615H24.6154V12.3077H22.1538V9.84615Z" fill="#FC6D83"/>
<path d="M7.38462 14.7692H9.84615V17.2308H7.38462V14.7692Z" fill="#FC6D83"/>
<path d="M14.7692 14.7692H17.2308V17.2308H14.7692V14.7692Z" fill="#FC6D83"/>
<path d="M14.7692 22.1538H17.2308V24.6154H14.7692V22.1538Z" fill="#FC6D83"/>
<path d="M22.1538 12.3077H24.6154V14.7692H22.1538V12.3077Z" fill="#FC6D83"/>
<path d="M7.38462 17.2308H9.84615V19.6923H7.38462V17.2308Z" fill="#FC6D83"/>
<path d="M7.38462 19.6923H9.84615V22.1538H7.38462V19.6923Z" fill="#FC6D83"/>
<path d="M14.7692 17.2308H17.2308V19.6923H14.7692V17.2308Z" fill="#FC6D83"/>
<path d="M14.7692 24.6154H17.2308V27.0769H14.7692V24.6154Z" fill="#FC6D83"/>
<path d="M14.7692 27.0769H17.2308V29.5385H14.7692V27.0769Z" fill="#FC6D83"/>
<path d="M22.1538 14.7692H24.6154V17.2308H22.1538V14.7692Z" fill="#FC6D83"/>
<path d="M22.1538 17.2308H24.6154V19.6923H22.1538V17.2308Z" fill="#FC6D83"/>
<path d="M14.7692 9.84615H17.2308V12.3077H14.7692V9.84615Z" fill="#FC6D83"/>
<path d="M4.92308 2.46154H7.38462V4.92308H4.92308V2.46154Z" fill="#FC6D83"/>
<path d="M4.92308 0H7.38462V2.46154H4.92308V0Z" fill="#19123C"/>
<path d="M7.38462 0H9.84615V2.46154H7.38462V0Z" fill="#19123C"/>
<path d="M9.84615 0H12.3077V2.46154H9.84615V0Z" fill="#19123C"/>
<path d="M12.3077 2.46154H14.7692V4.92308H12.3077V2.46154Z" fill="#19123C"/>
<path d="M14.7692 4.92308H17.2308V7.38462H14.7692V4.92308Z" fill="#19123C"/>
<path d="M17.2308 2.46154H19.6923V4.92308H17.2308V2.46154Z" fill="#19123C"/>
<path d="M19.6923 0H22.1538V2.46154H19.6923V0Z" fill="#19123C"/>
<path d="M22.1538 0H24.6154V2.46154H22.1538V0Z" fill="#19123C"/>
<path d="M24.6154 0H27.0769V2.46154H24.6154V0Z" fill="#19123C"/>
<path d="M27.0769 2.46154H29.5385V4.92308H27.0769V2.46154Z" fill="#19123C"/>
<path d="M29.5385 4.92308H32V7.38462H29.5385V4.92308Z" fill="#19123C"/>
<path d="M29.5385 7.38462H32V9.84615H29.5385V7.38462Z" fill="#19123C"/>
<path d="M29.5385 9.84615H32V12.3077H29.5385V9.84615Z" fill="#19123C"/>
<path d="M29.5385 12.3077H32V14.7692H29.5385V12.3077Z" fill="#19123C"/>
<path d="M29.5385 14.7692H32V17.2308H29.5385V14.7692Z" fill="#19123C"/>
<path d="M24.6154 19.6923H27.0769V22.1538H24.6154V19.6923Z" fill="#19123C"/>
<path d="M22.1538 22.1538H24.6154V24.6154H22.1538V22.1538Z" fill="#19123C"/>
<path d="M19.6923 24.6154H22.1538V27.0769H19.6923V24.6154Z" fill="#19123C"/>
<path d="M17.2308 27.0769H19.6923V29.5385H17.2308V27.0769Z" fill="#19123C"/>
<path d="M14.7692 29.5385H17.2308V32H14.7692V29.5385Z" fill="#19123C"/>
<path d="M12.3077 27.0769H14.7692V29.5385H12.3077V27.0769Z" fill="#19123C"/>
<path d="M9.84615 24.6154H12.3077V27.0769H9.84615V24.6154Z" fill="#19123C"/>
<path d="M7.38462 22.1538H9.84615V24.6154H7.38462V22.1538Z" fill="#19123C"/>
<path d="M4.92308 19.6923H7.38462V22.1538H4.92308V19.6923Z" fill="#19123C"/>
<path d="M2.46154 17.2308H4.92308V19.6923H2.46154V17.2308Z" fill="#19123C"/>
<path d="M0 14.7692H2.46154V17.2308H0V14.7692Z" fill="#19123C"/>
<path d="M0 12.3077H2.46154V14.7692H0V12.3077Z" fill="#19123C"/>
<path d="M0 9.84615H2.46154V12.3077H0V9.84615Z" fill="#19123C"/>
<path d="M0 7.38462H2.46154V9.84615H0V7.38462Z" fill="#19123C"/>
<path d="M27.0769 17.2308H29.5385V19.6923H27.0769V17.2308Z" fill="#19123C"/>
<path d="M2.46154 2.46154H4.92308V4.92308H2.46154V2.46154Z" fill="#19123C"/>
<path d="M0 4.92308H2.46154V7.38462H0V4.92308Z" fill="#19123C"/>
<path d="M4.92308 4.92308H7.38462V7.38462H4.92308V4.92308Z" fill="#FC6D83"/>
<path d="M4.92308 7.38462H7.38462V9.84615H4.92308V7.38462Z" fill="#FFA3AF"/>
<path d="M2.46154 7.38462H4.92308V9.84615H2.46154V7.38462Z" fill="#FC6D83"/>
<path d="M19.6923 4.92308H22.1538V7.38462H19.6923V4.92308Z" fill="#FC6D83"/>
<path d="M4.92308 9.84615H7.38462V12.3077H4.92308V9.84615Z" fill="#FC6D83"/>
<path d="M2.46154 9.84615H4.92308V12.3077H2.46154V9.84615Z" fill="#FC6D83"/>
<path d="M19.6923 7.38462H22.1538V9.84615H19.6923V7.38462Z" fill="#FC6D83"/>
<path d="M17.2308 7.38462H19.6923V9.84615H17.2308V7.38462Z" fill="#FC6D83"/>
<path d="M4.92308 12.3077H7.38462V14.7692H4.92308V12.3077Z" fill="#FC6D83"/>
<path d="M2.46154 12.3077H4.92308V14.7692H2.46154V12.3077Z" fill="#FC6D83"/>
<path d="M12.3077 12.3077H14.7692V14.7692H12.3077V12.3077Z" fill="#FC6D83"/>
<path d="M12.3077 19.6923H14.7692V22.1538H12.3077V19.6923Z" fill="#FC6D83"/>
<path d="M19.6923 9.84615H22.1538V12.3077H19.6923V9.84615Z" fill="#FC6D83"/>
<path d="M4.92308 14.7692H7.38462V17.2308H4.92308V14.7692Z" fill="#FC6D83"/>
<path d="M2.46154 14.7692H4.92308V17.2308H2.46154V14.7692Z" fill="#FC6D83"/>
<path d="M12.3077 14.7692H14.7692V17.2308H12.3077V14.7692Z" fill="#FC6D83"/>
<path d="M12.3077 22.1538H14.7692V24.6154H12.3077V22.1538Z" fill="#FC6D83"/>
<path d="M9.84615 22.1538H12.3077V24.6154H9.84615V22.1538Z" fill="#FC6D83"/>
<path d="M19.6923 12.3077H22.1538V14.7692H19.6923V12.3077Z" fill="#FC6D83"/>
<path d="M4.92308 17.2308H7.38462V19.6923H4.92308V17.2308Z" fill="#FC6D83"/>
<path d="M12.3077 17.2308H14.7692V19.6923H12.3077V17.2308Z" fill="#FC6D83"/>
<path d="M12.3077 24.6154H14.7692V27.0769H12.3077V24.6154Z" fill="#FC6D83"/>
<path d="M19.6923 14.7692H22.1538V17.2308H19.6923V14.7692Z" fill="#FC6D83"/>
<path d="M19.6923 17.2308H22.1538V19.6923H19.6923V17.2308Z" fill="#FC6D83"/>
<path d="M12.3077 9.84615H14.7692V12.3077H12.3077V9.84615Z" fill="#FC6D83"/>
<path d="M2.46154 4.92308H4.92308V7.38462H2.46154V4.92308Z" fill="#FC6D83"/>
</svg>
