<svg width="38" height="36" viewBox="0 0 38 36" fill="none" xmlns="http://www.w3.org/2000/svg">
<path d="M1.80952 10.8H3.61905V12.6H1.80952V10.8Z" fill="#3D3D75"/>
<path d="M28.9524 10.8H30.7619V12.6H28.9524V10.8Z" fill="#3D3D75"/>
<path d="M3.61905 10.8H5.42857V12.6H3.61905V10.8Z" fill="#3D3D75"/>
<path d="M30.7619 10.8H32.5714V12.6H30.7619V10.8Z" fill="#3D3D75"/>
<path d="M5.42857 10.8H7.2381V12.6H5.42857V10.8Z" fill="#3D3D75"/>
<path d="M32.5714 10.8H34.381V12.6H32.5714V10.8Z" fill="#3D3D75"/>
<path d="M7.2381 10.8H9.04762V12.6H7.2381V10.8Z" fill="#3D3D75"/>
<path d="M34.381 10.8H36.1905V12.6H34.381V10.8Z" fill="#3D3D75"/>
<path d="M36.1905 12.6H38V14.4H36.1905V12.6Z" fill="#3D3D75"/>
<path d="M36.1905 10.8H38V12.6H36.1905V10.8Z" fill="#3D3D75"/>
<path d="M34.381 14.4H36.1905V16.2H34.381V14.4Z" fill="#3D3D75"/>
<path d="M32.5714 16.2H34.381V18H32.5714V16.2Z" fill="#3D3D75"/>
<path d="M30.7619 18H32.5714V19.8H30.7619V18Z" fill="#3D3D75"/>
<path d="M28.9524 19.8H30.7619V21.6H28.9524V19.8Z" fill="#3D3D75"/>
<path d="M27.1429 21.6H28.9524V23.4H27.1429V21.6Z" fill="#3D3D75"/>
<path d="M27.1429 23.4H28.9524V25.2H27.1429V23.4Z" fill="#3D3D75"/>
<path d="M28.9524 25.2H30.7619V27H28.9524V25.2Z" fill="#3D3D75"/>
<path d="M28.9524 27H30.7619V28.8H28.9524V27Z" fill="#3D3D75"/>
<path d="M30.7619 28.8H32.5714V30.6H30.7619V28.8Z" fill="#3D3D75"/>
<path d="M32.5714 30.6H34.381V32.4H32.5714V30.6Z" fill="#3D3D75"/>
<path d="M32.5714 32.4H34.381V34.2H32.5714V32.4Z" fill="#3D3D75"/>
<path d="M30.7619 34.2H32.5714V36H30.7619V34.2Z" fill="#3D3D75"/>
<path d="M32.5714 34.2H34.381V36H32.5714V34.2Z" fill="#3D3D75"/>
<path d="M28.9524 34.2H30.7619V36H28.9524V34.2Z" fill="#3D3D75"/>
<path d="M27.1429 32.4H28.9524V34.2H27.1429V32.4Z" fill="#3D3D75"/>
<path d="M25.3333 32.4H27.1429V34.2H25.3333V32.4Z" fill="#3D3D75"/>
<path d="M23.5238 30.6H25.3333V32.4H23.5238V30.6Z" fill="#3D3D75"/>
<path d="M21.7143 30.6H23.5238V32.4H21.7143V30.6Z" fill="#3D3D75"/>
<path d="M19.9048 28.8H21.7143V30.6H19.9048V28.8Z" fill="#3D3D75"/>
<path d="M18.0952 28.8H19.9048V30.6H18.0952V28.8Z" fill="#3D3D75"/>
<path d="M16.2857 28.8H18.0952V30.6H16.2857V28.8Z" fill="#3D3D75"/>
<path d="M14.4762 30.6H16.2857V32.4H14.4762V30.6Z" fill="#3D3D75"/>
<path d="M12.6667 30.6H14.4762V32.4H12.6667V30.6Z" fill="#3D3D75"/>
<path d="M10.8571 32.4H12.6667V34.2H10.8571V32.4Z" fill="#3D3D75"/>
<path d="M9.04762 32.4H10.8571V34.2H9.04762V32.4Z" fill="#3D3D75"/>
<path d="M7.2381 34.2H9.04762V36H7.2381V34.2Z" fill="#3D3D75"/>
<path d="M5.42857 34.2H7.2381V36H5.42857V34.2Z" fill="#3D3D75"/>
<path d="M3.61905 34.2H5.42857V36H3.61905V34.2Z" fill="#3D3D75"/>
<path d="M3.61905 32.4H5.42857V34.2H3.61905V32.4Z" fill="#3D3D75"/>
<path d="M3.61905 30.6H5.42857V32.4H3.61905V30.6Z" fill="#3D3D75"/>
<path d="M5.42857 28.8H7.2381V30.6H5.42857V28.8Z" fill="#3D3D75"/>
<path d="M7.2381 27H9.04762V28.8H7.2381V27Z" fill="#3D3D75"/>
<path d="M7.2381 25.2H9.04762V27H7.2381V25.2Z" fill="#3D3D75"/>
<path d="M9.04762 23.4H10.8571V25.2H9.04762V23.4Z" fill="#3D3D75"/>
<path d="M9.04762 21.6H10.8571V23.4H9.04762V21.6Z" fill="#3D3D75"/>
<path d="M7.2381 19.8H9.04762V21.6H7.2381V19.8Z" fill="#3D3D75"/>
<path d="M5.42857 18H7.2381V19.8H5.42857V18Z" fill="#3D3D75"/>
<path d="M3.61905 16.2H5.42857V18H3.61905V16.2Z" fill="#3D3D75"/>
<path d="M1.80952 14.4H3.61905V16.2H1.80952V14.4Z" fill="#3D3D75"/>
<path d="M0 12.6H1.80952V14.4H0V12.6Z" fill="#3D3D75"/>
<path d="M0 10.8H1.80952V12.6H0V10.8Z" fill="#3D3D75"/>
<path d="M9.04762 10.8H10.8571V12.6H9.04762V10.8Z" fill="#3D3D75"/>
<path d="M10.8571 10.8H12.6667V12.6H10.8571V10.8Z" fill="#3D3D75"/>
<path d="M12.6667 9H14.4762V10.8H12.6667V9Z" fill="#3D3D75"/>
<path d="M12.6667 7.2H14.4762V9H12.6667V7.2Z" fill="#3D3D75"/>
<path d="M14.4762 5.4H16.2857V7.2H14.4762V5.4Z" fill="#3D3D75"/>
<path d="M14.4762 3.6H16.2857V5.4H14.4762V3.6Z" fill="#3D3D75"/>
<path d="M16.2857 1.8H18.0952V3.6H16.2857V1.8Z" fill="#3D3D75"/>
<path d="M18.0952 0H19.9048V1.8H18.0952V0Z" fill="#3D3D75"/>
<path d="M19.9048 1.8H21.7143V3.6H19.9048V1.8Z" fill="#3D3D75"/>
<path d="M21.7143 3.6H23.5238V5.4H21.7143V3.6Z" fill="#3D3D75"/>
<path d="M21.7143 5.4H23.5238V7.2H21.7143V5.4Z" fill="#3D3D75"/>
<path d="M23.5238 7.2H25.3333V9H23.5238V7.2Z" fill="#3D3D75"/>
<path d="M23.5238 9H25.3333V10.8H23.5238V9Z" fill="#3D3D75"/>
<path d="M25.3333 10.8H27.1429V12.6H25.3333V10.8Z" fill="#3D3D75"/>
<path d="M27.1429 10.8H28.9524V12.6H27.1429V10.8Z" fill="#3D3D75"/>
<path d="M18.0952 1.8H19.9048V3.6H18.0952V1.8Z" fill="#FFCA69"/>
<path d="M18.0952 3.6H19.9048V5.4H18.0952V3.6Z" fill="#FFCA69"/>
<path d="M16.2857 7.2H18.0952V9H16.2857V7.2Z" fill="#FFCA69"/>
<path d="M19.9048 7.2H21.7143V9H19.9048V7.2Z" fill="#FFCA69"/>
<path d="M18.0952 5.4H19.9048V7.2H18.0952V5.4Z" fill="#FFCA69"/>
<path d="M16.2857 9H18.0952V10.8H16.2857V9Z" fill="#FFFAF3"/>
<path d="M14.4762 10.8H16.2857V12.6H14.4762V10.8Z" fill="#FFCA69"/>
<path d="M14.4762 12.6H16.2857V14.4H14.4762V12.6Z" fill="#FFFAF3"/>
<path d="M14.4762 14.4H16.2857V16.2H14.4762V14.4Z" fill="#FFCA69"/>
<path d="M14.4762 16.2H16.2857V18H14.4762V16.2Z" fill="#FFCA69"/>
<path d="M14.4762 18H16.2857V19.8H14.4762V18Z" fill="#FFCA69"/>
<path d="M12.6667 19.8H14.4762V21.6H12.6667V19.8Z" fill="#FFCA69"/>
<path d="M3.61905 12.6H5.42857V14.4H3.61905V12.6Z" fill="#FFCA69"/>
<path d="M1.80952 12.6H3.61905V14.4H1.80952V12.6Z" fill="#FFCA69"/>
<path d="M25.3333 12.6H27.1429V14.4H25.3333V12.6Z" fill="#FFCA69"/>
<path d="M25.3333 14.4H27.1429V16.2H25.3333V14.4Z" fill="#FFCA69"/>
<path d="M25.3333 16.2H27.1429V18H25.3333V16.2Z" fill="#FFCA69"/>
<path d="M25.3333 18H27.1429V19.8H25.3333V18Z" fill="#FFCA69"/>
<path d="M23.5238 19.8H25.3333V21.6H23.5238V19.8Z" fill="#FFCA69"/>
<path d="M25.3333 19.8H27.1429V21.6H25.3333V19.8Z" fill="#FFCA69"/>
<path d="M19.9048 9H21.7143V10.8H19.9048V9Z" fill="#FFCA69"/>
<path d="M21.7143 10.8H23.5238V12.6H21.7143V10.8Z" fill="#FFCA69"/>
<path d="M21.7143 12.6H23.5238V14.4H21.7143V12.6Z" fill="#FFCA69"/>
<path d="M21.7143 14.4H23.5238V16.2H21.7143V14.4Z" fill="#FFCA69"/>
<path d="M21.7143 16.2H23.5238V18H21.7143V16.2Z" fill="#FFCA69"/>
<path d="M21.7143 18H23.5238V19.8H21.7143V18Z" fill="#FFCA69"/>
<path d="M19.9048 19.8H21.7143V21.6H19.9048V19.8Z" fill="#FFCA69"/>
<path d="M10.8571 12.6H12.6667V14.4H10.8571V12.6Z" fill="#FFCA69"/>
<path d="M10.8571 14.4H12.6667V16.2H10.8571V14.4Z" fill="#FFCA69"/>
<path d="M10.8571 16.2H12.6667V18H10.8571V16.2Z" fill="#FFCA69"/>
<path d="M10.8571 18H12.6667V19.8H10.8571V18Z" fill="#FFCA69"/>
<path d="M9.04762 19.8H10.8571V21.6H9.04762V19.8Z" fill="#FFCA69"/>
<path d="M32.5714 12.6H34.381V14.4H32.5714V12.6Z" fill="#FFCA69"/>
<path d="M34.381 12.6H36.1905V14.4H34.381V12.6Z" fill="#FFCA69"/>
<path d="M18.0952 10.8H19.9048V12.6H18.0952V10.8Z" fill="#FFCA69"/>
<path d="M18.0952 12.6H19.9048V14.4H18.0952V12.6Z" fill="#FFCA69"/>
<path d="M18.0952 14.4H19.9048V16.2H18.0952V14.4Z" fill="#FFCA69"/>
<path d="M18.0952 16.2H19.9048V18H18.0952V16.2Z" fill="#FFCA69"/>
<path d="M18.0952 18H19.9048V19.8H18.0952V18Z" fill="#FFCA69"/>
<path d="M16.2857 19.8H18.0952V21.6H16.2857V19.8Z" fill="#FFCA69"/>
<path d="M7.2381 12.6H9.04762V14.4H7.2381V12.6Z" fill="#FFCA69"/>
<path d="M7.2381 14.4H9.04762V16.2H7.2381V14.4Z" fill="#FFCA69"/>
<path d="M7.2381 16.2H9.04762V18H7.2381V16.2Z" fill="#FFCA69"/>
<path d="M28.9524 12.6H30.7619V14.4H28.9524V12.6Z" fill="#FFCA69"/>
<path d="M28.9524 14.4H30.7619V16.2H28.9524V14.4Z" fill="#FFCA69"/>
<path d="M28.9524 16.2H30.7619V18H28.9524V16.2Z" fill="#FFCA69"/>
<path d="M16.2857 3.6H18.0952V5.4H16.2857V3.6Z" fill="#FFCA69"/>
<path d="M14.4762 7.2H16.2857V9H14.4762V7.2Z" fill="#FFCA69"/>
<path d="M16.2857 5.4H18.0952V7.2H16.2857V5.4Z" fill="#FFCA69"/>
<path d="M14.4762 9H16.2857V10.8H14.4762V9Z" fill="#FFCA69"/>
<path d="M12.6667 10.8H14.4762V12.6H12.6667V10.8Z" fill="#FFCA69"/>
<path d="M3.61905 14.4H5.42857V16.2H3.61905V14.4Z" fill="#FFCA69"/>
<path d="M5.42857 16.2H7.2381V18H5.42857V16.2Z" fill="#FFCA69"/>
<path d="M7.2381 18H9.04762V19.8H7.2381V18Z" fill="#FFCA69"/>
<path d="M10.8571 21.6H12.6667V23.4H10.8571V21.6Z" fill="#FFCA69"/>
<path d="M25.3333 21.6H27.1429V23.4H25.3333V21.6Z" fill="#FFCA69"/>
<path d="M25.3333 23.4H27.1429V25.2H25.3333V23.4Z" fill="#FFCA69"/>
<path d="M27.1429 25.2H28.9524V27H27.1429V25.2Z" fill="#FFCA69"/>
<path d="M27.1429 27H28.9524V28.8H27.1429V27Z" fill="#FFCA69"/>
<path d="M27.1429 28.8H28.9524V30.6H27.1429V28.8Z" fill="#FFCA69"/>
<path d="M28.9524 28.8H30.7619V30.6H28.9524V28.8Z" fill="#FFCA69"/>
<path d="M28.9524 30.6H30.7619V32.4H28.9524V30.6Z" fill="#FFCA69"/>
<path d="M30.7619 30.6H32.5714V32.4H30.7619V30.6Z" fill="#FFCA69"/>
<path d="M28.9524 32.4H30.7619V34.2H28.9524V32.4Z" fill="#FFCA69"/>
<path d="M30.7619 32.4H32.5714V34.2H30.7619V32.4Z" fill="#FFCA69"/>
<path d="M25.3333 30.6H27.1429V32.4H25.3333V30.6Z" fill="#FFCA69"/>
<path d="M23.5238 27H25.3333V28.8H23.5238V27Z" fill="#FFCA69"/>
<path d="M23.5238 28.8H25.3333V30.6H23.5238V28.8Z" fill="#FFCA69"/>
<path d="M23.5238 25.2H25.3333V27H23.5238V25.2Z" fill="#FFCA69"/>
<path d="M23.5238 23.4H25.3333V25.2H23.5238V23.4Z" fill="#FFCA69"/>
<path d="M23.5238 21.6H25.3333V23.4H23.5238V21.6Z" fill="#FFCA69"/>
<path d="M12.6667 25.2H14.4762V27H12.6667V25.2Z" fill="#FFCA69"/>
<path d="M12.6667 23.4H14.4762V25.2H12.6667V23.4Z" fill="#FFCA69"/>
<path d="M12.6667 21.6H14.4762V23.4H12.6667V21.6Z" fill="#FFCA69"/>
<path d="M25.3333 27H27.1429V28.8H25.3333V27Z" fill="#FFCA69"/>
<path d="M25.3333 28.8H27.1429V30.6H25.3333V28.8Z" fill="#FFCA69"/>
<path d="M25.3333 25.2H27.1429V27H25.3333V25.2Z" fill="#FFCA69"/>
<path d="M14.4762 25.2H16.2857V27H14.4762V25.2Z" fill="#FFCA69"/>
<path d="M14.4762 23.4H16.2857V25.2H14.4762V23.4Z" fill="#FFCA69"/>
<path d="M14.4762 21.6H16.2857V23.4H14.4762V21.6Z" fill="#FFCA69"/>
<path d="M21.7143 27H23.5238V28.8H21.7143V27Z" fill="#FFCA69"/>
<path d="M21.7143 28.8H23.5238V30.6H21.7143V28.8Z" fill="#FFCA69"/>
<path d="M21.7143 25.2H23.5238V27H21.7143V25.2Z" fill="#FFCA69"/>
<path d="M21.7143 23.4H23.5238V25.2H21.7143V23.4Z" fill="#FFCA69"/>
<path d="M21.7143 21.6H23.5238V23.4H21.7143V21.6Z" fill="#FFCA69"/>
<path d="M10.8571 25.2H12.6667V27H10.8571V25.2Z" fill="#FFCA69"/>
<path d="M27.1429 30.6H28.9524V32.4H27.1429V30.6Z" fill="#FFCA69"/>
<path d="M10.8571 23.4H12.6667V25.2H10.8571V23.4Z" fill="#FFCA69"/>
<path d="M9.04762 25.2H10.8571V27H9.04762V25.2Z" fill="#FFCA69"/>
<path d="M9.04762 27H10.8571V28.8H9.04762V27Z" fill="#FFCA69"/>
<path d="M9.04762 28.8H10.8571V30.6H9.04762V28.8Z" fill="#FFCA69"/>
<path d="M7.2381 28.8H9.04762V30.6H7.2381V28.8Z" fill="#FFCA69"/>
<path d="M7.2381 30.6H9.04762V32.4H7.2381V30.6Z" fill="#FFCA69"/>
<path d="M5.42857 30.6H7.2381V32.4H5.42857V30.6Z" fill="#FFCA69"/>
<path d="M7.2381 32.4H9.04762V34.2H7.2381V32.4Z" fill="#FFCA69"/>
<path d="M5.42857 32.4H7.2381V34.2H5.42857V32.4Z" fill="#FFCA69"/>
<path d="M10.8571 30.6H12.6667V32.4H10.8571V30.6Z" fill="#FFCA69"/>
<path d="M12.6667 27H14.4762V28.8H12.6667V27Z" fill="#FFCA69"/>
<path d="M12.6667 28.8H14.4762V30.6H12.6667V28.8Z" fill="#FFCA69"/>
<path d="M10.8571 27H12.6667V28.8H10.8571V27Z" fill="#FFCA69"/>
<path d="M10.8571 28.8H12.6667V30.6H10.8571V28.8Z" fill="#FFCA69"/>
<path d="M14.4762 27H16.2857V28.8H14.4762V27Z" fill="#FFCA69"/>
<path d="M14.4762 28.8H16.2857V30.6H14.4762V28.8Z" fill="#FFCA69"/>
<path d="M16.2857 25.2H18.0952V27H16.2857V25.2Z" fill="#FFCA69"/>
<path d="M16.2857 27H18.0952V28.8H16.2857V27Z" fill="#FFCA69"/>
<path d="M16.2857 23.4H18.0952V25.2H16.2857V23.4Z" fill="#FFCA69"/>
<path d="M16.2857 21.6H18.0952V23.4H16.2857V21.6Z" fill="#FFCA69"/>
<path d="M18.0952 25.2H19.9048V27H18.0952V25.2Z" fill="#FFCA69"/>
<path d="M18.0952 27H19.9048V28.8H18.0952V27Z" fill="#FFCA69"/>
<path d="M18.0952 23.4H19.9048V25.2H18.0952V23.4Z" fill="#FFCA69"/>
<path d="M18.0952 21.6H19.9048V23.4H18.0952V21.6Z" fill="#FFCA69"/>
<path d="M19.9048 25.2H21.7143V27H19.9048V25.2Z" fill="#FFCA69"/>
<path d="M19.9048 27H21.7143V28.8H19.9048V27Z" fill="#FFCA69"/>
<path d="M19.9048 23.4H21.7143V25.2H19.9048V23.4Z" fill="#FFCA69"/>
<path d="M19.9048 21.6H21.7143V23.4H19.9048V21.6Z" fill="#FFCA69"/>
<path d="M9.04762 30.6H10.8571V32.4H9.04762V30.6Z" fill="#FFCA69"/>
<path d="M23.5238 12.6H25.3333V14.4H23.5238V12.6Z" fill="#FFCA69"/>
<path d="M23.5238 14.4H25.3333V16.2H23.5238V14.4Z" fill="#FFCA69"/>
<path d="M23.5238 16.2H25.3333V18H23.5238V16.2Z" fill="#FFCA69"/>
<path d="M23.5238 18H25.3333V19.8H23.5238V18Z" fill="#FFCA69"/>
<path d="M21.7143 19.8H23.5238V21.6H21.7143V19.8Z" fill="#FFCA69"/>
<path d="M19.9048 3.6H21.7143V5.4H19.9048V3.6Z" fill="#FFCA69"/>
<path d="M18.0952 7.2H19.9048V9H18.0952V7.2Z" fill="#FFCA69"/>
<path d="M21.7143 7.2H23.5238V9H21.7143V7.2Z" fill="#FFCA69"/>
<path d="M19.9048 5.4H21.7143V7.2H19.9048V5.4Z" fill="#FFCA69"/>
<path d="M18.0952 9H19.9048V10.8H18.0952V9Z" fill="#FFCA69"/>
<path d="M16.2857 10.8H18.0952V12.6H16.2857V10.8Z" fill="#FFFAF3"/>
<path d="M16.2857 12.6H18.0952V14.4H16.2857V12.6Z" fill="#FFFAF3"/>
<path d="M16.2857 14.4H18.0952V16.2H16.2857V14.4Z" fill="#FFCA69"/>
<path d="M16.2857 16.2H18.0952V18H16.2857V16.2Z" fill="#FFCA69"/>
<path d="M16.2857 18H18.0952V19.8H16.2857V18Z" fill="#FFCA69"/>
<path d="M14.4762 19.8H16.2857V21.6H14.4762V19.8Z" fill="#FFCA69"/>
<path d="M5.42857 12.6H7.2381V14.4H5.42857V12.6Z" fill="#FFCA69"/>
<path d="M5.42857 14.4H7.2381V16.2H5.42857V14.4Z" fill="#FFCA69"/>
<path d="M27.1429 12.6H28.9524V14.4H27.1429V12.6Z" fill="#FFCA69"/>
<path d="M27.1429 14.4H28.9524V16.2H27.1429V14.4Z" fill="#FFCA69"/>
<path d="M27.1429 16.2H28.9524V18H27.1429V16.2Z" fill="#FFCA69"/>
<path d="M27.1429 18H28.9524V19.8H27.1429V18Z" fill="#FFCA69"/>
<path d="M21.7143 9H23.5238V10.8H21.7143V9Z" fill="#FFCA69"/>
<path d="M23.5238 10.8H25.3333V12.6H23.5238V10.8Z" fill="#FFCA69"/>
<path d="M12.6667 12.6H14.4762V14.4H12.6667V12.6Z" fill="#FFCA69"/>
<path d="M12.6667 14.4H14.4762V16.2H12.6667V14.4Z" fill="#FFFAF3"/>
<path d="M12.6667 16.2H14.4762V18H12.6667V16.2Z" fill="#FFCA69"/>
<path d="M12.6667 18H14.4762V19.8H12.6667V18Z" fill="#FFCA69"/>
<path d="M10.8571 19.8H12.6667V21.6H10.8571V19.8Z" fill="#FFCA69"/>
<path d="M32.5714 14.4H34.381V16.2H32.5714V14.4Z" fill="#FFCA69"/>
<path d="M30.7619 16.2H32.5714V18H30.7619V16.2Z" fill="#FFCA69"/>
<path d="M28.9524 18H30.7619V19.8H28.9524V18Z" fill="#FFCA69"/>
<path d="M27.1429 19.8H28.9524V21.6H27.1429V19.8Z" fill="#FFCA69"/>
<path d="M19.9048 10.8H21.7143V12.6H19.9048V10.8Z" fill="#FFCA69"/>
<path d="M19.9048 12.6H21.7143V14.4H19.9048V12.6Z" fill="#FFCA69"/>
<path d="M19.9048 14.4H21.7143V16.2H19.9048V14.4Z" fill="#FFCA69"/>
<path d="M19.9048 16.2H21.7143V18H19.9048V16.2Z" fill="#FFCA69"/>
<path d="M19.9048 18H21.7143V19.8H19.9048V18Z" fill="#FFCA69"/>
<path d="M18.0952 19.8H19.9048V21.6H18.0952V19.8Z" fill="#FFCA69"/>
<path d="M9.04762 12.6H10.8571V14.4H9.04762V12.6Z" fill="#FFCA69"/>
<path d="M9.04762 14.4H10.8571V16.2H9.04762V14.4Z" fill="#FFCA69"/>
<path d="M9.04762 16.2H10.8571V18H9.04762V16.2Z" fill="#FFCA69"/>
<path d="M9.04762 18H10.8571V19.8H9.04762V18Z" fill="#FFCA69"/>
<path d="M30.7619 12.6H32.5714V14.4H30.7619V12.6Z" fill="#FFCA69"/>
<path d="M30.7619 14.4H32.5714V16.2H30.7619V14.4Z" fill="#FFCA69"/>
</svg>
