<svg width="56" height="55" viewBox="0 0 56 55" fill="none" xmlns="http://www.w3.org/2000/svg">
<path fill-rule="evenodd" clip-rule="evenodd" d="M16.9117 0.341484C19.8314 0.208306 20.7623 0.178711 28.1997 0.178711C35.637 0.178711 36.568 0.210772 39.4852 0.341484C42.4024 0.472196 44.3936 0.933388 46.136 1.60175C47.9605 2.2849 49.6157 3.35279 50.9847 4.7339C52.3786 6.08788 53.4539 7.72548 54.1408 9.53572C54.8179 11.2621 55.2808 13.2351 55.4153 16.1206C55.5497 19.0185 55.5795 19.9409 55.5795 27.3076C55.5795 34.6768 55.5472 35.5992 55.4153 38.4921C55.2833 41.3777 54.8179 43.3507 54.1408 45.077C53.4538 46.8875 52.3768 48.5278 50.9847 49.8838C49.6157 51.2649 47.9605 52.3303 46.136 53.011C44.3936 53.6818 42.4024 54.1406 39.4901 54.2737C36.568 54.4069 35.637 54.4365 28.1997 54.4365C20.7623 54.4365 19.8314 54.4045 16.9117 54.2737C13.9995 54.143 12.0082 53.6818 10.2659 53.011C8.43869 52.3302 6.78321 51.2631 5.41466 49.8838C4.02172 48.529 2.94379 46.8895 2.25602 45.0795C1.58148 43.3531 1.11851 41.3801 0.984103 38.4946C0.849693 35.5967 0.819824 34.6743 0.819824 27.3076C0.819824 19.9384 0.852182 19.016 0.984103 16.1256C1.11602 13.2351 1.58148 11.2621 2.25602 9.53572C2.94481 7.72568 4.02356 6.08619 5.41715 4.73143C6.78375 3.35156 8.43758 2.28353 10.2634 1.60175C12.0057 0.933388 13.997 0.474663 16.9092 0.341484H16.9117ZM39.2636 5.22469C36.3763 5.09398 35.5101 5.06685 28.1997 5.06685C20.8893 5.06685 20.0231 5.09398 17.1357 5.22469C14.4649 5.34553 13.0163 5.787 12.0505 6.1594C10.7736 6.65265 9.86015 7.23716 8.90186 8.18667C7.99346 9.06232 7.29436 10.1283 6.85584 11.3065C6.47999 12.2634 6.03444 13.6988 5.91248 16.3451C5.78056 19.2059 5.75318 20.0642 5.75318 27.3076C5.75318 34.551 5.78056 35.4093 5.91248 38.2702C6.03444 40.9165 6.47999 42.3518 6.85584 43.3087C7.29391 44.4851 7.99335 45.553 8.90186 46.4286C9.78548 47.3287 10.8633 48.0218 12.0505 48.4558C13.0163 48.8282 14.4649 49.2697 17.1357 49.3905C20.0231 49.5213 20.8868 49.5484 28.1997 49.5484C35.5126 49.5484 36.3763 49.5213 39.2636 49.3905C41.9344 49.2697 43.3831 48.8282 44.3488 48.4558C45.6257 47.9626 46.5392 47.3781 47.4975 46.4286C48.406 45.553 49.1054 44.4851 49.5435 43.3087C49.9194 42.3518 50.3649 40.9165 50.4869 38.2702C50.6188 35.4093 50.6462 34.551 50.6462 27.3076C50.6462 20.0642 50.6188 19.2059 50.4869 16.3451C50.3649 13.6988 49.9194 12.2634 49.5435 11.3065C49.0457 10.0413 48.4558 9.13618 47.4975 8.18667C46.6137 7.28666 45.5379 6.59398 44.3488 6.1594C43.3831 5.787 41.9344 5.34553 39.2636 5.22469ZM24.7025 35.6707C26.6556 36.4763 28.8304 36.585 30.8553 35.9783C32.8803 35.3716 34.6299 34.0872 35.8053 32.3443C36.9807 30.6015 37.509 28.5084 37.2999 26.4225C37.0908 24.3366 36.1573 22.3874 34.6588 20.9077C33.7036 19.9618 32.5486 19.2375 31.277 18.787C30.0054 18.3365 28.6488 18.171 27.3048 18.3023C25.9609 18.4337 24.6631 18.8586 23.5048 19.5466C22.3465 20.2346 21.3566 21.1685 20.6063 22.281C19.8559 23.3936 19.3639 24.6571 19.1656 25.9807C18.9673 27.3042 19.0676 28.6549 19.4594 29.9355C19.8511 31.216 20.5246 32.3946 21.4312 33.3863C22.3378 34.378 23.4551 35.1582 24.7025 35.6707ZM18.2483 17.4475C19.5552 16.1526 21.1066 15.1255 22.8141 14.4247C24.5215 13.724 26.3515 13.3633 28.1997 13.3633C30.0478 13.3633 31.8778 13.724 33.5853 14.4247C35.2928 15.1255 36.8442 16.1526 38.151 17.4475C39.4578 18.7423 40.4945 20.2796 41.2017 21.9714C41.909 23.6632 42.273 25.4764 42.273 27.3076C42.273 29.1388 41.909 30.9521 41.2017 32.6439C40.4945 34.3357 39.4578 35.8729 38.151 37.1677C35.5118 39.7828 31.9322 41.2519 28.1997 41.2519C24.4672 41.2519 20.8876 39.7828 18.2483 37.1677C15.6091 34.5527 14.1264 31.0059 14.1264 27.3076C14.1264 23.6094 15.6091 20.0626 18.2483 17.4475ZM45.3942 15.44C45.7181 15.1373 45.9773 14.7733 46.1566 14.3695C46.336 13.9658 46.4317 13.5305 46.4382 13.0894C46.4447 12.6484 46.3618 12.2105 46.1944 11.8017C46.0271 11.393 45.7786 11.0217 45.4638 10.7098C45.149 10.3978 44.7743 10.1517 44.3617 9.98585C43.9492 9.82002 43.5073 9.73789 43.0621 9.74432C42.617 9.75075 42.1777 9.84561 41.7702 10.0233C41.3627 10.201 40.9954 10.4578 40.6899 10.7787C40.0958 11.4028 39.7705 12.2316 39.7831 13.0894C39.7957 13.9472 40.1452 14.7664 40.7575 15.373C41.3697 15.9796 42.1964 16.3259 43.0621 16.3384C43.9279 16.3509 44.7644 16.0286 45.3942 15.44Z" fill="#19123C"/>
</svg>
