<svg width="50" height="38" viewBox="0 0 50 38" fill="none" xmlns="http://www.w3.org/2000/svg">
<path d="M25.0698 18.8566L0.427979 6.30947V3.35435C0.427979 2.48235 0.732793 1.74761 1.34242 1.15013C1.95205 0.552647 2.67398 0.253906 3.50821 0.253906H46.6315C47.4657 0.253906 48.1876 0.552647 48.7973 1.15013C49.4069 1.74761 49.7117 2.48235 49.7117 3.35435V6.30947L25.0698 18.8566ZM23.5297 21.957H26.61L49.7117 9.89436V34.3588C49.7117 35.1985 49.4069 35.9252 48.7973 36.5388C48.1876 37.1525 47.4657 37.4593 46.6315 37.4593H3.50821C2.67398 37.4593 1.95205 37.1525 1.34242 36.5388C0.732793 35.9252 0.427979 35.1985 0.427979 34.3588V9.89436L23.5297 21.957Z" fill="#19123C"/>
</svg>
