<svg width="50" height="43" viewBox="0 0 50 43" fill="none" xmlns="http://www.w3.org/2000/svg">
<path d="M49.8914 5.26927C48.079 6.10575 46.1321 6.67093 44.0853 6.9264C46.1972 5.61018 47.7772 3.5386 48.5305 1.0982C46.5463 2.32576 44.3747 3.18983 42.1101 3.65284C40.5872 1.95924 38.5701 0.836694 36.372 0.459485C34.1738 0.082275 31.9176 0.471506 29.9536 1.56675C27.9895 2.66199 26.4276 4.40197 25.5103 6.51653C24.593 8.6311 24.3716 11.0019 24.8805 13.261C20.8601 13.0507 16.927 11.9623 13.3365 10.0664C9.74602 8.17039 6.57841 5.50928 4.03925 2.2557C3.17105 3.81562 2.67183 5.62421 2.67183 7.55036C2.67086 9.28434 3.08082 10.9918 3.86535 12.5211C4.64987 14.0505 5.7847 15.3545 7.16914 16.3175C5.56355 16.2643 3.9934 15.8124 2.58935 14.9995V15.1351C2.58919 17.5671 3.39685 19.9243 4.8753 21.8066C6.35375 23.6889 8.41191 24.9805 10.7006 25.4622C9.21112 25.8821 7.64955 25.9439 6.1338 25.6431C6.77952 27.7357 8.03733 29.5655 9.73114 30.8765C11.425 32.1875 13.47 32.914 15.5799 32.9543C11.9982 35.8829 7.57478 37.4715 3.02128 37.4645C2.21468 37.4647 1.40875 37.4157 0.607666 37.3176C5.22973 40.4129 10.6101 42.0557 16.1052 42.0493C34.7065 42.0493 44.8753 26.0025 44.8753 12.0854C44.8753 11.6333 44.8645 11.1766 44.845 10.7244C46.8229 9.23456 48.5303 7.38961 49.8871 5.27605L49.8914 5.26927Z" fill="#19123C"/>
</svg>
