<svg width="114" height="110" viewBox="0 0 114 110" fill="none" xmlns="http://www.w3.org/2000/svg">
<path d="M22.2748 106.821C25.2203 108.959 28.6399 109.99 32.0346 109.99C37.1435 109.99 42.1854 107.653 45.4303 103.262C45.4396 103.252 45.4484 103.243 45.4567 103.232C45.4645 103.222 45.4724 103.212 45.4797 103.201L45.4909 103.185C45.4988 103.175 45.5061 103.164 45.5135 103.154L56.9957 87.3766L68.4779 103.154C68.4891 103.171 68.5009 103.184 68.5121 103.199C68.5175 103.205 68.5224 103.212 68.5278 103.22C73.9362 110.581 84.3283 112.202 91.7251 106.83C99.1303 101.457 100.786 91.0692 95.4441 83.6508L95.4323 83.6322C95.4226 83.6166 95.4147 83.6048 95.4025 83.5926L83.9452 67.8069L102.508 61.7691C111.228 58.9331 116.02 49.5269 113.183 40.8105C110.346 32.0946 100.944 27.3041 92.2159 30.1319L73.6534 36.145L73.6451 16.6253C73.6363 7.46015 66.1729 0 57.004 0C47.835 0 40.3717 7.46015 40.3634 16.6337L40.3468 36.1367L21.784 30.1235C21.7766 30.1235 21.7677 30.1219 21.7587 30.1194C21.747 30.1162 21.735 30.1115 21.7256 30.1069C13.0142 27.3124 3.64544 32.1029 0.816528 40.8026C-2.01244 49.5019 2.7469 58.8749 11.425 61.7359C11.433 61.7383 11.4402 61.7413 11.4471 61.7442L11.4777 61.7559L11.4916 61.7608L30.046 67.7986L18.5888 83.5843C18.5847 83.5926 18.5785 83.6009 18.5723 83.6092C18.566 83.6176 18.5598 83.6259 18.5556 83.6342C13.2056 91.0526 14.8697 101.449 22.2748 106.821Z" fill="#86E9DA"/>
</svg>
