<svg width="114" height="114" viewBox="0 0 114 114" fill="none" xmlns="http://www.w3.org/2000/svg">
<path d="M12.4941 100.031C15.0476 102.624 18.2508 104.204 21.5992 104.763C26.6384 105.604 31.9962 104.129 35.9197 100.331C35.9304 100.324 35.9407 100.315 35.9506 100.307C35.96 100.298 35.9694 100.289 35.9783 100.28L35.9921 100.266C36.0016 100.257 36.0106 100.247 36.0195 100.238L49.9421 86.5667L58.6707 104.019C58.679 104.037 58.6884 104.052 58.6971 104.069C58.7013 104.076 58.705 104.084 58.709 104.092C62.832 112.243 72.8154 115.553 80.9957 111.471C89.1842 107.391 92.5272 97.4172 88.4794 89.2207L88.4708 89.2004C88.4638 89.1834 88.458 89.1705 88.4479 89.1564L79.7454 71.7001L99.049 68.8003C108.117 67.4383 114.392 58.9493 113.028 49.8847C111.665 40.8208 103.179 34.5479 94.1049 35.9004L74.8058 38.776L78.0107 19.5212C79.5107 10.4796 73.3772 1.89267 64.3333 0.383379C55.2895 -1.12591 46.6999 5.00394 45.1817 14.0509L41.9549 33.2852L24.6351 24.2984C24.6279 24.2972 24.6193 24.2942 24.6109 24.2902C24.5998 24.2852 24.5888 24.2785 24.5803 24.2724C16.4477 20.0821 6.41822 23.265 2.19583 31.3805C-2.02652 39.4954 1.12501 49.5239 9.2138 53.7744C9.22131 53.7781 9.22792 53.7822 9.23424 53.7862L9.26247 53.8028L9.27542 53.81L26.5828 62.8196L12.6834 76.504C12.678 76.5115 12.6705 76.5187 12.663 76.5259C12.6554 76.533 12.648 76.5402 12.6425 76.5477C6.14427 82.9843 6.07436 93.5126 12.4941 100.031Z" fill="#7676E8"/>
</svg>
