<svg width="111" height="115" viewBox="0 0 111 115" fill="none" xmlns="http://www.w3.org/2000/svg">
<path d="M41.7072 113.23C45.175 114.334 48.7456 114.238 51.9684 113.172C56.8186 111.567 60.8711 107.764 62.5719 102.576C62.5778 102.564 62.5831 102.552 62.5877 102.539C62.592 102.527 62.5962 102.515 62.5999 102.503L62.6055 102.484C62.6096 102.471 62.6132 102.459 62.6169 102.447L68.5611 83.8614L84.4186 95.2321C84.4346 95.2448 84.4499 95.2536 84.4652 95.264C84.4725 95.2688 84.4793 95.2738 84.4868 95.2795C91.9339 100.568 102.309 98.843 107.644 91.4183C112.986 83.9914 111.294 73.6093 103.892 68.2448L103.875 68.2308C103.861 68.2191 103.85 68.2104 103.834 68.2026L87.9978 56.8157L103.724 45.2517C111.111 39.8198 112.706 29.3842 107.274 22.0005C101.842 14.6172 91.411 13.0232 84.0132 18.4499L68.2798 29.9904L62.1394 11.4617C59.2516 2.76337 49.8223 -1.97426 41.1177 0.906363C32.413 3.78699 27.6713 13.2142 30.5455 21.9258L36.657 40.4466L17.1449 40.5698C17.1379 40.5721 17.1289 40.5733 17.1196 40.5738C17.1075 40.5745 17.0947 40.5738 17.0843 40.5723C7.93605 40.6562 0.546689 48.1475 0.594237 57.2955C0.641586 66.4431 8.10467 73.8463 17.2422 73.836C17.2506 73.8358 17.2583 73.8363 17.2658 73.8369L17.2985 73.8384L17.3133 73.8387L36.8251 73.7415L30.9075 92.3274C30.9061 92.3366 30.9029 92.3465 30.8996 92.3563C30.8962 92.3662 30.893 92.376 30.8916 92.3852C28.1431 101.109 32.9891 110.456 41.7072 113.23Z" fill="#FC6D83"/>
</svg>
