<svg width="265" height="190" viewBox="0 0 265 190" fill="none" xmlns="http://www.w3.org/2000/svg">
<ellipse cx="132.451" cy="123.666" rx="88.9829" ry="79.1746" transform="rotate(-180 132.451 123.666)" fill="#5B5BA9"/>
<ellipse cx="132.451" cy="139.19" rx="88.9829" ry="79.1746" transform="rotate(-180 132.451 139.19)" fill="#ADB4F9"/>
<path d="M59.8502 184.98C52.9291 176.307 47.9214 166.342 45.3748 155.569L63.2846 151.335C62.3595 147.422 61.872 143.364 61.872 139.19C61.872 135.017 62.3595 130.959 63.2846 127.046L45.3748 122.812C47.9214 112.039 52.9291 102.074 59.8502 93.4014L74.2344 104.881C79.4235 98.379 86.1139 92.6906 93.9822 88.2633L84.9576 72.2245C94.276 66.9813 104.764 63.2355 115.996 61.367L119.016 79.521C123.352 78.7996 127.842 78.4193 132.451 78.4193C137.06 78.4193 141.551 78.7996 145.887 79.521L148.907 61.367C160.138 63.2355 170.627 66.9813 179.945 72.2245L170.921 88.2633C178.789 92.6906 185.479 98.379 190.669 104.881L205.053 93.4014C211.974 102.074 216.981 112.039 219.528 122.812L201.618 127.046C202.543 130.959 203.031 135.017 203.031 139.19C203.031 143.364 202.543 147.422 201.618 151.335L219.528 155.569C216.981 166.342 211.974 176.307 205.053 184.98L190.669 173.5C185.479 180.002 178.789 185.69 170.921 190.118L179.945 206.156C170.627 211.4 160.138 215.145 148.907 217.014L145.887 198.86C141.551 199.581 137.06 199.962 132.451 199.962C127.842 199.962 123.352 199.581 119.016 198.86L115.996 217.014C104.764 215.145 94.276 211.4 84.9576 206.156L93.9822 190.118C86.1139 185.69 79.4235 180.002 74.2343 173.5L59.8502 184.98Z" stroke="white" stroke-width="36.8069" stroke-linejoin="round" stroke-dasharray="42.07 42.07"/>
<path d="M73.8119 154.825C72.4269 151.423 71.4673 147.861 70.9853 144.181L74.8955 143.669C74.6807 142.028 74.5703 140.362 74.5703 138.673C74.5703 136.984 74.6807 135.318 74.8955 133.678L70.9853 133.165C71.4673 129.485 72.4269 125.923 73.8119 122.521L77.4643 124.009C78.7202 120.925 80.366 117.97 82.3631 115.187L79.1589 112.888C81.2721 109.943 83.7363 107.189 86.5039 104.666L89.1607 107.581C91.644 105.317 94.4 103.244 97.3917 101.398L95.3211 98.0417C98.3947 96.1455 101.691 94.4809 105.171 93.0792L106.644 96.7372C109.799 95.4666 113.12 94.4231 116.576 93.635L115.699 89.7901C119.22 88.9872 122.868 88.4359 126.612 88.1613L126.9 92.0944C128.623 91.968 130.368 91.9034 132.132 91.9034C133.896 91.9034 135.641 91.968 137.364 92.0944L137.652 88.1613C141.396 88.4359 145.044 88.9872 148.565 89.7901L147.688 93.635C151.144 94.4231 154.465 95.4666 157.62 96.7372L159.093 93.0792C162.573 94.4809 165.869 96.1455 168.943 98.0417L166.872 101.398C169.864 103.244 172.62 105.317 175.103 107.581L177.76 104.666C180.528 107.189 182.992 109.943 185.105 112.888L181.901 115.187C183.898 117.97 185.544 120.925 186.8 124.009L190.452 122.521C191.837 125.923 192.797 129.485 193.279 133.165L189.368 133.678C189.583 135.318 189.694 136.984 189.694 138.673C189.694 140.362 189.583 142.028 189.368 143.668L193.279 144.181C192.797 147.861 191.837 151.423 190.452 154.825L186.8 153.337C185.544 156.422 183.898 159.376 181.901 162.159L185.105 164.458C182.992 167.403 180.528 170.157 177.76 172.68L175.103 169.765C172.62 172.029 169.864 174.102 166.872 175.948L168.943 179.304C165.869 181.2 162.573 182.865 159.093 184.267L157.62 180.609C154.465 181.879 151.144 182.923 147.688 183.711L148.565 187.556C145.044 188.359 141.396 188.91 137.652 189.185L137.364 185.252C135.641 185.378 133.896 185.443 132.132 185.443C130.368 185.443 128.623 185.378 126.9 185.252L126.612 189.185C122.868 188.91 119.22 188.359 115.699 187.556L116.576 183.711C113.12 182.923 109.799 181.879 106.644 180.609L105.171 184.267C101.691 182.865 98.3947 181.2 95.3211 179.304L97.3917 175.948C94.4 174.102 91.644 172.029 89.1607 169.765L86.5039 172.68C83.7363 170.157 81.2721 167.403 79.1589 164.458L82.3631 162.159C80.366 159.376 78.7202 156.422 77.4643 153.337L73.8119 154.825Z" stroke="white" stroke-width="7.8872" stroke-linejoin="bevel" stroke-dasharray="10.52 10.52"/>
</svg>
