<svg width="395" height="316" viewBox="0 0 395 316" fill="none" xmlns="http://www.w3.org/2000/svg">
<path d="M310.843 146.496C377.807 185.158 377.807 247.842 310.843 286.503C243.879 325.165 135.308 325.165 68.3434 286.503C1.37901 247.841 1.37901 185.158 68.3434 146.496C135.308 107.834 243.879 107.834 310.843 146.496Z" fill="#FFC4BC"/>
<path d="M310.843 146.496C377.807 185.158 377.807 247.842 310.843 286.503C243.879 325.165 135.308 325.165 68.3434 286.503C1.37901 247.841 1.37901 185.158 68.3434 146.496C135.308 107.834 243.879 107.834 310.843 146.496Z" fill="#FFC4BC"/>
<path fill-rule="evenodd" clip-rule="evenodd" d="M83.1201 152.865L217.12 75.4998L351.12 152.865V185.293L217.12 107.928L83.1201 185.293V152.865Z" fill="#BB8D60"/>
<path fill-rule="evenodd" clip-rule="evenodd" d="M351.12 152.865L217.12 230.23L83.1201 152.865V185.293L217.12 262.658L351.12 185.293V152.865Z" fill="#BB8D60" stroke="black" stroke-linejoin="round"/>
<path d="M217.12 229.652L84.1201 152.865L217.12 76.0771L350.12 152.865L217.12 229.652Z" fill="white" stroke="#E0AF80"/>
<path fill-rule="evenodd" clip-rule="evenodd" d="M68 115.814L217.5 29.4998L367 115.814V151.993L217.5 65.6792L68 151.993V115.814Z" fill="#E0AF80"/>
<path fill-rule="evenodd" clip-rule="evenodd" d="M367 115.814L217.5 202.128L68 115.814V151.993L217.5 238.307L367 151.993V115.814Z" fill="#E0AF80" stroke="black" stroke-width="1.11567" stroke-linejoin="round"/>
<path d="M217.5 201.483L69.1157 115.814L217.5 30.1439L365.884 115.814L217.5 201.483Z" fill="#FFF1E3" stroke="black" stroke-width="1.11567"/>
<path fill-rule="evenodd" clip-rule="evenodd" d="M151.352 124.152C153.744 125.533 155.335 128.654 154.907 131.124L152.946 142.437L167.726 150.97L169.687 139.657C170.115 137.187 172.401 136.304 174.792 137.685C177.183 139.066 178.775 142.187 178.347 144.657L175.613 160.431L175.611 160.442L175.609 160.453L171.451 184.448L167.292 208.444L167.29 208.454L167.288 208.464L163.129 232.46L158.969 256.466L156.29 271.922C155.862 274.392 153.576 275.275 151.185 273.894C148.793 272.514 147.202 269.392 147.63 266.922L149.533 255.938L134.754 247.405L132.85 258.389C132.422 260.859 130.136 261.742 127.745 260.361C125.353 258.981 123.762 255.859 124.19 253.389L126.866 237.948C126.867 237.943 126.868 237.938 126.868 237.933C126.869 237.928 126.87 237.923 126.871 237.918L131.027 213.939L131.029 213.927L131.031 213.915L135.189 189.928L135.19 189.921L135.191 189.914L139.348 165.928L139.35 165.915L139.353 165.902L143.511 141.911L143.511 141.909L143.512 141.907L146.247 126.124C146.675 123.654 148.961 122.771 151.352 124.152ZM136.304 238.461L151.083 246.994L153.694 231.932L138.914 223.399L136.304 238.461ZM157.855 207.926L155.244 222.988L140.464 214.455L143.075 199.393L157.855 207.926ZM144.625 190.449L159.405 198.982L162.015 183.92L147.236 175.387L144.625 190.449ZM166.176 159.914L163.565 174.976L148.786 166.443L151.396 151.381L166.176 159.914Z" fill="#19123C"/>
<path fill-rule="evenodd" clip-rule="evenodd" d="M151.352 124.152C153.744 125.533 155.335 128.654 154.907 131.124L152.946 142.437L167.726 150.97L169.687 139.657C170.115 137.187 172.401 136.304 174.792 137.685C177.183 139.066 178.775 142.187 178.347 144.657L175.613 160.431L175.611 160.442L175.609 160.453L171.451 184.448L167.292 208.444L167.29 208.454L167.288 208.464L163.129 232.46L158.969 256.466L156.29 271.922C155.862 274.392 153.576 275.275 151.185 273.894C148.793 272.514 147.202 269.392 147.63 266.922L149.533 255.938L134.754 247.405L132.85 258.389C132.422 260.859 130.136 261.742 127.745 260.361C125.353 258.981 123.762 255.859 124.19 253.389L126.866 237.948C126.867 237.943 126.868 237.938 126.868 237.933C126.869 237.928 126.87 237.923 126.871 237.918L131.027 213.939L131.029 213.927L131.031 213.915L135.189 189.928L135.19 189.921L135.191 189.914L139.348 165.928L139.35 165.915L139.353 165.902L143.511 141.911L143.511 141.909L143.512 141.907L146.247 126.124C146.675 123.654 148.961 122.771 151.352 124.152ZM136.304 238.461L151.083 246.994L153.694 231.932L138.914 223.399L136.304 238.461ZM157.855 207.926L155.244 222.988L140.464 214.455L143.075 199.393L157.855 207.926ZM144.625 190.449L159.405 198.982L162.015 183.92L147.236 175.387L144.625 190.449ZM166.176 159.914L163.565 174.976L148.786 166.443L151.396 151.381L166.176 159.914Z" fill="#19123C"/>
<path d="M54.2229 235.347L54.2881 235.105L54.223 235.347C54.9014 235.53 55.3855 235.903 55.5758 236.262C55.6686 236.437 55.6867 236.596 55.6458 236.734C55.605 236.871 55.4935 237.024 55.252 237.164L43.4539 243.976C43.1454 244.154 42.7254 244.25 42.2918 244.25C41.8583 244.25 41.4382 244.154 41.1298 243.976L29.7313 237.395C29.0848 237.021 28.1763 236.983 27.3691 237.131C26.5667 237.279 25.7747 237.628 25.3859 238.127L25.3859 238.127C24.9077 238.74 24.2254 239.323 23.3322 239.839C21.3531 240.981 18.7436 241.56 16.1205 241.56C13.4975 241.56 10.888 240.981 8.90899 239.839C6.92858 238.695 5.99504 237.232 5.99503 235.82C5.99502 234.407 6.92854 232.944 8.90902 231.8C9.8021 231.285 10.8247 230.883 11.921 230.598C12.7054 230.394 13.3507 229.947 13.6416 229.42C13.7893 229.152 13.8512 228.851 13.7691 228.555C13.6867 228.258 13.4706 228.006 13.1423 227.817L1.65816 221.187C1.34828 221.008 1.25001 220.808 1.25 220.66C1.24999 220.512 1.34823 220.312 1.65808 220.133L14.1578 212.917C14.6541 212.63 15.4132 212.574 16.154 212.708C16.8994 212.842 17.5384 213.152 17.8181 213.504C18.341 214.163 19.0657 214.772 19.9855 215.303C22.0584 216.5 24.7595 217.091 27.4471 217.091C30.1347 217.091 32.8358 216.5 34.9087 215.303C36.9802 214.107 38.0726 212.505 38.0726 210.851C38.0726 209.197 36.9802 207.594 34.9087 206.399C33.9887 205.867 32.946 205.456 31.8378 205.163C31.151 204.981 30.6552 204.603 30.4573 204.237C30.3608 204.059 30.3407 203.896 30.3808 203.757C30.4207 203.618 30.5318 203.463 30.7752 203.323L41.1298 197.344C41.4382 197.166 41.8583 197.07 42.2919 197.07C42.7255 197.07 43.1455 197.166 43.454 197.344L54.9067 203.957C55.2737 204.169 55.7376 204.266 56.2201 204.286C56.7056 204.307 57.2283 204.251 57.7273 204.141C58.2262 204.031 58.7092 203.865 59.1148 203.661C59.515 203.459 59.8637 203.209 60.0661 202.917C60.5473 202.223 61.2821 201.563 62.2814 200.986C64.2604 199.843 66.8699 199.265 69.493 199.265C72.1161 199.265 74.7256 199.843 76.7046 200.986C78.685 202.129 79.6185 203.593 79.6185 205.005C79.6185 206.417 78.685 207.881 76.7046 209.024C75.7055 209.601 74.5446 210.035 73.3 210.323C72.4068 210.529 71.611 211.075 71.2033 211.691C70.9989 212 70.8778 212.349 70.9222 212.694C70.968 213.05 71.1842 213.354 71.5588 213.571L82.9256 220.133C83.2355 220.312 83.3337 220.512 83.3337 220.66C83.3337 220.808 83.2354 221.008 82.9255 221.187L71.8996 227.552C71.4077 227.836 70.6591 227.894 69.9281 227.765C69.1927 227.635 68.5602 227.331 68.2783 226.983L68.0839 227.14L68.2783 226.983C67.7577 226.34 67.0439 225.744 66.1428 225.224C64.0699 224.027 61.3688 223.436 58.6812 223.436C55.9936 223.436 53.2925 224.027 51.2195 225.224C49.1481 226.42 48.0557 228.023 48.0557 229.676C48.0558 231.33 49.1482 232.933 51.2198 234.129C52.121 234.649 53.1397 235.054 54.2229 235.347Z" fill="#68B1A6" stroke="black" stroke-width="0.5"/>
<path fill-rule="evenodd" clip-rule="evenodd" d="M71.1645 209.18C71.1466 209.508 71.3004 209.813 71.6838 210.034L83.0506 216.597C83.3918 216.794 83.5692 217.049 83.5829 217.307V220.628C83.5692 220.37 83.3918 220.114 83.0506 219.917L71.6838 213.354C71.3004 213.133 71.1466 212.828 71.1645 212.5V209.18Z" fill="#12775B" stroke="black" stroke-width="0.5" stroke-linejoin="round"/>
<path fill-rule="evenodd" clip-rule="evenodd" d="M83.5828 217.307C83.5976 217.587 83.4202 217.869 83.0505 218.083L72.0246 224.449C70.8974 225.099 68.7584 224.654 68.0839 223.82C67.5859 223.205 66.8974 222.628 66.0178 222.12C61.9658 219.781 55.3965 219.781 51.3445 222.12C49.3996 223.243 48.3883 224.701 48.3105 226.172V229.492C48.3883 228.021 49.3996 226.564 51.3445 225.441C55.3965 223.101 61.9658 223.101 66.0178 225.441C66.8974 225.949 67.5859 226.525 68.0839 227.14C68.7584 227.974 70.8974 228.42 72.0246 227.769L83.0505 221.403C83.4202 221.19 83.5976 220.907 83.5828 220.628V217.307Z" fill="#12775B" stroke="black" stroke-width="0.5" stroke-linejoin="round"/>
<path fill-rule="evenodd" clip-rule="evenodd" d="M48.3105 226.172C48.2263 227.766 49.2377 229.375 51.3447 230.592C52.2243 231.1 53.2224 231.497 54.288 231.785C55.2411 232.042 55.9014 232.667 55.9162 233.25V236.57C55.9014 235.987 55.2411 235.362 54.288 235.105C53.2224 234.818 52.2243 234.42 51.3447 233.912C49.2377 232.696 48.2263 231.086 48.3105 229.492V226.172Z" fill="#12775B" stroke="black" stroke-width="0.5" stroke-linejoin="round"/>
<path fill-rule="evenodd" clip-rule="evenodd" d="M55.9164 233.25C55.924 233.55 55.7603 233.839 55.3771 234.06L43.579 240.872C42.8682 241.282 41.7157 241.282 41.0049 240.872L29.6064 234.291C28.4594 233.629 26.2493 234.106 25.5831 234.96C25.0815 235.604 24.3728 236.206 23.4573 236.735C19.4052 239.074 12.8359 239.074 8.78408 236.735C6.75813 235.565 5.74513 234.032 5.74512 232.499V235.82C5.74513 237.353 6.75813 238.886 8.78408 240.055C12.8359 242.395 19.4052 242.395 23.4573 240.055C24.3728 239.527 25.0815 238.924 25.5831 238.28C26.2493 237.426 28.4594 236.949 29.6064 237.611L41.0049 244.192C41.7157 244.602 42.8682 244.602 43.579 244.192L55.3771 237.38C55.7603 237.159 55.924 236.87 55.9164 236.57V233.25Z" fill="#12775B" stroke="black" stroke-width="0.5" stroke-linejoin="round"/>
<path fill-rule="evenodd" clip-rule="evenodd" d="M5.74512 232.499C5.74511 230.966 6.75809 229.433 8.78411 228.264C9.69964 227.735 10.7438 227.326 11.8582 227.036C12.8346 226.782 13.5268 226.14 13.5548 225.542V228.863C13.5268 229.46 12.8346 230.103 11.8582 230.356C10.7438 230.646 9.69964 231.055 8.78411 231.584C6.75809 232.753 5.74511 234.287 5.74512 235.82V232.499Z" fill="#12775B" stroke="black" stroke-width="0.5" stroke-linejoin="round"/>
<path fill-rule="evenodd" clip-rule="evenodd" d="M13.5548 225.542C13.5692 225.234 13.4074 224.938 13.0173 224.713L1.53316 218.083C1.17774 217.877 1.00001 217.609 1 217.34V220.66C1.00001 220.929 1.17774 221.198 1.53316 221.403L13.0173 228.033C13.4074 228.259 13.5692 228.555 13.5548 228.863V225.542Z" fill="#12775B" stroke="black" stroke-width="0.5" stroke-linejoin="round"/>
<path d="M37.8226 207.531C37.8226 209.064 36.8096 210.597 34.7837 211.766C30.7317 214.106 24.1624 214.106 20.1105 211.766C19.2126 211.248 18.5137 210.658 18.0138 210.028C17.3435 209.185 15.17 208.723 14.0328 209.38L1.53308 216.597C1.17768 216.802 0.999986 217.071 1 217.34V220.66" stroke="black" stroke-width="0.5" stroke-linejoin="round"/>
<path fill-rule="evenodd" clip-rule="evenodd" d="M37.8231 207.53C37.8231 205.997 36.8102 204.464 34.7842 203.295C33.8863 202.776 32.8647 202.373 31.7743 202.084C30.8096 201.829 30.1336 201.195 30.1123 200.605V203.925C30.1336 204.515 30.8096 205.149 31.7743 205.404C32.8647 205.693 33.8863 206.096 34.7842 206.615C36.8102 207.785 37.8231 209.318 37.8231 210.851V207.53Z" fill="#12775B" stroke="black" stroke-width="0.5" stroke-linejoin="round"/>
<path d="M79.8637 204.821V201.501C79.7859 200.03 78.7746 198.572 76.8297 197.449C72.7778 195.109 66.2084 195.109 62.1565 197.449C61.1324 198.04 60.3672 198.724 59.8608 199.454C59.1889 200.423 56.3096 201.158 55.0318 200.42L43.5791 193.808C42.8682 193.397 41.7157 193.397 41.0048 193.808L30.6503 199.786C30.2637 200.009 30.1009 200.301 30.1118 200.605V203.926" stroke="black" stroke-width="0.5" stroke-linejoin="round"/>
<path fill-rule="evenodd" clip-rule="evenodd" d="M79.8632 201.501C79.9475 203.094 78.9361 204.704 76.8292 205.92C75.8051 206.512 74.6203 206.953 73.3559 207.246C72.1816 207.517 71.2056 208.413 71.1641 209.18V212.5C71.2056 211.734 72.1816 210.838 73.3559 210.566C74.6203 210.274 75.8051 209.832 76.8292 209.241C78.9361 208.024 79.9475 206.415 79.8632 204.821V201.501Z" fill="#12775B" stroke="black" stroke-width="0.5" stroke-linejoin="round"/>
<path d="M54.2229 232.026L54.2881 231.785L54.223 232.026C54.9014 232.209 55.3855 232.583 55.5758 232.942C55.6686 233.117 55.6867 233.276 55.6458 233.413C55.605 233.551 55.4935 233.704 55.252 233.844L43.4539 240.655C43.1454 240.833 42.7254 240.929 42.2918 240.929C41.8583 240.929 41.4382 240.833 41.1298 240.655L29.7313 234.074C29.0848 233.701 28.1763 233.662 27.3691 233.811C26.5667 233.959 25.7747 234.308 25.3859 234.806L25.3859 234.806C24.9077 235.42 24.2254 236.003 23.3322 236.518C21.3531 237.661 18.7436 238.24 16.1205 238.24C13.4975 238.24 10.888 237.661 8.90899 236.518C6.92858 235.375 5.99504 233.911 5.99503 232.499C5.99502 231.087 6.92854 229.623 8.90902 228.48C9.8021 227.964 10.8247 227.563 11.921 227.278C12.7054 227.074 13.3507 226.627 13.6416 226.1C13.7893 225.832 13.8512 225.531 13.7691 225.235C13.6867 224.938 13.4706 224.686 13.1423 224.497L1.65816 217.866C1.34828 217.687 1.25001 217.488 1.25 217.34C1.24999 217.191 1.34823 216.992 1.65808 216.813L14.1578 209.596C14.6541 209.31 15.4132 209.254 16.154 209.388C16.8994 209.522 17.5384 209.832 17.8181 210.184C18.341 210.843 19.0657 211.452 19.9855 211.983C22.0584 213.18 24.7595 213.771 27.4471 213.771C30.1347 213.771 32.8358 213.18 34.9087 211.983C36.9802 210.787 38.0726 209.184 38.0726 207.53C38.0726 205.877 36.9802 204.274 34.9087 203.078C33.9887 202.547 32.946 202.136 31.8378 201.842C31.151 201.661 30.6552 201.283 30.4573 200.917C30.3608 200.739 30.3407 200.576 30.3808 200.437C30.4207 200.298 30.5318 200.143 30.7752 200.002L41.1298 194.024C41.4382 193.846 41.8583 193.75 42.2919 193.75C42.7255 193.75 43.1455 193.846 43.454 194.024L54.9067 200.636C55.2737 200.848 55.7376 200.945 56.2201 200.966C56.7056 200.987 57.2283 200.931 57.7273 200.821C58.2262 200.711 58.7092 200.545 59.1148 200.341C59.515 200.139 59.8637 199.888 60.0661 199.597C60.5473 198.903 61.2821 198.242 62.2814 197.665C64.2604 196.523 66.8699 195.944 69.493 195.944C72.1161 195.944 74.7256 196.523 76.7046 197.665C78.685 198.809 79.6185 200.272 79.6185 201.685C79.6185 203.097 78.685 204.561 76.7046 205.704C75.7055 206.281 74.5446 206.714 73.3 207.002C72.4068 207.209 71.611 207.755 71.2033 208.371C70.9989 208.68 70.8778 209.029 70.9222 209.373C70.968 209.73 71.1842 210.034 71.5588 210.25L82.9256 216.813C83.2355 216.992 83.3337 217.191 83.3337 217.34C83.3337 217.488 83.2354 217.687 82.9255 217.866L71.8996 224.232C71.4077 224.516 70.6591 224.574 69.9281 224.445C69.1927 224.315 68.5602 224.011 68.2783 223.663L68.0839 223.82L68.2783 223.663C67.7577 223.019 67.0439 222.424 66.1428 221.904C64.0699 220.707 61.3688 220.116 58.6812 220.116C55.9936 220.116 53.2925 220.707 51.2195 221.904C49.1481 223.1 48.0557 224.702 48.0557 226.356C48.0558 228.01 49.1482 229.612 51.2198 230.808C52.121 231.329 53.1397 231.734 54.2229 232.026Z" fill="#68B1A6" stroke="black" stroke-width="0.5"/>
<path d="M377.377 238.731L377.377 238.731C377.673 238.365 378.335 238.048 379.102 237.912C379.865 237.778 380.647 237.838 381.162 238.135L393.45 245.229C393.775 245.417 393.88 245.627 393.88 245.787C393.88 245.946 393.775 246.157 393.45 246.344L381.579 253.198C381.238 253.395 381.016 253.654 380.931 253.96C380.846 254.266 380.91 254.576 381.063 254.853C381.364 255.399 382.033 255.864 382.848 256.076C383.991 256.373 385.057 256.791 385.988 257.329C388.052 258.521 389.028 260.048 389.028 261.524C389.028 263 388.052 264.527 385.988 265.719C383.925 266.91 381.205 267.513 378.472 267.513C375.739 267.513 373.019 266.91 370.956 265.719C370.025 265.181 369.313 264.573 368.814 263.933L368.814 263.933C368.411 263.417 367.589 263.054 366.755 262.9C365.915 262.746 364.972 262.786 364.301 263.173L352.341 270.079C352.017 270.265 351.578 270.366 351.125 270.366C350.672 270.366 350.233 270.265 349.91 270.079L336.891 262.563C336.636 262.415 336.518 262.252 336.476 262.104C336.433 261.956 336.455 261.784 336.556 261.596C336.764 261.212 337.283 260.817 338 260.627C339.154 260.322 340.239 259.894 341.196 259.341C343.352 258.096 344.486 256.43 344.486 254.713C344.486 252.996 343.352 251.329 341.196 250.085C339.039 248.84 336.228 248.224 333.43 248.224C330.633 248.224 327.821 248.84 325.664 250.085C324.707 250.638 323.954 251.271 323.41 251.956L323.606 252.111L323.41 251.956C323.116 252.325 322.448 252.649 321.671 252.789C320.898 252.928 320.104 252.871 319.585 252.57L308.8 246.344C308.476 246.157 308.37 245.946 308.37 245.787C308.37 245.627 308.476 245.417 308.8 245.229L320.728 238.343C321.116 238.119 321.339 237.804 321.386 237.437C321.432 237.081 321.307 236.72 321.095 236.4C320.672 235.761 319.846 235.194 318.918 234.979C317.62 234.679 316.41 234.227 315.369 233.626C313.304 232.434 312.329 230.906 312.329 229.431C312.329 227.955 313.304 226.427 315.369 225.236C317.432 224.044 320.152 223.442 322.885 223.442C325.618 223.442 328.338 224.044 330.401 225.236C331.443 225.837 332.209 226.526 332.711 227.25C332.921 227.552 333.282 227.812 333.698 228.022C334.12 228.234 334.622 228.406 335.141 228.521C335.66 228.635 336.203 228.694 336.708 228.672C337.21 228.65 337.691 228.549 338.071 228.33L349.91 221.495C350.233 221.308 350.672 221.208 351.125 221.208C351.578 221.208 352.017 221.308 352.341 221.495L363.824 228.125C364.077 228.271 364.195 228.433 364.239 228.579C364.283 228.725 364.263 228.894 364.165 229.078C363.965 229.455 363.458 229.845 362.75 230.036L362.815 230.278L362.75 230.036C361.622 230.341 360.562 230.762 359.624 231.304C357.469 232.548 356.334 234.214 356.334 235.932C356.334 237.649 357.469 239.315 359.624 240.56C361.781 241.805 364.592 242.421 367.39 242.421C370.188 242.421 372.999 241.805 375.156 240.56C376.094 240.018 376.836 239.399 377.377 238.731Z" fill="#68B1A6" stroke="black" stroke-width="0.5"/>
<path fill-rule="evenodd" clip-rule="evenodd" d="M364.51 225.239C364.536 225.861 363.837 226.544 362.814 226.82C361.705 227.119 360.665 227.533 359.749 228.062C357.723 229.232 356.67 230.75 356.589 232.282V235.74C356.67 234.208 357.723 232.69 359.749 231.52C360.665 230.991 361.705 230.577 362.814 230.278C363.837 230.002 364.536 229.319 364.51 228.697V225.239Z" fill="#12775B" stroke="black" stroke-width="0.5" stroke-linejoin="round"/>
<path fill-rule="evenodd" clip-rule="evenodd" d="M356.589 232.282C356.501 233.942 357.555 235.618 359.749 236.885C363.969 239.322 370.811 239.322 375.031 236.885C375.947 236.356 376.664 235.756 377.183 235.115C377.885 234.247 380.113 233.783 381.287 234.461L393.575 241.555C393.945 241.769 394.13 242.049 394.13 242.329V245.787C394.13 245.507 393.945 245.227 393.575 245.013L381.287 237.919C380.113 237.241 377.885 237.705 377.183 238.573C376.664 239.214 375.947 239.814 375.031 240.343C370.811 242.78 363.969 242.78 359.749 240.343C357.555 239.076 356.501 237.4 356.589 235.74V232.282Z" fill="#12775B" stroke="black" stroke-width="0.5" stroke-linejoin="round"/>
<path fill-rule="evenodd" clip-rule="evenodd" d="M394.131 242.329C394.131 242.609 393.945 242.889 393.575 243.103L381.704 249.957C381.322 250.177 381.15 250.464 381.144 250.764V254.222C381.15 253.922 381.322 253.635 381.704 253.415L393.575 246.561C393.945 246.347 394.131 246.067 394.131 245.787V242.329Z" fill="#12775B" stroke="black" stroke-width="0.5" stroke-linejoin="round"/>
<path fill-rule="evenodd" clip-rule="evenodd" d="M381.144 250.764C381.13 251.402 381.864 252.103 382.912 252.376C384.072 252.677 385.16 253.104 386.113 253.654C388.139 254.824 389.192 256.342 389.273 257.874V261.332C389.192 259.8 388.139 258.282 386.113 257.112C385.16 256.562 384.072 256.135 382.912 255.834C381.864 255.561 381.13 254.86 381.144 254.222V250.764Z" fill="#12775B" stroke="black" stroke-width="0.5" stroke-linejoin="round"/>
<path fill-rule="evenodd" clip-rule="evenodd" d="M389.272 257.874C389.36 259.534 388.307 261.21 386.112 262.477C381.892 264.914 375.051 264.914 370.83 262.477C369.877 261.927 369.139 261.299 368.616 260.629C367.923 259.739 365.621 259.242 364.426 259.932L352.465 266.837C351.725 267.264 350.525 267.265 349.784 266.837L336.766 259.321C336.387 259.102 336.215 258.82 336.205 258.523V261.981C336.215 262.278 336.387 262.56 336.766 262.779L349.784 270.295C350.525 270.723 351.725 270.722 352.465 270.295L364.426 263.39C365.621 262.7 367.923 263.197 368.616 264.087C369.139 264.757 369.877 265.385 370.83 265.935C375.051 268.372 381.892 268.372 386.112 265.935C388.307 264.668 389.36 262.992 389.272 261.332V257.874Z" fill="#12775B" stroke="black" stroke-width="0.5" stroke-linejoin="round"/>
<path fill-rule="evenodd" clip-rule="evenodd" d="M336.205 258.523C336.185 257.894 336.901 257.201 337.937 256.927C339.072 256.627 340.136 256.207 341.071 255.667C343.181 254.448 344.236 252.852 344.236 251.255V254.713C344.236 256.31 343.181 257.906 341.071 259.125C340.136 259.665 339.072 260.085 337.937 260.385C336.901 260.659 336.185 261.352 336.205 261.981V258.523Z" fill="#12775B" stroke="black" stroke-width="0.5" stroke-linejoin="round"/>
<path fill-rule="evenodd" clip-rule="evenodd" d="M344.236 251.255C344.236 249.658 343.181 248.062 341.071 246.843C336.851 244.407 330.009 244.407 325.789 246.843C324.854 247.383 324.126 247.998 323.606 248.653C322.908 249.532 320.644 250.013 319.46 249.329L308.675 243.103C308.305 242.889 308.12 242.609 308.12 242.329V245.787C308.12 246.067 308.305 246.347 308.675 246.561L319.46 252.787C320.644 253.471 322.908 252.99 323.606 252.111C324.126 251.456 324.854 250.841 325.789 250.301C330.009 247.865 336.851 247.865 341.071 250.301C343.181 251.52 344.236 253.116 344.236 254.713V251.255Z" fill="#12775B" stroke="black" stroke-width="0.5" stroke-linejoin="round"/>
<path d="M320.603 238.126C320.976 237.911 321.14 237.621 321.145 237.305V233.847C321.14 234.163 320.976 234.453 320.603 234.668L308.675 241.555C308.305 241.769 308.12 242.049 308.12 242.329V245.787" stroke="black" stroke-width="0.5" stroke-linejoin="round"/>
<path fill-rule="evenodd" clip-rule="evenodd" d="M321.145 233.847C321.159 233.034 320.119 232.055 318.861 231.764C317.544 231.46 316.31 231 315.244 230.384C313.218 229.215 312.165 227.696 312.084 226.164V229.622C312.165 231.154 313.218 232.673 315.244 233.842C316.31 234.458 317.544 234.918 318.861 235.222C320.119 235.513 321.159 236.492 321.145 237.305V233.847Z" fill="#12775B" stroke="black" stroke-width="0.5" stroke-linejoin="round"/>
<path d="M364.51 228.697V225.239C364.498 224.946 364.325 224.667 363.949 224.45L352.466 217.82C351.725 217.393 350.525 217.393 349.785 217.82L337.946 224.655C336.616 225.424 333.617 224.658 332.917 223.65C332.39 222.889 331.593 222.177 330.526 221.561C326.306 219.125 319.464 219.125 315.244 221.561C313.05 222.828 311.996 224.504 312.084 226.164V229.622" stroke="black" stroke-width="0.5" stroke-linejoin="round"/>
<path d="M377.377 235.273L377.183 235.115L377.377 235.273C377.673 234.907 378.335 234.59 379.102 234.454C379.865 234.32 380.647 234.38 381.162 234.677L393.45 241.771C393.775 241.959 393.88 242.169 393.88 242.329C393.88 242.488 393.775 242.699 393.45 242.886L381.579 249.74C381.238 249.937 381.016 250.196 380.931 250.502C380.846 250.808 380.91 251.118 381.063 251.395C381.364 251.941 382.033 252.406 382.848 252.618C383.991 252.915 385.057 253.333 385.988 253.871C388.052 255.063 389.028 256.59 389.028 258.066C389.028 259.542 388.052 261.069 385.988 262.261C383.925 263.452 381.205 264.055 378.472 264.055C375.739 264.055 373.019 263.452 370.956 262.261C370.025 261.723 369.313 261.115 368.814 260.475L368.814 260.475C368.411 259.959 367.589 259.596 366.755 259.442C365.915 259.288 364.972 259.328 364.301 259.715L352.341 266.621C352.017 266.807 351.578 266.908 351.125 266.908C350.672 266.908 350.233 266.807 349.91 266.621L336.891 259.105C336.636 258.957 336.518 258.794 336.476 258.646C336.433 258.498 336.455 258.326 336.556 258.138C336.764 257.754 337.283 257.359 338 257.169C339.154 256.864 340.239 256.436 341.196 255.883C343.352 254.638 344.486 252.972 344.486 251.255C344.486 249.538 343.352 247.871 341.196 246.627C339.039 245.382 336.228 244.766 333.43 244.766C330.633 244.766 327.821 245.382 325.664 246.627C324.707 247.18 323.954 247.813 323.41 248.498L323.606 248.653L323.41 248.498C323.116 248.867 322.448 249.191 321.671 249.331C320.898 249.47 320.104 249.413 319.585 249.112L308.8 242.886C308.476 242.699 308.37 242.488 308.37 242.329C308.37 242.169 308.476 241.959 308.8 241.771L320.728 234.885C321.116 234.661 321.339 234.346 321.386 233.979C321.432 233.623 321.307 233.262 321.095 232.942C320.672 232.303 319.846 231.736 318.918 231.521C317.62 231.221 316.41 230.769 315.369 230.168C313.304 228.976 312.329 227.448 312.329 225.973C312.329 224.497 313.304 222.969 315.369 221.778C317.432 220.586 320.152 219.984 322.885 219.984C325.618 219.984 328.338 220.586 330.401 221.778C331.443 222.379 332.209 223.068 332.711 223.792C332.921 224.094 333.282 224.354 333.698 224.564C334.12 224.776 334.622 224.948 335.141 225.063C335.66 225.177 336.203 225.236 336.708 225.214C337.21 225.192 337.691 225.091 338.071 224.872L349.91 218.037C350.233 217.85 350.672 217.75 351.125 217.75C351.578 217.75 352.017 217.85 352.341 218.037L363.824 224.667C364.077 224.813 364.195 224.975 364.239 225.121C364.283 225.267 364.263 225.436 364.165 225.62C363.965 225.997 363.458 226.387 362.75 226.578L362.815 226.82L362.75 226.578C361.622 226.883 360.562 227.304 359.624 227.846C357.469 229.09 356.334 230.756 356.334 232.474C356.334 234.191 357.469 235.857 359.624 237.102C361.781 238.347 364.592 238.963 367.39 238.963C370.188 238.963 372.999 238.347 375.156 237.102C376.094 236.56 376.836 235.941 377.377 235.273Z" fill="#68B1A6" stroke="black" stroke-width="0.5"/>
<path d="M102.559 278.396L102.365 278.239L102.559 278.396C102.866 278.017 103.551 277.689 104.343 277.549C105.131 277.41 105.94 277.472 106.474 277.78L119.15 285.098C119.486 285.293 119.598 285.512 119.598 285.68C119.598 285.848 119.486 286.068 119.15 286.262L106.903 293.333C106.554 293.535 106.326 293.801 106.239 294.114C106.152 294.427 106.217 294.745 106.374 295.03C106.684 295.59 107.372 296.069 108.211 296.287C109.391 296.593 110.491 297.025 111.452 297.58C113.583 298.811 114.592 300.388 114.592 301.914C114.592 303.441 113.583 305.018 111.452 306.249C109.322 307.478 106.515 308.1 103.695 308.1C100.874 308.1 98.067 307.479 95.9374 306.249C94.9757 305.694 94.241 305.066 93.7252 304.405L93.5281 304.558L93.7252 304.405C93.3117 303.874 92.4662 303.5 91.6057 303.342C90.7405 303.183 89.7696 303.225 89.0803 303.623L76.7418 310.747C76.4068 310.94 75.9521 311.044 75.4839 311.044C75.0157 311.044 74.561 310.94 74.2261 310.747L60.7964 302.993C60.5318 302.84 60.4086 302.67 60.364 302.515C60.3193 302.36 60.3423 302.18 60.4478 301.985C60.6636 301.586 61.2015 301.178 61.9426 300.982C63.132 300.667 64.2506 300.226 65.2374 299.656C67.4596 298.373 68.6274 296.656 68.6274 294.889C68.6274 293.121 67.4596 291.404 65.2374 290.121C63.0138 288.837 60.1152 288.203 57.2301 288.203C54.3449 288.203 51.4463 288.837 49.2227 290.121C48.2361 290.691 47.4593 291.344 46.8991 292.049L47.0948 292.205L46.899 292.049C46.5946 292.433 45.9026 292.767 45.1001 292.912C44.302 293.056 43.4813 292.996 42.9428 292.685L31.8179 286.262C31.4816 286.068 31.3701 285.849 31.3701 285.68C31.3701 285.512 31.4816 285.293 31.8179 285.098L74.2261 260.614C74.561 260.421 75.0157 260.317 75.4839 260.317C75.9521 260.317 76.4068 260.421 76.7418 260.614L88.5879 267.454C88.8505 267.605 88.974 267.773 89.0196 267.926C89.0652 268.08 89.0444 268.256 88.943 268.447C88.7353 268.839 88.21 269.243 87.4778 269.44L87.5429 269.681L87.4778 269.44C86.3153 269.754 85.2222 270.188 84.2555 270.747C82.0332 272.03 80.8654 273.746 80.8654 275.514C80.8654 277.282 82.0333 278.998 84.2555 280.281C86.4791 281.565 89.3777 282.2 92.2628 282.2C95.1479 282.2 98.0466 281.565 100.27 280.281C101.237 279.723 102.002 279.085 102.559 278.396Z" fill="#FFCA69" stroke="black" stroke-width="0.5"/>
<path fill-rule="evenodd" clip-rule="evenodd" d="M31.121 282.079C31.1051 282.379 31.2958 282.682 31.6929 282.912L42.8178 289.335C44.0395 290.04 46.3748 289.544 47.0948 288.638C47.632 287.961 48.3829 287.328 49.3477 286.771C53.701 284.257 60.7591 284.257 65.1124 286.771C67.2891 288.027 68.3774 289.674 68.3774 291.322V294.889C68.3774 293.242 67.2891 291.595 65.1124 290.338C60.7591 287.824 53.701 287.824 49.3477 290.338C48.3829 290.895 47.632 291.529 47.0948 292.205C46.3748 293.112 44.0395 293.607 42.8178 292.902L31.6929 286.479C31.2958 286.25 31.1051 285.946 31.121 285.646V282.079Z" fill="#DFA232" stroke="black" stroke-width="0.5" stroke-linejoin="round"/>
<path fill-rule="evenodd" clip-rule="evenodd" d="M68.3773 291.322C68.3773 292.969 67.289 294.616 65.1123 295.872C64.1476 296.429 63.05 296.863 61.8785 297.173C60.842 297.447 60.1156 298.128 60.0928 298.762V302.329C60.1156 301.695 60.842 301.015 61.8785 300.74C63.05 300.43 64.1476 299.997 65.1123 299.44C67.289 298.183 68.3773 296.536 68.3773 294.889V291.322Z" fill="#DFA232" stroke="black" stroke-width="0.5" stroke-linejoin="round"/>
<path fill-rule="evenodd" clip-rule="evenodd" d="M60.0933 298.762C60.0815 299.088 60.2564 299.403 60.6718 299.642L74.1015 307.396C74.8652 307.837 76.1034 307.837 76.8672 307.396L89.2058 300.272C90.4382 299.561 92.8128 300.074 93.5285 300.991C94.0677 301.683 94.8289 302.33 95.8128 302.898C100.166 305.412 107.224 305.412 111.577 302.898C113.754 301.642 114.842 299.994 114.842 298.347V301.915C114.842 303.562 113.754 305.209 111.577 306.466C107.224 308.979 100.166 308.979 95.8128 306.466C94.8289 305.898 94.0677 305.25 93.5285 304.559C92.8128 303.641 90.4382 303.128 89.2058 303.84L76.8672 310.963C76.1034 311.404 74.8652 311.404 74.1015 310.963L60.6718 303.21C60.2564 302.97 60.0815 302.656 60.0933 302.329V298.762Z" fill="#DFA232" stroke="black" stroke-width="0.5" stroke-linejoin="round"/>
<path fill-rule="evenodd" clip-rule="evenodd" d="M114.842 298.347C114.842 296.7 113.754 295.053 111.577 293.796C110.593 293.228 109.472 292.789 108.274 292.478C107.225 292.205 106.481 291.515 106.451 290.873V294.44C106.481 295.082 107.225 295.772 108.274 296.045C109.472 296.356 110.593 296.796 111.577 297.364C113.754 298.62 114.842 300.267 114.842 301.915V298.347Z" fill="#DFA232" stroke="black" stroke-width="0.5" stroke-linejoin="round"/>
<path fill-rule="evenodd" clip-rule="evenodd" d="M106.451 290.873C106.436 290.542 106.609 290.224 107.028 289.982L119.275 282.912C119.657 282.691 119.848 282.402 119.848 282.113V285.681C119.848 285.969 119.657 286.258 119.275 286.479L107.028 293.549C106.609 293.791 106.436 294.109 106.451 294.44V290.873Z" fill="#DFA232" stroke="black" stroke-width="0.5" stroke-linejoin="round"/>
<path d="M81.1152 271.947C81.1152 273.594 82.2036 275.241 84.3803 276.498C88.7336 279.011 95.7916 279.011 100.145 276.498C101.09 275.952 101.83 275.333 102.365 274.672C103.09 273.776 105.388 273.297 106.599 273.996L119.275 281.315C119.657 281.535 119.847 281.824 119.847 282.113V285.68" stroke="black" stroke-width="0.5" stroke-linejoin="round"/>
<path fill-rule="evenodd" clip-rule="evenodd" d="M81.1152 271.947C81.1152 270.3 82.2036 268.653 84.3803 267.396C85.3253 266.85 86.3978 266.423 87.5427 266.114C88.5667 265.838 89.2762 265.166 89.2921 264.54V268.108C89.2762 268.733 88.5667 269.405 87.5427 269.682C86.3978 269.99 85.3253 270.418 84.3803 270.963C82.2036 272.22 81.1152 273.867 81.1152 275.514V271.947Z" fill="#DFA232" stroke="black" stroke-width="0.5" stroke-linejoin="round"/>
<path d="M31.1211 285.646V282.079C31.1358 281.801 31.3264 281.526 31.693 281.315L74.1012 256.83C74.8648 256.39 76.1031 256.39 76.8668 256.83L88.713 263.67C89.1248 263.908 89.3006 264.218 89.2924 264.54V268.108" stroke="black" stroke-width="0.5" stroke-linejoin="round"/>
<path d="M102.559 274.829L102.365 274.672L102.559 274.829C102.866 274.45 103.551 274.122 104.343 273.982C105.131 273.843 105.94 273.905 106.474 274.213L119.15 281.531C119.486 281.726 119.598 281.945 119.598 282.113C119.598 282.281 119.486 282.501 119.15 282.695L106.903 289.766C106.554 289.967 106.326 290.234 106.239 290.547C106.152 290.86 106.217 291.178 106.374 291.463C106.684 292.023 107.372 292.501 108.211 292.72C109.391 293.026 110.491 293.458 111.452 294.013C113.583 295.243 114.592 296.821 114.592 298.347C114.592 299.874 113.583 301.451 111.452 302.682C109.322 303.911 106.515 304.533 103.695 304.533C100.874 304.533 98.067 303.911 95.9374 302.682C94.9757 302.127 94.241 301.499 93.7252 300.838L93.5281 300.991L93.7252 300.838C93.3117 300.307 92.4662 299.933 91.6057 299.775C90.7405 299.616 89.7696 299.658 89.0803 300.056L76.7418 307.179C76.4068 307.373 75.9521 307.477 75.4839 307.477C75.0157 307.477 74.561 307.373 74.2261 307.179L60.7964 299.426C60.5318 299.273 60.4086 299.103 60.364 298.948C60.3193 298.793 60.3423 298.613 60.4478 298.418C60.6636 298.019 61.2015 297.611 61.9426 297.415C63.132 297.1 64.2506 296.659 65.2374 296.089C67.4596 294.806 68.6274 293.089 68.6274 291.321C68.6274 289.554 67.4596 287.837 65.2374 286.554C63.0138 285.27 60.1152 284.635 57.2301 284.635C54.3449 284.635 51.4463 285.27 49.2227 286.554C48.2361 287.124 47.4593 287.777 46.8991 288.482L47.0948 288.638L46.899 288.482C46.5946 288.866 45.9026 289.2 45.1001 289.345C44.302 289.488 43.4813 289.429 42.9428 289.118L31.8179 282.695C31.4816 282.501 31.3701 282.281 31.3701 282.113C31.3701 281.945 31.4816 281.725 31.8179 281.531L74.2261 257.047C74.561 256.854 75.0157 256.75 75.4839 256.75C75.9521 256.75 76.4068 256.854 76.7418 257.047L88.5879 263.886C88.8505 264.038 88.974 264.206 89.0196 264.359C89.0652 264.512 89.0444 264.689 88.943 264.88C88.7353 265.272 88.21 265.675 87.4778 265.873L87.5429 266.114L87.4778 265.873C86.3153 266.187 85.2222 266.621 84.2555 267.179C82.0332 268.462 80.8654 270.179 80.8654 271.947C80.8654 273.715 82.0333 275.431 84.2555 276.714C86.4791 277.998 89.3777 278.633 92.2628 278.633C95.1479 278.633 98.0466 277.998 100.27 276.714C101.237 276.156 102.002 275.518 102.559 274.829Z" fill="#FFCA69" stroke="black" stroke-width="0.5"/>
<path d="M270.034 255.245C270.333 255.072 270.74 254.979 271.161 254.979C271.582 254.979 271.989 255.072 272.288 255.245L281.788 260.729C282.141 260.934 282.584 261.029 283.044 261.052C283.506 261.074 284.002 261.024 284.475 260.92C284.948 260.817 285.406 260.66 285.791 260.466C286.171 260.273 286.504 260.033 286.699 259.75C287.166 259.076 287.881 258.433 288.854 257.871C290.777 256.76 293.314 256.198 295.864 256.198C298.415 256.198 300.951 256.76 302.875 257.871C304.8 258.982 305.706 260.404 305.706 261.774C305.706 263.144 304.8 264.566 302.875 265.677C301.902 266.239 300.772 266.661 299.56 266.941C298.699 267.139 297.941 267.656 297.557 268.244C297.364 268.539 297.252 268.873 297.301 269.205C297.351 269.547 297.563 269.838 297.924 270.046L310.678 277.41C310.978 277.583 311.072 277.775 311.072 277.916C311.072 278.057 310.978 278.249 310.678 278.422L300.57 284.258C300.287 284.422 300.086 284.632 299.987 284.879C299.886 285.13 299.9 285.392 299.997 285.634C300.187 286.105 300.69 286.503 301.334 286.723C302.035 286.962 302.694 287.255 303.292 287.601C305.217 288.712 306.123 290.134 306.123 291.504C306.123 292.874 305.217 294.296 303.292 295.407C301.369 296.518 298.832 297.08 296.282 297.08C293.731 297.08 291.194 296.518 289.271 295.407C288.672 295.061 288.171 294.685 287.765 294.288C287.355 293.888 286.673 293.627 285.986 293.535C285.297 293.443 284.543 293.511 283.981 293.836L272.288 300.587C271.989 300.759 271.582 300.853 271.161 300.853C270.74 300.853 270.333 300.759 270.034 300.587L257.819 293.535C257.158 293.153 256.201 293.134 255.359 293.304C254.932 293.39 254.518 293.528 254.166 293.705C253.818 293.88 253.512 294.102 253.32 294.368C252.853 295.017 252.154 295.636 251.215 296.178C249.291 297.289 246.754 297.851 244.204 297.851C241.654 297.851 239.117 297.289 237.193 296.178C235.269 295.067 234.363 293.645 234.363 292.275C234.363 290.905 235.269 289.483 237.193 288.372C238.133 287.829 239.219 287.417 240.385 287.137C241.196 286.943 241.883 286.478 242.211 285.935C242.377 285.662 242.46 285.351 242.392 285.042C242.324 284.729 242.11 284.465 241.772 284.27L231.644 278.422C231.343 278.249 231.25 278.057 231.25 277.916C231.25 277.775 231.343 277.583 231.644 277.41L270.034 255.245Z" fill="#90E0EF" stroke="black" stroke-width="0.5"/>
<path fill-rule="evenodd" clip-rule="evenodd" d="M231 274.687C231 274.948 231.173 275.21 231.519 275.41L241.647 281.257C241.998 281.46 242.156 281.724 242.165 282.006V285.235C242.156 284.954 241.998 284.689 241.647 284.487L231.519 278.639C231.173 278.439 231 278.178 231 277.916V274.687Z" fill="#6BBCCB" stroke="black" stroke-width="0.5" stroke-linejoin="round"/>
<path fill-rule="evenodd" clip-rule="evenodd" d="M242.166 282.006C242.187 282.662 241.395 283.409 240.327 283.665C239.142 283.949 238.032 284.37 237.069 284.926C235.099 286.064 234.113 287.555 234.113 289.046V292.275C234.113 290.784 235.099 289.293 237.069 288.155C238.032 287.599 239.142 287.179 240.327 286.894C241.395 286.638 242.187 285.891 242.166 285.235V282.006Z" fill="#6BBCCB" stroke="black" stroke-width="0.5" stroke-linejoin="round"/>
<path fill-rule="evenodd" clip-rule="evenodd" d="M234.113 289.046C234.113 290.537 235.099 292.028 237.069 293.165C241.01 295.441 247.399 295.441 251.34 293.165C252.304 292.609 253.031 291.968 253.524 291.284C254.158 290.404 256.526 289.847 257.695 290.522L269.909 297.574C270.601 297.973 271.722 297.973 272.413 297.574L284.107 290.823C285.1 290.25 286.876 290.54 287.591 291.238C288.014 291.651 288.532 292.04 289.146 292.394C293.087 294.67 299.477 294.67 303.418 292.394C305.388 291.257 306.373 289.766 306.373 288.275V291.504C306.373 292.995 305.388 294.486 303.418 295.624C299.477 297.899 293.087 297.899 289.146 295.624C288.532 295.269 288.014 294.88 287.591 294.467C286.876 293.77 285.1 293.479 284.107 294.052L272.413 300.803C271.722 301.203 270.601 301.203 269.909 300.803L257.695 293.751C256.526 293.077 254.158 293.633 253.524 294.514C253.031 295.198 252.304 295.838 251.34 296.395C247.399 298.67 241.01 298.67 237.069 296.395C235.099 295.257 234.113 293.766 234.113 292.275V289.046Z" fill="#6BBCCB" stroke="black" stroke-width="0.5" stroke-linejoin="round"/>
<path fill-rule="evenodd" clip-rule="evenodd" d="M306.373 288.275C306.373 286.784 305.388 285.293 303.417 284.155C302.803 283.8 302.129 283.501 301.414 283.257C300.665 283.001 300.187 282.51 300.168 282.036V285.266C300.187 285.739 300.665 286.23 301.414 286.486C302.129 286.73 302.803 287.03 303.417 287.384C305.388 288.522 306.373 290.013 306.373 291.504V288.275Z" fill="#6BBCCB" stroke="black" stroke-width="0.5" stroke-linejoin="round"/>
<path fill-rule="evenodd" clip-rule="evenodd" d="M300.168 282.036C300.156 281.746 300.317 281.463 300.695 281.245L310.803 275.41C311.148 275.21 311.321 274.948 311.321 274.687V277.916C311.321 278.178 311.148 278.439 310.803 278.639L300.695 284.475C300.317 284.693 300.156 284.976 300.168 285.266V282.036Z" fill="#6BBCCB" stroke="black" stroke-width="0.5" stroke-linejoin="round"/>
<path fill-rule="evenodd" clip-rule="evenodd" d="M297.54 265.848C297.515 265.109 298.453 264.224 299.616 263.955C300.848 263.671 302.002 263.241 303 262.665C304.891 261.573 305.875 260.155 305.951 258.724V261.953C305.875 263.384 304.891 264.802 303 265.894C302.002 266.47 300.848 266.9 299.616 267.185C298.453 267.453 297.515 268.338 297.54 269.077V265.848Z" fill="#6BBCCB" stroke="black" stroke-width="0.5" stroke-linejoin="round"/>
<path d="M270.034 252.016C270.333 251.843 270.74 251.75 271.161 251.75C271.582 251.75 271.989 251.843 272.288 252.016L281.788 257.5C282.141 257.705 282.584 257.8 283.044 257.823C283.506 257.845 284.002 257.794 284.475 257.691C284.948 257.588 285.406 257.431 285.791 257.236C286.171 257.044 286.504 256.803 286.699 256.521C287.166 255.847 287.881 255.203 288.854 254.642C290.777 253.531 293.314 252.969 295.864 252.969C298.415 252.969 300.951 253.531 302.875 254.642C304.8 255.753 305.706 257.175 305.706 258.545C305.706 259.915 304.8 261.337 302.875 262.448C301.902 263.01 300.772 263.432 299.56 263.712C298.699 263.91 297.941 264.427 297.557 265.014C297.364 265.309 297.252 265.644 297.301 265.976C297.351 266.318 297.563 266.608 297.924 266.816L310.678 274.18C310.978 274.354 311.072 274.546 311.072 274.687C311.072 274.827 310.978 275.02 310.678 275.193L300.57 281.029C300.287 281.192 300.086 281.402 299.987 281.65C299.886 281.901 299.9 282.163 299.997 282.405C300.187 282.876 300.69 283.274 301.334 283.493C302.035 283.733 302.694 284.026 303.292 284.371C305.217 285.483 306.123 286.904 306.123 288.275C306.123 289.645 305.217 291.067 303.292 292.178C301.369 293.288 298.832 293.851 296.282 293.851C293.731 293.851 291.194 293.288 289.271 292.178C288.672 291.832 288.171 291.455 287.765 291.059C287.355 290.659 286.673 290.398 285.986 290.306C285.297 290.214 284.543 290.282 283.981 290.606L272.288 297.358C271.989 297.53 271.582 297.623 271.161 297.623C270.74 297.623 270.333 297.53 270.034 297.358L257.819 290.305C257.158 289.924 256.201 289.905 255.359 290.075C254.932 290.161 254.518 290.299 254.166 290.475C253.818 290.65 253.512 290.873 253.32 291.138C252.853 291.788 252.154 292.406 251.215 292.949C249.291 294.059 246.754 294.622 244.204 294.622C241.654 294.622 239.117 294.059 237.193 292.949C235.269 291.837 234.363 290.416 234.363 289.046C234.363 287.675 235.269 286.254 237.193 285.142C238.133 284.6 239.219 284.188 240.385 283.908C241.196 283.713 241.883 283.248 242.211 282.706C242.377 282.432 242.46 282.121 242.392 281.813C242.324 281.5 242.11 281.236 241.772 281.041L231.644 275.193C231.343 275.02 231.25 274.827 231.25 274.687C231.25 274.546 231.343 274.354 231.644 274.18L270.034 252.016Z" fill="#90E0EF" stroke="black" stroke-width="0.5"/>
<path d="M137.832 82.4223C138.765 81.5834 139.737 80.7851 140.651 79.9266C142.898 77.8185 144.249 75.5104 145.397 72.6648C146.819 69.1402 148.555 65.2636 149.205 61.4998" stroke="black" stroke-linecap="round"/>
<ellipse cx="23.1313" cy="28.3397" rx="23.1313" ry="28.3397" transform="matrix(-1 -6.65437e-10 -6.65437e-10 1 139.23 52.4998)" fill="#7676E8"/>
<circle cx="1.83825" cy="1.83825" r="1.83825" transform="matrix(-0.975297 -0.2209 -0.2209 0.975297 136.287 81.4014)" fill="black"/>
<circle cx="1.83825" cy="1.83825" r="1.83825" transform="matrix(-0.975297 -0.2209 -0.2209 0.975297 125.084 82.3196)" fill="black"/>
<path d="M131.266 87.9088C132.081 87.6085 132.656 87.2819 133.203 86.6175C133.163 86.7826 133.251 87.0081 133.259 87.182C133.268 87.3556 133.342 87.521 133.352 87.6993C133.368 87.9629 133.404 88.2254 133.414 88.4896C133.454 89.4812 133.014 90.6987 132.511 91.538C132.162 92.1214 131.69 92.6878 131.239 93.1958C130.824 93.6633 130.302 94.0778 129.749 94.3717C129.319 94.5997 128.824 94.6903 128.352 94.7853C128.063 94.8436 127.651 95.0245 127.249 94.9186C126.882 94.8219 126.473 94.5431 126.113 94.3503C125.789 94.1775 125.478 93.9944 125.225 93.7255C124.791 93.2646 124.365 92.81 124.153 92.2041C123.861 91.3672 123.742 90.5214 123.583 89.6526C123.48 89.0831 123.384 88.5141 123.313 87.9395C123.303 87.8556 123.209 87.6026 123.367 87.6773C124.053 87.9999 124.781 88.164 125.537 88.2327C126.749 88.343 127.986 88.3512 129.2 88.2864C129.907 88.2486 130.6 88.1544 131.266 87.9088Z" stroke="black" stroke-linecap="round" stroke-linejoin="round"/>
<path d="M110.421 88.8591C114.017 84.0399 119.157 79.5875 121.007 73.7158C121.885 70.9312 121.813 68.3217 121.358 65.4997" stroke="black" stroke-linecap="round"/>
<path d="M125.699 106.487C127.941 108.505 130.231 110.532 132.812 112.09C133.557 112.54 133.893 112.306 134.493 111.71C135.656 110.554 136.74 109.308 137.893 108.139C138.952 107.065 139.955 105.951 141.084 104.948" stroke="black" stroke-linecap="round"/>
<path d="M111.167 105.632C113.314 108.652 115.531 111.758 117.246 115.053C117.572 115.68 118.109 116.353 118.347 117.009C118.553 117.575 118.774 117.077 118.946 116.715C119.327 115.912 119.774 115.216 120.209 114.445C120.911 113.201 121.605 111.948 122.621 110.931" stroke="black" stroke-linecap="round"/>
<path d="M209.315 176.103L209.51 176.255L209.315 176.103C209.703 175.605 210.495 175.255 211.298 175.107C212.105 174.959 213.013 174.998 213.66 175.371L225.15 182.005C225.459 182.183 225.88 182.279 226.314 182.279C226.748 182.279 227.168 182.183 227.478 182.005L266.971 159.203C267.281 159.024 267.38 158.824 267.38 158.675C267.38 158.525 267.281 158.325 266.971 158.146L255.576 151.567C255.1 151.292 254.388 151.227 253.69 151.341C252.989 151.455 252.376 151.736 252.083 152.071C251.578 152.649 250.912 153.185 250.091 153.66C248.017 154.857 245.315 155.448 242.626 155.448C239.937 155.448 237.235 154.857 235.162 153.66C233.089 152.463 231.997 150.861 231.997 149.207C231.997 147.553 233.089 145.951 235.162 144.754C235.983 144.28 236.903 143.901 237.879 143.617C238.526 143.428 238.967 143.071 239.131 142.734C239.211 142.571 239.222 142.421 239.178 142.29C239.134 142.157 239.021 142.009 238.786 141.873L227.478 135.344C227.169 135.166 226.748 135.07 226.314 135.07C225.88 135.07 225.459 135.166 225.15 135.344L213.647 141.986C213.399 142.129 213.288 142.287 213.25 142.431C213.211 142.575 213.236 142.745 213.341 142.932C213.555 143.313 214.076 143.702 214.78 143.881C215.937 144.177 217.025 144.599 217.981 145.151C220.053 146.347 221.145 147.95 221.145 149.604C221.145 151.257 220.053 152.86 217.981 154.056C215.907 155.254 213.205 155.845 210.517 155.845C207.828 155.845 205.126 155.254 203.052 154.056C202.097 153.505 201.351 152.869 200.824 152.181C200.69 152.006 200.462 151.834 200.16 151.686C199.86 151.539 199.502 151.424 199.126 151.353C198.363 151.21 197.58 151.262 197.074 151.554L185.657 158.146C185.346 158.325 185.247 158.525 185.247 158.675C185.247 158.824 185.346 159.024 185.657 159.203L197.061 165.788C197.39 165.977 197.605 166.228 197.688 166.525C197.769 166.82 197.708 167.121 197.56 167.388C197.269 167.915 196.624 168.363 195.84 168.567C194.743 168.852 193.719 169.253 192.826 169.769C190.844 170.914 189.909 172.379 189.909 173.793C189.909 175.207 190.844 176.672 192.826 177.816C194.806 178.96 197.417 179.539 200.042 179.539C202.667 179.539 205.278 178.96 207.259 177.816C208.153 177.3 208.836 176.717 209.315 176.103Z" fill="#FFCA69" stroke="black" stroke-width="0.49568"/>
<path fill-rule="evenodd" clip-rule="evenodd" d="M185 155.32C184.985 155.6 185.163 155.883 185.533 156.096L196.937 162.681C197.304 162.893 197.469 163.168 197.476 163.456V166.778C197.469 166.49 197.304 166.215 196.937 166.003L185.533 159.418C185.163 159.205 184.985 158.922 185 158.642V155.32Z" fill="#DFA232" stroke="black" stroke-width="0.5" stroke-linejoin="round"/>
<path fill-rule="evenodd" clip-rule="evenodd" d="M197.476 163.456C197.489 164.069 196.785 164.743 195.778 165.005C194.663 165.295 193.618 165.704 192.702 166.233C190.675 167.403 189.662 168.937 189.662 170.471V173.793C189.662 172.259 190.675 170.725 192.702 169.555C193.618 169.026 194.663 168.617 195.778 168.327C196.785 168.065 197.489 167.391 197.476 166.778V163.456Z" fill="#DFA232" stroke="black" stroke-width="0.5" stroke-linejoin="round"/>
<path fill-rule="evenodd" clip-rule="evenodd" d="M189.661 170.471C189.661 172.005 190.675 173.539 192.702 174.709C196.756 177.05 203.329 177.05 207.383 174.709C208.299 174.18 209.008 173.577 209.51 172.933C210.177 172.078 212.388 171.601 213.536 172.263L225.026 178.897C225.737 179.308 226.89 179.308 227.601 178.897L267.094 156.096C267.45 155.891 267.628 155.622 267.628 155.353V158.675C267.628 158.944 267.45 159.213 267.094 159.418L227.601 182.219C226.89 182.63 225.737 182.63 225.026 182.219L213.536 175.585C212.388 174.923 210.177 175.4 209.51 176.255C209.008 176.899 208.299 177.502 207.383 178.031C203.329 180.372 196.756 180.372 192.702 178.031C190.675 176.861 189.661 175.327 189.661 173.793V170.471Z" fill="#DFA232" stroke="black" stroke-width="0.5" stroke-linejoin="round"/>
<path fill-rule="evenodd" clip-rule="evenodd" d="M232.244 145.885C232.244 144.351 233.258 142.817 235.285 141.647C236.087 141.184 236.988 140.813 237.948 140.533C238.829 140.276 239.423 139.706 239.45 139.164V142.486C239.423 143.028 238.829 143.598 237.948 143.855C236.988 144.135 236.087 144.506 235.285 144.969C233.258 146.139 232.244 147.673 232.244 149.207V145.885Z" fill="#DFA232" stroke="black" stroke-width="0.5" stroke-linejoin="round"/>
<path fill-rule="evenodd" clip-rule="evenodd" d="M212.985 139.234C212.978 139.855 213.7 140.539 214.719 140.8C215.857 141.09 216.924 141.505 217.857 142.044C219.884 143.214 220.897 144.748 220.897 146.282V149.604C220.897 148.07 219.884 146.536 217.857 145.366C216.924 144.827 215.857 144.412 214.719 144.122C213.7 143.861 212.978 143.178 212.985 142.556V139.234Z" fill="#DFA232" stroke="black" stroke-width="0.5" stroke-linejoin="round"/>
<path d="M209.315 172.781L209.51 172.933L209.315 172.781C209.703 172.283 210.495 171.933 211.298 171.785C212.105 171.637 213.013 171.676 213.66 172.049L225.15 178.683C225.459 178.861 225.88 178.957 226.314 178.957C226.748 178.957 227.168 178.861 227.478 178.683L266.971 155.881C267.281 155.702 267.38 155.502 267.38 155.353C267.38 155.203 267.281 155.003 266.971 154.824L255.576 148.245C255.1 147.97 254.388 147.905 253.69 148.019C252.989 148.133 252.376 148.414 252.083 148.749C251.578 149.327 250.912 149.863 250.091 150.338C248.017 151.535 245.315 152.126 242.626 152.126C239.937 152.126 237.235 151.535 235.162 150.338C233.089 149.141 231.997 147.539 231.997 145.885C231.997 144.231 233.089 142.629 235.162 141.432C235.983 140.958 236.903 140.579 237.879 140.295C238.526 140.106 238.967 139.748 239.131 139.412C239.211 139.249 239.222 139.099 239.178 138.968C239.134 138.835 239.021 138.687 238.786 138.551L227.478 132.022C227.169 131.844 226.748 131.748 226.314 131.748C225.88 131.748 225.459 131.844 225.15 132.022L213.647 138.664C213.399 138.807 213.288 138.965 213.25 139.109C213.211 139.253 213.236 139.423 213.341 139.61C213.555 139.991 214.076 140.38 214.78 140.559C215.937 140.855 217.025 141.277 217.981 141.829C220.053 143.025 221.145 144.628 221.145 146.282C221.145 147.935 220.053 149.538 217.981 150.734C215.907 151.931 213.205 152.523 210.517 152.523C207.828 152.523 205.126 151.932 203.052 150.734C202.097 150.183 201.351 149.547 200.824 148.859C200.69 148.684 200.462 148.512 200.16 148.364C199.86 148.217 199.502 148.102 199.126 148.031C198.363 147.888 197.58 147.94 197.074 148.232L185.657 154.824C185.346 155.003 185.247 155.203 185.247 155.353C185.247 155.502 185.346 155.702 185.657 155.881L197.061 162.466C197.39 162.655 197.605 162.906 197.688 163.203C197.769 163.498 197.708 163.799 197.56 164.066C197.269 164.593 196.624 165.041 195.84 165.244C194.743 165.53 193.719 165.931 192.826 166.447C190.844 167.592 189.909 169.057 189.909 170.471C189.909 171.885 190.844 173.35 192.826 174.494C194.806 175.638 197.417 176.217 200.042 176.217C202.667 176.217 205.278 175.638 207.259 174.494C208.153 173.978 208.836 173.395 209.315 172.781Z" fill="#FFCA69" stroke="black" stroke-width="0.49568"/>
<path d="M207.386 71.3597L207.582 71.2073L207.386 71.3597C206.907 70.7455 206.225 70.1621 205.331 69.646C203.35 68.5026 200.739 67.9237 198.114 67.9237C195.489 67.9237 192.878 68.5025 190.897 69.6459C188.915 70.7902 187.981 72.2552 187.981 73.6694C187.981 75.0835 188.916 76.5486 190.898 77.6928C191.791 78.2088 192.815 78.6105 193.912 78.8959C194.696 79.0997 195.341 79.5471 195.632 80.0738C195.78 80.3412 195.841 80.6419 195.759 80.9375C195.677 81.234 195.461 81.485 195.133 81.6745L185.657 87.1457C185.346 87.3249 185.247 87.5252 185.247 87.6745C185.247 87.8239 185.346 88.0241 185.657 88.2034L195.454 93.8595C195.756 94.0341 195.965 94.26 196.061 94.5263C196.158 94.7947 196.129 95.0726 196.014 95.3254C195.789 95.8199 195.232 96.2377 194.529 96.4551C193.667 96.7218 192.861 97.0638 192.139 97.4806C190.157 98.6248 189.222 100.09 189.222 101.504C189.222 102.918 190.157 104.383 192.139 105.528C194.119 106.671 196.731 107.25 199.355 107.25C201.98 107.25 204.592 106.671 206.572 105.527C207.294 105.111 207.878 104.65 208.329 104.164C208.737 103.724 209.463 103.43 210.198 103.318C210.935 103.207 211.75 103.268 212.348 103.614L225.15 111.005C225.459 111.183 225.88 111.279 226.314 111.279C226.748 111.279 227.169 111.183 227.478 111.005L238.872 104.426C239.107 104.291 239.22 104.142 239.264 104.01C239.308 103.878 239.297 103.729 239.217 103.566C239.053 103.229 238.612 102.871 237.965 102.683C236.988 102.398 236.069 102.02 235.247 101.545C233.175 100.349 232.083 98.7461 232.083 97.0925C232.083 95.4388 233.175 93.8362 235.247 92.6398C237.321 91.4426 240.023 90.8511 242.712 90.8511C245.401 90.8511 248.103 91.4426 250.176 92.6398C250.998 93.1141 251.664 93.6506 252.169 94.2287C252.462 94.5639 253.074 94.8449 253.776 94.9588C254.474 95.0722 255.185 95.0076 255.662 94.7325L266.971 88.2034C267.281 88.0242 267.38 87.8239 267.38 87.6745C267.38 87.5252 267.281 87.3249 266.971 87.1457L255.467 80.5042C254.961 80.2122 254.178 80.1605 253.416 80.3036C253.04 80.3741 252.682 80.4897 252.382 80.6363C252.079 80.7842 251.851 80.9563 251.717 81.1311C251.19 81.8191 250.445 82.4551 249.489 83.0067C247.416 84.2039 244.714 84.7954 242.025 84.7954C239.336 84.7954 236.634 84.2039 234.561 83.0067C232.488 81.8104 231.396 80.2077 231.396 78.554C231.396 76.9004 232.488 75.2977 234.561 74.1013C235.516 73.5496 236.604 73.1271 237.761 72.8317C238.465 72.6519 238.986 72.2633 239.201 71.8825C239.306 71.6958 239.33 71.5255 239.292 71.3809C239.253 71.2378 239.143 71.0791 238.895 70.9361L227.478 64.3444C227.169 64.1659 226.748 64.0696 226.314 64.0696C225.88 64.0696 225.459 64.166 225.15 64.3444L211.731 72.0915C211.085 72.4647 210.177 72.5034 209.369 72.3548C208.567 72.2072 207.775 71.8577 207.386 71.3597Z" fill="#99ACEB" stroke="black" stroke-width="0.49568"/>
<path fill-rule="evenodd" clip-rule="evenodd" d="M231.649 75.4159C231.565 73.8213 232.577 72.211 234.685 70.9938C235.618 70.4552 236.684 70.0404 237.823 69.7497C238.811 69.4973 239.521 68.8455 239.556 68.2393V71.5613C239.521 72.1676 238.811 72.8193 237.823 73.0718C236.684 73.3625 235.618 73.7772 234.685 74.3159C232.577 75.533 231.565 77.1434 231.649 78.738V75.4159Z" fill="#7676E8" stroke="black" stroke-width="0.5" stroke-linejoin="round"/>
<path fill-rule="evenodd" clip-rule="evenodd" d="M187.738 70.1633C187.653 71.758 188.665 73.3683 190.773 74.5854C191.689 75.1143 192.734 75.5237 193.849 75.8137C194.826 76.0676 195.519 76.7101 195.547 77.3082V80.6302C195.519 80.0322 194.826 79.3897 193.849 79.1358C192.734 78.8458 191.689 78.4363 190.773 77.9074C188.665 76.6904 187.653 75.08 187.738 73.4854V70.1633Z" fill="#7676E8" stroke="black" stroke-width="0.5" stroke-linejoin="round"/>
<path fill-rule="evenodd" clip-rule="evenodd" d="M195.547 77.3081C195.561 77.6162 195.399 77.9125 195.009 78.1378L185.533 83.609C185.177 83.8143 184.999 84.0834 184.999 84.3525V87.6745C184.999 87.4054 185.177 87.1363 185.533 86.931L195.009 81.4598C195.399 81.2345 195.561 80.9382 195.547 80.6301V77.3081Z" fill="#7676E8" stroke="black" stroke-width="0.0996613" stroke-linejoin="round"/>
<path fill-rule="evenodd" clip-rule="evenodd" d="M185 84.3525C185 84.6216 185.177 84.8907 185.533 85.096L195.33 90.7521C195.691 90.9609 195.859 91.2281 195.871 91.5061V94.8282C195.859 94.5502 195.691 94.2829 195.33 94.0742L185.533 88.4181C185.177 88.2128 185 87.9437 185 87.6746V84.3525Z" fill="#7676E8" stroke="black" stroke-width="0.5" stroke-linejoin="round"/>
<path fill-rule="evenodd" clip-rule="evenodd" d="M195.871 91.5061C195.895 92.0457 195.331 92.6258 194.456 92.8963C193.579 93.1677 192.755 93.5167 192.015 93.9439C189.988 95.1142 188.975 96.6481 188.975 98.182V101.504C188.975 99.9701 189.988 98.4362 192.015 97.266C192.755 96.8388 193.579 96.4898 194.456 96.2184C195.331 95.9478 195.895 95.3678 195.871 94.8281V91.5061Z" fill="#7676E8" stroke="black" stroke-width="0.0996613" stroke-linejoin="round"/>
<path fill-rule="evenodd" clip-rule="evenodd" d="M188.974 98.1819C188.974 99.7158 189.987 101.25 192.014 102.42C196.069 104.761 202.642 104.761 206.696 102.42C207.436 101.993 208.04 101.517 208.51 101.011C209.22 100.246 211.161 99.8923 212.224 100.506L225.026 107.897C225.737 108.308 226.89 108.308 227.601 107.897L238.996 101.319C239.366 101.105 239.533 100.829 239.537 100.542V103.864C239.533 104.151 239.366 104.427 238.996 104.641L227.601 111.219C226.89 111.63 225.737 111.63 225.026 111.219L212.224 103.828C211.161 103.214 209.22 103.568 208.51 104.333C208.04 104.839 207.436 105.315 206.696 105.742C202.642 108.083 196.069 108.083 192.014 105.742C189.987 104.572 188.974 103.038 188.974 101.504V98.1819Z" fill="#7676E8" stroke="black" stroke-width="0.5" stroke-linejoin="round"/>
<path fill-rule="evenodd" clip-rule="evenodd" d="M232.336 93.9545C232.251 92.3599 233.263 90.7495 235.371 89.5324C239.425 87.1918 245.998 87.1918 250.052 89.5324C250.854 89.9955 251.498 90.5155 251.983 91.0699C252.677 91.8644 254.696 92.2545 255.786 91.6252L267.094 85.0961C267.45 84.8907 267.628 84.6216 267.628 84.3525V87.6746C267.628 87.9437 267.45 88.2128 267.094 88.4181L255.786 94.9472C254.696 95.5765 252.677 95.1864 251.983 94.3919C251.498 93.8375 250.854 93.3175 250.052 92.8544C245.998 90.5138 239.425 90.5138 235.371 92.8544C233.263 94.0716 232.251 95.6819 232.336 97.2766V93.9545Z" fill="#7676E8" stroke="black" stroke-width="0.5" stroke-linejoin="round"/>
<path d="M207.386 68.0377L207.582 67.8852L207.386 68.0377C206.907 67.4235 206.225 66.84 205.331 66.3239C203.35 65.1805 200.739 64.6017 198.114 64.6017C195.489 64.6017 192.878 65.1805 190.897 66.3239C188.915 67.4682 187.981 68.9332 187.981 70.3473C187.981 71.7615 188.916 73.2265 190.898 74.3707C191.791 74.8868 192.815 75.2885 193.912 75.5738C194.696 75.7777 195.341 76.2251 195.632 76.7518C195.78 77.0192 195.841 77.3199 195.759 77.6155C195.677 77.912 195.461 78.163 195.133 78.3524L185.657 83.8237C185.346 84.0029 185.247 84.2032 185.247 84.3525C185.247 84.5019 185.346 84.7021 185.657 84.8814L195.454 90.5375C195.756 90.7121 195.965 90.9379 196.061 91.2043C196.158 91.4726 196.129 91.7505 196.014 92.0034C195.789 92.4979 195.232 92.9157 194.529 93.1331C193.667 93.3998 192.861 93.7418 192.139 94.1586C190.157 95.3028 189.222 96.7678 189.222 98.182C189.222 99.5961 190.157 101.061 192.139 102.205C194.119 103.349 196.731 103.928 199.355 103.928C201.98 103.928 204.592 103.349 206.572 102.205C207.294 101.789 207.878 101.328 208.329 100.842C208.737 100.402 209.463 100.108 210.198 99.9964C210.935 99.8845 211.75 99.946 212.348 100.292L225.15 107.683C225.459 107.861 225.88 107.957 226.314 107.957C226.748 107.957 227.169 107.861 227.478 107.683L238.872 101.104C239.107 100.969 239.22 100.82 239.264 100.688C239.308 100.556 239.297 100.407 239.217 100.244C239.053 99.907 238.612 99.5493 237.965 99.3608C236.988 99.0763 236.069 98.6975 235.247 98.2232C233.175 97.0268 232.083 95.4241 232.083 93.7705C232.083 92.1168 233.175 90.5141 235.247 89.3177C237.321 88.1206 240.023 87.5291 242.712 87.5291C245.401 87.5291 248.103 88.1206 250.176 89.3177C250.998 89.7921 251.664 90.3286 252.169 90.9067C252.462 91.2419 253.074 91.5229 253.776 91.6368C254.474 91.7501 255.185 91.6856 255.662 91.4105L266.971 84.8814C267.281 84.7022 267.38 84.5019 267.38 84.3525C267.38 84.2032 267.281 84.0029 266.971 83.8236L255.467 77.1822C254.961 76.8901 254.178 76.8385 253.416 76.9816C253.04 77.0521 252.682 77.1677 252.382 77.3143C252.079 77.4622 251.851 77.6342 251.717 77.8091C251.19 78.4971 250.445 79.133 249.489 79.6847C247.416 80.8819 244.714 81.4734 242.025 81.4734C239.336 81.4734 236.634 80.8819 234.561 79.6847C232.488 78.4883 231.396 76.8856 231.396 75.232C231.396 73.5784 232.488 71.9757 234.561 70.7793C235.516 70.2275 236.604 69.8051 237.761 69.5097C238.465 69.3299 238.986 68.9413 239.201 68.5604C239.306 68.3738 239.33 68.2034 239.292 68.0589C239.253 67.9158 239.143 67.7571 238.895 67.6141L227.478 61.0223C227.169 60.8439 226.748 60.7476 226.314 60.7476C225.88 60.7476 225.459 60.8439 225.15 61.0224L211.731 68.7695C211.085 69.1427 210.177 69.1813 209.369 69.0328C208.567 68.8851 207.775 68.5357 207.386 68.0377Z" fill="#99ACEB" stroke="black" stroke-width="0.49568"/>
<path d="M280.85 96.6428C280.541 96.4643 280.12 96.368 279.686 96.368C279.252 96.3679 278.831 96.4642 278.522 96.6427L265.585 104.112C265.222 104.321 264.768 104.419 264.296 104.442C263.822 104.465 263.312 104.413 262.826 104.307C262.34 104.202 261.87 104.04 261.475 103.84C261.084 103.643 260.744 103.396 260.544 103.108C260.063 102.412 259.326 101.75 258.325 101.171C256.344 100.028 253.733 99.449 251.108 99.449C248.483 99.449 245.872 100.028 243.892 101.171C241.91 102.316 240.975 103.781 240.975 105.195C240.975 106.609 241.91 108.074 243.892 109.218C244.893 109.796 246.057 110.231 247.304 110.519C248.188 110.723 248.966 111.253 249.359 111.855C249.557 112.157 249.671 112.499 249.621 112.838C249.57 113.186 249.354 113.483 248.985 113.696L239.029 119.444C238.718 119.623 238.619 119.823 238.619 119.973C238.619 120.122 238.719 120.323 239.029 120.502L249.427 126.505C249.717 126.673 249.922 126.887 250.023 127.14C250.126 127.395 250.112 127.662 250.013 127.909C249.819 128.391 249.304 128.798 248.643 129.024C247.921 129.27 247.243 129.572 246.627 129.928C244.645 131.072 243.71 132.537 243.71 133.951C243.71 135.365 244.645 136.83 246.627 137.975C248.607 139.118 251.219 139.697 253.844 139.697C256.468 139.697 259.08 139.118 261.06 137.975C261.677 137.619 262.193 137.231 262.611 136.822C263.031 136.412 263.731 136.145 264.436 136.05C265.144 135.955 265.917 136.026 266.493 136.358L278.522 143.303C278.831 143.481 279.252 143.578 279.686 143.578C280.12 143.578 280.541 143.482 280.85 143.303L293.415 136.048C294.093 135.657 295.074 135.638 295.94 135.812C296.379 135.901 296.803 136.042 297.164 136.223C297.522 136.403 297.835 136.631 298.031 136.903C298.513 137.572 299.233 138.209 300.2 138.768C302.181 139.911 304.792 140.49 307.417 140.49C310.041 140.49 312.653 139.911 314.633 138.768C316.615 137.623 317.55 136.158 317.55 134.744C317.55 133.33 316.615 131.865 314.633 130.721C313.666 130.162 312.548 129.738 311.348 129.45C310.515 129.25 309.811 128.773 309.475 128.218C309.306 127.938 309.221 127.62 309.29 127.306C309.359 126.987 309.577 126.717 309.923 126.517L320.343 120.502C320.653 120.323 320.752 120.122 320.752 119.973C320.752 119.824 320.653 119.623 320.343 119.444L280.85 96.6428Z" fill="#90E0EF" stroke="black" stroke-width="0.49568"/>
<path fill-rule="evenodd" clip-rule="evenodd" d="M321 116.651C321 116.92 320.822 117.189 320.467 117.394L310.047 123.41C309.687 123.618 309.523 123.891 309.514 124.18V127.502C309.523 127.213 309.687 126.94 310.047 126.732L320.467 120.716C320.822 120.511 321 120.242 321 119.973V116.651Z" fill="#6BBCCB" stroke="black" stroke-width="0.5" stroke-linejoin="round"/>
<path fill-rule="evenodd" clip-rule="evenodd" d="M309.514 124.18C309.492 124.855 310.307 125.623 311.406 125.887C312.625 126.179 313.766 126.612 314.757 127.184C316.784 128.354 317.798 129.888 317.798 131.422V134.744C317.798 133.21 316.784 131.676 314.757 130.506C313.766 129.934 312.625 129.501 311.406 129.209C310.307 128.945 309.492 128.177 309.514 127.502V124.18Z" fill="#6BBCCB" stroke="black" stroke-width="0.0996613" stroke-linejoin="round"/>
<path fill-rule="evenodd" clip-rule="evenodd" d="M317.798 131.422C317.798 132.956 316.784 134.49 314.757 135.66C310.703 138.001 304.13 138.001 300.076 135.66C299.085 135.088 298.336 134.429 297.83 133.725C297.177 132.819 294.741 132.247 293.539 132.941L280.974 140.196C280.262 140.606 279.109 140.606 278.398 140.195L266.369 133.25C265.347 132.661 263.52 132.96 262.784 133.677C262.349 134.102 261.816 134.502 261.184 134.867C257.13 137.208 250.557 137.208 246.503 134.867C244.476 133.697 243.462 132.163 243.462 130.629V133.951C243.462 135.485 244.476 137.019 246.503 138.189C250.557 140.53 257.13 140.53 261.184 138.189C261.816 137.824 262.349 137.424 262.784 137C263.52 136.282 265.347 135.983 266.369 136.572L278.398 143.518C279.109 143.928 280.262 143.928 280.974 143.518L293.539 136.263C294.741 135.569 297.177 136.141 297.83 137.047C298.336 137.751 299.085 138.41 300.076 138.982C304.13 141.323 310.703 141.323 314.757 138.982C316.784 137.812 317.798 136.278 317.798 134.744V131.422Z" fill="#6BBCCB" stroke="black" stroke-width="0.5" stroke-linejoin="round"/>
<path fill-rule="evenodd" clip-rule="evenodd" d="M249.845 124.212C249.857 123.913 249.691 123.622 249.303 123.398L238.905 117.394C238.549 117.189 238.371 116.92 238.371 116.651V119.973C238.371 120.242 238.549 120.511 238.905 120.716L249.303 126.72C249.691 126.944 249.857 127.235 249.845 127.534V124.212Z" fill="#6BBCCB" stroke="black" stroke-width="0.5" stroke-linejoin="round"/>
<path fill-rule="evenodd" clip-rule="evenodd" d="M249.384 109.386C249.41 108.625 248.444 107.714 247.248 107.438C245.981 107.146 244.794 106.703 243.768 106.111C241.74 104.94 240.727 103.406 240.727 101.873V105.195C240.727 106.728 241.74 108.262 243.768 109.433C244.794 110.025 245.981 110.468 247.248 110.76C248.444 111.036 249.41 111.947 249.384 112.708V109.386Z" fill="#6BBCCB" stroke="black" stroke-width="0.5" stroke-linejoin="round"/>
<path d="M280.85 93.3205C280.541 93.1421 280.12 93.0457 279.686 93.0457C279.252 93.0457 278.831 93.142 278.522 93.3204L265.585 100.79C265.222 100.999 264.768 101.097 264.296 101.12C263.822 101.143 263.312 101.091 262.826 100.985C262.34 100.879 261.87 100.718 261.475 100.518C261.084 100.32 260.744 100.074 260.544 99.7853C260.063 99.0899 259.326 98.4274 258.325 97.8491C256.344 96.7056 253.733 96.1268 251.108 96.1268C248.483 96.1268 245.872 96.7056 243.892 97.849C241.91 98.9933 240.975 100.458 240.975 101.872C240.975 103.287 241.91 104.752 243.892 105.896C244.893 106.474 246.057 106.909 247.304 107.197C248.188 107.4 248.966 107.931 249.359 108.533C249.557 108.835 249.671 109.177 249.621 109.515C249.57 109.864 249.354 110.161 248.985 110.374L239.029 116.122C238.718 116.301 238.619 116.501 238.619 116.651C238.619 116.8 238.719 117 239.029 117.18L249.427 123.183C249.717 123.35 249.922 123.565 250.023 123.818C250.126 124.073 250.112 124.34 250.013 124.587C249.819 125.068 249.304 125.476 248.643 125.701C247.921 125.948 247.243 126.249 246.627 126.605C244.645 127.75 243.71 129.215 243.71 130.629C243.71 132.043 244.645 133.508 246.627 134.652C248.607 135.796 251.219 136.375 253.844 136.375C256.468 136.375 259.08 135.796 261.06 134.652C261.677 134.296 262.193 133.908 262.611 133.5C263.031 133.09 263.731 132.823 264.436 132.728C265.144 132.633 265.917 132.704 266.493 133.036L278.522 139.981C278.831 140.159 279.252 140.256 279.686 140.256C280.12 140.256 280.541 140.159 280.85 139.981L293.415 132.726C294.093 132.335 295.074 132.315 295.94 132.49C296.379 132.578 296.803 132.72 297.164 132.901C297.522 133.081 297.835 133.309 298.031 133.58C298.513 134.25 299.233 134.887 300.2 135.445C302.181 136.589 304.792 137.168 307.417 137.168C310.041 137.168 312.653 136.589 314.633 135.445C316.615 134.301 317.55 132.836 317.55 131.422C317.55 130.008 316.615 128.543 314.633 127.399C313.666 126.84 312.548 126.416 311.348 126.128C310.515 125.928 309.811 125.451 309.475 124.896C309.306 124.615 309.221 124.298 309.29 123.984C309.359 123.665 309.577 123.395 309.923 123.195L320.343 117.18C320.653 117 320.752 116.8 320.752 116.651C320.752 116.501 320.653 116.301 320.343 116.122L280.85 93.3205Z" fill="#90E0EF" stroke="black" stroke-width="0.49568"/>
<path d="M182.71 256.518C179.885 253.56 177.521 250.703 176.625 246.598C175.841 243.012 176.004 239.113 175.92 235.454" stroke="black" stroke-width="1.29692" stroke-linecap="round"/>
<path d="M195.571 274.349C195.1 276.95 193.984 280.602 195.146 283.175C196.034 285.143 199.259 286.863 200.826 284.707C201.27 284.096 201.607 282.067 202.131 283.652C202.488 284.733 202.714 285.816 203.233 286.832" stroke="black" stroke-width="1.29692" stroke-linecap="round"/>
<path d="M207.646 273.512C207.357 275.459 206.219 278.688 207.95 280.242C208.759 280.967 210.115 281.563 211.21 281.177C212.72 280.644 212.861 278.49 213.186 277.195C213.649 275.35 213.566 278.542 213.838 279.093C214.194 279.812 214.565 280.975 215.165 281.518" stroke="black" stroke-width="1.29692" stroke-linecap="round"/>
<ellipse cx="202.341" cy="245.735" rx="29.5695" ry="23.1284" transform="rotate(89.5879 202.341 245.735)" fill="#FC6D83"/>
<path d="M184.308 245.979C184.733 244.279 185.973 238.134 188.933 239.105C191.112 239.82 191.63 243.957 191.818 245.881" stroke="black" stroke-width="1.29692" stroke-linecap="round"/>
<path d="M198.218 246.429C197.598 244.532 199.654 235.888 202.683 239.869C203.733 241.248 204.379 244.503 204.113 246.293" stroke="black" stroke-width="1.29692" stroke-linecap="round"/>
<path d="M190.979 248.795C192.138 249.053 193.113 249.838 194.262 250.172C196.186 250.732 197.943 250.473 199.567 249.308C200.411 248.703 200.571 248.104 200.596 249.506C200.629 251.406 200.254 253.324 199.952 255.194C199.721 256.618 199.425 258.979 197.509 258.904C194.71 258.796 193.59 255.795 192.764 253.584C192.311 252.37 191.348 250.398 191.544 249.081" stroke="black" stroke-width="1.29692" stroke-linecap="round"/>
<path d="M220.569 256.509C224.091 252.163 226.793 248.036 228.289 242.583C229.021 239.915 229.276 237.309 229.527 234.589" stroke="black" stroke-width="1.29692" stroke-linecap="round"/>
<ellipse cx="202" cy="298" rx="20" ry="3.5" fill="#D8929C"/>
<path d="M308.986 57.6763C311.645 58.363 312.977 59.4076 313.445 62.16C313.918 64.9374 312.997 68.6387 310.489 70.2058C310.046 70.4828 308.497 70.6035 309.036 71.3766C309.876 72.5815 312.108 73.1891 313.321 72.3232" stroke="black" stroke-width="1.01192" stroke-linecap="round"/>
<path d="M263.252 56.7769C261.761 56.836 259.937 56.8733 258.793 57.9974C257.856 58.9183 257.915 60.6366 258.137 61.8086C258.531 63.8843 259.712 67.2806 262.139 67.6541C262.268 67.6739 263.492 67.661 263.484 67.7537C263.352 69.336 261.55 69.9867 260.263 70.0786" stroke="black" stroke-width="1.01192" stroke-linecap="round"/>
<path d="M288.809 79.6907C289.193 81.2043 289.528 82.7176 289.789 84.2575C289.86 84.6787 289.851 85.8282 290.32 86.1174C291.419 86.7944 293.429 86.3871 294.621 86.3333C295.276 86.3037 295.926 86.2668 296.581 86.2668" stroke="black" stroke-width="1.01192" stroke-linecap="round"/>
<path d="M282.233 79.9895C282.233 81.5221 282.359 83.1235 282.15 84.6476C282.061 85.2972 281.949 85.9795 281.303 86.3C279.33 87.2784 276.728 86.992 274.76 86.2667" stroke="black" stroke-width="1.01192" stroke-linecap="round"/>
<rect width="45.2889" height="63.228" rx="14.7042" transform="matrix(-1 0 0 1 308.65 16.6372)" fill="#BDE0FE"/>
<circle cx="2.19249" cy="2.19249" r="2.19249" transform="matrix(-1 -6.65437e-10 -6.65437e-10 1 293.81 50.0305)" fill="black"/>
<circle cx="2.19249" cy="2.19249" r="2.19249" transform="matrix(-1 -6.65437e-10 -6.65437e-10 1 279.979 48.344)" fill="black"/>
<path d="M273.08 62.5109C273.08 64.0384 274.092 65.5025 275.901 66.6112C277.702 67.7147 280.221 68.4137 283.031 68.4137C285.84 68.4137 288.36 67.7147 290.16 66.6112C291.969 65.5025 292.981 64.0384 292.981 62.5109C292.981 60.9834 291.969 59.5192 290.16 58.4105C288.36 57.307 285.84 56.608 283.031 56.608C280.221 56.608 277.702 57.307 275.901 58.4105C274.092 59.5192 273.08 60.9834 273.08 62.5109Z" stroke="black" stroke-width="1.01192"/>
<path d="M157.521 11.386L157.734 11.5158L157.521 11.386C157.123 12.0405 156.97 12.8141 157.078 13.4309C157.133 13.7404 157.257 14.0286 157.47 14.2355C157.689 14.4483 157.984 14.556 158.332 14.5293L169.591 13.6657C169.858 13.6452 170.034 13.7461 170.134 13.9007C170.239 14.0646 170.283 14.3314 170.183 14.6771L166.202 28.5307C166.044 29.0806 165.589 29.5681 165.048 29.8773C164.499 30.1911 163.934 30.2819 163.576 30.142L163.485 30.375L163.576 30.142C162.851 29.8595 162.021 29.7417 161.108 29.8117C159.051 29.9695 156.941 31.0507 155.188 32.6479C153.434 34.2466 152.017 36.3799 151.357 38.6748C150.698 40.9684 150.913 43.0184 151.841 44.4667C152.775 45.9244 154.405 46.7312 156.472 46.5726C157.385 46.5026 158.307 46.2506 159.203 45.8539C159.728 45.6214 160.241 45.6627 160.568 45.8663C160.73 45.9668 160.849 46.1071 160.911 46.28C160.974 46.4531 160.987 46.6752 160.908 46.9477L157.61 58.4237C157.511 58.7681 157.295 59.0968 157.022 59.3451C156.748 59.5949 156.437 59.7455 156.159 59.7668L117.462 62.735C117.195 62.7555 117.019 62.6547 116.92 62.5C116.815 62.3361 116.771 62.0693 116.87 61.7236L120.382 49.5035C120.539 48.9582 120.986 48.475 121.518 48.1677C122.058 47.8559 122.615 47.7634 122.973 47.8989L122.973 47.8989C123.687 48.1691 124.502 48.2808 125.397 48.2121C127.454 48.0544 129.564 46.9731 131.316 45.376C133.071 43.7773 134.488 41.644 135.147 39.3491C135.807 37.0555 135.591 35.0054 134.664 33.5571C133.73 32.0995 132.1 31.2927 130.032 31.4512C129.138 31.5198 128.235 31.7631 127.356 32.1459L127.356 32.1459C126.836 32.3725 126.334 32.3287 126.014 32.1265C125.713 31.9359 125.534 31.5799 125.685 31.0529L129.443 17.9769C129.542 17.6326 129.759 17.3039 130.031 17.0557C130.305 16.8059 130.616 16.6552 130.894 16.6339L142.069 15.7768C142.741 15.7252 143.371 15.1963 143.81 14.5857C144.254 13.9693 144.561 13.1908 144.529 12.5356C144.487 11.6934 144.598 10.7625 144.883 9.77068C145.514 7.57495 146.876 5.51922 148.57 3.97541C150.266 2.43001 152.276 1.41521 154.191 1.26828C156.096 1.12217 157.539 1.8597 158.363 3.14526C159.192 4.44015 159.419 6.33213 158.787 8.52918C158.502 9.52096 158.068 10.4843 157.521 11.386Z" fill="#68B1A6" stroke="black" stroke-width="0.5"/>
<path fill-rule="evenodd" clip-rule="evenodd" d="M118.941 64.5112C119.096 64.6389 119.306 64.7037 119.557 64.6845L158.254 61.7163C158.951 61.6629 159.699 60.9808 159.926 60.193L163.224 48.7169C163.384 48.1625 163.233 47.7261 162.915 47.4555L160.839 45.7554C161.158 46.026 161.308 46.4624 161.149 47.0168L157.85 58.4929C157.624 59.2807 156.875 59.9627 156.178 60.0162L117.482 62.9844C117.231 63.0036 117.021 62.9388 116.865 62.8111L118.941 64.5112Z" fill="#12775B" stroke="black" stroke-width="0.5" stroke-linejoin="round"/>
<path fill-rule="evenodd" clip-rule="evenodd" d="M162.914 47.4554C162.509 47.111 161.832 47.035 161.177 47.3255C160.303 47.7125 159.408 47.956 158.528 48.0235C157.177 48.1271 156.035 47.8032 155.165 47.154L153.09 45.4539C153.959 46.1031 155.102 46.427 156.452 46.3234C157.333 46.2559 158.228 46.0124 159.101 45.6254C159.757 45.3349 160.434 45.4109 160.839 45.7553L162.914 47.4554Z" fill="#12775B" stroke="black" stroke-width="0.5" stroke-linejoin="round"/>
<path fill-rule="evenodd" clip-rule="evenodd" d="M155.166 47.1541C153.479 45.8939 152.821 43.408 153.673 40.4441C154.964 35.9534 159.23 32.0659 163.203 31.7613C164.083 31.6937 164.875 31.8078 165.561 32.0752C166.48 32.4337 168.156 31.5602 168.518 30.3L172.5 16.4464C172.644 15.9422 172.54 15.5168 172.264 15.29L170.189 13.5898C170.465 13.8167 170.569 14.2421 170.424 14.7463L166.442 28.5999C166.08 29.86 164.404 30.7336 163.485 30.3751C162.8 30.1077 162.008 29.9936 161.127 30.0611C157.155 30.3658 152.888 34.2533 151.598 38.744C150.746 41.7079 151.403 44.1938 153.091 45.454L155.166 47.1541Z" fill="#12775B" stroke="black" stroke-width="0.5" stroke-linejoin="round"/>
<path fill-rule="evenodd" clip-rule="evenodd" d="M172.264 15.29C172.108 15.1624 171.898 15.0975 171.647 15.1168L160.389 15.9804C160.141 15.9993 159.939 15.9352 159.782 15.8106L157.706 14.1105C157.863 14.2351 158.066 14.2992 158.313 14.2802L169.572 13.4167C169.823 13.3974 170.033 13.4623 170.188 13.5899L172.264 15.29Z" fill="#12775B" stroke="black" stroke-width="0.5" stroke-linejoin="round"/>
<path fill-rule="evenodd" clip-rule="evenodd" d="M159.781 15.8106C159.223 15.3689 159.232 14.1673 159.81 13.2161C160.367 12.2972 160.811 11.3136 161.103 10.2985C161.929 7.42457 161.336 5.00003 159.76 3.7067L157.685 2.00659C159.26 3.29992 159.853 5.72446 159.027 8.59843C158.735 9.61344 158.292 10.5971 157.734 11.5159C157.157 12.4672 157.148 13.6688 157.705 14.1105L159.781 15.8106Z" fill="#12775B" stroke="black" stroke-width="0.5" stroke-linejoin="round"/>
<path fill-rule="evenodd" clip-rule="evenodd" d="M159.761 3.70651C158.875 2.97901 157.678 2.60944 156.248 2.71913C152.275 3.02382 148.009 6.91115 146.718 11.4017C146.426 12.4167 146.312 13.3752 146.355 14.2479C146.412 15.4064 145.25 17.1414 144.125 17.2276L132.951 18.0847C132.254 18.1382 131.505 18.8202 131.279 19.608L127.521 32.6839C127.363 33.2336 127.508 33.6669 127.82 33.9367L125.744 32.2366C125.433 31.9668 125.287 31.5335 125.445 30.9838L129.203 17.9078C129.43 17.1201 130.178 16.4381 130.875 16.3846L142.05 15.5275C143.174 15.4412 144.336 13.7063 144.279 12.5478C144.236 11.6751 144.351 10.7166 144.643 9.70162C145.933 5.21104 150.2 1.3237 154.172 1.01901C155.602 0.909325 156.799 1.2789 157.685 2.0064L159.761 3.70651Z" fill="#12775B" stroke="black" stroke-width="0.5" stroke-linejoin="round"/>
<path fill-rule="evenodd" clip-rule="evenodd" d="M127.82 33.9368C128.216 34.2802 128.881 34.3587 129.532 34.0753C130.389 33.7019 131.265 33.4669 132.127 33.4008C133.478 33.2972 134.62 33.6211 135.49 34.2703L133.414 32.5702C132.545 31.921 131.402 31.5971 130.052 31.7007C129.189 31.7668 128.313 32.0018 127.456 32.3752C126.806 32.6586 126.141 32.5801 125.744 32.2367L127.82 33.9368Z" fill="#12775B" stroke="black" stroke-width="0.5" stroke-linejoin="round"/>
<path fill-rule="evenodd" clip-rule="evenodd" d="M135.49 34.2702C137.177 35.5304 137.834 38.0163 136.983 40.9802C135.692 45.4709 131.425 49.3583 127.453 49.6631C126.591 49.7292 125.813 49.621 125.137 49.3652C124.221 49.0184 122.576 49.8854 122.217 51.1346L118.705 63.3547C118.56 63.8589 118.664 64.2843 118.941 64.5112L116.865 62.8111C116.589 62.5842 116.485 62.1588 116.63 61.6546L120.142 49.4345C120.501 48.1853 122.146 47.3183 123.062 47.6651C123.738 47.9209 124.515 48.0291 125.378 47.9629C129.35 47.6582 133.616 43.7708 134.907 39.2801C135.759 36.3162 135.102 33.8303 133.414 32.5701L135.49 34.2702Z" fill="#12775B" stroke="black" stroke-width="0.5" stroke-linejoin="round"/>
<path d="M159.596 13.0862L159.81 13.216L159.596 13.0862C159.199 13.7407 159.045 14.5143 159.153 15.1311C159.208 15.4406 159.332 15.7288 159.545 15.9357C159.765 16.1485 160.059 16.2562 160.407 16.2295L171.666 15.3659C171.933 15.3454 172.11 15.4463 172.209 15.6009C172.314 15.7648 172.358 16.0316 172.259 16.3773L168.277 30.2309C168.119 30.7808 167.664 31.2683 167.123 31.5775C166.574 31.8913 166.009 31.9821 165.651 31.8422L165.56 32.0751L165.651 31.8422C164.926 31.5597 164.096 31.4419 163.183 31.5119C161.126 31.6697 159.016 32.7509 157.263 34.3481C155.509 35.9468 154.092 38.0801 153.432 40.375C152.773 42.6686 152.988 44.7186 153.916 46.1669C154.85 47.6246 156.48 48.4314 158.547 48.2728C159.46 48.2028 160.383 47.9508 161.278 47.5541C161.803 47.3216 162.316 47.3629 162.643 47.5665C162.805 47.667 162.924 47.8073 162.986 47.9802C163.049 48.1533 163.062 48.3754 162.984 48.6479L159.685 60.1239C159.586 60.4683 159.37 60.797 159.098 61.0453C158.823 61.2951 158.512 61.4457 158.235 61.467L119.538 64.4352C119.27 64.4557 119.094 64.3549 118.995 64.2002C118.89 64.0363 118.846 63.7695 118.945 63.4238L122.457 51.2037C122.614 50.6584 123.061 50.1752 123.593 49.8679C124.133 49.5561 124.691 49.4636 125.048 49.599L125.048 49.5991C125.762 49.8693 126.577 49.981 127.472 49.9123C129.529 49.7546 131.639 48.6733 133.392 47.0762C135.146 45.4775 136.563 43.3442 137.223 41.0493C137.882 38.7557 137.667 36.7056 136.739 35.2573C135.805 33.7997 134.175 32.9928 132.108 33.1514C131.213 33.22 130.31 33.4632 129.432 33.846L129.432 33.8461C128.911 34.0727 128.409 34.0289 128.089 33.8267C127.789 33.6361 127.609 33.2801 127.76 32.753L131.519 19.6771C131.618 19.3328 131.834 19.0041 132.106 18.7559C132.38 18.5061 132.691 18.3554 132.969 18.3341L144.144 17.477C144.817 17.4254 145.446 16.8965 145.885 16.2859C146.329 15.6695 146.636 14.891 146.604 14.2358C146.562 13.3936 146.673 12.4627 146.958 11.4709C147.589 9.27514 148.951 7.21942 150.645 5.6756C152.341 4.1302 154.351 3.1154 156.266 2.96848C158.171 2.82236 159.614 3.5599 160.438 4.84545C161.268 6.14035 161.494 8.03232 160.862 10.2294C160.577 11.2212 160.143 12.1845 159.596 13.0862Z" fill="#68B1A6" stroke="black" stroke-width="0.5"/>
</svg>
