<svg width="37" height="23" viewBox="0 0 37 23" fill="none" xmlns="http://www.w3.org/2000/svg">
<path d="M9.0625 4.97706H13.5938V9.28262H9.0625V4.97706Z" fill="#7676E8"/>
<path d="M9.0625 0.671509H13.5938V4.97706H9.0625V0.671509Z" fill="#7676E8"/>
<path d="M13.5938 4.97706H18.125V9.28262H13.5938V4.97706Z" fill="#7676E8"/>
<path d="M13.5938 0.671509H18.125V4.97706H13.5938V0.671509Z" fill="#7676E8"/>
<path d="M13.5938 9.28262H18.125V13.5882H13.5938V9.28262Z" fill="#7676E8"/>
<path d="M9.0625 9.28262H13.5938V13.5882H9.0625V9.28262Z" fill="#7676E8"/>
<path d="M4.53125 4.97706H9.0625V9.28262H4.53125V4.97706Z" fill="#7676E8"/>
<path d="M4.53125 0.671509H9.0625V4.97706H4.53125V0.671509Z" fill="#7676E8"/>
<path d="M0 4.97706H4.53125V9.28262H0V4.97706Z" fill="#5B5BA9"/>
<path d="M0 0.671509H4.53125V4.97706H0V0.671509Z" fill="#5B5BA9"/>
<path d="M4.53125 9.28262H9.0625V13.5882H4.53125V9.28262Z" fill="#5B5BA9"/>
<path d="M9.0625 13.5882H13.5938V17.8937H9.0625V13.5882Z" fill="#5B5BA9"/>
<path d="M13.5938 17.8937H18.125V22.1993H13.5938V17.8937Z" fill="#5B5BA9"/>
<path d="M18.125 4.97706H22.6562V9.28262H18.125V4.97706Z" fill="#7676E8"/>
<path d="M18.125 0.671509H22.6562V4.97706H18.125V0.671509Z" fill="#7676E8"/>
<path d="M18.125 9.28262H22.6562V13.5882H18.125V9.28262Z" fill="#7676E8"/>
<path d="M22.6562 4.97706H27.1875V9.28262H22.6562V4.97706Z" fill="#7676E8"/>
<path d="M22.6562 0.671509H27.1875V4.97706H22.6562V0.671509Z" fill="#7676E8"/>
<path d="M27.1875 4.97706H31.7188V9.28262H27.1875V4.97706Z" fill="#7676E8"/>
<path d="M27.1875 0.671509H31.7188V4.97706H27.1875V0.671509Z" fill="#7676E8"/>
<path d="M31.7188 4.97706H36.25V9.28262H31.7188V4.97706Z" fill="#7676E8"/>
<path d="M31.7188 0.671509H36.25V4.97706H31.7188V0.671509Z" fill="#7676E8"/>
<path d="M27.1875 9.28262H31.7188V13.5882H27.1875V9.28262Z" fill="#7676E8"/>
<path d="M22.6562 9.28262H27.1875V13.5882H22.6562V9.28262Z" fill="#7676E8"/>
<path d="M18.125 13.5882H22.6562V17.8937H18.125V13.5882Z" fill="#7676E8"/>
<path d="M22.6562 13.5882H27.1875V17.8937H22.6562V13.5882Z" fill="#7676E8"/>
<path d="M18.125 17.8937H22.6562V22.1993H18.125V17.8937Z" fill="#7676E8"/>
<path d="M13.5938 13.5882H18.125V17.8937H13.5938V13.5882Z" fill="#7676E8"/>
</svg>
