
<svg width="500" height="375" viewBox="0 0 500 375" fill="none" xmlns="http://www.w3.org/2000/svg">
    <path d="M362.843 175.496C429.807 214.158 429.807 276.842 362.843 315.503C295.879 354.165 187.308 354.165 120.343 315.503C53.379 276.841 53.379 214.158 120.343 175.496C187.308 136.834 295.879 136.834 362.843 175.496Z" fill="#FFC4BC"/>
    <path d="M362.843 175.496C429.807 214.158 429.807 276.842 362.843 315.503C295.879 354.165 187.308 354.165 120.343 315.503C53.379 276.841 53.379 214.158 120.343 175.496C187.308 136.834 295.879 136.834 362.843 175.496Z" fill="#FFC4BC"/>
    <path fill-rule="evenodd" clip-rule="evenodd" d="M135.12 181.865L269.12 104.5L403.12 181.865V214.293L269.12 136.928L135.12 214.293V181.865Z" fill="#BB8D60"/>
    <path fill-rule="evenodd" clip-rule="evenodd" d="M403.12 181.865L269.12 259.23L135.12 181.865V214.293L269.12 291.658L403.12 214.293V181.865Z" fill="#BB8D60" stroke="black" stroke-linejoin="round"/>
    <path d="M269.12 258.652L136.12 181.865L269.12 105.077L402.12 181.865L269.12 258.652Z" fill="white" stroke="#E0AF80"/>
    <path fill-rule="evenodd" clip-rule="evenodd" d="M120 144.814L269.5 58.4998L419 144.814V180.993L269.5 94.6792L120 180.993V144.814Z" fill="#E0AF80"/>
    <path fill-rule="evenodd" clip-rule="evenodd" d="M419 144.814L269.5 231.128L120 144.814V180.993L269.5 267.307L419 180.993V144.814Z" fill="#E0AF80" stroke="black" stroke-width="1.11567" stroke-linejoin="round"/>
    <path d="M269.5 230.483L121.116 144.814L269.5 59.1439L417.884 144.814L269.5 230.483Z" fill="#FFF1E3" stroke="black" stroke-width="1.11567"/>
    <path fill-rule="evenodd" clip-rule="evenodd" d="M203.352 153.152C205.744 154.533 207.335 157.654 206.907 160.124L204.946 171.437L219.726 179.97L221.687 168.657C222.115 166.187 224.401 165.304 226.792 166.685C229.183 168.066 230.775 171.187 230.347 173.657L227.613 189.431L227.611 189.442L227.609 189.453L223.451 213.448L219.292 237.444L219.29 237.454L219.288 237.464L215.129 261.46L210.969 285.466L208.29 300.922C207.862 303.392 205.576 304.275 203.185 302.894C200.793 301.514 199.202 298.392 199.63 295.922L201.533 284.938L186.754 276.405L184.85 287.389C184.422 289.859 182.136 290.742 179.745 289.361C177.353 287.981 175.762 284.859 176.19 282.389L178.866 266.948C178.867 266.943 178.868 266.938 178.868 266.933C178.869 266.928 178.87 266.923 178.871 266.918L183.027 242.939L183.029 242.927L183.031 242.915L187.189 218.928L187.19 218.921L187.191 218.914L191.348 194.928L191.35 194.915L191.353 194.902L195.511 170.911L195.511 170.909L195.512 170.907L198.247 155.124C198.675 152.654 200.961 151.771 203.352 153.152ZM188.304 267.461L203.083 275.994L205.694 260.932L190.914 252.399L188.304 267.461ZM209.855 236.926L207.244 251.988L192.464 243.455L195.075 228.393L209.855 236.926ZM196.625 219.449L211.405 227.982L214.015 212.92L199.236 204.387L196.625 219.449ZM218.176 188.914L215.565 203.976L200.786 195.443L203.396 180.381L218.176 188.914Z" fill="#19123C"/>
    <path fill-rule="evenodd" clip-rule="evenodd" d="M203.352 153.152C205.744 154.533 207.335 157.654 206.907 160.124L204.946 171.437L219.726 179.97L221.687 168.657C222.115 166.187 224.401 165.304 226.792 166.685C229.183 168.066 230.775 171.187 230.347 173.657L227.613 189.431L227.611 189.442L227.609 189.453L223.451 213.448L219.292 237.444L219.29 237.454L219.288 237.464L215.129 261.46L210.969 285.466L208.29 300.922C207.862 303.392 205.576 304.275 203.185 302.894C200.793 301.514 199.202 298.392 199.63 295.922L201.533 284.938L186.754 276.405L184.85 287.389C184.422 289.859 182.136 290.742 179.745 289.361C177.353 287.981 175.762 284.859 176.19 282.389L178.866 266.948C178.867 266.943 178.868 266.938 178.868 266.933C178.869 266.928 178.87 266.923 178.871 266.918L183.027 242.939L183.029 242.927L183.031 242.915L187.189 218.928L187.19 218.921L187.191 218.914L191.348 194.928L191.35 194.915L191.353 194.902L195.511 170.911L195.511 170.909L195.512 170.907L198.247 155.124C198.675 152.654 200.961 151.771 203.352 153.152ZM188.304 267.461L203.083 275.994L205.694 260.932L190.914 252.399L188.304 267.461ZM209.855 236.926L207.244 251.988L192.464 243.455L195.075 228.393L209.855 236.926ZM196.625 219.449L211.405 227.982L214.015 212.92L199.236 204.387L196.625 219.449ZM218.176 188.914L215.565 203.976L200.786 195.443L203.396 180.381L218.176 188.914Z" fill="#19123C"/>
    <path d="M106.223 264.347L106.288 264.105L106.223 264.347C106.901 264.53 107.385 264.903 107.576 265.262C107.669 265.437 107.687 265.596 107.646 265.734C107.605 265.871 107.494 266.024 107.252 266.164L95.4539 272.976C95.1454 273.154 94.7254 273.25 94.2918 273.25C93.8583 273.25 93.4382 273.154 93.1298 272.976L81.7313 266.395C81.0848 266.021 80.1763 265.983 79.3691 266.131C78.5667 266.279 77.7747 266.628 77.3859 267.127L77.3859 267.127C76.9077 267.74 76.2254 268.323 75.3322 268.839C73.3531 269.981 70.7436 270.56 68.1205 270.56C65.4975 270.56 62.888 269.981 60.909 268.839C58.9286 267.695 57.995 266.232 57.995 264.82C57.995 263.407 58.9285 261.944 60.909 260.8C61.8021 260.285 62.8247 259.883 63.921 259.598C64.7054 259.394 65.3507 258.947 65.6416 258.42C65.7893 258.152 65.8512 257.851 65.7691 257.555C65.6867 257.258 65.4706 257.006 65.1423 256.817L53.6582 250.187C53.3483 250.008 53.25 249.808 53.25 249.66C53.25 249.512 53.3482 249.312 53.6581 249.133L66.1578 241.917C66.6541 241.63 67.4132 241.574 68.154 241.708C68.8994 241.842 69.5384 242.152 69.8181 242.504C70.341 243.163 71.0657 243.772 71.9855 244.303C74.0584 245.5 76.7595 246.091 79.4471 246.091C82.1347 246.091 84.8358 245.5 86.9087 244.303C88.9802 243.107 90.0726 241.505 90.0726 239.851C90.0726 238.197 88.9802 236.594 86.9087 235.399C85.9887 234.867 84.946 234.456 83.8378 234.163C83.151 233.981 82.6552 233.603 82.4573 233.237C82.3608 233.059 82.3407 232.896 82.3808 232.757C82.4207 232.618 82.5318 232.463 82.7752 232.323L93.1298 226.344C93.4382 226.166 93.8583 226.07 94.2919 226.07C94.7255 226.07 95.1455 226.166 95.454 226.344L106.907 232.957C107.274 233.169 107.738 233.266 108.22 233.286C108.706 233.307 109.228 233.251 109.727 233.141C110.226 233.031 110.709 232.865 111.115 232.661C111.515 232.459 111.864 232.209 112.066 231.917C112.547 231.223 113.282 230.563 114.281 229.986C116.26 228.843 118.87 228.265 121.493 228.265C124.116 228.265 126.726 228.843 128.705 229.986C130.685 231.129 131.618 232.593 131.618 234.005C131.618 235.417 130.685 236.881 128.705 238.024C127.706 238.601 126.545 239.035 125.3 239.323C124.407 239.529 123.611 240.075 123.203 240.691C122.999 241 122.878 241.349 122.922 241.694C122.968 242.05 123.184 242.354 123.559 242.571L134.926 249.133C135.235 249.312 135.334 249.512 135.334 249.66C135.334 249.808 135.235 250.008 134.926 250.187L123.9 256.552C123.408 256.836 122.659 256.894 121.928 256.765C121.193 256.635 120.56 256.331 120.278 255.983L120.084 256.14L120.278 255.983C119.758 255.34 119.044 254.744 118.143 254.224C116.07 253.027 113.369 252.436 110.681 252.436C107.994 252.436 105.292 253.027 103.22 254.224C101.148 255.42 100.056 257.023 100.056 258.676C100.056 260.33 101.148 261.933 103.22 263.129C104.121 263.649 105.14 264.054 106.223 264.347Z" fill="#68B1A6" stroke="black" stroke-width="0.5"/>
    <path fill-rule="evenodd" clip-rule="evenodd" d="M123.164 238.18C123.147 238.508 123.3 238.813 123.684 239.034L135.051 245.597C135.392 245.794 135.569 246.049 135.583 246.307V249.628C135.569 249.37 135.392 249.114 135.051 248.917L123.684 242.354C123.3 242.133 123.147 241.828 123.164 241.5V238.18Z" fill="#12775B" stroke="black" stroke-width="0.5" stroke-linejoin="round"/>
    <path fill-rule="evenodd" clip-rule="evenodd" d="M135.583 246.307C135.598 246.587 135.42 246.869 135.051 247.083L124.025 253.449C122.897 254.099 120.758 253.654 120.084 252.82C119.586 252.205 118.897 251.628 118.018 251.12C113.966 248.781 107.397 248.781 103.344 251.12C101.4 252.243 100.388 253.701 100.311 255.172V258.492C100.388 257.021 101.4 255.564 103.344 254.441C107.397 252.101 113.966 252.101 118.018 254.441C118.897 254.949 119.586 255.525 120.084 256.14C120.758 256.974 122.897 257.42 124.025 256.769L135.051 250.403C135.42 250.19 135.598 249.907 135.583 249.628V246.307Z" fill="#12775B" stroke="black" stroke-width="0.5" stroke-linejoin="round"/>
    <path fill-rule="evenodd" clip-rule="evenodd" d="M100.311 255.172C100.226 256.766 101.238 258.375 103.345 259.592C104.224 260.1 105.222 260.497 106.288 260.785C107.241 261.042 107.901 261.667 107.916 262.25V265.57C107.901 264.987 107.241 264.362 106.288 264.105C105.222 263.818 104.224 263.42 103.345 262.912C101.238 261.696 100.226 260.086 100.311 258.492V255.172Z" fill="#12775B" stroke="black" stroke-width="0.5" stroke-linejoin="round"/>
    <path fill-rule="evenodd" clip-rule="evenodd" d="M107.916 262.25C107.924 262.55 107.76 262.839 107.377 263.06L95.579 269.872C94.8682 270.282 93.7157 270.282 93.0049 269.872L81.6064 263.291C80.4594 262.629 78.2493 263.106 77.5831 263.96C77.0815 264.604 76.3728 265.206 75.4573 265.735C71.4052 268.074 64.8359 268.074 60.7841 265.735C58.7581 264.565 57.7451 263.032 57.7451 261.499V264.82C57.7451 266.353 58.7581 267.886 60.7841 269.055C64.8359 271.395 71.4052 271.395 75.4573 269.055C76.3728 268.527 77.0815 267.924 77.5831 267.28C78.2493 266.426 80.4594 265.949 81.6064 266.611L93.0049 273.192C93.7157 273.602 94.8682 273.602 95.579 273.192L107.377 266.38C107.76 266.159 107.924 265.87 107.916 265.57V262.25Z" fill="#12775B" stroke="black" stroke-width="0.5" stroke-linejoin="round"/>
    <path fill-rule="evenodd" clip-rule="evenodd" d="M57.7451 261.499C57.7451 259.966 58.7581 258.433 60.7841 257.264C61.6996 256.735 62.7438 256.326 63.8582 256.036C64.8346 255.782 65.5268 255.14 65.5548 254.542V257.863C65.5268 258.46 64.8346 259.103 63.8582 259.356C62.7438 259.646 61.6996 260.055 60.7841 260.584C58.7581 261.753 57.7451 263.287 57.7451 264.82V261.499Z" fill="#12775B" stroke="black" stroke-width="0.5" stroke-linejoin="round"/>
    <path fill-rule="evenodd" clip-rule="evenodd" d="M65.5548 254.542C65.5692 254.234 65.4074 253.938 65.0173 253.713L53.5332 247.083C53.1777 246.877 53 246.609 53 246.34V249.66C53 249.929 53.1777 250.198 53.5332 250.403L65.0173 257.033C65.4074 257.259 65.5692 257.555 65.5548 257.863V254.542Z" fill="#12775B" stroke="black" stroke-width="0.5" stroke-linejoin="round"/>
    <path d="M89.8226 236.531C89.8226 238.064 88.8096 239.597 86.7837 240.766C82.7317 243.106 76.1624 243.106 72.1105 240.766C71.2126 240.248 70.5137 239.658 70.0138 239.028C69.3435 238.185 67.17 237.723 66.0328 238.38L53.5331 245.597C53.1777 245.802 53 246.071 53 246.34V249.66" stroke="black" stroke-width="0.5" stroke-linejoin="round"/>
    <path fill-rule="evenodd" clip-rule="evenodd" d="M89.8231 236.53C89.8231 234.997 88.8102 233.464 86.7842 232.295C85.8863 231.776 84.8647 231.373 83.7743 231.084C82.8096 230.829 82.1336 230.195 82.1123 229.605V232.925C82.1336 233.515 82.8096 234.149 83.7743 234.404C84.8647 234.693 85.8863 235.096 86.7842 235.615C88.8102 236.785 89.8231 238.318 89.8231 239.851V236.53Z" fill="#12775B" stroke="black" stroke-width="0.5" stroke-linejoin="round"/>
    <path d="M131.864 233.821V230.501C131.786 229.03 130.775 227.572 128.83 226.449C124.778 224.109 118.208 224.109 114.156 226.449C113.132 227.04 112.367 227.724 111.861 228.454C111.189 229.423 108.31 230.158 107.032 229.42L95.5791 222.808C94.8682 222.397 93.7157 222.397 93.0048 222.808L82.6503 228.786C82.2637 229.009 82.1009 229.301 82.1118 229.605V232.926" stroke="black" stroke-width="0.5" stroke-linejoin="round"/>
    <path fill-rule="evenodd" clip-rule="evenodd" d="M131.863 230.501C131.947 232.094 130.936 233.704 128.829 234.92C127.805 235.512 126.62 235.953 125.356 236.246C124.182 236.517 123.206 237.413 123.164 238.18V241.5C123.206 240.734 124.182 239.838 125.356 239.566C126.62 239.274 127.805 238.832 128.829 238.241C130.936 237.024 131.947 235.415 131.863 233.821V230.501Z" fill="#12775B" stroke="black" stroke-width="0.5" stroke-linejoin="round"/>
    <path d="M106.223 261.026L106.288 260.785L106.223 261.026C106.901 261.209 107.385 261.583 107.576 261.942C107.669 262.117 107.687 262.276 107.646 262.413C107.605 262.551 107.494 262.704 107.252 262.844L95.4539 269.655C95.1454 269.833 94.7254 269.929 94.2918 269.929C93.8583 269.929 93.4382 269.833 93.1298 269.655L81.7313 263.074C81.0848 262.701 80.1763 262.662 79.3691 262.811C78.5667 262.959 77.7747 263.308 77.3859 263.806L77.3859 263.806C76.9077 264.42 76.2254 265.003 75.3322 265.518C73.3531 266.661 70.7436 267.24 68.1205 267.24C65.4975 267.24 62.888 266.661 60.909 265.518C58.9286 264.375 57.995 262.911 57.995 261.499C57.995 260.087 58.9285 258.623 60.909 257.48C61.8021 256.964 62.8247 256.563 63.921 256.278C64.7054 256.074 65.3507 255.627 65.6416 255.1C65.7893 254.832 65.8512 254.531 65.7691 254.235C65.6867 253.938 65.4706 253.686 65.1423 253.497L53.6582 246.866C53.3483 246.687 53.25 246.488 53.25 246.34C53.25 246.191 53.3482 245.992 53.6581 245.813L66.1578 238.596C66.6541 238.31 67.4132 238.254 68.154 238.388C68.8994 238.522 69.5384 238.832 69.8181 239.184C70.341 239.843 71.0657 240.452 71.9855 240.983C74.0584 242.18 76.7595 242.771 79.4471 242.771C82.1347 242.771 84.8358 242.18 86.9087 240.983C88.9802 239.787 90.0726 238.184 90.0726 236.53C90.0726 234.877 88.9802 233.274 86.9087 232.078C85.9887 231.547 84.946 231.136 83.8378 230.842C83.151 230.661 82.6552 230.283 82.4573 229.917C82.3608 229.739 82.3407 229.576 82.3808 229.437C82.4207 229.298 82.5318 229.143 82.7752 229.002L93.1298 223.024C93.4382 222.846 93.8583 222.75 94.2919 222.75C94.7255 222.75 95.1455 222.846 95.454 223.024L106.907 229.636C107.274 229.848 107.738 229.945 108.22 229.966C108.706 229.987 109.228 229.931 109.727 229.821C110.226 229.711 110.709 229.545 111.115 229.341C111.515 229.139 111.864 228.888 112.066 228.597C112.547 227.903 113.282 227.242 114.281 226.665C116.26 225.523 118.87 224.944 121.493 224.944C124.116 224.944 126.726 225.523 128.705 226.665C130.685 227.809 131.618 229.272 131.618 230.685C131.618 232.097 130.685 233.561 128.705 234.704C127.706 235.281 126.545 235.714 125.3 236.002C124.407 236.209 123.611 236.755 123.203 237.371C122.999 237.68 122.878 238.029 122.922 238.373C122.968 238.73 123.184 239.034 123.559 239.25L134.926 245.813C135.235 245.992 135.334 246.191 135.334 246.34C135.334 246.488 135.235 246.687 134.926 246.866L123.9 253.232C123.408 253.516 122.659 253.574 121.928 253.445C121.193 253.315 120.56 253.011 120.278 252.663L120.084 252.82L120.278 252.663C119.758 252.019 119.044 251.424 118.143 250.904C116.07 249.707 113.369 249.116 110.681 249.116C107.994 249.116 105.292 249.707 103.22 250.904C101.148 252.1 100.056 253.702 100.056 255.356C100.056 257.01 101.148 258.612 103.22 259.808C104.121 260.329 105.14 260.734 106.223 261.026Z" fill="#68B1A6" stroke="black" stroke-width="0.5"/>
    <path d="M429.377 267.731L429.377 267.731C429.673 267.365 430.335 267.048 431.102 266.912C431.865 266.778 432.647 266.838 433.162 267.135L445.45 274.229C445.775 274.417 445.88 274.627 445.88 274.787C445.88 274.946 445.775 275.157 445.45 275.344L433.579 282.198C433.238 282.395 433.016 282.654 432.931 282.96C432.846 283.266 432.91 283.576 433.063 283.853C433.364 284.399 434.033 284.864 434.848 285.076C435.991 285.373 437.057 285.791 437.988 286.329C440.052 287.521 441.028 289.048 441.028 290.524C441.028 292 440.052 293.527 437.988 294.719C435.925 295.91 433.205 296.513 430.472 296.513C427.739 296.513 425.019 295.91 422.956 294.719C422.025 294.181 421.313 293.573 420.814 292.933L420.814 292.933C420.411 292.417 419.589 292.054 418.755 291.9C417.915 291.746 416.972 291.786 416.301 292.173L404.341 299.079C404.017 299.265 403.578 299.366 403.125 299.366C402.672 299.366 402.233 299.265 401.91 299.079L388.891 291.563C388.636 291.415 388.518 291.252 388.476 291.104C388.433 290.956 388.455 290.784 388.556 290.596C388.764 290.212 389.283 289.817 390 289.627C391.154 289.322 392.239 288.894 393.196 288.341C395.352 287.096 396.486 285.43 396.486 283.713C396.486 281.996 395.352 280.329 393.196 279.085C391.039 277.84 388.228 277.224 385.43 277.224C382.633 277.224 379.821 277.84 377.664 279.085C376.707 279.638 375.954 280.271 375.41 280.956L375.606 281.111L375.41 280.956C375.116 281.325 374.448 281.649 373.671 281.789C372.898 281.928 372.104 281.871 371.585 281.57L360.8 275.344C360.476 275.157 360.37 274.946 360.37 274.787C360.37 274.627 360.476 274.417 360.8 274.229L372.728 267.343C373.116 267.119 373.339 266.804 373.386 266.437C373.432 266.081 373.307 265.72 373.095 265.4C372.672 264.761 371.846 264.194 370.918 263.979C369.62 263.679 368.41 263.227 367.369 262.626C365.304 261.434 364.329 259.906 364.329 258.431C364.329 256.955 365.304 255.427 367.369 254.236C369.432 253.044 372.152 252.442 374.885 252.442C377.618 252.442 380.338 253.044 382.401 254.236C383.443 254.837 384.209 255.526 384.711 256.25C384.921 256.552 385.282 256.812 385.698 257.022C386.12 257.234 386.622 257.406 387.141 257.521C387.66 257.635 388.203 257.694 388.708 257.672C389.21 257.65 389.691 257.549 390.071 257.33L401.91 250.495C402.233 250.308 402.672 250.208 403.125 250.208C403.578 250.208 404.017 250.308 404.341 250.495L415.824 257.125C416.077 257.271 416.195 257.433 416.239 257.579C416.283 257.725 416.263 257.894 416.165 258.078C415.965 258.455 415.458 258.845 414.75 259.036L414.815 259.278L414.75 259.036C413.622 259.341 412.562 259.762 411.624 260.304C409.469 261.548 408.334 263.214 408.334 264.932C408.334 266.649 409.469 268.315 411.624 269.56C413.781 270.805 416.592 271.421 419.39 271.421C422.188 271.421 424.999 270.805 427.156 269.56C428.094 269.018 428.836 268.399 429.377 267.731Z" fill="#68B1A6" stroke="black" stroke-width="0.5"/>
    <path fill-rule="evenodd" clip-rule="evenodd" d="M416.51 254.239C416.536 254.861 415.837 255.544 414.814 255.82C413.705 256.119 412.665 256.533 411.749 257.062C409.723 258.232 408.67 259.75 408.589 261.282V264.74C408.67 263.208 409.723 261.69 411.749 260.52C412.665 259.991 413.705 259.577 414.814 259.278C415.837 259.002 416.536 258.319 416.51 257.697V254.239Z" fill="#12775B" stroke="black" stroke-width="0.5" stroke-linejoin="round"/>
    <path fill-rule="evenodd" clip-rule="evenodd" d="M408.589 261.282C408.501 262.942 409.555 264.618 411.749 265.885C415.969 268.322 422.811 268.322 427.031 265.885C427.947 265.356 428.664 264.756 429.183 264.115C429.885 263.247 432.113 262.783 433.287 263.461L445.575 270.555C445.945 270.769 446.13 271.049 446.13 271.329V274.787C446.13 274.507 445.945 274.227 445.575 274.013L433.287 266.919C432.113 266.241 429.885 266.705 429.183 267.573C428.664 268.214 427.947 268.814 427.031 269.343C422.811 271.78 415.969 271.78 411.749 269.343C409.555 268.076 408.501 266.4 408.589 264.74V261.282Z" fill="#12775B" stroke="black" stroke-width="0.5" stroke-linejoin="round"/>
    <path fill-rule="evenodd" clip-rule="evenodd" d="M446.131 271.329C446.131 271.609 445.945 271.889 445.575 272.103L433.704 278.957C433.322 279.177 433.15 279.464 433.144 279.764V283.222C433.15 282.922 433.322 282.635 433.704 282.415L445.575 275.561C445.945 275.347 446.131 275.067 446.131 274.787V271.329Z" fill="#12775B" stroke="black" stroke-width="0.5" stroke-linejoin="round"/>
    <path fill-rule="evenodd" clip-rule="evenodd" d="M433.144 279.764C433.13 280.402 433.864 281.103 434.912 281.376C436.072 281.677 437.16 282.104 438.113 282.654C440.139 283.824 441.192 285.342 441.273 286.874V290.332C441.192 288.8 440.139 287.282 438.113 286.112C437.16 285.562 436.072 285.135 434.912 284.834C433.864 284.561 433.13 283.86 433.144 283.222V279.764Z" fill="#12775B" stroke="black" stroke-width="0.5" stroke-linejoin="round"/>
    <path fill-rule="evenodd" clip-rule="evenodd" d="M441.272 286.874C441.36 288.534 440.307 290.21 438.112 291.477C433.892 293.914 427.051 293.914 422.83 291.477C421.877 290.927 421.139 290.299 420.616 289.629C419.923 288.739 417.621 288.242 416.426 288.932L404.465 295.837C403.725 296.264 402.525 296.265 401.784 295.837L388.766 288.321C388.387 288.102 388.215 287.82 388.205 287.523V290.981C388.215 291.278 388.387 291.56 388.766 291.779L401.784 299.295C402.525 299.723 403.725 299.722 404.465 299.295L416.426 292.39C417.621 291.7 419.923 292.197 420.616 293.087C421.139 293.757 421.877 294.385 422.83 294.935C427.051 297.372 433.892 297.372 438.112 294.935C440.307 293.668 441.36 291.992 441.272 290.332V286.874Z" fill="#12775B" stroke="black" stroke-width="0.5" stroke-linejoin="round"/>
    <path fill-rule="evenodd" clip-rule="evenodd" d="M388.205 287.523C388.185 286.894 388.901 286.201 389.937 285.927C391.072 285.627 392.136 285.207 393.071 284.667C395.181 283.448 396.236 281.852 396.236 280.255V283.713C396.236 285.31 395.181 286.906 393.071 288.125C392.136 288.665 391.072 289.085 389.937 289.385C388.901 289.659 388.185 290.352 388.205 290.981V287.523Z" fill="#12775B" stroke="black" stroke-width="0.5" stroke-linejoin="round"/>
    <path fill-rule="evenodd" clip-rule="evenodd" d="M396.236 280.255C396.236 278.658 395.181 277.062 393.071 275.843C388.851 273.407 382.009 273.407 377.789 275.843C376.854 276.383 376.126 276.998 375.606 277.653C374.908 278.532 372.644 279.013 371.46 278.329L360.675 272.103C360.305 271.889 360.12 271.609 360.12 271.329V274.787C360.12 275.067 360.305 275.347 360.675 275.561L371.46 281.787C372.644 282.471 374.908 281.99 375.606 281.111C376.126 280.456 376.854 279.841 377.789 279.301C382.009 276.865 388.851 276.865 393.071 279.301C395.181 280.52 396.236 282.116 396.236 283.713V280.255Z" fill="#12775B" stroke="black" stroke-width="0.5" stroke-linejoin="round"/>
    <path d="M372.603 267.126C372.976 266.911 373.14 266.621 373.145 266.305V262.847C373.14 263.163 372.976 263.453 372.603 263.668L360.675 270.555C360.305 270.769 360.12 271.049 360.12 271.329V274.787" stroke="black" stroke-width="0.5" stroke-linejoin="round"/>
    <path fill-rule="evenodd" clip-rule="evenodd" d="M373.145 262.847C373.159 262.034 372.119 261.055 370.861 260.764C369.544 260.46 368.31 260 367.244 259.384C365.218 258.215 364.165 256.696 364.084 255.164V258.622C364.165 260.154 365.218 261.673 367.244 262.842C368.31 263.458 369.544 263.918 370.861 264.222C372.119 264.513 373.159 265.492 373.145 266.305V262.847Z" fill="#12775B" stroke="black" stroke-width="0.5" stroke-linejoin="round"/>
    <path d="M416.51 257.697V254.239C416.498 253.946 416.325 253.667 415.949 253.45L404.466 246.82C403.725 246.393 402.525 246.393 401.785 246.82L389.946 253.655C388.616 254.424 385.617 253.658 384.917 252.65C384.39 251.889 383.593 251.177 382.526 250.561C378.306 248.125 371.464 248.125 367.244 250.561C365.05 251.828 363.996 253.504 364.084 255.164V258.622" stroke="black" stroke-width="0.5" stroke-linejoin="round"/>
    <path d="M429.377 264.273L429.183 264.115L429.377 264.273C429.673 263.907 430.335 263.59 431.102 263.454C431.865 263.32 432.647 263.38 433.162 263.677L445.45 270.771C445.775 270.959 445.88 271.169 445.88 271.329C445.88 271.488 445.775 271.699 445.45 271.886L433.579 278.74C433.238 278.937 433.016 279.196 432.931 279.502C432.846 279.808 432.91 280.118 433.063 280.395C433.364 280.941 434.033 281.406 434.848 281.618C435.991 281.915 437.057 282.333 437.988 282.871C440.052 284.063 441.028 285.59 441.028 287.066C441.028 288.542 440.052 290.069 437.988 291.261C435.925 292.452 433.205 293.055 430.472 293.055C427.739 293.055 425.019 292.452 422.956 291.261C422.025 290.723 421.313 290.115 420.814 289.475L420.814 289.475C420.411 288.959 419.589 288.596 418.755 288.442C417.915 288.288 416.972 288.328 416.301 288.715L404.341 295.621C404.017 295.807 403.578 295.908 403.125 295.908C402.672 295.908 402.233 295.807 401.91 295.621L388.891 288.105C388.636 287.957 388.518 287.794 388.476 287.646C388.433 287.498 388.455 287.326 388.556 287.138C388.764 286.754 389.283 286.359 390 286.169C391.154 285.864 392.239 285.436 393.196 284.883C395.352 283.638 396.486 281.972 396.486 280.255C396.486 278.538 395.352 276.871 393.196 275.627C391.039 274.382 388.228 273.766 385.43 273.766C382.633 273.766 379.821 274.382 377.664 275.627C376.707 276.18 375.954 276.813 375.41 277.498L375.606 277.653L375.41 277.498C375.116 277.867 374.448 278.191 373.671 278.331C372.898 278.47 372.104 278.413 371.585 278.112L360.8 271.886C360.476 271.699 360.37 271.488 360.37 271.329C360.37 271.169 360.476 270.959 360.8 270.771L372.728 263.885C373.116 263.661 373.339 263.346 373.386 262.979C373.432 262.623 373.307 262.262 373.095 261.942C372.672 261.303 371.846 260.736 370.918 260.521C369.62 260.221 368.41 259.769 367.369 259.168C365.304 257.976 364.329 256.448 364.329 254.973C364.329 253.497 365.304 251.969 367.369 250.778C369.432 249.586 372.152 248.984 374.885 248.984C377.618 248.984 380.338 249.586 382.401 250.778C383.443 251.379 384.209 252.068 384.711 252.792C384.921 253.094 385.282 253.354 385.698 253.564C386.12 253.776 386.622 253.948 387.141 254.063C387.66 254.177 388.203 254.236 388.708 254.214C389.21 254.192 389.691 254.091 390.071 253.872L401.91 247.037C402.233 246.85 402.672 246.75 403.125 246.75C403.578 246.75 404.017 246.85 404.341 247.037L415.824 253.667C416.077 253.813 416.195 253.975 416.239 254.121C416.283 254.267 416.263 254.436 416.165 254.62C415.965 254.997 415.458 255.387 414.75 255.578L414.815 255.82L414.75 255.578C413.622 255.883 412.562 256.304 411.624 256.846C409.469 258.09 408.334 259.756 408.334 261.474C408.334 263.191 409.469 264.857 411.624 266.102C413.781 267.347 416.592 267.963 419.39 267.963C422.188 267.963 424.999 267.347 427.156 266.102C428.094 265.56 428.836 264.941 429.377 264.273Z" fill="#68B1A6" stroke="black" stroke-width="0.5"/>
    <path d="M154.559 307.396L154.365 307.239L154.559 307.396C154.866 307.017 155.551 306.689 156.343 306.549C157.131 306.41 157.94 306.472 158.474 306.78L171.15 314.098C171.486 314.293 171.598 314.512 171.598 314.68C171.598 314.848 171.486 315.068 171.15 315.262L158.903 322.333C158.554 322.535 158.326 322.801 158.239 323.114C158.152 323.427 158.217 323.745 158.374 324.03C158.684 324.59 159.372 325.069 160.211 325.287C161.391 325.593 162.491 326.025 163.452 326.58C165.583 327.811 166.592 329.388 166.592 330.914C166.592 332.441 165.583 334.018 163.452 335.249C161.322 336.478 158.515 337.1 155.695 337.1C152.874 337.1 150.067 336.479 147.937 335.249C146.976 334.694 146.241 334.066 145.725 333.405L145.528 333.558L145.725 333.405C145.312 332.874 144.466 332.5 143.606 332.342C142.741 332.183 141.77 332.225 141.08 332.623L128.742 339.747C128.407 339.94 127.952 340.044 127.484 340.044C127.016 340.044 126.561 339.94 126.226 339.747L112.796 331.993C112.532 331.84 112.409 331.67 112.364 331.515C112.319 331.36 112.342 331.18 112.448 330.985C112.664 330.586 113.201 330.178 113.943 329.982C115.132 329.667 116.251 329.226 117.237 328.656C119.46 327.373 120.627 325.656 120.627 323.889C120.627 322.121 119.46 320.404 117.237 319.121C115.014 317.837 112.115 317.203 109.23 317.203C106.345 317.203 103.446 317.837 101.223 319.121C100.236 319.691 99.4593 320.344 98.8991 321.049L99.0948 321.205L98.899 321.049C98.5946 321.433 97.9026 321.767 97.1001 321.912C96.302 322.056 95.4813 321.996 94.9428 321.685L83.8179 315.262C83.4816 315.068 83.3701 314.849 83.3701 314.68C83.3701 314.512 83.4816 314.293 83.8179 314.098L126.226 289.614C126.561 289.421 127.016 289.317 127.484 289.317C127.952 289.317 128.407 289.421 128.742 289.614L140.588 296.454C140.85 296.605 140.974 296.773 141.02 296.926C141.065 297.08 141.044 297.256 140.943 297.447C140.735 297.839 140.21 298.243 139.478 298.44L139.543 298.681L139.478 298.44C138.315 298.754 137.222 299.188 136.256 299.747C134.033 301.03 132.865 302.746 132.865 304.514C132.865 306.282 134.033 307.998 136.255 309.281C138.479 310.565 141.378 311.2 144.263 311.2C147.148 311.2 150.047 310.565 152.27 309.281C153.237 308.723 154.002 308.085 154.559 307.396Z" fill="#FFCA69" stroke="black" stroke-width="0.5"/>
    <path fill-rule="evenodd" clip-rule="evenodd" d="M83.121 311.079C83.1051 311.379 83.2958 311.682 83.6929 311.912L94.8178 318.335C96.0395 319.04 98.3748 318.544 99.0948 317.638C99.632 316.961 100.383 316.328 101.348 315.771C105.701 313.257 112.759 313.257 117.112 315.771C119.289 317.027 120.377 318.674 120.377 320.322V323.889C120.377 322.242 119.289 320.595 117.112 319.338C112.759 316.824 105.701 316.824 101.348 319.338C100.383 319.895 99.632 320.529 99.0948 321.205C98.3748 322.112 96.0395 322.607 94.8178 321.902L83.6929 315.479C83.2958 315.25 83.1051 314.946 83.121 314.646V311.079Z" fill="#DFA232" stroke="black" stroke-width="0.5" stroke-linejoin="round"/>
    <path fill-rule="evenodd" clip-rule="evenodd" d="M120.377 320.322C120.377 321.969 119.289 323.616 117.112 324.872C116.148 325.429 115.05 325.863 113.878 326.173C112.842 326.447 112.116 327.128 112.093 327.762V331.329C112.116 330.695 112.842 330.015 113.878 329.74C115.05 329.43 116.148 328.997 117.112 328.44C119.289 327.183 120.377 325.536 120.377 323.889V320.322Z" fill="#DFA232" stroke="black" stroke-width="0.5" stroke-linejoin="round"/>
    <path fill-rule="evenodd" clip-rule="evenodd" d="M112.093 327.762C112.082 328.088 112.256 328.403 112.672 328.642L126.102 336.396C126.865 336.837 128.103 336.837 128.867 336.396L141.206 329.272C142.438 328.561 144.813 329.074 145.529 329.991C146.068 330.683 146.829 331.33 147.813 331.898C152.166 334.412 159.224 334.412 163.577 331.898C165.754 330.642 166.842 328.994 166.842 327.347V330.915C166.842 332.562 165.754 334.209 163.577 335.466C159.224 337.979 152.166 337.979 147.813 335.466C146.829 334.898 146.068 334.25 145.529 333.559C144.813 332.641 142.438 332.128 141.206 332.84L128.867 339.963C128.103 340.404 126.865 340.404 126.102 339.963L112.672 332.21C112.256 331.97 112.082 331.656 112.093 331.329V327.762Z" fill="#DFA232" stroke="black" stroke-width="0.5" stroke-linejoin="round"/>
    <path fill-rule="evenodd" clip-rule="evenodd" d="M166.842 327.347C166.842 325.7 165.754 324.053 163.577 322.796C162.593 322.228 161.472 321.789 160.274 321.478C159.225 321.205 158.481 320.515 158.451 319.873V323.44C158.481 324.082 159.225 324.772 160.274 325.045C161.472 325.356 162.593 325.796 163.577 326.364C165.754 327.62 166.842 329.267 166.842 330.915V327.347Z" fill="#DFA232" stroke="black" stroke-width="0.5" stroke-linejoin="round"/>
    <path fill-rule="evenodd" clip-rule="evenodd" d="M158.451 319.873C158.436 319.542 158.609 319.224 159.028 318.982L171.275 311.912C171.657 311.691 171.848 311.402 171.848 311.113V314.681C171.848 314.969 171.657 315.258 171.275 315.479L159.028 322.549C158.609 322.791 158.436 323.109 158.451 323.44V319.873Z" fill="#DFA232" stroke="black" stroke-width="0.5" stroke-linejoin="round"/>
    <path d="M133.115 300.947C133.115 302.594 134.204 304.241 136.38 305.498C140.734 308.011 147.792 308.011 152.145 305.498C153.09 304.952 153.83 304.333 154.365 303.672C155.09 302.776 157.388 302.297 158.599 302.996L171.275 310.315C171.657 310.535 171.847 310.824 171.847 311.113V314.68" stroke="black" stroke-width="0.5" stroke-linejoin="round"/>
    <path fill-rule="evenodd" clip-rule="evenodd" d="M133.115 300.947C133.115 299.3 134.204 297.653 136.38 296.396C137.325 295.85 138.398 295.423 139.543 295.114C140.567 294.838 141.276 294.166 141.292 293.54V297.108C141.276 297.733 140.567 298.405 139.543 298.682C138.398 298.99 137.325 299.418 136.38 299.963C134.204 301.22 133.115 302.867 133.115 304.514V300.947Z" fill="#DFA232" stroke="black" stroke-width="0.5" stroke-linejoin="round"/>
    <path d="M83.1211 314.646V311.079C83.1358 310.801 83.3264 310.526 83.693 310.315L126.101 285.83C126.865 285.39 128.103 285.39 128.867 285.83L140.713 292.67C141.125 292.908 141.301 293.218 141.292 293.54V297.108" stroke="black" stroke-width="0.5" stroke-linejoin="round"/>
    <path d="M154.559 303.829L154.365 303.672L154.559 303.829C154.866 303.45 155.551 303.122 156.343 302.982C157.131 302.843 157.94 302.905 158.474 303.213L171.15 310.531C171.486 310.726 171.598 310.945 171.598 311.113C171.598 311.281 171.486 311.501 171.15 311.695L158.903 318.766C158.554 318.967 158.326 319.234 158.239 319.547C158.152 319.86 158.217 320.178 158.374 320.463C158.684 321.023 159.372 321.501 160.211 321.72C161.391 322.026 162.491 322.458 163.452 323.013C165.583 324.243 166.592 325.821 166.592 327.347C166.592 328.874 165.583 330.451 163.452 331.682C161.322 332.911 158.515 333.533 155.695 333.533C152.874 333.533 150.067 332.911 147.937 331.682C146.976 331.127 146.241 330.499 145.725 329.838L145.528 329.991L145.725 329.838C145.312 329.307 144.466 328.933 143.606 328.775C142.741 328.616 141.77 328.658 141.08 329.056L128.742 336.179C128.407 336.373 127.952 336.477 127.484 336.477C127.016 336.477 126.561 336.373 126.226 336.179L112.796 328.426C112.532 328.273 112.409 328.103 112.364 327.948C112.319 327.793 112.342 327.613 112.448 327.418C112.664 327.019 113.201 326.611 113.943 326.415C115.132 326.1 116.251 325.659 117.237 325.089C119.46 323.806 120.627 322.089 120.627 320.321C120.627 318.554 119.46 316.837 117.237 315.554C115.014 314.27 112.115 313.635 109.23 313.635C106.345 313.635 103.446 314.27 101.223 315.554C100.236 316.124 99.4593 316.777 98.8991 317.482L99.0948 317.638L98.899 317.482C98.5946 317.866 97.9026 318.2 97.1001 318.345C96.302 318.488 95.4813 318.429 94.9428 318.118L83.8179 311.695C83.4816 311.501 83.3701 311.281 83.3701 311.113C83.3701 310.945 83.4816 310.725 83.8179 310.531L126.226 286.047C126.561 285.854 127.016 285.75 127.484 285.75C127.952 285.75 128.407 285.854 128.742 286.047L140.588 292.886C140.85 293.038 140.974 293.206 141.02 293.359C141.065 293.512 141.044 293.689 140.943 293.88C140.735 294.272 140.21 294.675 139.478 294.873L139.543 295.114L139.478 294.873C138.315 295.187 137.222 295.621 136.256 296.179C134.033 297.462 132.865 299.179 132.865 300.947C132.865 302.715 134.033 304.431 136.255 305.714C138.479 306.998 141.378 307.633 144.263 307.633C147.148 307.633 150.047 306.998 152.27 305.714C153.237 305.156 154.002 304.518 154.559 303.829Z" fill="#FFCA69" stroke="black" stroke-width="0.5"/>
    <path d="M322.034 284.245C322.333 284.072 322.74 283.979 323.161 283.979C323.582 283.979 323.989 284.072 324.288 284.245L333.788 289.729C334.141 289.934 334.584 290.029 335.044 290.052C335.506 290.074 336.002 290.024 336.475 289.92C336.948 289.817 337.406 289.66 337.791 289.466C338.171 289.273 338.504 289.033 338.699 288.75C339.166 288.076 339.881 287.433 340.854 286.871C342.777 285.76 345.314 285.198 347.864 285.198C350.415 285.198 352.951 285.76 354.875 286.871C356.8 287.982 357.706 289.404 357.706 290.774C357.706 292.144 356.8 293.566 354.875 294.677C353.902 295.239 352.772 295.661 351.56 295.941C350.699 296.139 349.941 296.656 349.557 297.244C349.364 297.539 349.252 297.873 349.301 298.205C349.351 298.547 349.563 298.838 349.924 299.046L362.678 306.41C362.978 306.583 363.072 306.775 363.072 306.916C363.072 307.057 362.978 307.249 362.678 307.422L352.57 313.258C352.287 313.422 352.086 313.632 351.987 313.879C351.886 314.13 351.9 314.392 351.997 314.634C352.187 315.105 352.69 315.503 353.334 315.723C354.035 315.962 354.694 316.255 355.292 316.601C357.217 317.712 358.123 319.134 358.123 320.504C358.123 321.874 357.217 323.296 355.292 324.407C353.369 325.518 350.832 326.08 348.282 326.08C345.731 326.08 343.194 325.518 341.271 324.407C340.672 324.061 340.171 323.685 339.765 323.288C339.355 322.888 338.673 322.627 337.986 322.535C337.297 322.443 336.543 322.511 335.981 322.836L324.288 329.587C323.989 329.759 323.582 329.853 323.161 329.853C322.74 329.853 322.333 329.759 322.034 329.587L309.819 322.535C309.158 322.153 308.201 322.134 307.359 322.304C306.932 322.39 306.518 322.528 306.166 322.705C305.818 322.88 305.512 323.102 305.32 323.368C304.853 324.017 304.154 324.636 303.215 325.178C301.291 326.289 298.754 326.851 296.204 326.851C293.654 326.851 291.117 326.289 289.193 325.178C287.269 324.067 286.363 322.645 286.363 321.275C286.363 319.905 287.269 318.483 289.193 317.372C290.133 316.829 291.219 316.417 292.385 316.137C293.196 315.943 293.883 315.478 294.211 314.935C294.377 314.662 294.46 314.351 294.392 314.042C294.324 313.729 294.11 313.465 293.772 313.27L283.644 307.422C283.343 307.249 283.25 307.057 283.25 306.916C283.25 306.775 283.343 306.583 283.644 306.41L322.034 284.245Z" fill="#90E0EF" stroke="black" stroke-width="0.5"/>
    <path fill-rule="evenodd" clip-rule="evenodd" d="M283 303.687C283 303.948 283.173 304.21 283.519 304.41L293.647 310.257C293.998 310.46 294.156 310.724 294.165 311.006V314.235C294.156 313.954 293.998 313.689 293.647 313.487L283.519 307.639C283.173 307.439 283 307.178 283 306.916V303.687Z" fill="#6BBCCB" stroke="black" stroke-width="0.5" stroke-linejoin="round"/>
    <path fill-rule="evenodd" clip-rule="evenodd" d="M294.166 311.006C294.187 311.662 293.395 312.409 292.327 312.665C291.142 312.949 290.032 313.37 289.069 313.926C287.099 315.064 286.113 316.555 286.113 318.046V321.275C286.113 319.784 287.099 318.293 289.069 317.155C290.032 316.599 291.142 316.179 292.327 315.894C293.395 315.638 294.187 314.891 294.166 314.235V311.006Z" fill="#6BBCCB" stroke="black" stroke-width="0.5" stroke-linejoin="round"/>
    <path fill-rule="evenodd" clip-rule="evenodd" d="M286.113 318.046C286.113 319.537 287.099 321.028 289.069 322.165C293.01 324.441 299.399 324.441 303.34 322.165C304.304 321.609 305.031 320.968 305.524 320.284C306.158 319.404 308.526 318.847 309.695 319.522L321.909 326.574C322.601 326.973 323.722 326.973 324.413 326.574L336.107 319.823C337.1 319.25 338.876 319.54 339.591 320.238C340.014 320.651 340.532 321.04 341.146 321.394C345.087 323.67 351.477 323.67 355.418 321.394C357.388 320.257 358.373 318.766 358.373 317.275V320.504C358.373 321.995 357.388 323.486 355.418 324.624C351.477 326.899 345.087 326.899 341.146 324.624C340.532 324.269 340.014 323.88 339.591 323.467C338.876 322.77 337.1 322.479 336.107 323.052L324.413 329.803C323.722 330.203 322.601 330.203 321.909 329.803L309.695 322.751C308.526 322.077 306.158 322.633 305.524 323.514C305.031 324.198 304.304 324.838 303.34 325.395C299.399 327.67 293.01 327.67 289.069 325.395C287.099 324.257 286.113 322.766 286.113 321.275V318.046Z" fill="#6BBCCB" stroke="black" stroke-width="0.5" stroke-linejoin="round"/>
    <path fill-rule="evenodd" clip-rule="evenodd" d="M358.373 317.275C358.373 315.784 357.388 314.293 355.417 313.155C354.803 312.8 354.129 312.501 353.414 312.257C352.665 312.001 352.187 311.51 352.168 311.036V314.266C352.187 314.739 352.665 315.23 353.414 315.486C354.129 315.73 354.803 316.03 355.417 316.384C357.388 317.522 358.373 319.013 358.373 320.504V317.275Z" fill="#6BBCCB" stroke="black" stroke-width="0.5" stroke-linejoin="round"/>
    <path fill-rule="evenodd" clip-rule="evenodd" d="M352.168 311.036C352.156 310.746 352.317 310.463 352.695 310.245L362.803 304.41C363.148 304.21 363.321 303.948 363.321 303.687V306.916C363.321 307.178 363.148 307.439 362.803 307.639L352.695 313.475C352.317 313.693 352.156 313.976 352.168 314.266V311.036Z" fill="#6BBCCB" stroke="black" stroke-width="0.5" stroke-linejoin="round"/>
    <path fill-rule="evenodd" clip-rule="evenodd" d="M349.54 294.848C349.515 294.109 350.453 293.224 351.616 292.955C352.848 292.671 354.002 292.241 355 291.665C356.891 290.573 357.875 289.155 357.951 287.724V290.953C357.875 292.384 356.891 293.802 355 294.894C354.002 295.47 352.848 295.9 351.616 296.185C350.453 296.453 349.515 297.338 349.54 298.077V294.848Z" fill="#6BBCCB" stroke="black" stroke-width="0.5" stroke-linejoin="round"/>
    <path d="M322.034 281.016C322.333 280.843 322.74 280.75 323.161 280.75C323.582 280.75 323.989 280.843 324.288 281.016L333.788 286.5C334.141 286.705 334.584 286.8 335.044 286.823C335.506 286.845 336.002 286.794 336.475 286.691C336.948 286.588 337.406 286.431 337.791 286.236C338.171 286.044 338.504 285.803 338.699 285.521C339.166 284.847 339.881 284.203 340.854 283.642C342.777 282.531 345.314 281.969 347.864 281.969C350.415 281.969 352.951 282.531 354.875 283.642C356.8 284.753 357.706 286.175 357.706 287.545C357.706 288.915 356.8 290.337 354.875 291.448C353.902 292.01 352.772 292.432 351.56 292.712C350.699 292.91 349.941 293.427 349.557 294.014C349.364 294.309 349.252 294.644 349.301 294.976C349.351 295.318 349.563 295.608 349.924 295.816L362.678 303.18C362.978 303.354 363.072 303.546 363.072 303.687C363.072 303.827 362.978 304.02 362.678 304.193L352.57 310.029C352.287 310.192 352.086 310.402 351.987 310.65C351.886 310.901 351.9 311.163 351.997 311.405C352.187 311.876 352.69 312.274 353.334 312.493C354.035 312.733 354.694 313.026 355.292 313.371C357.217 314.483 358.123 315.904 358.123 317.275C358.123 318.645 357.217 320.067 355.292 321.178C353.369 322.288 350.832 322.851 348.282 322.851C345.731 322.851 343.194 322.288 341.271 321.178C340.672 320.832 340.171 320.455 339.765 320.059C339.355 319.659 338.673 319.398 337.986 319.306C337.297 319.214 336.543 319.282 335.981 319.606L324.288 326.358C323.989 326.53 323.582 326.623 323.161 326.623C322.74 326.623 322.333 326.53 322.034 326.358L309.819 319.305C309.158 318.924 308.201 318.905 307.359 319.075C306.932 319.161 306.518 319.299 306.166 319.475C305.818 319.65 305.512 319.873 305.32 320.138C304.853 320.788 304.154 321.406 303.215 321.949C301.291 323.059 298.754 323.622 296.204 323.622C293.654 323.622 291.117 323.059 289.193 321.949C287.269 320.837 286.363 319.416 286.363 318.046C286.363 316.675 287.269 315.254 289.193 314.142C290.133 313.6 291.219 313.188 292.385 312.908C293.196 312.713 293.883 312.248 294.211 311.706C294.377 311.432 294.46 311.121 294.392 310.813C294.324 310.5 294.11 310.236 293.772 310.041L283.644 304.193C283.343 304.02 283.25 303.827 283.25 303.687C283.25 303.546 283.343 303.354 283.644 303.18L322.034 281.016Z" fill="#90E0EF" stroke="black" stroke-width="0.5"/>
    <path d="M189.832 111.422C190.765 110.583 191.737 109.785 192.651 108.927C194.898 106.819 196.249 104.51 197.397 101.665C198.819 98.1402 200.555 94.2636 201.205 90.4998" stroke="black" stroke-linecap="round"/>
    <ellipse cx="23.1313" cy="28.3397" rx="23.1313" ry="28.3397" transform="matrix(-1 -6.65437e-10 -6.65437e-10 1 191.23 81.4998)" fill="#7676E8"/>
    <circle cx="1.83825" cy="1.83825" r="1.83825" transform="matrix(-0.975297 -0.2209 -0.2209 0.975297 188.287 110.401)" fill="black"/>
    <circle cx="1.83825" cy="1.83825" r="1.83825" transform="matrix(-0.975297 -0.2209 -0.2209 0.975297 177.084 111.32)" fill="black"/>
    <path d="M183.266 116.909C184.081 116.608 184.656 116.282 185.203 115.618C185.163 115.783 185.251 116.008 185.259 116.182C185.268 116.356 185.342 116.521 185.352 116.699C185.368 116.963 185.404 117.225 185.414 117.49C185.454 118.481 185.014 119.699 184.511 120.538C184.162 121.121 183.69 121.688 183.239 122.196C182.824 122.663 182.302 123.078 181.749 123.372C181.319 123.6 180.824 123.69 180.352 123.785C180.063 123.844 179.651 124.025 179.249 123.919C178.882 123.822 178.473 123.543 178.113 123.35C177.789 123.177 177.478 122.994 177.225 122.725C176.791 122.265 176.365 121.81 176.153 121.204C175.861 120.367 175.742 119.521 175.583 118.653C175.48 118.083 175.384 117.514 175.313 116.939C175.303 116.856 175.209 116.603 175.367 116.677C176.053 117 176.781 117.164 177.537 117.233C178.749 117.343 179.986 117.351 181.2 117.286C181.907 117.249 182.6 117.154 183.266 116.909Z" stroke="black" stroke-linecap="round" stroke-linejoin="round"/>
    <path d="M162.421 117.859C166.017 113.04 171.157 108.588 173.007 102.716C173.885 99.9312 173.813 97.3217 173.358 94.4997" stroke="black" stroke-linecap="round"/>
    <path d="M177.699 135.487C179.941 137.505 182.231 139.532 184.812 141.09C185.557 141.54 185.893 141.306 186.493 140.71C187.656 139.554 188.74 138.308 189.893 137.139C190.952 136.065 191.955 134.951 193.084 133.948" stroke="black" stroke-linecap="round"/>
    <path d="M163.167 134.632C165.314 137.652 167.531 140.758 169.246 144.053C169.572 144.68 170.109 145.353 170.347 146.009C170.553 146.575 170.774 146.077 170.946 145.715C171.327 144.912 171.774 144.216 172.209 143.445C172.911 142.201 173.605 140.948 174.621 139.931" stroke="black" stroke-linecap="round"/>
    <path d="M261.315 205.103L261.51 205.255L261.315 205.103C261.703 204.605 262.495 204.255 263.298 204.107C264.105 203.959 265.013 203.998 265.66 204.371L277.15 211.005C277.459 211.183 277.88 211.279 278.314 211.279C278.748 211.279 279.168 211.183 279.478 211.005L318.971 188.203C319.281 188.024 319.38 187.824 319.38 187.675C319.38 187.525 319.281 187.325 318.971 187.146L307.576 180.567C307.1 180.292 306.388 180.227 305.69 180.341C304.989 180.455 304.376 180.736 304.083 181.071C303.578 181.649 302.912 182.185 302.091 182.66C300.017 183.857 297.315 184.448 294.626 184.448C291.937 184.448 289.235 183.857 287.162 182.66C285.089 181.463 283.997 179.861 283.997 178.207C283.997 176.553 285.089 174.951 287.162 173.754C287.983 173.28 288.903 172.901 289.879 172.617C290.526 172.428 290.967 172.071 291.131 171.734C291.211 171.571 291.222 171.421 291.178 171.29C291.134 171.157 291.021 171.009 290.786 170.873L279.478 164.344C279.169 164.166 278.748 164.07 278.314 164.07C277.88 164.07 277.459 164.166 277.15 164.344L265.647 170.986C265.399 171.129 265.288 171.287 265.25 171.431C265.211 171.575 265.236 171.745 265.341 171.932C265.555 172.313 266.076 172.702 266.78 172.881C267.937 173.177 269.025 173.599 269.981 174.151C272.053 175.347 273.145 176.95 273.145 178.604C273.145 180.257 272.053 181.86 269.981 183.056C267.907 184.254 265.205 184.845 262.517 184.845C259.828 184.845 257.126 184.254 255.052 183.056C254.097 182.505 253.351 181.869 252.824 181.181C252.69 181.006 252.462 180.834 252.16 180.686C251.86 180.539 251.502 180.424 251.126 180.353C250.363 180.21 249.58 180.262 249.074 180.554L237.657 187.146C237.346 187.325 237.247 187.525 237.247 187.675C237.247 187.824 237.346 188.024 237.657 188.203L249.061 194.788C249.39 194.977 249.605 195.228 249.688 195.525C249.769 195.82 249.708 196.121 249.56 196.388C249.269 196.915 248.624 197.363 247.84 197.567C246.743 197.852 245.719 198.253 244.826 198.769C242.844 199.914 241.909 201.379 241.909 202.793C241.909 204.207 242.844 205.672 244.826 206.816C246.806 207.96 249.417 208.539 252.042 208.539C254.667 208.539 257.278 207.96 259.259 206.816C260.153 206.3 260.836 205.717 261.315 205.103Z" fill="#FFCA69" stroke="black" stroke-width="0.49568"/>
    <path fill-rule="evenodd" clip-rule="evenodd" d="M237 184.32C236.985 184.6 237.163 184.883 237.533 185.096L248.937 191.681C249.304 191.893 249.469 192.168 249.476 192.456V195.778C249.469 195.49 249.304 195.215 248.937 195.003L237.533 188.418C237.163 188.205 236.985 187.922 237 187.642V184.32Z" fill="#DFA232" stroke="black" stroke-width="0.5" stroke-linejoin="round"/>
    <path fill-rule="evenodd" clip-rule="evenodd" d="M249.476 192.456C249.489 193.069 248.785 193.743 247.778 194.005C246.663 194.295 245.618 194.704 244.702 195.233C242.675 196.403 241.662 197.937 241.662 199.471V202.793C241.662 201.259 242.675 199.725 244.702 198.555C245.618 198.026 246.663 197.617 247.778 197.327C248.785 197.065 249.489 196.391 249.476 195.778V192.456Z" fill="#DFA232" stroke="black" stroke-width="0.5" stroke-linejoin="round"/>
    <path fill-rule="evenodd" clip-rule="evenodd" d="M241.661 199.471C241.661 201.005 242.675 202.539 244.702 203.709C248.756 206.05 255.329 206.05 259.383 203.709C260.299 203.18 261.008 202.577 261.51 201.933C262.177 201.078 264.388 200.601 265.536 201.263L277.026 207.897C277.737 208.308 278.89 208.308 279.601 207.897L319.094 185.096C319.45 184.891 319.628 184.622 319.628 184.353V187.675C319.628 187.944 319.45 188.213 319.094 188.418L279.601 211.219C278.89 211.63 277.737 211.63 277.026 211.219L265.536 204.585C264.388 203.923 262.177 204.4 261.51 205.255C261.008 205.899 260.299 206.502 259.383 207.031C255.329 209.372 248.756 209.372 244.702 207.031C242.675 205.861 241.661 204.327 241.661 202.793V199.471Z" fill="#DFA232" stroke="black" stroke-width="0.5" stroke-linejoin="round"/>
    <path fill-rule="evenodd" clip-rule="evenodd" d="M284.244 174.885C284.244 173.351 285.258 171.817 287.285 170.647C288.087 170.184 288.988 169.813 289.948 169.533C290.829 169.276 291.423 168.706 291.45 168.164V171.486C291.423 172.028 290.829 172.598 289.948 172.855C288.988 173.135 288.087 173.506 287.285 173.969C285.258 175.139 284.244 176.673 284.244 178.207V174.885Z" fill="#DFA232" stroke="black" stroke-width="0.5" stroke-linejoin="round"/>
    <path fill-rule="evenodd" clip-rule="evenodd" d="M264.985 168.234C264.978 168.855 265.7 169.539 266.719 169.8C267.857 170.09 268.924 170.505 269.857 171.044C271.884 172.214 272.897 173.748 272.897 175.282V178.604C272.897 177.07 271.884 175.536 269.857 174.366C268.924 173.827 267.857 173.412 266.719 173.122C265.7 172.861 264.978 172.178 264.985 171.556V168.234Z" fill="#DFA232" stroke="black" stroke-width="0.5" stroke-linejoin="round"/>
    <path d="M261.315 201.781L261.51 201.933L261.315 201.781C261.703 201.283 262.495 200.933 263.298 200.785C264.105 200.637 265.013 200.676 265.66 201.049L277.15 207.683C277.459 207.861 277.88 207.957 278.314 207.957C278.748 207.957 279.168 207.861 279.478 207.683L318.971 184.881C319.281 184.702 319.38 184.502 319.38 184.353C319.38 184.203 319.281 184.003 318.971 183.824L307.576 177.245C307.1 176.97 306.388 176.905 305.69 177.019C304.989 177.133 304.376 177.414 304.083 177.749C303.578 178.327 302.912 178.863 302.091 179.338C300.017 180.535 297.315 181.126 294.626 181.126C291.937 181.126 289.235 180.535 287.162 179.338C285.089 178.141 283.997 176.539 283.997 174.885C283.997 173.231 285.089 171.629 287.162 170.432C287.983 169.958 288.903 169.579 289.879 169.295C290.526 169.106 290.967 168.748 291.131 168.412C291.211 168.249 291.222 168.099 291.178 167.968C291.134 167.835 291.021 167.687 290.786 167.551L279.478 161.022C279.169 160.844 278.748 160.748 278.314 160.748C277.88 160.748 277.459 160.844 277.15 161.022L265.647 167.664C265.399 167.807 265.288 167.965 265.25 168.109C265.211 168.253 265.236 168.423 265.341 168.61C265.555 168.991 266.076 169.38 266.78 169.559C267.937 169.855 269.025 170.277 269.981 170.829C272.053 172.025 273.145 173.628 273.145 175.282C273.145 176.935 272.053 178.538 269.981 179.734C267.907 180.931 265.205 181.523 262.517 181.523C259.828 181.523 257.126 180.932 255.052 179.734C254.097 179.183 253.351 178.547 252.824 177.859C252.69 177.684 252.462 177.512 252.16 177.364C251.86 177.217 251.502 177.102 251.126 177.031C250.363 176.888 249.58 176.94 249.074 177.232L237.657 183.824C237.346 184.003 237.247 184.203 237.247 184.353C237.247 184.502 237.346 184.702 237.657 184.881L249.061 191.466C249.39 191.655 249.605 191.906 249.688 192.203C249.769 192.498 249.708 192.799 249.56 193.066C249.269 193.593 248.624 194.041 247.84 194.244C246.743 194.53 245.719 194.931 244.826 195.447C242.844 196.592 241.909 198.057 241.909 199.471C241.909 200.885 242.844 202.35 244.826 203.494C246.806 204.638 249.417 205.217 252.042 205.217C254.667 205.217 257.278 204.638 259.259 203.494C260.153 202.978 260.836 202.395 261.315 201.781Z" fill="#FFCA69" stroke="black" stroke-width="0.49568"/>
    <path d="M259.386 100.36L259.582 100.207L259.386 100.36C258.907 99.7455 258.225 99.1621 257.331 98.646C255.35 97.5026 252.739 96.9237 250.114 96.9237C247.489 96.9237 244.878 97.5025 242.897 98.6459C240.915 99.7902 239.981 101.255 239.981 102.669C239.981 104.083 240.916 105.549 242.898 106.693C243.791 107.209 244.815 107.611 245.912 107.896C246.696 108.1 247.341 108.547 247.632 109.074C247.78 109.341 247.841 109.642 247.759 109.937C247.677 110.234 247.461 110.485 247.133 110.674L237.657 116.146C237.346 116.325 237.247 116.525 237.247 116.675C237.247 116.824 237.346 117.024 237.657 117.203L247.454 122.859C247.756 123.034 247.965 123.26 248.061 123.526C248.158 123.795 248.129 124.073 248.014 124.325C247.789 124.82 247.232 125.238 246.529 125.455C245.667 125.722 244.861 126.064 244.139 126.481C242.157 127.625 241.222 129.09 241.222 130.504C241.222 131.918 242.157 133.383 244.139 134.528C246.119 135.671 248.731 136.25 251.355 136.25C253.98 136.25 256.592 135.671 258.572 134.527C259.294 134.111 259.878 133.65 260.329 133.164C260.737 132.724 261.463 132.43 262.198 132.318C262.935 132.207 263.75 132.268 264.348 132.614L277.15 140.005C277.459 140.183 277.88 140.279 278.314 140.279C278.748 140.279 279.169 140.183 279.478 140.005L290.872 133.426C291.107 133.291 291.22 133.142 291.264 133.01C291.308 132.878 291.297 132.729 291.217 132.566C291.053 132.229 290.612 131.871 289.965 131.683C288.988 131.398 288.069 131.02 287.247 130.545C285.175 129.349 284.083 127.746 284.083 126.092C284.083 124.439 285.175 122.836 287.247 121.64C289.321 120.443 292.023 119.851 294.712 119.851C297.401 119.851 300.103 120.443 302.176 121.64C302.998 122.114 303.664 122.651 304.169 123.229C304.462 123.564 305.074 123.845 305.776 123.959C306.474 124.072 307.185 124.008 307.662 123.733L318.971 117.203C319.281 117.024 319.38 116.824 319.38 116.675C319.38 116.525 319.281 116.325 318.971 116.146L307.467 109.504C306.961 109.212 306.178 109.161 305.416 109.304C305.04 109.374 304.682 109.49 304.382 109.636C304.079 109.784 303.851 109.956 303.717 110.131C303.19 110.819 302.445 111.455 301.489 112.007C299.416 113.204 296.714 113.795 294.025 113.795C291.336 113.795 288.634 113.204 286.561 112.007C284.488 110.81 283.396 109.208 283.396 107.554C283.396 105.9 284.488 104.298 286.561 103.101C287.516 102.55 288.604 102.127 289.761 101.832C290.465 101.652 290.986 101.263 291.201 100.882C291.306 100.696 291.33 100.525 291.292 100.381C291.253 100.238 291.143 100.079 290.895 99.9361L279.478 93.3444C279.169 93.1659 278.748 93.0696 278.314 93.0696C277.88 93.0696 277.459 93.166 277.15 93.3444L263.731 101.092C263.085 101.465 262.177 101.503 261.369 101.355C260.567 101.207 259.775 100.858 259.386 100.36Z" fill="#99ACEB" stroke="black" stroke-width="0.49568"/>
    <path fill-rule="evenodd" clip-rule="evenodd" d="M283.649 104.416C283.565 102.821 284.577 101.211 286.685 99.9938C287.618 99.4552 288.684 99.0404 289.823 98.7497C290.811 98.4973 291.521 97.8455 291.556 97.2393V100.561C291.521 101.168 290.811 101.819 289.823 102.072C288.684 102.362 287.618 102.777 286.685 103.316C284.577 104.533 283.565 106.143 283.649 107.738V104.416Z" fill="#7676E8" stroke="black" stroke-width="0.5" stroke-linejoin="round"/>
    <path fill-rule="evenodd" clip-rule="evenodd" d="M239.738 99.1633C239.653 100.758 240.665 102.368 242.773 103.585C243.689 104.114 244.734 104.524 245.849 104.814C246.826 105.068 247.519 105.71 247.547 106.308V109.63C247.519 109.032 246.826 108.39 245.849 108.136C244.734 107.846 243.689 107.436 242.773 106.907C240.665 105.69 239.653 104.08 239.738 102.485V99.1633Z" fill="#7676E8" stroke="black" stroke-width="0.5" stroke-linejoin="round"/>
    <path fill-rule="evenodd" clip-rule="evenodd" d="M247.547 106.308C247.561 106.616 247.399 106.912 247.009 107.138L237.533 112.609C237.177 112.814 236.999 113.083 236.999 113.352V116.675C236.999 116.405 237.177 116.136 237.533 115.931L247.009 110.46C247.399 110.235 247.561 109.938 247.547 109.63V106.308Z" fill="#7676E8" stroke="black" stroke-width="0.0996613" stroke-linejoin="round"/>
    <path fill-rule="evenodd" clip-rule="evenodd" d="M237 113.353C237 113.622 237.177 113.891 237.533 114.096L247.33 119.752C247.691 119.961 247.859 120.228 247.871 120.506V123.828C247.859 123.55 247.691 123.283 247.33 123.074L237.533 117.418C237.177 117.213 237 116.944 237 116.675V113.353Z" fill="#7676E8" stroke="black" stroke-width="0.5" stroke-linejoin="round"/>
    <path fill-rule="evenodd" clip-rule="evenodd" d="M247.871 120.506C247.895 121.046 247.331 121.626 246.456 121.896C245.579 122.168 244.755 122.517 244.015 122.944C241.988 124.114 240.975 125.648 240.975 127.182V130.504C240.975 128.97 241.988 127.436 244.015 126.266C244.755 125.839 245.579 125.49 246.456 125.218C247.331 124.948 247.895 124.368 247.871 123.828V120.506Z" fill="#7676E8" stroke="black" stroke-width="0.0996613" stroke-linejoin="round"/>
    <path fill-rule="evenodd" clip-rule="evenodd" d="M240.974 127.182C240.974 128.716 241.987 130.25 244.014 131.42C248.069 133.761 254.642 133.761 258.696 131.42C259.436 130.993 260.04 130.517 260.51 130.011C261.22 129.246 263.161 128.892 264.224 129.506L277.026 136.897C277.737 137.308 278.89 137.308 279.601 136.897L290.996 130.319C291.366 130.105 291.533 129.829 291.537 129.542V132.864C291.533 133.151 291.366 133.427 290.996 133.641L279.601 140.219C278.89 140.63 277.737 140.63 277.026 140.219L264.224 132.828C263.161 132.214 261.22 132.568 260.51 133.333C260.04 133.839 259.436 134.315 258.696 134.742C254.642 137.083 248.069 137.083 244.014 134.742C241.987 133.572 240.974 132.038 240.974 130.504V127.182Z" fill="#7676E8" stroke="black" stroke-width="0.5" stroke-linejoin="round"/>
    <path fill-rule="evenodd" clip-rule="evenodd" d="M284.336 122.955C284.251 121.36 285.263 119.75 287.371 118.532C291.425 116.192 297.998 116.192 302.052 118.532C302.854 118.995 303.498 119.515 303.983 120.07C304.677 120.864 306.696 121.254 307.786 120.625L319.094 114.096C319.45 113.891 319.628 113.622 319.628 113.353V116.675C319.628 116.944 319.45 117.213 319.094 117.418L307.786 123.947C306.696 124.577 304.677 124.186 303.983 123.392C303.498 122.838 302.854 122.318 302.052 121.854C297.998 119.514 291.425 119.514 287.371 121.854C285.263 123.072 284.251 124.682 284.336 126.277V122.955Z" fill="#7676E8" stroke="black" stroke-width="0.5" stroke-linejoin="round"/>
    <path d="M259.386 97.0377L259.582 96.8852L259.386 97.0377C258.907 96.4235 258.225 95.84 257.331 95.3239C255.35 94.1805 252.739 93.6017 250.114 93.6017C247.489 93.6017 244.878 94.1805 242.897 95.3239C240.915 96.4682 239.981 97.9332 239.981 99.3473C239.981 100.761 240.916 102.227 242.898 103.371C243.791 103.887 244.815 104.288 245.912 104.574C246.696 104.778 247.341 105.225 247.632 105.752C247.78 106.019 247.841 106.32 247.759 106.615C247.677 106.912 247.461 107.163 247.133 107.352L237.657 112.824C237.346 113.003 237.247 113.203 237.247 113.353C237.247 113.502 237.346 113.702 237.657 113.881L247.454 119.537C247.756 119.712 247.965 119.938 248.061 120.204C248.158 120.473 248.129 120.751 248.014 121.003C247.789 121.498 247.232 121.916 246.529 122.133C245.667 122.4 244.861 122.742 244.139 123.159C242.157 124.303 241.222 125.768 241.222 127.182C241.222 128.596 242.157 130.061 244.139 131.205C246.119 132.349 248.731 132.928 251.355 132.928C253.98 132.928 256.592 132.349 258.572 131.205C259.294 130.789 259.878 130.328 260.329 129.842C260.737 129.402 261.463 129.108 262.198 128.996C262.935 128.885 263.75 128.946 264.348 129.292L277.15 136.683C277.459 136.861 277.88 136.957 278.314 136.957C278.748 136.957 279.169 136.861 279.478 136.683L290.872 130.104C291.107 129.969 291.22 129.82 291.264 129.688C291.308 129.556 291.297 129.407 291.217 129.244C291.053 128.907 290.612 128.549 289.965 128.361C288.988 128.076 288.069 127.698 287.247 127.223C285.175 126.027 284.083 124.424 284.083 122.77C284.083 121.117 285.175 119.514 287.247 118.318C289.321 117.121 292.023 116.529 294.712 116.529C297.401 116.529 300.103 117.121 302.176 118.318C302.998 118.792 303.664 119.329 304.169 119.907C304.462 120.242 305.074 120.523 305.776 120.637C306.474 120.75 307.185 120.686 307.662 120.411L318.971 113.881C319.281 113.702 319.38 113.502 319.38 113.353C319.38 113.203 319.281 113.003 318.971 112.824L307.467 106.182C306.961 105.89 306.178 105.839 305.416 105.982C305.04 106.052 304.682 106.168 304.382 106.314C304.079 106.462 303.851 106.634 303.717 106.809C303.19 107.497 302.445 108.133 301.489 108.685C299.416 109.882 296.714 110.473 294.025 110.473C291.336 110.473 288.634 109.882 286.561 108.685C284.488 107.488 283.396 105.886 283.396 104.232C283.396 102.578 284.488 100.976 286.561 99.7793C287.516 99.2275 288.604 98.8051 289.761 98.5097C290.465 98.3299 290.986 97.9413 291.201 97.5604C291.306 97.3738 291.33 97.2034 291.292 97.0589C291.253 96.9158 291.143 96.7571 290.895 96.6141L279.478 90.0223C279.169 89.8439 278.748 89.7476 278.314 89.7476C277.88 89.7476 277.459 89.8439 277.15 90.0224L263.731 97.7695C263.085 98.1427 262.177 98.1813 261.369 98.0328C260.567 97.8851 259.775 97.5357 259.386 97.0377Z" fill="#99ACEB" stroke="black" stroke-width="0.49568"/>
    <path d="M332.85 125.643C332.541 125.464 332.12 125.368 331.686 125.368C331.252 125.368 330.831 125.464 330.522 125.643L317.585 133.112C317.222 133.321 316.768 133.419 316.296 133.442C315.822 133.465 315.312 133.413 314.826 133.307C314.34 133.202 313.87 133.04 313.475 132.84C313.084 132.643 312.744 132.396 312.544 132.108C312.063 131.412 311.326 130.75 310.325 130.171C308.344 129.028 305.733 128.449 303.108 128.449C300.483 128.449 297.872 129.028 295.892 130.171C293.91 131.316 292.975 132.781 292.975 134.195C292.975 135.609 293.91 137.074 295.892 138.218C296.893 138.796 298.057 139.231 299.304 139.519C300.188 139.723 300.966 140.253 301.359 140.855C301.557 141.157 301.671 141.499 301.621 141.838C301.57 142.186 301.354 142.483 300.985 142.696L291.029 148.444C290.718 148.623 290.619 148.823 290.619 148.973C290.619 149.122 290.719 149.323 291.029 149.502L301.427 155.505C301.717 155.673 301.922 155.887 302.023 156.14C302.126 156.395 302.112 156.662 302.013 156.909C301.819 157.391 301.304 157.798 300.643 158.024C299.921 158.27 299.243 158.572 298.627 158.928C296.645 160.072 295.71 161.537 295.71 162.951C295.71 164.365 296.645 165.83 298.627 166.975C300.607 168.118 303.219 168.697 305.844 168.697C308.468 168.697 311.08 168.118 313.06 166.975C313.677 166.619 314.193 166.231 314.611 165.822C315.031 165.412 315.731 165.145 316.436 165.05C317.144 164.955 317.917 165.026 318.493 165.358L330.522 172.303C330.831 172.481 331.252 172.578 331.686 172.578C332.12 172.578 332.541 172.482 332.85 172.303L345.415 165.048C346.093 164.657 347.074 164.638 347.94 164.812C348.379 164.901 348.803 165.042 349.164 165.223C349.522 165.403 349.835 165.631 350.031 165.903C350.513 166.572 351.233 167.209 352.2 167.768C354.181 168.911 356.792 169.49 359.417 169.49C362.041 169.49 364.653 168.911 366.633 167.768C368.615 166.623 369.55 165.158 369.55 163.744C369.55 162.33 368.615 160.865 366.633 159.721C365.666 159.162 364.548 158.738 363.348 158.45C362.515 158.25 361.811 157.773 361.475 157.218C361.306 156.938 361.221 156.62 361.29 156.306C361.359 155.987 361.577 155.717 361.923 155.517L372.343 149.502C372.653 149.323 372.752 149.122 372.752 148.973C372.752 148.824 372.653 148.623 372.343 148.444L332.85 125.643Z" fill="#90E0EF" stroke="black" stroke-width="0.49568"/>
    <path fill-rule="evenodd" clip-rule="evenodd" d="M373 145.651C373 145.92 372.822 146.189 372.467 146.394L362.047 152.41C361.687 152.618 361.523 152.891 361.514 153.18V156.502C361.523 156.213 361.687 155.94 362.047 155.732L372.467 149.716C372.822 149.511 373 149.242 373 148.973V145.651Z" fill="#6BBCCB" stroke="black" stroke-width="0.5" stroke-linejoin="round"/>
    <path fill-rule="evenodd" clip-rule="evenodd" d="M361.514 153.18C361.492 153.855 362.307 154.623 363.406 154.887C364.625 155.179 365.766 155.612 366.757 156.184C368.784 157.354 369.798 158.888 369.798 160.422V163.744C369.798 162.21 368.784 160.676 366.757 159.506C365.766 158.934 364.625 158.501 363.406 158.209C362.307 157.945 361.492 157.177 361.514 156.502V153.18Z" fill="#6BBCCB" stroke="black" stroke-width="0.0996613" stroke-linejoin="round"/>
    <path fill-rule="evenodd" clip-rule="evenodd" d="M369.798 160.422C369.798 161.956 368.784 163.49 366.757 164.66C362.703 167.001 356.13 167.001 352.076 164.66C351.085 164.088 350.336 163.429 349.83 162.725C349.177 161.819 346.741 161.247 345.539 161.941L332.974 169.196C332.262 169.606 331.109 169.606 330.398 169.195L318.369 162.25C317.347 161.661 315.52 161.96 314.784 162.677C314.349 163.102 313.816 163.502 313.184 163.867C309.13 166.208 302.557 166.208 298.503 163.867C296.476 162.697 295.462 161.163 295.462 159.629V162.951C295.462 164.485 296.476 166.019 298.503 167.189C302.557 169.53 309.13 169.53 313.184 167.189C313.816 166.824 314.349 166.424 314.784 166C315.52 165.282 317.347 164.983 318.369 165.572L330.398 172.518C331.109 172.928 332.262 172.928 332.974 172.518L345.539 165.263C346.741 164.569 349.177 165.141 349.83 166.047C350.336 166.751 351.085 167.41 352.076 167.982C356.13 170.323 362.703 170.323 366.757 167.982C368.784 166.812 369.798 165.278 369.798 163.744V160.422Z" fill="#6BBCCB" stroke="black" stroke-width="0.5" stroke-linejoin="round"/>
    <path fill-rule="evenodd" clip-rule="evenodd" d="M301.845 153.212C301.857 152.913 301.691 152.622 301.303 152.398L290.905 146.394C290.549 146.189 290.371 145.92 290.371 145.651V148.973C290.371 149.242 290.549 149.511 290.905 149.716L301.303 155.72C301.691 155.944 301.857 156.235 301.845 156.534V153.212Z" fill="#6BBCCB" stroke="black" stroke-width="0.5" stroke-linejoin="round"/>
    <path fill-rule="evenodd" clip-rule="evenodd" d="M301.384 138.386C301.41 137.625 300.444 136.714 299.248 136.438C297.981 136.146 296.794 135.703 295.768 135.111C293.74 133.94 292.727 132.406 292.727 130.873V134.195C292.727 135.728 293.74 137.262 295.768 138.433C296.794 139.025 297.981 139.468 299.248 139.76C300.444 140.036 301.41 140.947 301.384 141.708V138.386Z" fill="#6BBCCB" stroke="black" stroke-width="0.5" stroke-linejoin="round"/>
    <path d="M332.85 122.321C332.541 122.142 332.12 122.046 331.686 122.046C331.252 122.046 330.831 122.142 330.522 122.32L317.585 129.79C317.222 129.999 316.768 130.097 316.296 130.12C315.822 130.143 315.312 130.091 314.826 129.985C314.34 129.879 313.87 129.718 313.475 129.518C313.084 129.32 312.744 129.074 312.544 128.785C312.063 128.09 311.326 127.427 310.325 126.849C308.344 125.706 305.733 125.127 303.108 125.127C300.483 125.127 297.872 125.706 295.892 126.849C293.91 127.993 292.975 129.458 292.975 130.872C292.975 132.287 293.91 133.752 295.892 134.896C296.893 135.474 298.057 135.909 299.304 136.197C300.188 136.4 300.966 136.931 301.359 137.533C301.557 137.835 301.671 138.177 301.621 138.515C301.57 138.864 301.354 139.161 300.985 139.374L291.029 145.122C290.718 145.301 290.619 145.501 290.619 145.651C290.619 145.8 290.719 146 291.029 146.18L301.427 152.183C301.717 152.35 301.922 152.565 302.023 152.818C302.126 153.073 302.112 153.34 302.013 153.587C301.819 154.068 301.304 154.476 300.643 154.701C299.921 154.948 299.243 155.249 298.627 155.605C296.645 156.75 295.71 158.215 295.71 159.629C295.71 161.043 296.645 162.508 298.627 163.652C300.607 164.796 303.219 165.375 305.844 165.375C308.468 165.375 311.08 164.796 313.06 163.652C313.677 163.296 314.193 162.908 314.611 162.5C315.031 162.09 315.731 161.823 316.436 161.728C317.144 161.633 317.917 161.704 318.493 162.036L330.522 168.981C330.831 169.159 331.252 169.256 331.686 169.256C332.12 169.256 332.541 169.159 332.85 168.981L345.415 161.726C346.093 161.335 347.074 161.315 347.94 161.49C348.379 161.578 348.803 161.72 349.164 161.901C349.522 162.081 349.835 162.309 350.031 162.58C350.513 163.25 351.233 163.887 352.2 164.445C354.181 165.589 356.792 166.168 359.417 166.168C362.041 166.168 364.653 165.589 366.633 164.445C368.615 163.301 369.55 161.836 369.55 160.422C369.55 159.008 368.615 157.543 366.633 156.399C365.666 155.84 364.548 155.416 363.348 155.128C362.515 154.928 361.811 154.451 361.475 153.896C361.306 153.615 361.221 153.298 361.29 152.984C361.359 152.665 361.577 152.395 361.923 152.195L372.343 146.18C372.653 146 372.752 145.8 372.752 145.651C372.752 145.501 372.653 145.301 372.343 145.122L332.85 122.321Z" fill="#90E0EF" stroke="black" stroke-width="0.49568"/>
    <path d="M234.71 285.518C231.885 282.56 229.521 279.703 228.625 275.598C227.841 272.012 228.004 268.113 227.92 264.454" stroke="black" stroke-width="1.29692" stroke-linecap="round"/>
    <path d="M247.571 303.349C247.1 305.95 245.984 309.602 247.146 312.175C248.034 314.143 251.259 315.863 252.826 313.707C253.27 313.096 253.607 311.067 254.131 312.652C254.488 313.733 254.714 314.816 255.233 315.832" stroke="black" stroke-width="1.29692" stroke-linecap="round"/>
    <path d="M259.646 302.512C259.357 304.459 258.219 307.688 259.95 309.242C260.759 309.967 262.115 310.563 263.21 310.177C264.72 309.644 264.861 307.49 265.186 306.195C265.649 304.35 265.566 307.542 265.838 308.093C266.194 308.812 266.565 309.975 267.165 310.518" stroke="black" stroke-width="1.29692" stroke-linecap="round"/>
    <ellipse cx="254.341" cy="274.735" rx="29.5695" ry="23.1284" transform="rotate(89.5879 254.341 274.735)" fill="#FC6D83"/>
    <path d="M236.308 274.979C236.733 273.279 237.973 267.134 240.933 268.105C243.112 268.82 243.63 272.957 243.818 274.881" stroke="black" stroke-width="1.29692" stroke-linecap="round"/>
    <path d="M250.218 275.429C249.598 273.532 251.654 264.888 254.683 268.869C255.733 270.248 256.379 273.503 256.113 275.293" stroke="black" stroke-width="1.29692" stroke-linecap="round"/>
    <path d="M242.979 277.795C244.138 278.053 245.113 278.838 246.262 279.172C248.186 279.732 249.943 279.473 251.567 278.308C252.411 277.703 252.571 277.104 252.596 278.506C252.629 280.406 252.254 282.324 251.952 284.194C251.721 285.618 251.425 287.979 249.509 287.904C246.71 287.796 245.59 284.795 244.764 282.584C244.311 281.37 243.348 279.398 243.544 278.081" stroke="black" stroke-width="1.29692" stroke-linecap="round"/>
    <path d="M272.569 285.509C276.091 281.163 278.793 277.036 280.289 271.583C281.021 268.915 281.276 266.309 281.527 263.589" stroke="black" stroke-width="1.29692" stroke-linecap="round"/>
    <ellipse cx="254" cy="327" rx="20" ry="3.5" fill="#D8929C"/>
    <path d="M360.986 86.6763C363.645 87.363 364.977 88.4076 365.445 91.16C365.918 93.9374 364.997 97.6387 362.489 99.2058C362.046 99.4828 360.497 99.6035 361.036 100.377C361.876 101.581 364.108 102.189 365.321 101.323" stroke="black" stroke-width="1.01192" stroke-linecap="round"/>
    <path d="M315.252 85.7769C313.761 85.836 311.937 85.8733 310.793 86.9974C309.856 87.9183 309.915 89.6366 310.137 90.8086C310.531 92.8843 311.712 96.2806 314.139 96.6541C314.268 96.6739 315.492 96.661 315.484 96.7537C315.352 98.336 313.55 98.9867 312.263 99.0786" stroke="black" stroke-width="1.01192" stroke-linecap="round"/>
    <path d="M340.809 108.691C341.193 110.204 341.528 111.718 341.789 113.257C341.86 113.679 341.851 114.828 342.32 115.117C343.419 115.794 345.429 115.387 346.621 115.333C347.276 115.304 347.926 115.267 348.581 115.267" stroke="black" stroke-width="1.01192" stroke-linecap="round"/>
    <path d="M334.233 108.99C334.233 110.522 334.359 112.123 334.15 113.648C334.061 114.297 333.949 114.98 333.303 115.3C331.33 116.278 328.728 115.992 326.76 115.267" stroke="black" stroke-width="1.01192" stroke-linecap="round"/>
    <rect width="45.2889" height="63.228" rx="14.7042" transform="matrix(-1 0 0 1 360.65 45.6372)" fill="#BDE0FE"/>
    <circle cx="2.19249" cy="2.19249" r="2.19249" transform="matrix(-1 -6.65437e-10 -6.65437e-10 1 345.81 79.0305)" fill="black"/>
    <circle cx="2.19249" cy="2.19249" r="2.19249" transform="matrix(-1 -6.65437e-10 -6.65437e-10 1 331.979 77.344)" fill="black"/>
    <path d="M325.08 91.5109C325.08 93.0384 326.092 94.5025 327.901 95.6112C329.702 96.7147 332.221 97.4137 335.031 97.4137C337.84 97.4137 340.36 96.7147 342.16 95.6112C343.969 94.5025 344.981 93.0384 344.981 91.5109C344.981 89.9834 343.969 88.5192 342.16 87.4105C340.36 86.307 337.84 85.608 335.031 85.608C332.221 85.608 329.702 86.307 327.901 87.4105C326.092 88.5192 325.08 89.9834 325.08 91.5109Z" stroke="black" stroke-width="1.01192"/>
    <path d="M209.521 40.386L209.734 40.5158L209.521 40.386C209.123 41.0405 208.97 41.8141 209.078 42.4309C209.133 42.7404 209.257 43.0286 209.47 43.2355C209.689 43.4483 209.984 43.556 210.332 43.5293L221.591 42.6657C221.858 42.6452 222.034 42.7461 222.134 42.9007C222.239 43.0646 222.283 43.3314 222.183 43.6771L218.202 57.5307C218.044 58.0806 217.589 58.5681 217.048 58.8773C216.499 59.1911 215.934 59.2819 215.576 59.142L215.485 59.375L215.576 59.142C214.851 58.8595 214.021 58.7417 213.108 58.8117C211.051 58.9695 208.941 60.0507 207.188 61.6479C205.434 63.2466 204.017 65.3799 203.357 67.6748C202.698 69.9684 202.913 72.0184 203.841 73.4667C204.775 74.9244 206.405 75.7312 208.472 75.5726C209.385 75.5026 210.307 75.2506 211.203 74.8539C211.728 74.6214 212.241 74.6627 212.568 74.8663C212.73 74.9668 212.849 75.1071 212.911 75.28C212.974 75.4531 212.987 75.6752 212.908 75.9477L209.61 87.4237C209.511 87.7681 209.295 88.0968 209.022 88.3451C208.748 88.5949 208.437 88.7455 208.159 88.7668L169.462 91.735C169.195 91.7555 169.019 91.6547 168.92 91.5C168.815 91.3361 168.771 91.0693 168.87 90.7236L172.382 78.5035C172.539 77.9582 172.986 77.475 173.518 77.1677C174.058 76.8559 174.615 76.7634 174.973 76.8989L174.973 76.8989C175.687 77.1691 176.502 77.2808 177.397 77.2121C179.454 77.0544 181.564 75.9731 183.316 74.376C185.071 72.7773 186.488 70.644 187.147 68.3491C187.807 66.0555 187.591 64.0054 186.664 62.5571C185.73 61.0995 184.1 60.2927 182.032 60.4512C181.138 60.5198 180.235 60.7631 179.356 61.1459L179.356 61.1459C178.836 61.3725 178.334 61.3287 178.014 61.1265C177.713 60.9359 177.534 60.5799 177.685 60.0529L181.443 46.9769C181.542 46.6326 181.759 46.3039 182.031 46.0557C182.305 45.8059 182.616 45.6552 182.894 45.6339L194.069 44.7768C194.741 44.7252 195.371 44.1963 195.81 43.5857C196.254 42.9693 196.561 42.1908 196.529 41.5356C196.487 40.6934 196.598 39.7625 196.883 38.7707C197.514 36.5749 198.876 34.5192 200.57 32.9754C202.266 31.43 204.276 30.4152 206.191 30.2683C208.096 30.1222 209.539 30.8597 210.363 32.1453C211.192 33.4402 211.419 35.3321 210.787 37.5292C210.502 38.521 210.068 39.4843 209.521 40.386Z" fill="#68B1A6" stroke="black" stroke-width="0.5"/>
    <path fill-rule="evenodd" clip-rule="evenodd" d="M170.941 93.5112C171.096 93.6389 171.306 93.7037 171.557 93.6845L210.254 90.7163C210.951 90.6629 211.699 89.9808 211.926 89.193L215.224 77.7169C215.384 77.1625 215.233 76.7261 214.915 76.4555L212.839 74.7554C213.158 75.026 213.308 75.4624 213.149 76.0168L209.85 87.4929C209.624 88.2807 208.875 88.9627 208.178 89.0162L169.482 91.9844C169.231 92.0036 169.021 91.9388 168.865 91.8111L170.941 93.5112Z" fill="#12775B" stroke="black" stroke-width="0.5" stroke-linejoin="round"/>
    <path fill-rule="evenodd" clip-rule="evenodd" d="M214.914 76.4554C214.509 76.111 213.832 76.035 213.177 76.3255C212.303 76.7125 211.408 76.956 210.528 77.0235C209.177 77.1271 208.035 76.8032 207.165 76.154L205.09 74.4539C205.959 75.1031 207.102 75.427 208.452 75.3234C209.333 75.2559 210.228 75.0124 211.101 74.6254C211.757 74.3349 212.434 74.4109 212.839 74.7553L214.914 76.4554Z" fill="#12775B" stroke="black" stroke-width="0.5" stroke-linejoin="round"/>
    <path fill-rule="evenodd" clip-rule="evenodd" d="M207.166 76.1541C205.479 74.8939 204.821 72.408 205.673 69.4441C206.964 64.9534 211.23 61.0659 215.203 60.7613C216.083 60.6937 216.875 60.8078 217.561 61.0752C218.48 61.4337 220.156 60.5602 220.518 59.3L224.5 45.4464C224.644 44.9422 224.54 44.5168 224.264 44.29L222.189 42.5898C222.465 42.8167 222.569 43.2421 222.424 43.7463L218.442 57.5999C218.08 58.86 216.404 59.7336 215.485 59.3751C214.8 59.1077 214.008 58.9936 213.127 59.0611C209.155 59.3658 204.888 63.2533 203.598 67.744C202.746 70.7079 203.403 73.1938 205.091 74.454L207.166 76.1541Z" fill="#12775B" stroke="black" stroke-width="0.5" stroke-linejoin="round"/>
    <path fill-rule="evenodd" clip-rule="evenodd" d="M224.264 44.29C224.108 44.1624 223.898 44.0975 223.647 44.1168L212.389 44.9804C212.141 44.9993 211.939 44.9352 211.782 44.8106L209.706 43.1105C209.863 43.2351 210.066 43.2992 210.313 43.2802L221.572 42.4167C221.823 42.3974 222.033 42.4623 222.188 42.5899L224.264 44.29Z" fill="#12775B" stroke="black" stroke-width="0.5" stroke-linejoin="round"/>
    <path fill-rule="evenodd" clip-rule="evenodd" d="M211.781 44.8106C211.223 44.3689 211.232 43.1673 211.81 42.2161C212.367 41.2972 212.811 40.3136 213.103 39.2985C213.929 36.4246 213.336 34 211.76 32.7067L209.685 31.0066C211.26 32.2999 211.853 34.7245 211.027 37.5984C210.735 38.6134 210.292 39.5971 209.734 40.5159C209.157 41.4672 209.148 42.6688 209.705 43.1105L211.781 44.8106Z" fill="#12775B" stroke="black" stroke-width="0.5" stroke-linejoin="round"/>
    <path fill-rule="evenodd" clip-rule="evenodd" d="M211.761 32.7065C210.875 31.979 209.678 31.6094 208.248 31.7191C204.275 32.0238 200.009 35.9111 198.718 40.4017C198.426 41.4167 198.312 42.3752 198.355 43.2479C198.412 44.4064 197.25 46.1414 196.125 46.2276L184.951 47.0847C184.254 47.1382 183.505 47.8202 183.279 48.608L179.521 61.6839C179.363 62.2336 179.508 62.6669 179.82 62.9367L177.744 61.2366C177.433 60.9668 177.287 60.5335 177.445 59.9838L181.203 46.9078C181.43 46.1201 182.178 45.4381 182.875 45.3846L194.05 44.5275C195.174 44.4412 196.336 42.7063 196.279 41.5478C196.236 40.6751 196.351 39.7166 196.643 38.7016C197.933 34.211 202.2 30.3237 206.172 30.019C207.602 29.9093 208.799 30.2789 209.685 31.0064L211.761 32.7065Z" fill="#12775B" stroke="black" stroke-width="0.5" stroke-linejoin="round"/>
    <path fill-rule="evenodd" clip-rule="evenodd" d="M179.82 62.9368C180.216 63.2802 180.881 63.3587 181.532 63.0753C182.389 62.7019 183.265 62.4669 184.127 62.4008C185.478 62.2972 186.62 62.6211 187.49 63.2703L185.414 61.5702C184.545 60.921 183.402 60.5971 182.052 60.7007C181.189 60.7668 180.313 61.0018 179.456 61.3752C178.806 61.6586 178.141 61.5801 177.744 61.2367L179.82 62.9368Z" fill="#12775B" stroke="black" stroke-width="0.5" stroke-linejoin="round"/>
    <path fill-rule="evenodd" clip-rule="evenodd" d="M187.49 63.2702C189.177 64.5304 189.834 67.0163 188.983 69.9802C187.692 74.4709 183.425 78.3583 179.453 78.6631C178.591 78.7292 177.813 78.621 177.137 78.3652C176.221 78.0184 174.576 78.8854 174.217 80.1346L170.705 92.3547C170.56 92.8589 170.664 93.2843 170.941 93.5112L168.865 91.8111C168.589 91.5842 168.485 91.1588 168.63 90.6546L172.142 78.4345C172.501 77.1853 174.146 76.3183 175.062 76.6651C175.738 76.9209 176.515 77.0291 177.378 76.9629C181.35 76.6582 185.616 72.7708 186.907 68.2801C187.759 65.3162 187.102 62.8303 185.414 61.5701L187.49 63.2702Z" fill="#12775B" stroke="black" stroke-width="0.5" stroke-linejoin="round"/>
    <path d="M211.596 42.0862L211.81 42.216L211.596 42.0862C211.199 42.7407 211.045 43.5143 211.153 44.1311C211.208 44.4406 211.332 44.7288 211.545 44.9357C211.765 45.1485 212.059 45.2562 212.407 45.2295L223.666 44.3659C223.933 44.3454 224.11 44.4463 224.209 44.6009C224.314 44.7648 224.358 45.0316 224.259 45.3773L220.277 59.2309C220.119 59.7808 219.664 60.2683 219.123 60.5775C218.574 60.8913 218.009 60.9821 217.651 60.8422L217.56 61.0751L217.651 60.8422C216.926 60.5597 216.096 60.4419 215.183 60.5119C213.126 60.6697 211.016 61.7509 209.263 63.3481C207.509 64.9468 206.092 67.0801 205.432 69.375C204.773 71.6686 204.988 73.7186 205.916 75.1669C206.85 76.6246 208.48 77.4314 210.547 77.2728C211.46 77.2028 212.383 76.9508 213.278 76.5541C213.803 76.3216 214.316 76.3629 214.643 76.5665C214.805 76.667 214.924 76.8073 214.986 76.9802C215.049 77.1533 215.062 77.3754 214.984 77.6479L211.685 89.1239C211.586 89.4683 211.37 89.797 211.098 90.0453C210.823 90.2951 210.512 90.4457 210.235 90.467L171.538 93.4352C171.27 93.4557 171.094 93.3549 170.995 93.2002C170.89 93.0363 170.846 92.7695 170.945 92.4238L174.457 80.2037C174.614 79.6584 175.061 79.1752 175.593 78.8679C176.133 78.5561 176.691 78.4636 177.048 78.599L177.048 78.5991C177.762 78.8693 178.577 78.981 179.472 78.9123C181.529 78.7546 183.639 77.6733 185.392 76.0762C187.146 74.4775 188.563 72.3442 189.223 70.0493C189.882 67.7557 189.667 65.7056 188.739 64.2573C187.805 62.7997 186.175 61.9928 184.108 62.1514C183.213 62.22 182.31 62.4632 181.432 62.846L181.432 62.8461C180.911 63.0727 180.409 63.0289 180.089 62.8267C179.789 62.6361 179.609 62.2801 179.76 61.753L183.519 48.6771C183.618 48.3328 183.834 48.0041 184.106 47.7559C184.38 47.5061 184.691 47.3554 184.969 47.3341L196.144 46.477C196.817 46.4254 197.446 45.8965 197.885 45.2859C198.329 44.6695 198.636 43.891 198.604 43.2358C198.562 42.3936 198.673 41.4627 198.958 40.4709C199.589 38.2751 200.951 36.2194 202.645 34.6756C204.341 33.1302 206.351 32.1154 208.266 31.9685C210.171 31.8224 211.614 32.5599 212.438 33.8455C213.268 35.1403 213.494 37.0323 212.862 39.2294C212.577 40.2212 212.143 41.1845 211.596 42.0862Z" fill="#68B1A6" stroke="black" stroke-width="0.5"/>
    </svg>
    