
<svg width="370" height="46" viewBox="0 0 370 46" fill="none" xmlns="http://www.w3.org/2000/svg">
    <g filter="url(#filter0_d_562_6223)">
    <rect x="330.31" y="3.78931" width="37.4215" height="37.4215" rx="1.49686" fill="#F6CDA5"/>
    <rect x="329.935" y="3.41509" width="38.1699" height="38.1699" rx="1.87108" stroke="#19123C" stroke-width="0.74843"/>
    </g>
    <path d="M346.515 35.9717V23.434L346.766 25.1943L336.6 10.8245H342.815L350.574 21.9611L348.131 21.8533L355.137 10.8245H361.136L351.401 25.5895L351.939 23.1466V35.9717H346.515Z" fill="#19123C"/>
    <path d="M362.775 38.122V37.7605L364.614 35.2143H365.185V37.7081H365.709V38.122H365.185V38.9654H364.713V38.122H362.775ZM364.734 35.712L363.325 37.7081H364.734V35.712Z" fill="#19123C"/>
    <g filter="url(#filter1_d_562_6223)">
    <rect x="250.847" y="1.30835" width="37.4215" height="37.4215" rx="1.49686" transform="rotate(8.21276 250.847 1.30835)" fill="#F6CDA5"/>
    <rect x="250.53" y="0.884516" width="38.1699" height="38.1699" rx="1.87108" transform="rotate(8.21276 250.53 0.884516)" stroke="#19123C" stroke-width="0.74843"/>
    </g>
    <path d="M258.105 34.8718L258.767 30.285L262.927 30.8854L265.195 15.1696L261.035 14.5692L261.697 9.98242L275.35 11.953L274.688 16.5398L270.528 15.9394L268.26 31.6552L272.42 32.2556L271.758 36.8424L258.105 34.8718Z" fill="#19123C"/>
    <path d="M280.023 37.6723L280.085 37.2419L281.06 37.3826L280.519 41.1315L280.042 41.0627L280.521 37.7441L280.023 37.6723Z" fill="#19123C"/>
    <g filter="url(#filter2_d_562_6223)">
    <rect x="167.974" y="1.72778" width="37.4215" height="37.4215" rx="1.49686" transform="rotate(6.72159 167.974 1.72778)" fill="#F6CDA5"/>
    <rect x="167.646" y="1.31234" width="38.1699" height="38.1699" rx="1.87108" transform="rotate(6.72159 167.646 1.31234)" stroke="#19123C" stroke-width="0.74843"/>
    </g>
    <path d="M182.907 36.1098C180.885 35.8715 179.126 35.2422 177.631 34.2219C176.162 33.1807 175.062 31.8694 174.332 30.2882C173.605 28.6832 173.352 26.9412 173.574 25.0622L175.39 9.64941L180.777 10.2843L178.999 25.376C178.881 26.375 179.001 27.3055 179.357 28.1674C179.717 29.0056 180.249 29.7074 180.954 30.2728C181.683 30.841 182.523 31.1812 183.474 31.2933C184.449 31.4082 185.358 31.2741 186.198 30.8909C187.063 30.5105 187.768 29.9545 188.312 29.2228C188.883 28.4702 189.228 27.5944 189.345 26.5954L191.124 11.5037L196.333 12.1176L194.516 27.5304C194.295 29.4094 193.644 31.0449 192.564 32.4369C191.486 33.805 190.1 34.8233 188.405 35.4918C186.737 36.1392 184.905 36.3452 182.907 36.1098Z" fill="#19123C"/>
    <path d="M198.086 37.32L198.137 36.8882L199.115 37.0034L198.672 40.7652L198.193 40.7088L198.586 37.3789L198.086 37.32Z" fill="#19123C"/>
    <g filter="url(#filter3_d_562_6223)">
    <rect x="83.3271" y="3.78931" width="37.4215" height="37.4215" rx="1.49686" fill="#F6CDA5"/>
    <rect x="82.9529" y="3.41509" width="38.1699" height="38.1699" rx="1.87108" stroke="#19123C" stroke-width="0.74843"/>
    </g>
    <path d="M89.5898 35.9717V10.8245H94.5115L103.672 25.7332L100.439 25.6973L109.708 10.8245H114.414V35.9717H109.133V27.3498C109.133 25.1943 109.181 23.2544 109.277 21.53C109.396 19.8056 109.588 18.0932 109.851 16.3928L110.498 18.0812L103.133 29.5053H100.762L93.5416 18.1531L94.1523 16.3928C94.4157 17.9974 94.5953 19.65 94.6911 21.3504C94.8109 23.0269 94.8708 25.0267 94.8708 27.3498V35.9717H89.5898Z" fill="#19123C"/>
    <path d="M116.107 36.1311C116.131 35.8098 116.255 35.5583 116.479 35.3767C116.702 35.1951 116.992 35.1043 117.348 35.1043C117.586 35.1043 117.79 35.1479 117.961 35.2353C118.136 35.3191 118.267 35.4343 118.354 35.581C118.445 35.7277 118.49 35.8936 118.49 36.0787C118.49 36.2953 118.428 36.4821 118.302 36.6393C118.18 36.7965 118.019 36.8978 117.82 36.9432V36.9694C118.047 37.0253 118.227 37.1353 118.359 37.2994C118.492 37.4636 118.559 37.6784 118.559 37.9438C118.559 38.1429 118.513 38.3228 118.422 38.4834C118.332 38.6406 118.195 38.7646 118.014 38.8554C117.832 38.9462 117.614 38.9916 117.359 38.9916C116.989 38.9916 116.685 38.8956 116.447 38.7035C116.21 38.5079 116.077 38.232 116.049 37.8757H116.51C116.535 38.0853 116.62 38.2564 116.767 38.3891C116.913 38.5219 117.109 38.5882 117.354 38.5882C117.598 38.5882 117.783 38.5254 117.909 38.3996C118.038 38.2704 118.103 38.1045 118.103 37.9019C118.103 37.64 118.015 37.4514 117.841 37.3361C117.666 37.2208 117.402 37.1632 117.05 37.1632H116.929V36.7651H117.055C117.376 36.7616 117.619 36.7092 117.783 36.6079C117.947 36.5031 118.029 36.3424 118.029 36.1259C118.029 35.9408 117.968 35.7923 117.846 35.6806C117.727 35.5688 117.556 35.5129 117.333 35.5129C117.116 35.5129 116.941 35.5688 116.809 35.6806C116.676 35.7923 116.597 35.9425 116.573 36.1311H116.107Z" fill="#19123C"/>
    <g filter="url(#filter4_d_562_6223)">
    <rect x="124.491" y="3.78931" width="37.4215" height="37.4215" rx="1.49686" fill="#F6CDA5"/>
    <rect x="124.117" y="3.41509" width="38.1699" height="38.1699" rx="1.87108" stroke="#19123C" stroke-width="0.74843"/>
    </g>
    <path d="M130.754 35.9717V10.8245H135.676L144.836 25.7332L141.603 25.6973L150.872 10.8245H155.578V35.9717H150.297V27.3498C150.297 25.1943 150.345 23.2544 150.441 21.53C150.56 19.8056 150.752 18.0932 151.015 16.3928L151.662 18.0812L144.297 29.5053H141.926L134.706 18.1531L135.316 16.3928C135.58 17.9974 135.759 19.65 135.855 21.3504C135.975 23.0269 136.035 25.0267 136.035 27.3498V35.9717H130.754Z" fill="#19123C"/>
    <path d="M157.271 36.1311C157.295 35.8098 157.419 35.5583 157.643 35.3767C157.866 35.1951 158.156 35.1043 158.512 35.1043C158.75 35.1043 158.954 35.1479 159.125 35.2353C159.3 35.3191 159.431 35.4343 159.518 35.581C159.609 35.7277 159.654 35.8936 159.654 36.0787C159.654 36.2953 159.592 36.4821 159.466 36.6393C159.344 36.7965 159.183 36.8978 158.984 36.9432V36.9694C159.211 37.0253 159.391 37.1353 159.524 37.2994C159.656 37.4636 159.723 37.6784 159.723 37.9438C159.723 38.1429 159.677 38.3228 159.586 38.4834C159.496 38.6406 159.359 38.7646 159.178 38.8554C158.996 38.9462 158.778 38.9916 158.523 38.9916C158.153 38.9916 157.849 38.8956 157.611 38.7035C157.374 38.5079 157.241 38.232 157.213 37.8757H157.674C157.699 38.0853 157.784 38.2564 157.931 38.3891C158.078 38.5219 158.273 38.5882 158.518 38.5882C158.762 38.5882 158.947 38.5254 159.073 38.3996C159.202 38.2704 159.267 38.1045 159.267 37.9019C159.267 37.64 159.179 37.4514 159.005 37.3361C158.83 37.2208 158.567 37.1632 158.214 37.1632H158.093V36.7651H158.219C158.54 36.7616 158.783 36.7092 158.947 36.6079C159.111 36.5031 159.193 36.3424 159.193 36.1259C159.193 35.9408 159.132 35.7923 159.01 35.6806C158.891 35.5688 158.72 35.5129 158.497 35.5129C158.28 35.5129 158.105 35.5688 157.973 35.6806C157.84 35.7923 157.761 35.9425 157.737 36.1311H157.271Z" fill="#19123C"/>
    <g filter="url(#filter5_d_562_6223)">
    <rect x="286.792" y="6.48511" width="37.4215" height="37.4215" rx="1.49686" transform="rotate(-7.7543 286.792 6.48511)" fill="#F6CDA5"/>
    <rect x="286.371" y="6.16481" width="38.1699" height="38.1699" rx="1.87108" transform="rotate(-7.7543 286.371 6.16481)" stroke="#19123C" stroke-width="0.74843"/>
    </g>
    <path d="M306.986 36.2146L304.248 16.1028L296.986 17.0916L296.332 12.2861L316.408 9.55234L317.062 14.3578L309.587 15.3757L312.326 35.4875L306.986 36.2146Z" fill="#19123C"/>
    <path d="M324.845 33.4202L324.787 32.9893L325.763 32.8564L326.274 36.6096L325.796 36.6746L325.344 33.3523L324.845 33.4202Z" fill="#19123C"/>
    <g filter="url(#filter6_d_562_6223)">
    <rect x="206.818" y="3.78931" width="37.4215" height="37.4215" rx="1.49686" fill="#F6CDA5"/>
    <rect x="206.444" y="3.41509" width="38.1699" height="38.1699" rx="1.87108" stroke="#19123C" stroke-width="0.74843"/>
    </g>
    <path d="M214.578 35.9717V10.8245H219.392L233.295 29.6131H232.289C232.193 28.8706 232.109 28.1521 232.038 27.4576C231.966 26.7391 231.894 26.0206 231.822 25.3021C231.774 24.5597 231.726 23.8052 231.678 23.0388C231.654 22.2485 231.63 21.4222 231.606 20.56C231.582 19.6739 231.57 18.7159 231.57 17.6861V10.8245H236.851V35.9717H231.966L217.775 17.0035L219.141 17.0394C219.26 18.2848 219.356 19.3506 219.428 20.2367C219.524 21.0989 219.596 21.8533 219.644 22.5C219.691 23.1466 219.727 23.7094 219.751 24.1884C219.799 24.6674 219.823 25.1225 219.823 25.5536C219.847 25.9847 219.859 26.4397 219.859 26.9187V35.9717H214.578Z" fill="#19123C"/>
    <path d="M240.89 35.6125V35.1776H241.875V38.9654H241.393V35.6125H240.89Z" fill="#19123C"/>
    <g filter="url(#filter7_d_562_6223)">
    <rect x="40.0889" y="6.12476" width="37.4215" height="37.4215" rx="1.49686" transform="rotate(-6.76776 40.0889 6.12476)" fill="#F6CDA5"/>
    <rect x="39.6732" y="5.79725" width="38.1699" height="38.1699" rx="1.87108" transform="rotate(-6.76776 39.6732 5.79725)" stroke="#19123C" stroke-width="0.74843"/>
    </g>
    <path d="M62.6885 36.2129C60.8572 36.4302 59.1305 36.3096 57.5084 35.8509C55.8863 35.3922 54.4249 34.6612 53.124 33.6579C51.8442 32.628 50.8019 31.3649 49.9973 29.8687C49.1898 28.3486 48.676 26.661 48.4559 24.806C48.2329 22.9271 48.3389 21.178 48.7738 19.5588C49.2059 17.9157 49.9235 16.4438 50.9268 15.1429C51.9539 13.8393 53.2023 12.7747 54.672 11.9491C56.1416 11.1235 57.7921 10.602 59.6234 10.3847C61.4785 10.1646 63.2052 10.2852 64.8035 10.7467C66.4256 11.2054 67.8765 11.9497 69.1564 12.9796C70.4601 14.0067 71.5142 15.2683 72.3188 16.7646C73.1235 18.2609 73.6359 19.9366 73.856 21.7917C74.0762 23.6467 73.9702 25.3958 73.5381 27.0388C73.106 28.6819 72.3765 30.1552 71.3494 31.4589C70.3461 32.7597 69.1096 33.823 67.6399 34.6485C66.194 35.4713 64.5436 35.9928 62.6885 36.2129ZM62.0873 31.1472C63.1338 31.023 64.0744 30.7184 64.9092 30.2335C65.7678 29.7457 66.4758 29.1069 67.0333 28.3173C67.5908 27.5276 67.9914 26.6359 68.2353 25.6422C68.5029 24.6458 68.569 23.5767 68.4335 22.4352C68.298 21.2936 67.9836 20.2697 67.4902 19.3636C67.0205 18.4546 66.4237 17.6933 65.6997 17.0798C64.9729 16.4426 64.1351 15.9873 63.1862 15.714C62.2582 15.4141 61.271 15.3263 60.2246 15.4505C59.1781 15.5746 58.2389 15.8911 57.4069 16.3998C56.5721 16.8848 55.8641 17.5235 55.2828 18.316C54.6988 19.0848 54.2848 19.966 54.0409 20.9596C53.8209 21.9504 53.7786 23.0166 53.9141 24.1582C54.0495 25.2998 54.3402 26.3265 54.786 27.2383C55.2557 28.1473 55.8658 28.919 56.6164 29.5535C57.367 30.1879 58.2048 30.6432 59.13 30.9193C60.0551 31.1954 61.0409 31.2713 62.0873 31.1472Z" fill="#19123C"/>
    <path d="M77.6731 33.7111L77.6219 33.2793L78.5999 33.1632L79.0463 36.9247L78.5677 36.9815L78.1725 33.6519L77.6731 33.7111Z" fill="#19123C"/>
    <g filter="url(#filter8_d_562_6223)">
    <rect x="1" y="3.78931" width="37.4215" height="37.4215" rx="1.49686" fill="#F6CDA5"/>
    <rect x="0.625785" y="3.41509" width="38.1699" height="38.1699" rx="1.87108" stroke="#19123C" stroke-width="0.74843"/>
    </g>
    <path d="M21.6594 36.3311C19.8153 36.3311 18.1149 36.0198 16.5581 35.3971C15.0253 34.7504 13.6842 33.8523 12.5346 32.7027C11.4089 31.5292 10.5348 30.1521 9.91207 28.5714C9.28937 26.9668 8.97803 25.2184 8.97803 23.3264C8.97803 21.4823 9.30135 19.7818 9.94799 18.2251C10.5946 16.6444 11.5047 15.2793 12.6783 14.1297C13.8518 12.9561 15.2289 12.0461 16.8096 11.3994C18.3903 10.7528 20.1027 10.4294 21.9468 10.4294C23.1443 10.4294 24.3179 10.5971 25.4674 10.9324C26.641 11.2437 27.7067 11.7108 28.6647 12.3334C29.6467 12.9561 30.4849 13.6986 31.1795 14.5608L27.8025 18.2969C27.2277 17.7221 26.629 17.2312 26.0063 16.824C25.4076 16.3929 24.7609 16.0696 24.0664 15.8541C23.3958 15.6146 22.6773 15.4948 21.9109 15.4948C20.8811 15.4948 19.9111 15.6864 19.001 16.0696C18.1149 16.4528 17.3365 16.9917 16.6659 17.6862C15.9953 18.3568 15.4564 19.1831 15.0493 20.165C14.6661 21.123 14.4745 22.1888 14.4745 23.3623C14.4745 24.5598 14.6661 25.6495 15.0493 26.6315C15.4325 27.5895 15.9714 28.4157 16.6659 29.1103C17.3604 29.7809 18.1867 30.3077 19.1447 30.6909C20.1266 31.0502 21.2044 31.2298 22.3779 31.2298C23.1443 31.2298 23.8868 31.122 24.6053 30.9065C25.3237 30.6909 25.9824 30.3916 26.5811 30.0084C27.2038 29.6252 27.7546 29.1821 28.2336 28.6792L30.8561 32.8824C30.2813 33.529 29.503 34.1158 28.521 34.6427C27.563 35.1696 26.4853 35.5887 25.2878 35.9C24.0903 36.1874 22.8809 36.3311 21.6594 36.3311Z" fill="#19123C"/>
    <path d="M33.7795 36.1313C33.8039 35.81 33.9279 35.5585 34.1514 35.3769C34.375 35.1952 34.6648 35.1044 35.0211 35.1044C35.2586 35.1044 35.4629 35.1481 35.6341 35.2354C35.8087 35.3192 35.9397 35.4345 36.027 35.5812C36.1178 35.7279 36.1632 35.8938 36.1632 36.0789C36.1632 36.2954 36.1003 36.4823 35.9746 36.6395C35.8524 36.7966 35.6917 36.8979 35.4926 36.9433V36.9695C35.7196 37.0254 35.8995 37.1354 36.0322 37.2996C36.165 37.4637 36.2313 37.6785 36.2313 37.944C36.2313 38.1431 36.1859 38.3229 36.0951 38.4836C36.0043 38.6408 35.8681 38.7648 35.6865 38.8556C35.5048 38.9464 35.2865 38.9918 35.0316 38.9918C34.6614 38.9918 34.3575 38.8957 34.12 38.7036C33.8825 38.508 33.7498 38.2321 33.7218 37.8759H34.1829C34.2073 38.0854 34.2929 38.2566 34.4396 38.3893C34.5863 38.522 34.7819 38.5884 35.0263 38.5884C35.2708 38.5884 35.4559 38.5255 35.5817 38.3998C35.7109 38.2705 35.7755 38.1046 35.7755 37.9021C35.7755 37.6401 35.6882 37.4515 35.5136 37.3363C35.3389 37.221 35.0752 37.1634 34.7225 37.1634H34.602V36.7652H34.7277C35.049 36.7617 35.2918 36.7093 35.4559 36.608C35.6201 36.5033 35.7022 36.3426 35.7022 36.126C35.7022 35.9409 35.6411 35.7925 35.5188 35.6807C35.4001 35.569 35.2289 35.5131 35.0054 35.5131C34.7888 35.5131 34.6142 35.569 34.4815 35.6807C34.3488 35.7925 34.2702 35.9427 34.2457 36.1313H33.7795Z" fill="#19123C"/>
    <defs>
    <filter id="filter0_d_562_6223" x="329.561" y="3.04077" width="40.0411" height="40.0411" filterUnits="userSpaceOnUse" color-interpolation-filters="sRGB">
    <feFlood flood-opacity="0" result="BackgroundImageFix"/>
    <feColorMatrix in="SourceAlpha" type="matrix" values="0 0 0 0 0 0 0 0 0 0 0 0 0 0 0 0 0 0 127 0" result="hardAlpha"/>
    <feMorphology radius="0.374215" operator="dilate" in="SourceAlpha" result="effect1_dropShadow_562_6223"/>
    <feOffset dx="0.74843" dy="0.74843"/>
    <feComposite in2="hardAlpha" operator="out"/>
    <feColorMatrix type="matrix" values="0 0 0 0 0.0980392 0 0 0 0 0.0705882 0 0 0 0 0.235294 0 0 0 1 0"/>
    <feBlend mode="normal" in2="BackgroundImageFix" result="effect1_dropShadow_562_6223"/>
    <feBlend mode="normal" in="SourceGraphic" in2="effect1_dropShadow_562_6223" result="shape"/>
    </filter>
    <filter id="filter1_d_562_6223" x="244.951" y="0.758057" width="44.6065" height="44.6065" filterUnits="userSpaceOnUse" color-interpolation-filters="sRGB">
    <feFlood flood-opacity="0" result="BackgroundImageFix"/>
    <feColorMatrix in="SourceAlpha" type="matrix" values="0 0 0 0 0 0 0 0 0 0 0 0 0 0 0 0 0 0 127 0" result="hardAlpha"/>
    <feMorphology radius="0.374215" operator="dilate" in="SourceAlpha" result="effect1_dropShadow_562_6223"/>
    <feOffset dx="0.74843" dy="0.74843"/>
    <feComposite in2="hardAlpha" operator="out"/>
    <feColorMatrix type="matrix" values="0 0 0 0 0.0980392 0 0 0 0 0.0705882 0 0 0 0 0.235294 0 0 0 1 0"/>
    <feBlend mode="normal" in2="BackgroundImageFix" result="effect1_dropShadow_562_6223"/>
    <feBlend mode="normal" in="SourceGraphic" in2="effect1_dropShadow_562_6223" result="shape"/>
    </filter>
    <filter id="filter2_d_562_6223" x="163.01" y="1.14404" width="43.8346" height="43.8343" filterUnits="userSpaceOnUse" color-interpolation-filters="sRGB">
    <feFlood flood-opacity="0" result="BackgroundImageFix"/>
    <feColorMatrix in="SourceAlpha" type="matrix" values="0 0 0 0 0 0 0 0 0 0 0 0 0 0 0 0 0 0 127 0" result="hardAlpha"/>
    <feMorphology radius="0.374215" operator="dilate" in="SourceAlpha" result="effect1_dropShadow_562_6223"/>
    <feOffset dx="0.74843" dy="0.74843"/>
    <feComposite in2="hardAlpha" operator="out"/>
    <feColorMatrix type="matrix" values="0 0 0 0 0.0980392 0 0 0 0 0.0705882 0 0 0 0 0.235294 0 0 0 1 0"/>
    <feBlend mode="normal" in2="BackgroundImageFix" result="effect1_dropShadow_562_6223"/>
    <feBlend mode="normal" in="SourceGraphic" in2="effect1_dropShadow_562_6223" result="shape"/>
    </filter>
    <filter id="filter3_d_562_6223" x="82.5786" y="3.04077" width="40.0411" height="40.0411" filterUnits="userSpaceOnUse" color-interpolation-filters="sRGB">
    <feFlood flood-opacity="0" result="BackgroundImageFix"/>
    <feColorMatrix in="SourceAlpha" type="matrix" values="0 0 0 0 0 0 0 0 0 0 0 0 0 0 0 0 0 0 127 0" result="hardAlpha"/>
    <feMorphology radius="0.374215" operator="dilate" in="SourceAlpha" result="effect1_dropShadow_562_6223"/>
    <feOffset dx="0.74843" dy="0.74843"/>
    <feComposite in2="hardAlpha" operator="out"/>
    <feColorMatrix type="matrix" values="0 0 0 0 0.0980392 0 0 0 0 0.0705882 0 0 0 0 0.235294 0 0 0 1 0"/>
    <feBlend mode="normal" in2="BackgroundImageFix" result="effect1_dropShadow_562_6223"/>
    <feBlend mode="normal" in="SourceGraphic" in2="effect1_dropShadow_562_6223" result="shape"/>
    </filter>
    <filter id="filter4_d_562_6223" x="123.743" y="3.04077" width="40.0411" height="40.0411" filterUnits="userSpaceOnUse" color-interpolation-filters="sRGB">
    <feFlood flood-opacity="0" result="BackgroundImageFix"/>
    <feColorMatrix in="SourceAlpha" type="matrix" values="0 0 0 0 0 0 0 0 0 0 0 0 0 0 0 0 0 0 127 0" result="hardAlpha"/>
    <feMorphology radius="0.374215" operator="dilate" in="SourceAlpha" result="effect1_dropShadow_562_6223"/>
    <feOffset dx="0.74843" dy="0.74843"/>
    <feComposite in2="hardAlpha" operator="out"/>
    <feColorMatrix type="matrix" values="0 0 0 0 0.0980392 0 0 0 0 0.0705882 0 0 0 0 0.235294 0 0 0 1 0"/>
    <feBlend mode="normal" in2="BackgroundImageFix" result="effect1_dropShadow_562_6223"/>
    <feBlend mode="normal" in="SourceGraphic" in2="effect1_dropShadow_562_6223" result="shape"/>
    </filter>
    <filter id="filter5_d_562_6223" x="286.231" y="0.875488" width="44.3722" height="44.3719" filterUnits="userSpaceOnUse" color-interpolation-filters="sRGB">
    <feFlood flood-opacity="0" result="BackgroundImageFix"/>
    <feColorMatrix in="SourceAlpha" type="matrix" values="0 0 0 0 0 0 0 0 0 0 0 0 0 0 0 0 0 0 127 0" result="hardAlpha"/>
    <feMorphology radius="0.374215" operator="dilate" in="SourceAlpha" result="effect1_dropShadow_562_6223"/>
    <feOffset dx="0.74843" dy="0.74843"/>
    <feComposite in2="hardAlpha" operator="out"/>
    <feColorMatrix type="matrix" values="0 0 0 0 0.0980392 0 0 0 0 0.0705882 0 0 0 0 0.235294 0 0 0 1 0"/>
    <feBlend mode="normal" in2="BackgroundImageFix" result="effect1_dropShadow_562_6223"/>
    <feBlend mode="normal" in="SourceGraphic" in2="effect1_dropShadow_562_6223" result="shape"/>
    </filter>
    <filter id="filter6_d_562_6223" x="206.07" y="3.04077" width="40.0411" height="40.0411" filterUnits="userSpaceOnUse" color-interpolation-filters="sRGB">
    <feFlood flood-opacity="0" result="BackgroundImageFix"/>
    <feColorMatrix in="SourceAlpha" type="matrix" values="0 0 0 0 0 0 0 0 0 0 0 0 0 0 0 0 0 0 127 0" result="hardAlpha"/>
    <feMorphology radius="0.374215" operator="dilate" in="SourceAlpha" result="effect1_dropShadow_562_6223"/>
    <feOffset dx="0.74843" dy="0.74843"/>
    <feComposite in2="hardAlpha" operator="out"/>
    <feColorMatrix type="matrix" values="0 0 0 0 0.0980392 0 0 0 0 0.0705882 0 0 0 0 0.235294 0 0 0 1 0"/>
    <feBlend mode="normal" in2="BackgroundImageFix" result="effect1_dropShadow_562_6223"/>
    <feBlend mode="normal" in="SourceGraphic" in2="effect1_dropShadow_562_6223" result="shape"/>
    </filter>
    <filter id="filter7_d_562_6223" x="39.5063" y="1.13208" width="43.8585" height="43.8587" filterUnits="userSpaceOnUse" color-interpolation-filters="sRGB">
    <feFlood flood-opacity="0" result="BackgroundImageFix"/>
    <feColorMatrix in="SourceAlpha" type="matrix" values="0 0 0 0 0 0 0 0 0 0 0 0 0 0 0 0 0 0 127 0" result="hardAlpha"/>
    <feMorphology radius="0.374215" operator="dilate" in="SourceAlpha" result="effect1_dropShadow_562_6223"/>
    <feOffset dx="0.74843" dy="0.74843"/>
    <feComposite in2="hardAlpha" operator="out"/>
    <feColorMatrix type="matrix" values="0 0 0 0 0.0980392 0 0 0 0 0.0705882 0 0 0 0 0.235294 0 0 0 1 0"/>
    <feBlend mode="normal" in2="BackgroundImageFix" result="effect1_dropShadow_562_6223"/>
    <feBlend mode="normal" in="SourceGraphic" in2="effect1_dropShadow_562_6223" result="shape"/>
    </filter>
    <filter id="filter8_d_562_6223" x="0.251465" y="3.04077" width="40.0411" height="40.0411" filterUnits="userSpaceOnUse" color-interpolation-filters="sRGB">
    <feFlood flood-opacity="0" result="BackgroundImageFix"/>
    <feColorMatrix in="SourceAlpha" type="matrix" values="0 0 0 0 0 0 0 0 0 0 0 0 0 0 0 0 0 0 127 0" result="hardAlpha"/>
    <feMorphology radius="0.374215" operator="dilate" in="SourceAlpha" result="effect1_dropShadow_562_6223"/>
    <feOffset dx="0.74843" dy="0.74843"/>
    <feComposite in2="hardAlpha" operator="out"/>
    <feColorMatrix type="matrix" values="0 0 0 0 0.0980392 0 0 0 0 0.0705882 0 0 0 0 0.235294 0 0 0 1 0"/>
    <feBlend mode="normal" in2="BackgroundImageFix" result="effect1_dropShadow_562_6223"/>
    <feBlend mode="normal" in="SourceGraphic" in2="effect1_dropShadow_562_6223" result="shape"/>
    </filter>
    </defs>
    </svg>
    