<svg viewBox="0 0 271 304" fill="none" xmlns="http://www.w3.org/2000/svg">
<path fill-rule="evenodd" clip-rule="evenodd" d="M135.569 0.00202465L264.254 75.0508L255.879 79.7502L135.567 10.4368L15.7736 79.75L7.39014 75.0507L135.566 0.00238609V0L135.568 0.00119114L135.569 0.000353813V0.00202465Z" fill="#ACB3F8"/>
<path fill-rule="evenodd" clip-rule="evenodd" d="M7.408 223.748L135.721 297.672L135.721 287.658L15.7823 218.868L15.7824 79.7481L7.4079 75.0038L7.40791 223.747L7.42425 223.737L7.408 223.748Z" fill="#727AEC"/>
<path fill-rule="evenodd" clip-rule="evenodd" d="M264.03 223.761L264.248 75.0412L255.882 79.7444L255.636 218.846L255.65 218.855L135.721 287.64L135.721 297.654L264.001 223.747L263.934 223.705L264.03 223.761Z" fill="#5B5BA8"/>
<path d="M15.7451 79.7472L135.527 10.329L135.986 148.583L15.7451 218.915L15.7451 79.7472Z" fill="#E7EAFF"/>
<path d="M255.879 79.7413L135.553 10.3426L136.014 148.581L255.64 218.858L255.879 79.7413Z" fill="#C3C9FF"/>
<path d="M15.8116 218.894L136.016 148.547L255.666 218.858L135.711 287.671L15.8116 218.894Z" fill="#C07F6E"/>
<path d="M34.1104 102.653L63.2856 86.2088V141.244L34.1104 156.362L34.1104 102.653Z" fill="url(#paint0_linear_117_20513)"/>
<path d="M69.8231 83.597L69.823 144.655L62.6191 140.83L62.5445 87.7336L69.8231 83.597Z" fill="#BE908A"/>
<path d="M35.474 154.69L61.0806 139.931L69.8372 144.623L35.4736 164.463L35.474 154.69Z" fill="#E8B5AE"/>
<path fill-rule="evenodd" clip-rule="evenodd" d="M71.7404 79.3458L33.4859 101.441L33.4858 104.677L33.4859 104.677L33.4859 133.516L33.4859 133.516L33.4858 136.752L33.4859 136.752L33.4859 165.592L33.4859 165.592L33.4858 168.827L71.7404 146.683L71.7404 143.496L71.7391 143.497L71.739 82.5332L71.7404 82.5325L71.7404 79.3458ZM69.804 83.6534L69.8041 144.615L35.4209 164.474L35.4209 135.639L61.0977 120.871L61.0778 139.933L62.6454 140.781L62.6454 87.7973L69.804 83.6534ZM61.1314 88.6737L61.1011 117.683L35.4209 132.407L35.4209 103.557L61.1314 88.6737Z" fill="#A05C54"/>
<path d="M79.9932 77.0981L109.168 60.6539V115.689L79.9932 130.807L79.9932 77.0981Z" fill="url(#paint1_linear_117_20513)"/>
<path d="M115.706 58.0421L115.706 119.1L108.502 115.275L108.427 62.1786L115.706 58.0421Z" fill="#BE908A"/>
<path d="M81.3568 129.135L106.963 114.376L115.72 119.068L81.3564 138.908L81.3568 129.135Z" fill="#E8B5AE"/>
<path fill-rule="evenodd" clip-rule="evenodd" d="M117.623 53.7908L79.3687 75.8862L79.3687 79.1221L79.3687 79.1221L79.3687 107.961L79.3687 107.961L79.3687 111.197L79.3687 111.197L79.3687 140.037L79.3687 140.037L79.3687 143.273L117.623 121.128L117.623 117.941L117.622 117.942L117.622 56.9783L117.623 56.9775L117.623 53.7908ZM115.687 58.0984L115.687 119.06L81.3038 138.919L81.3037 110.084L106.981 95.3163L106.961 114.379L108.528 115.226L108.528 62.2424L115.687 58.0984ZM107.014 63.1188L106.984 92.1277L81.3037 106.852L81.3037 78.0019L107.014 63.1188Z" fill="#A05C54"/>
<path d="M169.401 163.969L172.1 162.185V182.003L169.401 183.652V163.969Z" fill="#8D89C8"/>
<path d="M167.116 165.178L169.401 163.753V183.571L167.116 182.091V165.178Z" fill="#D9D9D9"/>
<path d="M151.87 171.769L154.361 169.984V189.802L151.87 191.452V171.769Z" fill="#8D89C8"/>
<path d="M148.545 170.262L151.87 171.553V191.371L148.545 189.268V170.262Z" fill="#D9D9D9"/>
<path d="M136.316 163.311L138.806 161.526V181.345L136.316 182.994V163.311Z" fill="#8D89C8"/>
<path d="M132.991 161.804L136.316 163.095V182.913L132.991 180.81V161.804Z" fill="#D9D9D9"/>
<path d="M157.194 121.715L173.27 131.537L169.057 157.489L152.165 147.764L157.194 121.715Z" fill="#FFC480"/>
<path d="M152.175 147.699L172.177 158.483L151.883 170.433L131.955 158.556L152.175 147.699Z" fill="#FAAE56"/>
<path d="M172.271 158.408L172.103 162.302L151.87 174.323V170.433L172.271 158.408Z" fill="#DF9B4E"/>
<path d="M151.87 170.384V174.323L131.896 162.398L131.958 158.552L151.87 170.384Z" fill="#DF9B4E"/>
<path d="M159.931 120.497L176.773 130.839L173.268 131.558L157.079 121.76L159.931 120.497Z" fill="#DF9B4E"/>
<path d="M176.779 130.833L172.277 158.558L168.398 161.305L173.269 131.57L176.779 130.833Z" fill="#DF9B4E"/>
<path d="M84.9286 156.797L150.158 157.041C150.158 157.041 150.462 163.969 149.562 165.482C148.661 166.996 140.486 176.988 117.588 176.849C94.69 176.711 86.2565 166.711 85.4912 165.339C84.7259 163.967 84.9286 156.797 84.9286 156.797Z" fill="#CFA59B"/>
<path d="M149.658 156.318C149.658 160.638 146.09 164.689 140.002 167.689C133.946 170.673 125.545 172.534 116.238 172.534C106.929 172.534 99.1955 170.707 93.808 167.766C88.4135 164.822 85.4492 160.815 85.4492 156.453C85.4492 152.089 88.4169 148.014 93.8121 145.002C99.1995 141.995 106.932 140.102 116.238 140.102C125.545 140.102 133.946 141.962 140.002 144.946C146.09 147.947 149.658 151.997 149.658 156.318Z" fill="#F9ECE9" stroke="#CFA59B"/>
<path d="M118.808 197.452L115.806 200.714L101.932 191.878L104.868 188.915L118.808 197.452Z" fill="#D2B3AB"/>
<path fill-rule="evenodd" clip-rule="evenodd" d="M114.272 175.904H119.254V194.963L129.051 189.354L132.523 191.73L121.276 198.443L132.588 205.407L129.658 208.711L117.337 200.794L103.993 208.758L103.514 203.973L114.272 197.815V175.904Z" fill="#E2CDC8"/>
<path d="M98.4385 185.381L101.137 183.597V203.415L98.4385 205.064V185.381Z" fill="#8D89C8"/>
<path d="M96.1538 186.59L98.4384 185.165V204.983L96.1538 203.503V186.59Z" fill="#D9D9D9"/>
<path d="M82.5205 194.709L85.011 192.924V212.742L82.5205 214.392V194.709Z" fill="#8D89C8"/>
<path d="M79.1958 193.201L82.5204 194.492V214.311L79.1958 212.208V193.201Z" fill="#D9D9D9"/>
<path d="M66.394 185.381L68.8845 183.597V203.415L66.394 205.064V185.381Z" fill="#8D89C8"/>
<path d="M63.0693 183.874L66.394 185.165V204.983L63.0693 202.88V183.874Z" fill="#D9D9D9"/>
<path d="M63.0693 180.034L80.9898 169.905L101.137 181.345L82.7727 192.166L63.0693 180.034Z" fill="#FFC480"/>
<path d="M57.9863 152.805L77.7429 164.625L82.5662 192.164L62.9225 180.505L57.9863 152.805Z" fill="#DDA566"/>
<path d="M77.7324 164.616L80.5056 162.725L85.5177 190.481L82.5663 192.246L77.7324 164.616Z" fill="#DF9B4E"/>
<path d="M62.9224 180.308L82.6191 192.146L82.6192 196.019L62.9224 184.497L62.9224 180.308Z" fill="#DF9B4E"/>
<path d="M82.5811 192.146L101.137 181.34L100.946 185.433L82.5811 196.021V192.146Z" fill="#E19E52"/>
<path d="M57.9854 152.806L60.9257 151.382L80.5113 162.729L77.7411 164.624L57.9854 152.806Z" fill="#FFC480"/>
<path d="M181.823 234.924L184.522 233.14V252.958L181.823 254.607V234.924Z" fill="#8D89C8"/>
<path d="M179.539 236.133L181.823 234.708V254.526L179.539 253.046V236.133Z" fill="#D9D9D9"/>
<path d="M164.292 242.724L166.783 240.939V260.758L164.292 262.407V242.724Z" fill="#8D89C8"/>
<path d="M160.968 241.217L164.292 242.508V262.326L160.968 260.223V241.217Z" fill="#D9D9D9"/>
<path d="M148.738 234.266L151.229 232.482V252.3L148.738 253.949V234.266Z" fill="#8D89C8"/>
<path d="M145.414 232.759L148.738 234.05V253.868L145.414 251.765V232.759Z" fill="#D9D9D9"/>
<path d="M169.616 192.67L185.692 202.492L181.48 228.444L164.588 218.719L169.616 192.67Z" fill="#DD7066"/>
<path d="M164.598 218.654L184.599 229.438L164.306 241.388L144.377 229.511L164.598 218.654Z" fill="#FF8B80"/>
<path d="M184.694 229.363L184.526 233.257L164.293 245.278V241.388L184.694 229.363Z" fill="#DF594E"/>
<path d="M164.293 241.339V245.278L144.318 233.353L144.381 229.507L164.293 241.339Z" fill="#DD7066"/>
<path d="M172.354 191.452L189.196 201.794L185.691 202.513L169.502 192.715L172.354 191.452Z" fill="#FF8B80"/>
<path d="M189.202 201.788L184.699 229.513L180.821 232.26L185.692 202.525L189.202 201.788Z" fill="#DF594E"/>
<path d="M86.1177 234.924L83.4187 233.14V252.958L86.1177 254.607V234.924Z" fill="#8D89C8"/>
<path d="M88.4023 236.133L86.1178 234.708V254.526L88.4023 253.046V236.133Z" fill="#D9D9D9"/>
<path d="M103.648 242.724L101.158 240.939V260.758L103.648 262.407V242.724Z" fill="#8D89C8"/>
<path d="M106.973 241.217L103.649 242.508V262.326L106.973 260.223V241.217Z" fill="#D9D9D9"/>
<path d="M119.203 234.266L116.712 232.482V252.3L119.203 253.949V234.266Z" fill="#8D89C8"/>
<path d="M122.527 232.759L119.203 234.05V253.868L122.527 251.765V232.759Z" fill="#D9D9D9"/>
<path d="M98.3246 192.67L82.2485 202.492L86.4612 228.444L103.353 218.719L98.3246 192.67Z" fill="#DD7066"/>
<path d="M103.343 218.654L83.3414 229.438L103.635 241.388L123.563 229.511L103.343 218.654Z" fill="#FF8B80"/>
<path d="M83.2467 229.363L83.4153 233.257L103.648 245.278V241.388L83.2467 229.363Z" fill="#DF594E"/>
<path d="M103.648 241.339V245.278L123.623 233.353L123.56 229.507L103.648 241.339Z" fill="#DD7066"/>
<path d="M95.5871 191.452L78.7447 201.794L82.2496 202.513L98.439 192.715L95.5871 191.452Z" fill="#FF8B80"/>
<path d="M78.7387 201.788L83.2415 229.513L87.1202 232.26L82.2493 202.525L78.7387 201.788Z" fill="#DF594E"/>
<path d="M136.21 263.427L133.208 266.689L119.334 257.853L122.269 254.89L136.21 263.427Z" fill="#D2B2AB"/>
<rect x="131.37" y="241.989" width="4.98269" height="23.0048" fill="#D9D9D9"/>
<path d="M146.15 255.439L149.622 257.815L121.092 274.843L120.612 270.058L146.15 255.439Z" fill="#D9D9D9"/>
<path d="M149.687 271.492L146.613 274.713L131.526 265.177L134.54 262.259L149.687 271.492Z" fill="#D9D9D9"/>
<path d="M102.027 222.882L167.256 223.126C167.256 223.126 167.561 230.054 166.66 231.567C165.759 233.081 157.585 243.073 134.686 242.934C111.788 242.796 103.355 232.795 102.589 231.423C101.824 230.051 102.027 222.882 102.027 222.882Z" fill="#CFA59B"/>
<path d="M166.756 222.403C166.756 226.723 163.188 230.774 157.1 233.774C151.044 236.758 142.643 238.619 133.336 238.619C124.027 238.619 116.294 236.792 110.906 233.851C105.512 230.907 102.547 226.9 102.547 222.538C102.547 218.174 105.515 214.099 110.91 211.087C116.298 208.08 124.03 206.187 133.336 206.187C142.643 206.187 151.044 208.047 157.1 211.031C163.188 214.032 166.756 218.082 166.756 222.403Z" fill="#F9ECE9" stroke="#CFA59B"/>
<path d="M238.939 154.295L238.302 209.46L214.605 196.338L214.605 141.937L238.939 154.295Z" fill="#A43F40"/>
<path d="M215.439 126.582V195.805L203.296 202.513V133.904L215.439 126.582Z" fill="#D38C8F"/>
<path d="M215.428 190.542L248.499 209.952L237.671 216.649L203.41 196.993L215.428 190.542Z" fill="#E8B5AE"/>
<path d="M215.437 169.542L249.905 188.419L237.457 195.887L203.389 176.192L215.437 169.542Z" fill="#E8B5AE"/>
<path d="M212.499 161.733L215.414 163.702L210.376 166.726L207.168 164.569L212.499 161.733Z" fill="#FFF6F0"/>
<path d="M207.168 164.547L210.376 166.675V176.56L207.168 174.433V164.547Z" fill="#E47F44"/>
<path d="M210.169 166.796L218.076 162.097V170.141L210.169 174.84V166.796Z" fill="#E47F44"/>
<path d="M218.379 163.632L221.294 165.602L213.276 170.351L210.38 168.416L218.379 163.632Z" fill="#FFF6F0"/>
<path d="M210.375 168.414L213.583 170.145V178.189L210.375 176.458V168.414Z" fill="#B75131"/>
<path d="M213.583 170.145L221.489 165.446V173.491L213.583 178.19V170.145Z" fill="#B75131"/>
<path d="M215.432 148.408L249.743 166.657L237.457 174.84L203.389 155.145L215.432 148.408Z" fill="#E8B5AE"/>
<path d="M203.395 133.638L203.395 203.004L201.371 201.349L201.604 133.223L203.395 133.638Z" fill="#BA4C4D"/>
<path d="M219.743 148.225L228.355 153.032L219.743 158.039L211.371 153.032L219.743 148.225Z" fill="#E42255"/>
<path d="M211.383 153.032L219.741 158.025V160.879L211.383 155.864L211.383 153.032Z" fill="#FFF6F0"/>
<path d="M228.355 153.032L219.741 158.025V160.879L228.355 155.865L228.355 153.032Z" fill="#FFF6F0"/>
<path d="M229.474 154.841L233.452 156.77V168.009L229.474 165.935V154.841Z" fill="#2BA677"/>
<path d="M233.458 152.461L229.478 154.84L233.458 156.788L236.798 154.231L233.458 152.461Z" fill="#FFF6F0"/>
<path d="M233.452 154.636L237.529 156.736V170.798L233.452 168.203V154.636Z" fill="#77B731"/>
<path d="M237.155 151.924L233.271 154.636L237.516 156.73L240.667 154.321L237.155 151.924Z" fill="#FFF6F0"/>
<path d="M239.334 154.069L239.334 223.06L237.311 221.405L237.595 153.158L239.334 154.069Z" fill="#BA4C4D"/>
<path d="M201.596 132.551L239.182 154.044V156.049L201.596 134.708V132.551Z" fill="#BA4D4E"/>
<path d="M201.595 154.118L239.182 175.611V177.616L201.595 156.275V154.118Z" fill="#BA4D4E"/>
<path d="M214.184 124.781L252.264 145.61L239.197 154.321L201.599 132.555L214.184 124.781Z" fill="#E8B5AE"/>
<path d="M201.595 175.165L239.182 196.658V198.663L201.595 177.322V175.165Z" fill="#BA4D4E"/>
<path d="M201.595 195.981L239.182 217.474V219.479L201.595 198.138V195.981Z" fill="#BA4D4E"/>
<path d="M252.132 145.742V216.225L239.329 222.692V154.057L252.132 145.742Z" fill="#D38C8F"/>
<mask id="mask0_117_20513" style="mask-type:alpha" maskUnits="userSpaceOnUse" x="152" y="47" width="44" height="91">
<path d="M152.083 47.6045L195.716 72.5308V137.399L152.083 111.743L152.083 47.6045Z" fill="#FFF6F0"/>
</mask>
<g mask="url(#mask0_117_20513)">
<rect x="148.545" y="44.8789" width="48.8859" height="91.7947" fill="#FFF6F0"/>
<ellipse cx="183.408" cy="137.908" rx="34.7195" ry="43.0811" transform="rotate(-5.90207 183.408 137.908)" fill="#87D366"/>
<ellipse cx="164.069" cy="74.4204" rx="9.83078" ry="14.2302" transform="rotate(-5.90207 164.069 74.4204)" fill="#FFE87E"/>
</g>
<path d="M218.076 84.5287L247.978 101.585L247.978 132.551L218.076 115.241L218.076 84.5287Z" fill="#BA4C4D"/>
<path d="M247.967 101.613L250.324 100.956V131.464L247.967 132.551L247.967 101.613Z" fill="#962C2E"/>
<mask id="mask1_117_20513" style="mask-type:alpha" maskUnits="userSpaceOnUse" x="220" y="88" width="26" height="40">
<path d="M220.642 88.6506L245.411 102.779L245.411 127.763L220.642 113.424V88.6506Z" fill="#7070ED"/>
</mask>
<g mask="url(#mask1_117_20513)">
<rect x="201.101" y="68.9911" width="64.4814" height="79.055" fill="#7070ED"/>
<rect x="164.814" y="65.8145" width="64.4814" height="79.055" transform="rotate(-45 164.814 65.8145)" fill="#4747BC"/>
</g>
<path d="M220.88 83.6548L250.319 100.958L248.006 101.64L218.16 84.5537L220.88 83.6548Z" fill="#AD2324"/>
<path fill-rule="evenodd" clip-rule="evenodd" d="M133.503 148.769C133.249 148.812 133.028 148.961 132.89 149.18C132.194 150.284 130.171 153.748 131.894 154.162C132.863 154.395 134.438 154.545 135.586 153.644C136.734 152.744 136.801 150.38 135.788 148.843C135.544 148.472 134.187 148.651 133.503 148.769ZM132.954 150.178C132.402 150.178 131.954 150.626 131.954 151.178V151.984C131.954 152.556 132.434 153.012 133.006 152.982L134.122 152.925C134.634 152.898 135.043 152.489 135.069 151.977L135.108 151.229C135.137 150.657 134.682 150.178 134.109 150.178H132.954Z" fill="#D09A8A"/>
<path d="M123.564 149.205L133.949 148.992C133.949 148.992 133.445 155.931 131.919 156.988C130.394 158.046 127.629 157.97 125.872 156.988C124.115 156.007 123.564 149.205 123.564 149.205Z" fill="#FFD3C6"/>
<mask id="mask2_117_20513" style="mask-type:alpha" maskUnits="userSpaceOnUse" x="123" y="146" width="11" height="7">
<ellipse cx="128.735" cy="149.174" rx="5.16669" ry="3.14324" fill="#FF0000"/>
</mask>
<g mask="url(#mask2_117_20513)">
<ellipse cx="128.796" cy="149.156" rx="5.41033" ry="3.37268" fill="#D09A8A"/>
<path d="M133.907 149.642C133.907 150.494 133.402 151.321 132.47 151.958C131.541 152.592 130.23 153.001 128.757 153.001C127.284 153.001 125.973 152.592 125.044 151.958C124.112 151.321 123.607 150.494 123.607 149.642C123.607 148.79 124.112 147.962 125.044 147.326C125.973 146.691 127.284 146.283 128.757 146.283C130.23 146.283 131.541 146.691 132.47 147.326C133.402 147.962 133.907 148.79 133.907 149.642Z" stroke="#FFD3C6"/>
<ellipse cx="128.773" cy="151.072" rx="4.12215" ry="3.37268" fill="#7C0110"/>
</g>
<path fill-rule="evenodd" clip-rule="evenodd" d="M153.367 213.898C153.113 213.941 152.892 214.09 152.754 214.309C152.058 215.413 150.035 218.877 151.759 219.291C152.727 219.524 154.302 219.674 155.45 218.773C156.598 217.873 156.666 215.509 155.653 213.972C155.408 213.601 154.052 213.78 153.367 213.898ZM152.819 215.307C152.266 215.307 151.819 215.755 151.819 216.307V217.113C151.819 217.685 152.298 218.141 152.87 218.111L153.987 218.054C154.498 218.027 154.907 217.618 154.934 217.106L154.972 216.358C155.002 215.786 154.546 215.307 153.974 215.307H152.819Z" fill="#D09A8A"/>
<path d="M143.429 214.334L153.813 214.121C153.813 214.121 153.309 221.06 151.784 222.117C150.258 223.175 147.494 223.099 145.737 222.117C143.98 221.136 143.429 214.334 143.429 214.334Z" fill="#FFD3C6"/>
<mask id="mask3_117_20513" style="mask-type:alpha" maskUnits="userSpaceOnUse" x="143" y="211" width="11" height="7">
<ellipse cx="148.599" cy="214.303" rx="5.16669" ry="3.14324" fill="#FF0000"/>
</mask>
<g mask="url(#mask3_117_20513)">
<ellipse cx="148.66" cy="214.284" rx="5.41033" ry="3.37268" fill="#D09A8A"/>
<path d="M153.771 214.771C153.771 215.623 153.266 216.45 152.334 217.087C151.405 217.721 150.094 218.13 148.621 218.13C147.148 218.13 145.837 217.721 144.908 217.087C143.976 216.45 143.471 215.623 143.471 214.771C143.471 213.919 143.976 213.091 144.908 212.455C145.837 211.82 147.148 211.412 148.621 211.412C150.094 211.412 151.405 211.82 152.334 212.455C153.266 213.091 153.771 213.919 153.771 214.771Z" stroke="#FFD3C6"/>
<ellipse cx="148.637" cy="216.201" rx="4.12215" ry="3.37268" fill="#7C0110"/>
</g>
<path d="M138.65 217.796L125.809 208.863L106.454 220.867L118.83 228.869L138.65 217.796Z" fill="#C2D0E6"/>
<path d="M123.203 211.748L143.024 201.14L138.743 217.889L118.83 228.869L123.203 211.748Z" fill="#F0F6FF"/>
<path d="M118.83 230.544L138.743 219.471V217.889L118.83 228.869V230.544Z" fill="#F0F6FF"/>
<path d="M118.83 230.544L106.454 222.356V220.867L118.83 228.869V230.544Z" fill="#89A1C8"/>
<path d="M111.258 158.59L117.619 162.7L106.365 169.452L99.5156 165.342L111.258 158.59Z" fill="#F0F6FF"/>
<path d="M117.618 164.657V162.7L106.365 169.452L106.365 170.822L117.618 164.657Z" fill="#C2D0E6"/>
<path d="M99.6138 166.908L99.6138 165.146L106.366 169.452L106.366 170.822L99.6138 166.908Z" fill="#89A1C8"/>
<path d="M110.861 159.754L111.508 160.4L110.861 160.997L113.795 162.837L114.839 162.24L115.685 162.837L105.989 168.406L100.966 165.373L110.861 159.754Z" fill="#0E326A"/>
<defs>
<linearGradient id="paint0_linear_117_20513" x1="41.3957" y1="86.2088" x2="56.2943" y2="156.362" gradientUnits="userSpaceOnUse">
<stop stop-color="#B4FFF9"/>
<stop offset="1" stop-color="white"/>
</linearGradient>
<linearGradient id="paint1_linear_117_20513" x1="87.2785" y1="60.6539" x2="102.177" y2="130.807" gradientUnits="userSpaceOnUse">
<stop stop-color="#B4FFF9"/>
<stop offset="1" stop-color="white"/>
</linearGradient>
</defs>
</svg>
