<svg width="221" height="281" viewBox="0 0 221 281" fill="none" xmlns="http://www.w3.org/2000/svg">
<g filter="url(#filter0_d_348_4258)">
<rect x="0.763794" y="85.0775" width="126" height="126" rx="4" transform="rotate(-42 0.763794 85.0775)" fill="#ADB4F9"/>
<rect x="-0.648481" y="85.0035" width="128" height="128" rx="5" transform="rotate(-42 -0.648481 85.0035)" stroke="#19123C" stroke-width="2"/>
</g>
<g filter="url(#filter1_d_348_4258)">
<rect x="89.2893" y="183.395" width="126" height="126" rx="4" transform="rotate(-42 89.2893 183.395)" fill="#FFA3AF"/>
<rect x="87.877" y="183.321" width="128" height="128" rx="5" transform="rotate(-42 87.877 183.321)" stroke="#19123C" stroke-width="2"/>
</g>
<path d="M47.2166 78.8558C51.8729 84.0272 51.5179 91.9379 46.4236 96.5248C41.3293 101.112 33.4249 100.638 28.7686 95.4665C24.1122 90.2951 24.4673 82.3845 29.5615 77.7976C34.6558 73.2107 42.5603 73.6845 47.2166 78.8558Z" fill="#19123C"/>
<path d="M98.5419 81.8117C103.198 86.9831 102.843 94.8938 97.749 99.4807C92.6547 104.068 84.7502 103.594 80.0939 98.4224C75.4376 93.251 75.7926 85.3404 80.8869 80.7535C85.9812 76.1665 93.8856 76.6404 98.5419 81.8117Z" fill="#19123C"/>
<path d="M149.867 84.7676C154.524 89.939 154.169 97.8497 149.074 102.437C143.98 107.024 136.076 106.55 131.419 101.378C126.763 96.2069 127.118 88.2963 132.212 83.7093C137.306 79.1224 145.211 79.5962 149.867 84.7676Z" fill="#19123C"/>
<path d="M135.743 177.174C140.399 182.345 140.044 190.256 134.95 194.843C129.855 199.43 121.951 198.956 117.295 193.785C112.638 188.613 112.993 180.703 118.088 176.116C123.182 171.529 131.086 172.003 135.743 177.174Z" fill="#19123C"/>
<path d="M189.493 128.777C194.15 133.948 193.794 141.859 188.7 146.446C183.606 151.033 175.701 150.559 171.045 145.387C166.389 140.216 166.744 132.305 171.838 127.718C176.932 123.131 184.837 123.605 189.493 128.777Z" fill="#19123C"/>
<path d="M184.643 231.483C189.299 236.654 188.944 244.565 183.85 249.152C178.755 253.739 170.851 253.265 166.195 248.094C161.538 242.922 161.893 235.012 166.988 230.425C172.082 225.838 179.986 226.312 184.643 231.483Z" fill="#19123C"/>
<path d="M238.393 183.086C243.05 188.257 242.695 196.168 237.6 200.755C232.506 205.342 224.602 204.868 219.945 199.696C215.289 194.525 215.644 186.614 220.738 182.027C225.832 177.44 233.737 177.914 238.393 183.086Z" fill="#19123C"/>
<defs>
<filter id="filter0_d_348_4258" x="0.412842" y="0.416138" width="181.649" height="181.649" filterUnits="userSpaceOnUse" color-interpolation-filters="sRGB">
<feFlood flood-opacity="0" result="BackgroundImageFix"/>
<feColorMatrix in="SourceAlpha" type="matrix" values="0 0 0 0 0 0 0 0 0 0 0 0 0 0 0 0 0 0 127 0" result="hardAlpha"/>
<feMorphology radius="1" operator="dilate" in="SourceAlpha" result="effect1_dropShadow_348_4258"/>
<feOffset dx="2" dy="2"/>
<feComposite in2="hardAlpha" operator="out"/>
<feColorMatrix type="matrix" values="0 0 0 0 0 0 0 0 0 0 0 0 0 0 0 0 0 0 1 0"/>
<feBlend mode="normal" in2="BackgroundImageFix" result="effect1_dropShadow_348_4258"/>
<feBlend mode="normal" in="SourceGraphic" in2="effect1_dropShadow_348_4258" result="shape"/>
</filter>
<filter id="filter1_d_348_4258" x="88.9385" y="98.7336" width="181.648" height="181.649" filterUnits="userSpaceOnUse" color-interpolation-filters="sRGB">
<feFlood flood-opacity="0" result="BackgroundImageFix"/>
<feColorMatrix in="SourceAlpha" type="matrix" values="0 0 0 0 0 0 0 0 0 0 0 0 0 0 0 0 0 0 127 0" result="hardAlpha"/>
<feMorphology radius="1" operator="dilate" in="SourceAlpha" result="effect1_dropShadow_348_4258"/>
<feOffset dx="2" dy="2"/>
<feComposite in2="hardAlpha" operator="out"/>
<feColorMatrix type="matrix" values="0 0 0 0 0 0 0 0 0 0 0 0 0 0 0 0 0 0 1 0"/>
<feBlend mode="normal" in2="BackgroundImageFix" result="effect1_dropShadow_348_4258"/>
<feBlend mode="normal" in="SourceGraphic" in2="effect1_dropShadow_348_4258" result="shape"/>
</filter>
</defs>
</svg>
