<svg width="68" height="132" viewBox="0 0 68 132" fill="none" xmlns="http://www.w3.org/2000/svg">
<g filter="url(#filter0_d_311_6197)">
<rect x="2.00024" y="2" width="60.9756" height="60.9756" rx="4" fill="#A8EFE4"/>
<rect x="1.00024" y="1" width="62.9756" height="62.9756" rx="5" stroke="#19123C" stroke-width="2"/>
</g>
<g filter="url(#filter1_d_311_6197)">
<rect x="2.00024" y="66.0242" width="60.9756" height="60.9756" rx="4" fill="#FFA3AF"/>
<rect x="1.00024" y="65.0242" width="62.9756" height="62.9756" rx="5" stroke="#19123C" stroke-width="2"/>
</g>
<path d="M20.7208 14.8046C20.7208 18.1722 18.0315 20.9022 14.7142 20.9022C11.3968 20.9022 8.70752 18.1722 8.70752 14.8046C8.70752 11.437 11.3968 8.70703 14.7142 8.70703C18.0315 8.70703 20.7208 11.437 20.7208 14.8046Z" fill="#19123C"/>
<path d="M38.2219 32.4875C38.2219 35.8551 35.5326 38.5851 32.2153 38.5851C28.8979 38.5851 26.2086 35.8551 26.2086 32.4875C26.2086 29.1199 28.8979 26.39 32.2153 26.39C35.5326 26.39 38.2219 29.1199 38.2219 32.4875Z" fill="#19123C"/>
<path d="M55.723 50.1705C55.723 53.538 53.0337 56.268 49.7164 56.268C46.399 56.268 43.7097 53.538 43.7097 50.1705C43.7097 46.8029 46.399 44.0729 49.7164 44.0729C53.0337 44.0729 55.723 46.8029 55.723 50.1705Z" fill="#19123C"/>
<path d="M20.7208 78.829C20.7208 82.1966 18.0315 84.9265 14.7142 84.9265C11.3968 84.9265 8.70751 82.1966 8.70751 78.829C8.70751 75.4614 11.3968 72.7314 14.7142 72.7314C18.0315 72.7314 20.7208 75.4614 20.7208 78.829Z" fill="#19123C"/>
<path d="M55.723 78.829C55.723 82.1966 53.0337 84.9266 49.7164 84.9266C46.399 84.9266 43.7097 82.1966 43.7097 78.829C43.7097 75.4614 46.399 72.7314 49.7164 72.7314C53.0337 72.7314 55.723 75.4614 55.723 78.829Z" fill="#19123C"/>
<path d="M20.7208 114.195C20.7208 117.562 18.0315 120.292 14.7141 120.292C11.3968 120.292 8.7075 117.562 8.7075 114.195C8.7075 110.827 11.3968 108.097 14.7141 108.097C18.0315 108.097 20.7208 110.827 20.7208 114.195Z" fill="#19123C"/>
<path d="M55.723 114.195C55.723 117.562 53.0337 120.292 49.7164 120.292C46.399 120.292 43.7097 117.562 43.7097 114.195C43.7097 110.827 46.399 108.097 49.7164 108.097C53.0337 108.097 55.723 110.827 55.723 114.195Z" fill="#19123C"/>
<defs>
<filter id="filter0_d_311_6197" x="0.000244141" y="0" width="67.9756" height="67.9756" filterUnits="userSpaceOnUse" color-interpolation-filters="sRGB">
<feFlood flood-opacity="0" result="BackgroundImageFix"/>
<feColorMatrix in="SourceAlpha" type="matrix" values="0 0 0 0 0 0 0 0 0 0 0 0 0 0 0 0 0 0 127 0" result="hardAlpha"/>
<feMorphology radius="1" operator="dilate" in="SourceAlpha" result="effect1_dropShadow_311_6197"/>
<feOffset dx="2" dy="2"/>
<feComposite in2="hardAlpha" operator="out"/>
<feColorMatrix type="matrix" values="0 0 0 0 0 0 0 0 0 0 0 0 0 0 0 0 0 0 1 0"/>
<feBlend mode="normal" in2="BackgroundImageFix" result="effect1_dropShadow_311_6197"/>
<feBlend mode="normal" in="SourceGraphic" in2="effect1_dropShadow_311_6197" result="shape"/>
</filter>
<filter id="filter1_d_311_6197" x="0.000244141" y="64.0242" width="67.9756" height="67.9756" filterUnits="userSpaceOnUse" color-interpolation-filters="sRGB">
<feFlood flood-opacity="0" result="BackgroundImageFix"/>
<feColorMatrix in="SourceAlpha" type="matrix" values="0 0 0 0 0 0 0 0 0 0 0 0 0 0 0 0 0 0 127 0" result="hardAlpha"/>
<feMorphology radius="1" operator="dilate" in="SourceAlpha" result="effect1_dropShadow_311_6197"/>
<feOffset dx="2" dy="2"/>
<feComposite in2="hardAlpha" operator="out"/>
<feColorMatrix type="matrix" values="0 0 0 0 0 0 0 0 0 0 0 0 0 0 0 0 0 0 1 0"/>
<feBlend mode="normal" in2="BackgroundImageFix" result="effect1_dropShadow_311_6197"/>
<feBlend mode="normal" in="SourceGraphic" in2="effect1_dropShadow_311_6197" result="shape"/>
</filter>
</defs>
</svg>
