<svg width="169" height="210" viewBox="0 0 169 210" fill="none" xmlns="http://www.w3.org/2000/svg">
<path d="M15.5727 121.667C7.69165 123.702 3.74265 126.799 2.35374 134.959C0.952219 143.193 3.68342 154.166 11.1171 158.812C12.4308 159.633 17.0233 159.991 15.425 162.283C12.934 165.855 6.31717 167.657 2.72299 165.09" stroke="black" stroke-width="3" stroke-linecap="round"/>
<path d="M151.159 119C155.579 119.175 160.986 119.286 164.378 122.619C167.157 125.349 166.982 130.443 166.323 133.917C165.155 140.071 161.654 150.14 154.458 151.247C154.075 151.306 150.447 151.268 150.47 151.543C150.861 156.234 156.205 158.163 160.021 158.435" stroke="black" stroke-width="3" stroke-linecap="round"/>
<path d="M75.3902 186.931C74.2521 191.419 73.2603 195.905 72.4855 200.47C72.2735 201.719 72.3012 205.127 70.91 205.984C67.653 207.992 61.6935 206.784 58.1588 206.624C56.2176 206.537 54.2913 206.427 52.3494 206.427" stroke="black" stroke-width="3" stroke-linecap="round"/>
<path d="M94.8863 187.818C94.8863 192.361 94.5123 197.109 95.1325 201.627C95.3968 203.553 95.728 205.576 97.6434 206.526C103.492 209.427 111.205 208.578 117.041 206.428" stroke="black" stroke-width="3" stroke-linecap="round"/>
<rect x="16.5674" width="134.266" height="187.449" rx="43.5929" fill="#FC6D83"/>
<circle cx="67.0674" cy="105.5" r="6.5" fill="black"/>
<circle cx="108.067" cy="100.5" r="6.5" fill="black"/>
<path d="M121.067 131C121.067 135.529 118.067 139.869 112.704 143.156C107.366 146.428 99.897 148.5 91.5674 148.5C83.2378 148.5 75.7687 146.428 70.4309 143.156C65.0681 139.869 62.0674 135.529 62.0674 131C62.0674 126.471 65.0681 122.131 70.4309 118.844C75.7687 115.572 83.2378 113.5 91.5674 113.5C99.897 113.5 107.366 115.572 112.704 118.844C118.067 122.131 121.067 126.471 121.067 131Z" stroke="black" stroke-width="3"/>
</svg>
