
<svg width="249" height="46" viewBox="0 0 249 46" fill="none" xmlns="http://www.w3.org/2000/svg">
    <g filter="url(#filter0_d_562_5528)">
    <rect x="166.021" y="3.74756" width="37.5047" height="37.5047" rx="1.50019" fill="#F6CDA5"/>
    <rect x="165.645" y="3.37251" width="38.2548" height="38.2548" rx="1.87524" stroke="#19123C" stroke-width="0.750094"/>
    </g>
    <path d="M182.054 36.0015V15.659H174.709V10.7983H195.016V15.659H187.455V36.0015H182.054Z" fill="#19123C"/>
    <path d="M200.168 35.6415V35.2057H201.155V39.0019H200.672V35.6415H200.168Z" fill="#19123C"/>
    <g filter="url(#filter1_d_562_5528)">
    <rect x="126.15" y="2.4585" width="37.5047" height="37.5047" rx="1.50019" transform="rotate(4.08998 126.15 2.4585)" fill="#F6CDA5"/>
    <rect x="125.803" y="2.05765" width="38.2548" height="38.2548" rx="1.87524" transform="rotate(4.08998 125.803 2.05765)" stroke="#19123C" stroke-width="0.750094"/>
    </g>
    <path d="M130.123 35.0789L141.761 10.6436L146.573 10.9877L154.579 36.8277L149.049 36.4322L144.953 22.531C144.837 22.1377 144.693 21.634 144.52 21.0201C144.371 20.4078 144.213 19.7588 144.045 19.073C143.878 18.3873 143.72 17.7382 143.571 17.126C143.424 16.4898 143.317 15.9648 143.251 15.5509L144.223 15.5844C144.04 16.1247 143.831 16.6874 143.597 17.2722C143.388 17.8348 143.166 18.4205 142.93 19.0293C142.695 19.6142 142.45 20.1862 142.193 20.7454C141.937 21.3046 141.693 21.8527 141.462 22.3897L135.438 35.459L130.123 35.0789ZM135.061 30.1259L137.132 25.9062L148.66 26.7306L150.145 31.2044L135.061 30.1259Z" fill="#19123C"/>
    <path d="M157.936 36.7067L157.967 36.272L158.952 36.3425L158.681 40.129L158.199 40.0946L158.439 36.7427L157.936 36.7067Z" fill="#19123C"/>
    <g filter="url(#filter2_d_562_5528)">
    <rect x="86.3232" y="1.30518" width="37.5047" height="37.5047" rx="1.50019" transform="rotate(8.0548 86.3232 1.30518)" fill="#F6CDA5"/>
    <rect x="86.0044" y="0.881277" width="38.2548" height="38.2548" rx="1.87524" transform="rotate(8.0548 86.0044 0.881277)" stroke="#19123C" stroke-width="0.750094"/>
    </g>
    <path d="M92.4749 34.7512L96.0063 9.79663L112.868 12.1829L112.203 16.8886L100.545 15.2389L98.3456 30.782L110.252 32.467L109.587 37.1727L92.4749 34.7512ZM96.4485 24.6591L97.0943 20.0959L109.75 21.8869L109.104 26.45L96.4485 24.6591Z" fill="#19123C"/>
    <path d="M115.665 37.6692L115.726 37.2377L116.703 37.3761L116.171 41.1348L115.693 41.0671L116.164 37.7399L115.665 37.6692Z" fill="#19123C"/>
    <g filter="url(#filter3_d_562_5528)">
    <rect x="42.2549" y="3.74756" width="37.5047" height="37.5047" rx="1.50019" fill="#F6CDA5"/>
    <rect x="41.8798" y="3.37251" width="38.2548" height="38.2548" rx="1.87524" stroke="#19123C" stroke-width="0.750094"/>
    </g>
    <path d="M51.5322 36.0015V10.7983H62.6936C64.2538 10.7983 65.67 11.1584 66.9422 11.8785C68.2143 12.5746 69.2105 13.5227 69.9305 14.7228C70.6746 15.923 71.0467 17.2912 71.0467 18.8274C71.0467 20.3395 70.6746 21.7197 69.9305 22.9679C69.2105 24.192 68.2143 25.1641 66.9422 25.8842C65.67 26.6043 64.2538 26.9644 62.6936 26.9644H56.7529V36.0015H51.5322ZM65.826 36.0015L59.4172 24.6241L64.9619 23.724L72.0908 36.0375L65.826 36.0015ZM56.7529 22.5718H62.4416C63.0897 22.5718 63.6538 22.4278 64.1338 22.1398C64.6379 21.8277 65.0219 21.4077 65.286 20.8796C65.55 20.3275 65.682 19.7155 65.682 19.0434C65.682 18.3233 65.526 17.6992 65.2139 17.1711C64.9019 16.6431 64.4459 16.235 63.8458 15.947C63.2457 15.6349 62.5496 15.4789 61.7575 15.4789H56.7529V22.5718Z" fill="#19123C"/>
    <path d="M76.4022 35.6415V35.2057H77.3893V39.0019H76.9063V35.6415H76.4022Z" fill="#19123C"/>
    <g filter="url(#filter4_d_562_5528)">
    <rect x="1" y="3.7478" width="37.5047" height="37.5047" rx="1.50019" fill="#F6CDA5"/>
    <rect x="0.624953" y="3.37276" width="38.2548" height="38.2548" rx="1.87524" stroke="#19123C" stroke-width="0.750094"/>
    </g>
    <path d="M21.7057 36.3619C19.8575 36.3619 18.1532 36.0498 16.593 35.4257C15.0569 34.7777 13.7127 33.8775 12.5605 32.7254C11.4324 31.5492 10.5563 30.1691 9.93221 28.5849C9.30813 26.9767 8.99609 25.2245 8.99609 23.3282C8.99609 21.48 9.32013 19.7758 9.96822 18.2156C10.6163 16.6314 11.5284 15.2632 12.7046 14.1111C13.8807 12.9349 15.2609 12.0228 16.8451 11.3747C18.4293 10.7266 20.1455 10.4026 21.9937 10.4026C23.1939 10.4026 24.37 10.5706 25.5222 10.9067C26.6983 11.2187 27.7665 11.6867 28.7266 12.3108C29.7107 12.9349 30.5508 13.679 31.2469 14.5431L27.8625 18.2876C27.2864 17.7115 26.6863 17.2194 26.0622 16.8114C25.4622 16.3793 24.8141 16.0553 24.118 15.8393C23.4459 15.5992 22.7258 15.4792 21.9577 15.4792C20.9256 15.4792 19.9535 15.6712 19.0414 16.0553C18.1532 16.4393 17.3731 16.9794 16.7011 17.6755C16.029 18.3476 15.4889 19.1757 15.0809 20.1598C14.6968 21.1199 14.5048 22.1881 14.5048 23.3642C14.5048 24.5644 14.6968 25.6565 15.0809 26.6406C15.4649 27.6008 16.005 28.4289 16.7011 29.1249C17.3972 29.797 18.2253 30.3251 19.1854 30.7091C20.1695 31.0692 21.2496 31.2492 22.4258 31.2492C23.1939 31.2492 23.938 31.1412 24.6581 30.9252C25.3782 30.7091 26.0382 30.4091 26.6383 30.0251C27.2624 29.641 27.8145 29.197 28.2945 28.6929L30.9229 32.9054C30.3468 33.5535 29.5667 34.1416 28.5826 34.6696C27.6224 35.1977 26.5423 35.6178 25.3421 35.9298C24.142 36.2178 22.9298 36.3619 21.7057 36.3619Z" fill="#19123C"/>
    <path d="M33.8527 36.1616C33.8772 35.8395 34.0014 35.5875 34.2255 35.4055C34.4495 35.2235 34.74 35.1325 35.0971 35.1325C35.3351 35.1325 35.5399 35.1762 35.7114 35.2637C35.8864 35.3477 36.0177 35.4632 36.1052 35.6103C36.1962 35.7573 36.2417 35.9235 36.2417 36.1091C36.2417 36.3261 36.1787 36.5134 36.0527 36.6709C35.9302 36.8284 35.7692 36.9299 35.5696 36.9754V37.0017C35.7972 37.0577 35.9774 37.168 36.1105 37.3325C36.2435 37.497 36.31 37.7123 36.31 37.9783C36.31 38.1778 36.2645 38.3581 36.1735 38.5191C36.0824 38.6766 35.9459 38.8009 35.7639 38.8919C35.5819 38.9829 35.3631 39.0284 35.1076 39.0284C34.7365 39.0284 34.432 38.9322 34.194 38.7397C33.9559 38.5436 33.8229 38.2671 33.7949 37.91H34.257C34.2815 38.1201 34.3672 38.2916 34.5142 38.4246C34.6613 38.5576 34.8573 38.6241 35.1023 38.6241C35.3474 38.6241 35.5329 38.5611 35.6589 38.4351C35.7884 38.3056 35.8532 38.1393 35.8532 37.9363C35.8532 37.6738 35.7657 37.4847 35.5906 37.3692C35.4156 37.2537 35.1513 37.196 34.7978 37.196H34.677V36.7969H34.803C35.1251 36.7934 35.3684 36.7409 35.5329 36.6394C35.6974 36.5344 35.7797 36.3734 35.7797 36.1563C35.7797 35.9708 35.7184 35.822 35.5959 35.71C35.4769 35.598 35.3053 35.542 35.0813 35.542C34.8643 35.542 34.6893 35.598 34.5563 35.71C34.4232 35.822 34.3445 35.9726 34.32 36.1616H33.8527Z" fill="#19123C"/>
    <g filter="url(#filter5_d_562_5528)">
    <rect x="205.771" y="5.38379" width="37.5047" height="37.5047" rx="1.50019" transform="rotate(-4.80254 205.771 5.38379)" fill="#F6CDA5"/>
    <rect x="205.366" y="5.04146" width="38.2548" height="38.2548" rx="1.87524" transform="rotate(-4.80254 205.366 5.04146)" stroke="#19123C" stroke-width="0.750094"/>
    </g>
    <path d="M219.211 36.6223L217.101 11.5076L234.071 10.0818L234.469 14.8177L222.737 15.8034L224.051 31.4462L236.035 30.4394L236.433 35.1754L219.211 36.6223ZM220.839 25.899L220.454 21.3066L233.19 20.2365L233.576 24.8289L220.839 25.899Z" fill="#19123C"/>
    <path d="M242.469 34.3069L242.432 33.8726L243.416 33.79L243.734 37.5729L243.252 37.6133L242.971 34.2647L242.469 34.3069Z" fill="#19123C"/>
    <defs>
    <filter id="filter0_d_562_5528" x="165.271" y="2.99756" width="40.13" height="40.13" filterUnits="userSpaceOnUse" color-interpolation-filters="sRGB">
    <feFlood flood-opacity="0" result="BackgroundImageFix"/>
    <feColorMatrix in="SourceAlpha" type="matrix" values="0 0 0 0 0 0 0 0 0 0 0 0 0 0 0 0 0 0 127 0" result="hardAlpha"/>
    <feMorphology radius="0.375047" operator="dilate" in="SourceAlpha" result="effect1_dropShadow_562_5528"/>
    <feOffset dx="0.750094" dy="0.750094"/>
    <feComposite in2="hardAlpha" operator="out"/>
    <feColorMatrix type="matrix" values="0 0 0 0 0.0980392 0 0 0 0 0.0705882 0 0 0 0 0.235294 0 0 0 1 0"/>
    <feBlend mode="normal" in2="BackgroundImageFix" result="effect1_dropShadow_562_5528"/>
    <feBlend mode="normal" in="SourceGraphic" in2="effect1_dropShadow_562_5528" result="shape"/>
    </filter>
    <filter id="filter1_d_562_5528" x="122.829" y="1.81152" width="42.5031" height="42.5033" filterUnits="userSpaceOnUse" color-interpolation-filters="sRGB">
    <feFlood flood-opacity="0" result="BackgroundImageFix"/>
    <feColorMatrix in="SourceAlpha" type="matrix" values="0 0 0 0 0 0 0 0 0 0 0 0 0 0 0 0 0 0 127 0" result="hardAlpha"/>
    <feMorphology radius="0.375047" operator="dilate" in="SourceAlpha" result="effect1_dropShadow_562_5528"/>
    <feOffset dx="0.750094" dy="0.750094"/>
    <feComposite in2="hardAlpha" operator="out"/>
    <feColorMatrix type="matrix" values="0 0 0 0 0.0980392 0 0 0 0 0.0705882 0 0 0 0 0.235294 0 0 0 1 0"/>
    <feBlend mode="normal" in2="BackgroundImageFix" result="effect1_dropShadow_562_5528"/>
    <feBlend mode="normal" in="SourceGraphic" in2="effect1_dropShadow_562_5528" result="shape"/>
    </filter>
    <filter id="filter2_d_562_5528" x="80.5132" y="0.750244" width="44.6247" height="44.6249" filterUnits="userSpaceOnUse" color-interpolation-filters="sRGB">
    <feFlood flood-opacity="0" result="BackgroundImageFix"/>
    <feColorMatrix in="SourceAlpha" type="matrix" values="0 0 0 0 0 0 0 0 0 0 0 0 0 0 0 0 0 0 127 0" result="hardAlpha"/>
    <feMorphology radius="0.375047" operator="dilate" in="SourceAlpha" result="effect1_dropShadow_562_5528"/>
    <feOffset dx="0.750094" dy="0.750094"/>
    <feComposite in2="hardAlpha" operator="out"/>
    <feColorMatrix type="matrix" values="0 0 0 0 0.0980392 0 0 0 0 0.0705882 0 0 0 0 0.235294 0 0 0 1 0"/>
    <feBlend mode="normal" in2="BackgroundImageFix" result="effect1_dropShadow_562_5528"/>
    <feBlend mode="normal" in="SourceGraphic" in2="effect1_dropShadow_562_5528" result="shape"/>
    </filter>
    <filter id="filter3_d_562_5528" x="41.5049" y="2.99756" width="40.13" height="40.13" filterUnits="userSpaceOnUse" color-interpolation-filters="sRGB">
    <feFlood flood-opacity="0" result="BackgroundImageFix"/>
    <feColorMatrix in="SourceAlpha" type="matrix" values="0 0 0 0 0 0 0 0 0 0 0 0 0 0 0 0 0 0 127 0" result="hardAlpha"/>
    <feMorphology radius="0.375047" operator="dilate" in="SourceAlpha" result="effect1_dropShadow_562_5528"/>
    <feOffset dx="0.750094" dy="0.750094"/>
    <feComposite in2="hardAlpha" operator="out"/>
    <feColorMatrix type="matrix" values="0 0 0 0 0.0980392 0 0 0 0 0.0705882 0 0 0 0 0.235294 0 0 0 1 0"/>
    <feBlend mode="normal" in2="BackgroundImageFix" result="effect1_dropShadow_562_5528"/>
    <feBlend mode="normal" in="SourceGraphic" in2="effect1_dropShadow_562_5528" result="shape"/>
    </filter>
    <filter id="filter4_d_562_5528" x="0.25" y="2.9978" width="40.13" height="40.13" filterUnits="userSpaceOnUse" color-interpolation-filters="sRGB">
    <feFlood flood-opacity="0" result="BackgroundImageFix"/>
    <feColorMatrix in="SourceAlpha" type="matrix" values="0 0 0 0 0 0 0 0 0 0 0 0 0 0 0 0 0 0 127 0" result="hardAlpha"/>
    <feMorphology radius="0.375047" operator="dilate" in="SourceAlpha" result="effect1_dropShadow_562_5528"/>
    <feOffset dx="0.750094" dy="0.750094"/>
    <feComposite in2="hardAlpha" operator="out"/>
    <feColorMatrix type="matrix" values="0 0 0 0 0.0980392 0 0 0 0 0.0705882 0 0 0 0 0.235294 0 0 0 1 0"/>
    <feBlend mode="normal" in2="BackgroundImageFix" result="effect1_dropShadow_562_5528"/>
    <feBlend mode="normal" in="SourceGraphic" in2="effect1_dropShadow_562_5528" result="shape"/>
    </filter>
    <filter id="filter5_d_562_5528" x="205.142" y="1.61401" width="42.8981" height="42.8978" filterUnits="userSpaceOnUse" color-interpolation-filters="sRGB">
    <feFlood flood-opacity="0" result="BackgroundImageFix"/>
    <feColorMatrix in="SourceAlpha" type="matrix" values="0 0 0 0 0 0 0 0 0 0 0 0 0 0 0 0 0 0 127 0" result="hardAlpha"/>
    <feMorphology radius="0.375047" operator="dilate" in="SourceAlpha" result="effect1_dropShadow_562_5528"/>
    <feOffset dx="0.750094" dy="0.750094"/>
    <feComposite in2="hardAlpha" operator="out"/>
    <feColorMatrix type="matrix" values="0 0 0 0 0.0980392 0 0 0 0 0.0705882 0 0 0 0 0.235294 0 0 0 1 0"/>
    <feBlend mode="normal" in2="BackgroundImageFix" result="effect1_dropShadow_562_5528"/>
    <feBlend mode="normal" in="SourceGraphic" in2="effect1_dropShadow_562_5528" result="shape"/>
    </filter>
    </defs>
    </svg>
    