<svg width="37" height="22" viewBox="0 0 37 22" fill="none" xmlns="http://www.w3.org/2000/svg">
<path d="M9.0625 4.30556H13.5938V8.61111H9.0625V4.30556Z" fill="#86E9DA"/>
<path d="M9.0625 0H13.5938V4.30556H9.0625V0Z" fill="#86E9DA"/>
<path d="M13.5938 4.30556H18.125V8.61111H13.5938V4.30556Z" fill="#86E9DA"/>
<path d="M13.5938 0H18.125V4.30556H13.5938V0Z" fill="#86E9DA"/>
<path d="M13.5938 8.61111H18.125V12.9167H13.5938V8.61111Z" fill="#86E9DA"/>
<path d="M9.0625 8.61111H13.5938V12.9167H9.0625V8.61111Z" fill="#86E9DA"/>
<path d="M4.53125 4.30556H9.0625V8.61111H4.53125V4.30556Z" fill="#86E9DA"/>
<path d="M4.53125 0H9.0625V4.30556H4.53125V0Z" fill="#86E9DA"/>
<path d="M0 4.30556H4.53125V8.61111H0V4.30556Z" fill="#68B1A6"/>
<path d="M0 0H4.53125V4.30556H0V0Z" fill="#68B1A6"/>
<path d="M4.53125 8.61111H9.0625V12.9167H4.53125V8.61111Z" fill="#68B1A6"/>
<path d="M9.0625 12.9167H13.5938V17.2222H9.0625V12.9167Z" fill="#68B1A6"/>
<path d="M13.5938 17.2222H18.125V21.5278H13.5938V17.2222Z" fill="#68B1A6"/>
<path d="M18.125 4.30556H22.6562V8.61111H18.125V4.30556Z" fill="#86E9DA"/>
<path d="M18.125 0H22.6562V4.30556H18.125V0Z" fill="#86E9DA"/>
<path d="M18.125 8.61111H22.6562V12.9167H18.125V8.61111Z" fill="#86E9DA"/>
<path d="M22.6562 4.30556H27.1875V8.61111H22.6562V4.30556Z" fill="#86E9DA"/>
<path d="M22.6562 0H27.1875V4.30556H22.6562V0Z" fill="#86E9DA"/>
<path d="M27.1875 4.30556H31.7188V8.61111H27.1875V4.30556Z" fill="#86E9DA"/>
<path d="M27.1875 0H31.7188V4.30556H27.1875V0Z" fill="#86E9DA"/>
<path d="M31.7188 4.30556H36.25V8.61111H31.7188V4.30556Z" fill="#86E9DA"/>
<path d="M31.7188 0H36.25V4.30556H31.7188V0Z" fill="#86E9DA"/>
<path d="M27.1875 8.61111H31.7188V12.9167H27.1875V8.61111Z" fill="#86E9DA"/>
<path d="M22.6562 8.61111H27.1875V12.9167H22.6562V8.61111Z" fill="#86E9DA"/>
<path d="M18.125 12.9167H22.6562V17.2222H18.125V12.9167Z" fill="#86E9DA"/>
<path d="M22.6562 12.9167H27.1875V17.2222H22.6562V12.9167Z" fill="#86E9DA"/>
<path d="M18.125 17.2222H22.6562V21.5278H18.125V17.2222Z" fill="#86E9DA"/>
<path d="M13.5938 12.9167H18.125V17.2222H13.5938V12.9167Z" fill="#86E9DA"/>
</svg>
