<svg viewBox="0 0 271 304" fill="none" xmlns="http://www.w3.org/2000/svg">
<path fill-rule="evenodd" clip-rule="evenodd" d="M136.304 0.00205564L266.149 75.727L257.698 80.4687L136.302 10.5308L15.4292 80.4685L6.97021 75.7268L136.3 0.00242143V0L136.302 0.00120832L136.304 0.000357628V0.00205564Z" fill="#CCFCF4"/>
<path fill-rule="evenodd" clip-rule="evenodd" d="M6.98835 225.763L136.458 300.354L136.458 290.25L15.4381 220.84L15.4381 80.4666L6.98825 75.6795L6.98826 225.762L7.00489 225.753L6.98835 225.763Z" fill="#85E8D9"/>
<path fill-rule="evenodd" clip-rule="evenodd" d="M265.922 225.777L266.143 75.7172L257.7 80.4627L257.453 220.818L257.467 220.826L136.457 290.232L136.457 300.336L265.893 225.763L265.825 225.72L265.922 225.777Z" fill="#67B0A5"/>
<path d="M15.4004 80.4656L136.262 10.422L136.725 149.922L15.4004 220.887L15.4004 80.4656Z" fill="#E4FFFA"/>
<path d="M257.698 80.4597L136.288 10.4358L136.753 149.919L257.457 220.83L257.698 80.4597Z" fill="#C6EDE6"/>
<path d="M15.4678 220.866L136.755 149.886L257.484 220.83L136.448 290.262L15.4678 220.866Z" fill="#F9E8D3"/>
<path d="M214 90.0864L184.562 73.494V129.025L214 144.279L214 90.0864Z" fill="url(#paint0_linear_117_18453)"/>
<path d="M177.966 70.8587L177.966 132.466L185.235 128.607L185.31 75.0325L177.966 70.8587Z" fill="#98C5D3"/>
<path d="M212.625 142.592L186.787 127.7L177.952 132.435L212.625 152.453L212.625 142.592Z" fill="#AEDAE8"/>
<path fill-rule="evenodd" clip-rule="evenodd" d="M176.032 66.5692L214.631 88.8636L214.631 92.1287L214.631 92.1287L214.631 121.228L214.631 121.228L214.631 124.493L214.631 124.493L214.631 153.592L214.631 153.592L214.631 156.857L176.032 134.513L176.032 131.298L176.033 131.298L176.033 69.7854L176.032 69.7846L176.032 66.5692ZM177.985 70.9156L177.985 132.426L212.678 152.464L212.678 123.37L186.77 108.469L186.79 127.703L185.209 128.558V75.0969L177.985 70.9156ZM186.736 75.9812L186.767 105.251L212.678 120.108L212.678 90.9984L186.736 75.9812Z" fill="#5071A8"/>
<path d="M81.1724 194.935L78.449 193.134V213.131L81.1724 214.795V194.935Z" fill="#8D89C8"/>
<path d="M83.4775 196.154L81.1724 194.717V214.713L83.4775 213.219V196.154Z" fill="#D9D9D9"/>
<path d="M98.8613 202.805L96.3484 201.004V221.001L98.8613 222.665V202.805Z" fill="#8D89C8"/>
<path d="M102.216 201.284L98.8612 202.587V222.583L102.216 220.461V201.284Z" fill="#D9D9D9"/>
<path d="M114.556 194.271L112.043 192.47V212.467L114.556 214.131V194.271Z" fill="#8D89C8"/>
<path d="M117.91 192.75L114.556 194.053V214.049L117.91 211.927V192.75Z" fill="#D9D9D9"/>
<path d="M93.4897 152.3L77.2688 162.21L81.5195 188.396L98.5635 178.583L93.4897 152.3Z" fill="#DE6B7C"/>
<path d="M98.5536 178.518L78.3716 189.399L98.8477 201.457L118.956 189.473L98.5536 178.518Z" fill="#FF8B80"/>
<path d="M78.2762 189.323L78.4464 193.253L98.8613 205.382V201.457L78.2762 189.323Z" fill="#DF594E"/>
<path d="M98.8612 201.408V205.382L119.016 193.35L118.953 189.469L98.8612 201.408Z" fill="#DD7066"/>
<path d="M90.7274 151.071L73.7333 161.506L77.2698 162.232L93.605 152.346L90.7274 151.071Z" fill="#FF8B80"/>
<path d="M73.7278 161.5L78.2711 189.475L82.1848 192.246L77.27 162.243L73.7278 161.5Z" fill="#DF594E"/>
<path d="M119.183 173.274L116.459 171.473V191.47L119.183 193.134V173.274Z" fill="#8D89C8"/>
<path d="M121.488 174.493L119.183 173.056V193.052L121.488 191.558V174.493Z" fill="#D9D9D9"/>
<path d="M136.872 181.144L134.359 179.343V199.34L136.872 201.004V181.144Z" fill="#8D89C8"/>
<path d="M140.226 179.623L136.871 180.926V200.922L140.226 198.8V179.623Z" fill="#D9D9D9"/>
<path d="M152.566 172.61L150.053 170.809V190.806L152.566 192.47V172.61Z" fill="#8D89C8"/>
<path d="M155.92 171.089L152.566 172.392V192.388L155.92 190.266V171.089Z" fill="#D9D9D9"/>
<path d="M131.5 130.639L115.279 140.549L119.53 166.735L136.574 156.922L131.5 130.639Z" fill="#5D6A99"/>
<path d="M136.564 156.857L116.382 167.738L136.858 179.796L156.966 167.812L136.564 156.857Z" fill="#162042"/>
<path d="M116.286 167.662L116.457 171.592L136.872 183.721V179.796L116.286 167.662Z" fill="#050810"/>
<path d="M136.871 179.747V183.721L157.026 171.689L156.963 167.808L136.871 179.747Z" fill="#DD7066"/>
<path d="M128.738 129.41L111.744 139.845L115.28 140.571L131.615 130.685L128.738 129.41Z" fill="#2D4084"/>
<path d="M111.738 139.839L116.281 167.814L120.195 170.585L115.28 140.582L111.738 139.839Z" fill="#0B1021"/>
<path d="M216.14 174.646L219.023 172.399V204.401L216.14 206.43V174.646Z" fill="#8D89C8"/>
<path d="M212.785 172.213L216.14 174.297V206.299L212.785 204.015L212.785 172.213Z" fill="#D9D9D9"/>
<path d="M132.144 221.725L135.027 219.477V251.479L132.144 253.509V221.725Z" fill="#8D89C8"/>
<path d="M128.789 219.291L132.144 221.376V253.378L128.789 251.094L128.789 219.291Z" fill="#D9D9D9"/>
<path d="M90.7715 195.818L93.6546 193.57V225.572L90.7715 227.602V195.818Z" fill="#8D89C8"/>
<path d="M87.417 193.384L90.7716 195.469V227.471L87.417 225.187L87.417 193.384Z" fill="#D9D9D9"/>
<path d="M85.8677 193.385L173.563 142.123L219.602 169.371L132.179 220.023L85.8677 193.385Z" fill="#8A8A90"/>
<path d="M85.8697 197.152L85.8696 193.384L131.908 219.776V224.04L85.8697 197.152Z" fill="#4E4E60"/>
<path d="M131.908 219.752L219.647 169.247V173.291L131.908 224.014V219.752Z" fill="#4E4E60"/>
<path d="M193.212 206.481L190.489 204.681V224.677L193.212 226.342V206.481Z" fill="#8D89C8"/>
<path d="M195.518 207.701L193.212 206.263V226.26L195.518 224.766V207.701Z" fill="#D9D9D9"/>
<path d="M209.274 215.893L206.761 214.092V234.089L209.274 235.753V215.893Z" fill="#8D89C8"/>
<path d="M212.628 214.372L209.274 215.675V235.671L212.628 233.549V214.372Z" fill="#D9D9D9"/>
<path d="M225.545 206.481L223.032 204.681V224.677L225.545 226.342V206.481Z" fill="#8D89C8"/>
<path d="M228.9 204.961L225.545 206.263V226.26L228.9 224.138V204.961Z" fill="#D9D9D9"/>
<path d="M224.658 202.245L206.576 192.025L186.247 203.568L204.777 214.487L224.658 202.245Z" fill="#FFC480"/>
<path d="M229.787 174.771L209.852 186.697L204.985 214.484L224.806 202.72L229.787 174.771Z" fill="#DDA566"/>
<path d="M209.862 186.689L207.064 184.78L202.007 212.786L204.985 214.567L209.862 186.689Z" fill="#DF9B4E"/>
<path d="M224.806 202.522L204.932 214.466L204.932 218.374L224.806 206.749L224.806 202.522Z" fill="#DF9B4E"/>
<path d="M204.97 214.466L186.247 203.563L186.44 207.693L204.97 218.376V214.466Z" fill="#E19E52"/>
<path d="M229.788 174.772L226.821 173.335L207.059 184.785L209.854 186.697L229.788 174.772Z" fill="#FFC480"/>
<path d="M144.651 231.731L141.928 229.93V249.927L144.651 251.591V231.731Z" fill="#8D89C8"/>
<path d="M146.957 232.95L144.651 231.512V251.509L146.957 250.015V232.95Z" fill="#D9D9D9"/>
<path d="M160.713 241.142L158.2 239.341V259.338L160.713 261.002V241.142Z" fill="#8D89C8"/>
<path d="M164.067 239.621L160.713 240.924V260.921L164.067 258.799V239.621Z" fill="#D9D9D9"/>
<path d="M176.984 231.731L174.471 229.93V249.927L176.984 251.591V231.731Z" fill="#8D89C8"/>
<path d="M180.339 230.21L176.984 231.512V251.509L180.339 249.387V230.21Z" fill="#D9D9D9"/>
<path d="M180.339 226.335L162.257 216.115L141.928 227.658L160.458 238.577L180.339 226.335Z" fill="#6BCC84"/>
<path d="M185.468 198.861L165.533 210.787L160.666 238.574L180.487 226.81L185.468 198.861Z" fill="#97E1AA"/>
<path d="M165.543 210.779L162.745 208.87L157.688 236.876L160.666 238.657L165.543 210.779Z" fill="#84DD9B"/>
<path d="M180.487 226.612L160.613 238.556L160.613 242.464L180.487 230.839L180.487 226.612Z" fill="#97E1AA"/>
<path d="M160.651 238.556L141.928 227.653L142.121 231.783L160.651 242.466V238.556Z" fill="#7BDC93"/>
<path d="M185.469 198.862L182.502 197.425L162.74 208.874L165.535 210.786L185.469 198.862Z" fill="#84DD9B"/>
<path d="M182.282 184.793L199.497 174.101L186.851 165.467L167.753 176.104L182.282 184.793Z" fill="#F0F6FF"/>
<path d="M163.854 159.367L182.802 148.387L186.851 165.467L167.753 176.104L163.854 159.367Z" fill="#C2D0E6"/>
<path d="M163.854 159.367L162.939 158.879L166.577 176.263L167.756 176.106L163.854 159.367Z" fill="#89A1C8"/>
<path d="M182.281 186.481V184.77L166.577 175.311V177.324L182.281 186.481Z" fill="#89A1C8"/>
<path d="M182.281 186.481V184.77L199.488 174.104V176.167L182.281 186.481Z" fill="#C2D0E6"/>
<path d="M163.854 159.367L162.939 158.879L181.485 147.783L182.788 148.387L163.854 159.367Z" fill="#F0F6FF"/>
<path d="M166.297 160.067L181.309 151.488L184.463 164.104L169.325 172.808L166.297 160.067Z" fill="#0E326A"/>
<path d="M131.858 185.692L118.901 176.679L99.3716 188.791L111.859 196.865L131.858 185.692Z" fill="#C2D0E6"/>
<path d="M116.272 179.589L136.27 168.886L131.951 185.786L111.859 196.865L116.272 179.589Z" fill="#73CCD2"/>
<path d="M111.859 198.555L131.951 187.382V185.786L111.859 196.865V198.555Z" fill="#64A7AB"/>
<path d="M111.859 198.555L99.3716 190.293V188.791L111.859 196.865V198.555Z" fill="#89A1C8"/>
<path d="M38.6797 104.375L118.688 58.2229V122.117L38.6797 168.206V104.375Z" fill="#875D71"/>
<path d="M41.9087 106.442L115.406 63.8889V120.942L41.9087 163.438V106.442Z" fill="#C3A5A2"/>
<path d="M38.6798 104.375L118.688 58.2229L117.066 57.092L37.0493 103.19L38.6798 104.375Z" fill="#784F63"/>
<path d="M38.6795 104.375L37.0493 103.184V167.077L38.6795 168.206V104.375Z" fill="#784F63"/>
<path d="M58.9077 118.166L69.7798 111.399V129.26L58.9077 135.695V118.166Z" fill="#FCFDCD"/>
<path d="M50.3423 111.899L62.6319 104.25V124.44L50.3423 131.713V111.899Z" fill="#FFFFF0"/>
<ellipse cx="57.2828" cy="110.828" rx="1.46123" ry="1.2917" transform="rotate(-24.4462 57.2828 110.828)" fill="#8B8AC0"/>
<path fill-rule="evenodd" clip-rule="evenodd" d="M85.8354 115.193C86.8566 114.262 87.4752 112.642 87.3557 110.853C87.1758 108.162 85.3927 106.109 83.3731 106.267C81.3535 106.425 79.8621 108.734 80.042 111.425C80.1685 113.317 81.0872 114.893 82.3233 115.608L82.399 116.74C82.464 117.713 83.305 118.44 84.2774 118.364C85.2498 118.288 85.9854 117.438 85.9203 116.464L85.8354 115.193Z" fill="#FFF548"/>
<path fill-rule="evenodd" clip-rule="evenodd" d="M82.5825 118.036L82.6416 118.92C82.7067 119.894 83.5477 120.621 84.5201 120.545C85.4925 120.469 86.2281 119.618 86.163 118.645L86.0939 117.611C85.7576 118.246 85.1139 118.7 84.3494 118.76C83.6499 118.815 83.0064 118.526 82.5825 118.036Z" fill="#D9D9D9"/>
<rect x="98.9048" y="86.661" width="6.44013" height="7.73968" transform="rotate(-1.1568 98.9048 86.661)" fill="#DE6B7C"/>
<rect x="102.202" y="97.3889" width="6.44013" height="6.62485" transform="rotate(-14.6895 102.202 97.3889)" fill="#FFEFBD"/>
<ellipse cx="100.338" cy="116.235" rx="5.47337" ry="6.57005" transform="rotate(8.56648 100.338 116.235)" fill="#FFF548"/>
<ellipse cx="97.7501" cy="114.436" rx="0.656387" ry="0.772253" fill="black"/>
<ellipse cx="102.652" cy="113.215" rx="0.656387" ry="0.772253" fill="black"/>
<path d="M97.7223 118.764C100.518 120.268 102.658 119.194 104.08 116.409" stroke="black" stroke-width="0.25"/>
<path d="M136.488 174.526L141.095 171.748L145.046 174.368L140.756 176.829L136.488 174.526Z" fill="#FFF548"/>
<path d="M157.026 180.197L160.701 177.98L163.855 180.07L160.431 182.034L157.026 180.197Z" fill="#FF90A1"/>
<path d="M136.488 174.526V175.497L140.756 177.98V176.829L136.488 174.526Z" fill="#D7D059"/>
<path d="M145.045 174.363V175.512L140.756 177.98V176.829L145.045 174.363Z" fill="#D7D059"/>
<path d="M155.369 187.104L164.357 182.112L174.163 188.228L165.425 193.568L155.369 187.104Z" fill="#E3E0C8"/>
<path d="M141.926 190.84L149.922 186.104L160.44 191.824L152.382 196.745L141.926 190.84Z" fill="#FF6966"/>
<path d="M152.382 198.836L160.44 194.285L160.44 191.824L152.382 196.745L152.382 198.836Z" fill="#F0F6FF"/>
<path d="M141.926 190.84V193.177L152.382 198.836V196.745L141.926 190.84Z" fill="#FF6966"/>
<path d="M121.12 197.221L136.175 189.273L146.031 201.239L131.78 210.032L121.12 197.221Z" fill="#648057"/>
<path d="M121.12 197.221L121.12 198.316L130.976 210.282L131.78 210.032L121.12 197.221Z" fill="#98C584"/>
<path d="M122.226 199.629L121.119 198.316L120.755 203.763L121.93 203.217L122.226 199.629Z" fill="#5A744F"/>
<path d="M122.226 199.629L130.972 210.272L120.755 203.763L121.93 203.217L122.226 199.629Z" fill="#516647"/>
<path d="M123.633 198.16L135.882 191.196L144.071 200.889L131.682 207.748L123.633 198.16Z" fill="#36335A"/>
<defs>
<linearGradient id="paint0_linear_117_18453" x1="206.65" y1="73.494" x2="191.617" y2="144.279" gradientUnits="userSpaceOnUse">
<stop stop-color="#B4FFF9"/>
<stop offset="1" stop-color="white"/>
</linearGradient>
</defs>
</svg>
