<svg xmlns="http://www.w3.org/2000/svg" width="206" height="314" viewBox="0 0 206 314" fill="none">
  <ellipse cx="48.8417" cy="148.907" rx="88.9829" ry="79.1746" transform="rotate(-178 48.8417 148.907)" fill="#68B1A6"/>
  <ellipse cx="48.2999" cy="164.421" rx="88.9829" ry="79.1746" transform="rotate(-178 48.2999 164.421)" fill="#A8EFE4"/>
  <path d="M-25.8551 207.649C-32.4693 198.74 -37.1262 188.606 -39.2952 177.751L-21.2486 174.145C-22.0366 170.202 -22.3822 166.129 -22.2365 161.958C-22.0909 157.788 -21.462 153.749 -20.4009 149.87L-38.152 145.014C-35.231 134.337 -29.8786 124.552 -22.6591 116.126L-8.68432 128.101C-3.2714 121.784 3.61342 116.333 11.6314 112.183L3.17213 95.8388C12.6678 90.924 23.2806 87.5465 34.5703 86.0711L36.955 104.319C41.3137 103.75 45.8146 103.526 50.4208 103.687C55.027 103.848 59.5013 104.385 63.8097 105.257L67.4616 87.2197C78.6209 89.479 88.9721 93.5886 98.1019 99.1538L88.5231 114.868C96.2321 119.567 102.72 125.485 107.679 132.165L122.455 121.194C129.069 130.102 133.726 140.237 135.895 151.092L117.848 154.698C118.636 158.641 118.982 162.714 118.836 166.885C118.691 171.055 118.062 175.094 117.001 178.973L134.752 183.829C131.831 194.506 126.478 204.291 119.259 212.716L105.284 200.742C99.8712 207.059 92.9864 212.51 84.9684 216.66L93.4277 233.004C83.932 237.919 73.3193 241.296 62.0296 242.772L59.6448 224.524C55.2861 225.093 50.7852 225.316 46.179 225.156C41.5728 224.995 37.0985 224.458 32.7902 223.586L29.1383 241.623C17.979 239.364 7.6277 235.254 -1.50203 229.689L8.07677 213.975C0.36777 209.276 -6.12 203.357 -11.0791 196.678L-25.8551 207.649Z" stroke="white" stroke-width="36.8069" stroke-linejoin="round" stroke-dasharray="42.07 42.07"/>
  <path d="M-10.8495 178C-12.115 174.552 -12.9497 170.958 -13.303 167.263L-9.37729 166.888C-9.53473 165.242 -9.58683 163.572 -9.52788 161.884C-9.46894 160.196 -9.30053 158.535 -9.02861 156.903L-12.9186 156.255C-12.3083 152.594 -11.225 149.067 -9.72215 145.716L-6.12388 147.33C-4.76117 144.291 -3.01321 141.397 -0.920248 138.685L-4.04221 136.275C-1.82753 133.406 0.731243 130.74 3.58527 128.315L6.13873 131.32C8.69954 129.144 11.5262 127.169 14.5805 125.428L12.6283 122.002C15.7662 120.214 19.1182 118.666 22.6452 117.386L23.99 121.093C27.1869 119.934 30.5424 119.007 34.0239 118.34L33.2818 114.467C36.8285 113.787 40.4932 113.363 44.2446 113.22L44.3957 117.16C46.1215 117.094 47.8677 117.091 49.6309 117.152C51.3941 117.214 53.1358 117.339 54.8529 117.525L55.2784 113.605C59.0107 114.01 62.6369 114.688 66.1276 115.614L65.1171 119.425C68.5435 120.334 71.8262 121.493 74.9345 122.872L76.5346 119.268C79.9638 120.79 83.1996 122.569 86.2051 124.571L84.0187 127.853C86.9441 129.802 89.6261 131.97 92.0289 134.319L94.7857 131.499C97.4637 134.118 99.8302 136.956 101.839 139.973L98.5569 142.159C100.456 145.01 101.997 148.02 103.145 151.146L106.847 149.787C108.112 153.234 108.947 156.828 109.3 160.523L105.375 160.898C105.532 162.545 105.584 164.214 105.525 165.902C105.466 167.59 105.298 169.252 105.026 170.883L108.916 171.531C108.306 175.193 107.222 178.719 105.72 182.07L102.121 180.456C100.759 183.495 99.0106 186.39 96.9176 189.102L100.04 191.511C97.8249 194.381 95.2661 197.047 92.4121 199.472L89.8587 196.466C87.2978 198.642 84.4712 200.618 81.4169 202.358L83.3691 205.784C80.2312 207.572 76.8792 209.121 73.3522 210.4L72.0074 206.693C68.8105 207.853 65.4549 208.78 61.9735 209.447L62.7156 213.32C59.1689 213.999 55.5042 214.423 51.7527 214.567L51.6017 210.626C49.8759 210.692 48.1297 210.696 46.3665 210.634C44.6033 210.573 42.8615 210.447 41.1445 210.261L40.719 214.181C36.9867 213.776 33.3605 213.098 29.8698 212.173L30.8802 208.361C27.4538 207.453 24.1712 206.294 21.0629 204.914L19.4628 208.518C16.0336 206.996 12.7978 205.217 9.79224 203.215L11.9787 199.933C9.05325 197.984 6.3713 195.816 3.96851 193.467L1.21163 196.287C-1.46629 193.669 -3.83286 190.831 -5.84197 187.814L-2.55954 185.628C-4.45823 182.777 -5.99999 179.767 -7.14744 176.641L-10.8495 178Z" stroke="white" stroke-width="7.8872" stroke-linejoin="bevel" stroke-dasharray="10.52 10.52"/>
</svg>