<svg width="724" height="865" viewBox="0 0 724 865" fill="none" xmlns="http://www.w3.org/2000/svg">
<path fill-rule="evenodd" clip-rule="evenodd" d="M79.786 168.65L24.0091 153.665L43.0783 82.45L98.8704 97.3794L83.9452 41.569L155.137 22.4931L170.117 78.289L210.969 37.4638L263.092 89.6031L222.28 130.469L278.057 145.454L258.987 216.67L203.196 201.74L218.121 257.551L146.929 276.626L131.949 220.831L91.0964 261.656L38.9744 209.516L79.786 168.65Z" fill="#F8B3B8"/>
<path d="M318.845 231.641H306.254V244.282H318.845V231.641Z" fill="#3E426F"/>
<path d="M318.845 225.321H306.254V231.641H318.845V225.321Z" fill="#3E426F"/>
<path d="M306.254 225.321H293.662V231.641H306.254V225.321Z" fill="#3E426F"/>
<path d="M268.479 263.244H255.887V269.564H268.479V263.244Z" fill="#3E426F"/>
<path d="M293.662 269.564H281.07V275.885H293.662V269.564Z" fill="#3E426F"/>
<path d="M255.887 263.244H243.296V269.564H255.887V263.244Z" fill="#3E426F"/>
<path d="M255.887 269.564H243.296V275.885H255.887V269.564Z" fill="#3E426F"/>
<path d="M268.479 269.564H255.887V275.885H268.479V269.564Z" fill="#3E426F"/>
<path d="M306.254 269.564H293.662V275.885H306.254V269.564Z" fill="#3E426F"/>
<path d="M243.296 263.244H237V269.564H243.296V263.244Z" fill="#3E426F"/>
<path d="M293.662 275.885H287.366V282.205H293.662V275.885Z" fill="#3E426F"/>
<path d="M299.958 275.885H293.662V282.205H299.958V275.885Z" fill="#3E426F"/>
<path d="M274.775 269.564H268.479V275.885H274.775V269.564Z" fill="#6867A0"/>
<path d="M281.07 269.564H274.775V275.885H281.07V269.564Z" fill="#6867A0"/>
<path d="M287.366 250.603H281.07V256.923H287.366V250.603Z" fill="#3E426F"/>
<path d="M287.366 237.962H281.07V244.282H287.366V237.962Z" fill="#3E426F"/>
<path d="M306.254 231.641H299.958V237.962H306.254V231.641Z" fill="#3E426F"/>
<path d="M287.366 231.641H281.07V237.962H287.366V231.641Z" fill="#3E426F"/>
<path d="M306.254 250.603H299.958V256.923H306.254V250.603Z" fill="#3E426F"/>
<path d="M287.366 244.282H281.07V250.603H287.366V244.282Z" fill="#3E426F"/>
<path d="M325.141 256.923H318.845V263.244H325.141V256.923Z" fill="#3E426F"/>
<path d="M344.028 256.923H337.732V263.244H344.028V256.923Z" fill="#3E426F"/>
<path d="M350.324 269.564H344.028V275.885H350.324V269.564Z" fill="#3E426F"/>
<path d="M344.028 275.885H337.732V282.205H344.028V275.885Z" fill="#3E426F"/>
<path d="M331.437 288.526H325.141V294.846H331.437V288.526Z" fill="#3E426F"/>
<path d="M344.028 282.205H331.437V294.846H344.028V282.205Z" fill="#3E426F"/>
<path d="M318.845 294.846H306.254V307.487H318.845V294.846Z" fill="#3E426F"/>
<path d="M318.845 332.769H306.254V345.41H318.845V332.769Z" fill="#3E426F"/>
<path d="M318.845 383.333H306.254V395.974H318.845V383.333Z" fill="#3E426F"/>
<path d="M331.437 294.846H318.845V307.487H331.437V294.846Z" fill="#3E426F"/>
<path d="M331.437 332.769H318.845V345.41H331.437V332.769Z" fill="#3E426F"/>
<path d="M331.437 383.333H318.845V395.974H331.437V383.333Z" fill="#3E426F"/>
<path d="M344.028 294.846H331.437V307.487H344.028V294.846Z" fill="#3E426F"/>
<path d="M344.028 332.769H331.437V345.41H344.028V332.769Z" fill="#3E426F"/>
<path d="M344.028 383.333H331.437V395.974H344.028V383.333Z" fill="#3E426F"/>
<path d="M608.451 497.103H595.859V509.744H608.451V497.103Z" fill="#3E426F"/>
<path d="M532.901 497.103H520.31V509.744H532.901V497.103Z" fill="#3E426F"/>
<path d="M495.127 522.385H482.535V535.026H495.127V522.385Z" fill="#3E426F"/>
<path d="M507.718 522.385H495.127V535.026H507.718V522.385Z" fill="#3E426F"/>
<path d="M532.901 535.026H526.606V547.667H532.901V535.026Z" fill="#6867A0"/>
<path d="M520.31 522.385H507.718V535.026H520.31V522.385Z" fill="#3E426F"/>
<path d="M532.901 522.385H520.31V535.026H532.901V522.385Z" fill="#3E426F"/>
<path d="M545.493 522.385H532.901V535.026H545.493V522.385Z" fill="#3E426F"/>
<path d="M545.493 535.026H532.901V547.667H545.493V535.026Z" fill="#6867A0"/>
<path d="M545.493 547.667H532.901V560.308H545.493V547.667Z" fill="#6867A0"/>
<path d="M545.493 560.308H532.901V572.949H545.493V560.308Z" fill="#6867A0"/>
<path d="M545.493 560.308H532.901V572.949H545.493V560.308Z" fill="#6867A0"/>
<path d="M532.901 560.308H520.31V572.949H532.901V560.308Z" fill="#6867A0"/>
<path d="M532.901 566.628H520.31V579.269H532.901V566.628Z" fill="#6867A0"/>
<path d="M539.197 566.628H526.606V579.269H539.197V566.628Z" fill="#6867A0"/>
<path d="M520.31 572.949H507.718V585.59H520.31V572.949Z" fill="#6867A0"/>
<path d="M551.789 560.308H539.197V572.949H551.789V560.308Z" fill="#6867A0"/>
<path d="M432.169 623.513H419.577V636.154H432.169V623.513Z" fill="#6867A0"/>
<path d="M432.169 636.154H419.577V648.795H432.169V636.154Z" fill="#6867A0"/>
<path d="M419.577 686.718H406.986V699.359H419.577V686.718Z" fill="#6867A0"/>
<path d="M394.394 686.718H406.986V699.359H394.394V686.718Z" fill="#6867A0"/>
<path d="M381.803 686.718H394.394V699.359H381.803V686.718Z" fill="#6867A0"/>
<path d="M381.803 699.359H394.394V705.679H381.803V699.359Z" fill="#6867A0"/>
<path d="M369.211 686.718H381.803V693.038H369.211V686.718Z" fill="#6867A0"/>
<path d="M369.211 693.038H381.803V699.359H369.211V693.038Z" fill="#6867A0"/>
<path d="M400.69 680.397H413.282V686.718H400.69V680.397Z" fill="#6867A0"/>
<path d="M362.915 686.718H369.211V693.038H362.915V686.718Z" fill="#6867A0"/>
<path d="M425.873 686.718H432.169V693.038H425.873V686.718Z" fill="#6867A0"/>
<path d="M432.169 686.718H438.465V693.038H432.169V686.718Z" fill="#6867A0"/>
<path d="M381.803 705.679H388.099V712H381.803V705.679Z" fill="#6867A0"/>
<path d="M394.394 699.359H400.69V705.679H394.394V699.359Z" fill="#6867A0"/>
<path d="M425.873 648.795H419.577V661.436H425.873V648.795Z" fill="#6867A0"/>
<path d="M425.873 661.436H419.577V674.077H425.873V661.436Z" fill="#6867A0"/>
<path d="M425.873 674.077H419.577V686.718H425.873V674.077Z" fill="#6867A0"/>
<path d="M425.873 686.718H419.577V699.359H425.873V686.718Z" fill="#6867A0"/>
<path d="M432.169 674.077H425.873V686.718H432.169V674.077Z" fill="#6867A0"/>
<path d="M419.577 661.436H413.282V674.077H419.577V661.436Z" fill="#6867A0"/>
<path d="M419.577 674.077H413.282V686.718H419.577V674.077Z" fill="#6867A0"/>
<path d="M432.169 610.872H419.577V623.513H432.169V610.872Z" fill="#6867A0"/>
<path d="M570.676 553.987H558.085V566.628H570.676V553.987Z" fill="#6867A0"/>
<path d="M558.085 560.308H545.493V566.628H558.085V560.308Z" fill="#6867A0"/>
<path d="M558.085 535.026H545.493V547.667H558.085V535.026Z" fill="#6867A0"/>
<path d="M558.085 547.667H545.493V560.308H558.085V547.667Z" fill="#6867A0"/>
<path d="M570.676 535.026H558.085V547.667H570.676V535.026Z" fill="#6867A0"/>
<path d="M570.676 547.667H558.085V560.308H570.676V547.667Z" fill="#6867A0"/>
<path d="M583.268 535.026H570.676V547.667H583.268V535.026Z" fill="#6867A0"/>
<path d="M583.268 547.667H570.676V560.308H583.268V547.667Z" fill="#6867A0"/>
<path d="M595.859 535.026H583.268V547.667H595.859V535.026Z" fill="#6867A0"/>
<path d="M595.859 547.667H583.268V560.308H595.859V547.667Z" fill="#6867A0"/>
<path d="M595.859 522.385H583.268V535.026H595.859V522.385Z" fill="#6867A0"/>
<path d="M608.451 535.026H595.859V547.667H608.451V535.026Z" fill="#6867A0"/>
<path d="M608.451 547.667H595.859V560.308H608.451V547.667Z" fill="#6867A0"/>
<path d="M621.042 547.667H608.451V560.308H621.042V547.667Z" fill="#6867A0"/>
<path d="M608.451 522.385H595.859V535.026H608.451V522.385Z" fill="#6867A0"/>
<path d="M621.042 535.026H608.451V547.667H621.042V535.026Z" fill="#6867A0"/>
<path d="M558.085 522.385H545.493V535.026H558.085V522.385Z" fill="#3E426F"/>
<path d="M570.676 522.385H558.085V535.026H570.676V522.385Z" fill="#3E426F"/>
<path d="M583.268 522.385H570.676V535.026H583.268V522.385Z" fill="#3E426F"/>
<path d="M595.859 522.385H583.268V528.705H595.859V522.385Z" fill="#3E426F"/>
<path d="M608.451 522.385H595.859V528.705H608.451V522.385Z" fill="#3E426F"/>
<path d="M627.338 509.744H621.042V516.064H627.338V509.744Z" fill="#3E426F"/>
<path d="M633.634 547.667H627.338V553.987H633.634V547.667Z" fill="#3E426F"/>
<path d="M639.93 553.987H633.634V560.308H639.93V553.987Z" fill="#3E426F"/>
<path d="M646.225 560.308H639.93V566.628H646.225V560.308Z" fill="#3E426F"/>
<path d="M652.521 560.308H646.225V566.628H652.521V560.308Z" fill="#3E426F"/>
<path d="M652.521 572.949H646.225V579.269H652.521V572.949Z" fill="#3E426F"/>
<path d="M639.93 566.628H633.634V572.949H639.93V566.628Z" fill="#3E426F"/>
<path d="M665.113 579.269H658.817V585.59H665.113V579.269Z" fill="#3E426F"/>
<path d="M684 579.269H677.704V585.59H684V579.269Z" fill="#3E426F"/>
<path d="M646.225 553.987H639.93V560.308H646.225V553.987Z" fill="#3E426F"/>
<path d="M627.338 516.064H621.042V522.385H627.338V516.064Z" fill="#3E426F"/>
<path d="M633.634 553.987H627.338V560.308H633.634V553.987Z" fill="#3E426F"/>
<path d="M639.93 560.308H633.634V566.628H639.93V560.308Z" fill="#3E426F"/>
<path d="M633.634 560.308H627.338V566.628H633.634V560.308Z" fill="#3E426F"/>
<path d="M646.225 566.628H639.93V572.949H646.225V566.628Z" fill="#3E426F"/>
<path d="M652.521 566.628H646.225V572.949H652.521V566.628Z" fill="#3E426F"/>
<path d="M627.338 541.346H621.042V547.667H627.338V541.346Z" fill="#3E426F"/>
<path d="M627.338 547.667H621.042V553.987H627.338V547.667Z" fill="#3E426F"/>
<path d="M627.338 553.987H621.042V560.308H627.338V553.987Z" fill="#6867A0"/>
<path d="M532.901 509.744H520.31V522.385H532.901V509.744Z" fill="#3E426F"/>
<path d="M545.493 509.744H532.901V522.385H545.493V509.744Z" fill="#3E426F"/>
<path d="M558.085 509.744H545.493V522.385H558.085V509.744Z" fill="#3E426F"/>
<path d="M570.676 509.744H558.085V522.385H570.676V509.744Z" fill="#3E426F"/>
<path d="M583.268 509.744H570.676V522.385H583.268V509.744Z" fill="#3E426F"/>
<path d="M595.859 509.744H583.268V522.385H595.859V509.744Z" fill="#3E426F"/>
<path d="M608.451 509.744H595.859V522.385H608.451V509.744Z" fill="#3E426F"/>
<path d="M621.042 509.744H608.451V522.385H621.042V509.744Z" fill="#3E426F"/>
<path d="M520.31 509.744H507.718V522.385H520.31V509.744Z" fill="#3E426F"/>
<path d="M614.746 497.103H608.451V509.744H614.746V497.103Z" fill="#3E426F"/>
<path d="M658.817 566.628H652.521V579.269H658.817V566.628Z" fill="#3E426F"/>
<path d="M665.113 566.628H658.817V579.269H665.113V566.628Z" fill="#3E426F"/>
<path d="M671.408 572.949H665.113V585.59H671.408V572.949Z" fill="#3E426F"/>
<path d="M677.704 572.949H671.408V585.59H677.704V572.949Z" fill="#3E426F"/>
<path d="M595.859 497.103H583.268V509.744H595.859V497.103Z" fill="#3E426F"/>
<path d="M595.859 484.462H583.268V497.103H595.859V484.462Z" fill="#3E426F"/>
<path d="M602.155 490.782H595.859V497.103H602.155V490.782Z" fill="#3E426F"/>
<path d="M539.197 503.423H532.901V509.744H539.197V503.423Z" fill="#3E426F"/>
<path d="M621.042 503.423H614.746V509.744H621.042V503.423Z" fill="#3E426F"/>
<path d="M344.028 307.487H331.437V320.128H344.028V307.487Z" fill="#3E426F"/>
<path d="M344.028 345.41H331.437V358.051H344.028V345.41Z" fill="#3E426F"/>
<path d="M344.028 395.974H331.437V408.615H344.028V395.974Z" fill="#3E426F"/>
<path d="M344.028 320.128H331.437V332.769H344.028V320.128Z" fill="#3E426F"/>
<path d="M344.028 370.692H331.437V383.333H344.028V370.692Z" fill="#3E426F"/>
<path d="M344.028 358.051H331.437V370.692H344.028V358.051Z" fill="#3E426F"/>
<path d="M344.028 408.615H331.437V421.256H344.028V408.615Z" fill="#3E426F"/>
<path d="M350.324 421.256H344.028V433.897H350.324V421.256Z" fill="#3E426F"/>
<path d="M350.324 433.897H344.028V446.538H350.324V433.897Z" fill="#3E426F"/>
<path d="M344.028 421.256H331.437V433.897H344.028V421.256Z" fill="#3E426F"/>
<path d="M344.028 433.897H331.437V446.538H344.028V433.897Z" fill="#3E426F"/>
<path d="M356.62 446.538H344.028V459.179H356.62V446.538Z" fill="#3E426F"/>
<path d="M331.437 307.487H318.845V320.128H331.437V307.487Z" fill="#3E426F"/>
<path d="M331.437 345.41H318.845V358.051H331.437V345.41Z" fill="#3E426F"/>
<path d="M331.437 395.974H318.845V408.615H331.437V395.974Z" fill="#3E426F"/>
<path d="M331.437 320.128H318.845V332.769H331.437V320.128Z" fill="#3E426F"/>
<path d="M331.437 370.692H318.845V383.333H331.437V370.692Z" fill="#3E426F"/>
<path d="M331.437 358.051H318.845V370.692H331.437V358.051Z" fill="#3E426F"/>
<path d="M331.437 408.615H318.845V421.256H331.437V408.615Z" fill="#3E426F"/>
<path d="M331.437 421.256H318.845V433.897H331.437V421.256Z" fill="#3E426F"/>
<path d="M331.437 433.897H318.845V446.538H331.437V433.897Z" fill="#3E426F"/>
<path d="M331.437 446.538H318.845V452.859H331.437V446.538Z" fill="#3E426F"/>
<path d="M344.028 446.538H331.437V452.859H344.028V446.538Z" fill="#3E426F"/>
<path d="M318.845 433.897H312.549V440.218H318.845V433.897Z" fill="#3E426F"/>
<path d="M400.69 693.038H394.394V699.359H400.69V693.038Z" fill="#3E426F"/>
<path d="M406.986 693.038H400.69V699.359H406.986V693.038Z" fill="#3E426F"/>
<path d="M413.282 693.038H406.986V699.359H413.282V693.038Z" fill="#3E426F"/>
<path d="M419.577 693.038H413.282V699.359H419.577V693.038Z" fill="#3E426F"/>
<path d="M425.873 693.038H419.577V699.359H425.873V693.038Z" fill="#3E426F"/>
<path d="M425.873 667.756H419.577V674.077H425.873V667.756Z" fill="#3E426F"/>
<path d="M425.873 674.077H419.577V680.397H425.873V674.077Z" fill="#3E426F"/>
<path d="M432.169 674.077H425.873V680.397H432.169V674.077Z" fill="#3E426F"/>
<path d="M400.69 699.359H394.394V705.679H400.69V699.359Z" fill="#3E426F"/>
<path d="M394.394 699.359H388.099V705.679H394.394V699.359Z" fill="#3E426F"/>
<path d="M388.099 705.679H381.803V712H388.099V705.679Z" fill="#3E426F"/>
<path d="M356.62 440.218H350.324V446.538H356.62V440.218Z" fill="#3E426F"/>
<path d="M362.915 452.859H356.62V459.179H362.915V452.859Z" fill="#3E426F"/>
<path d="M344.028 452.859H337.732V459.179H344.028V452.859Z" fill="#3E426F"/>
<path d="M356.62 433.897H350.324V440.218H356.62V433.897Z" fill="#6867A0"/>
<path d="M362.915 440.218H356.62V446.538H362.915V440.218Z" fill="#6867A0"/>
<path d="M362.915 446.538H356.62V452.859H362.915V446.538Z" fill="#6867A0"/>
<path d="M369.211 452.859H362.915V459.179H369.211V452.859Z" fill="#6867A0"/>
<path d="M318.845 307.487H306.254V320.128H318.845V307.487Z" fill="#3E426F"/>
<path d="M318.845 345.41H306.254V358.051H318.845V345.41Z" fill="#3E426F"/>
<path d="M318.845 395.974H306.254V408.615H318.845V395.974Z" fill="#3E426F"/>
<path d="M318.845 320.128H306.254V332.769H318.845V320.128Z" fill="#3E426F"/>
<path d="M318.845 370.692H306.254V383.333H318.845V370.692Z" fill="#3E426F"/>
<path d="M318.845 358.051H306.254V370.692H318.845V358.051Z" fill="#3E426F"/>
<path d="M318.845 408.615H306.254V421.256H318.845V408.615Z" fill="#3E426F"/>
<path d="M318.845 421.256H306.254V433.897H318.845V421.256Z" fill="#3E426F"/>
<path d="M268.479 256.923H255.887V263.244H268.479V256.923Z" fill="#3E426F"/>
<path d="M344.028 237.962H331.437V244.282H344.028V237.962Z" fill="#3E426F"/>
<path d="M331.437 244.282H318.845V256.923H331.437V244.282Z" fill="#3E426F"/>
<path d="M318.845 244.282H306.254V256.923H318.845V244.282Z" fill="#3E426F"/>
<path d="M318.845 256.923H306.254V269.564H318.845V256.923Z" fill="#3E426F"/>
<path d="M306.254 256.923H293.662V269.564H306.254V256.923Z" fill="#3E426F"/>
<path d="M293.662 256.923H281.07V269.564H293.662V256.923Z" fill="#3E426F"/>
<path d="M281.07 256.923H274.775V269.564H281.07V256.923Z" fill="#3E426F"/>
<path d="M281.07 244.282H268.479V256.923H281.07V244.282Z" fill="#3E426F"/>
<path d="M281.07 237.962H268.479V244.282H281.07V237.962Z" fill="#3E426F"/>
<path d="M344.028 244.282H331.437V256.923H344.028V244.282Z" fill="#3E426F"/>
<path d="M350.324 244.282H344.028V256.923H350.324V244.282Z" fill="#3E426F"/>
<path d="M350.324 256.923H344.028V269.564H350.324V256.923Z" fill="#3E426F"/>
<path d="M331.437 231.641H318.845V244.282H331.437V231.641Z" fill="#3E426F"/>
<path d="M331.437 452.859H318.845V465.5H331.437V452.859Z" fill="#F9EED8"/>
<path d="M331.437 465.5H318.845V471.82H331.437V465.5Z" fill="#F9EED8"/>
<path d="M337.732 452.859H331.437V459.179H337.732V452.859Z" fill="#F9EED8"/>
<path d="M375.507 465.5H369.211V471.82H375.507V465.5Z" fill="#F9EED8"/>
<path d="M388.099 490.782H381.803V497.103H388.099V490.782Z" fill="#F9EED8"/>
<path d="M344.028 459.179H331.437V471.82H344.028V459.179Z" fill="#F9EED8"/>
<path d="M331.437 471.82H318.845V484.462H331.437V471.82Z" fill="#F9EED8"/>
<path d="M344.028 484.462H331.437V497.103H344.028V484.462Z" fill="#F9EED8"/>
<path d="M344.028 497.103H331.437V509.744H344.028V497.103Z" fill="#F9EED8"/>
<path d="M350.324 509.744H337.732V522.385H350.324V509.744Z" fill="#F9EED8"/>
<path d="M350.324 522.385H337.732V535.026H350.324V522.385Z" fill="#F9EED8"/>
<path d="M350.324 535.026H337.732V547.667H350.324V535.026Z" fill="#F9EED8"/>
<path d="M331.437 484.462H325.141V497.103H331.437V484.462Z" fill="#F9EED8"/>
<path d="M344.028 471.82H331.437V484.462H344.028V471.82Z" fill="#F9EED8"/>
<path d="M356.62 471.82H344.028V484.462H356.62V471.82Z" fill="#F9EED8"/>
<path d="M356.62 484.462H344.028V497.103H356.62V484.462Z" fill="#F9EED8"/>
<path d="M356.62 497.103H344.028V509.744H356.62V497.103Z" fill="#F9EED8"/>
<path d="M394.394 509.744H381.803V522.385H394.394V509.744Z" fill="#F9EED8"/>
<path d="M406.986 509.744H394.394V522.385H406.986V509.744Z" fill="#F9EED8"/>
<path d="M381.803 509.744H369.211V522.385H381.803V509.744Z" fill="#F9EED8"/>
<path d="M369.211 509.744H356.62V522.385H369.211V509.744Z" fill="#F9EED8"/>
<path d="M356.62 509.744H344.028V522.385H356.62V509.744Z" fill="#F9EED8"/>
<path d="M356.62 522.385H344.028V535.026H356.62V522.385Z" fill="#F9EED8"/>
<path d="M369.211 522.385H356.62V535.026H369.211V522.385Z" fill="#F9EED8"/>
<path d="M381.803 522.385H369.211V535.026H381.803V522.385Z" fill="#F9EED8"/>
<path d="M394.394 522.385H381.803V535.026H394.394V522.385Z" fill="#F9EED8"/>
<path d="M406.986 522.385H394.394V535.026H406.986V522.385Z" fill="#F9EED8"/>
<path d="M419.577 522.385H406.986V535.026H419.577V522.385Z" fill="#F9EED8"/>
<path d="M432.169 522.385H419.577V535.026H432.169V522.385Z" fill="#F9EED8"/>
<path d="M432.169 535.026H419.577V547.667H432.169V535.026Z" fill="#F9EED8"/>
<path d="M444.761 535.026H432.169V547.667H444.761V535.026Z" fill="#F9EED8"/>
<path d="M457.352 535.026H444.761V547.667H457.352V535.026Z" fill="#F9EED8"/>
<path d="M469.944 535.026H457.352V547.667H469.944V535.026Z" fill="#F9EED8"/>
<path d="M482.535 535.026H469.944V547.667H482.535V535.026Z" fill="#F9EED8"/>
<path d="M495.127 535.026H482.535V547.667H495.127V535.026Z" fill="#F9EED8"/>
<path d="M507.718 535.026H495.127V547.667H507.718V535.026Z" fill="#F9EED8"/>
<path d="M520.31 535.026H507.718V547.667H520.31V535.026Z" fill="#F9EED8"/>
<path d="M526.606 535.026H520.31V547.667H526.606V535.026Z" fill="#F9EED8"/>
<path d="M444.761 522.385H432.169V535.026H444.761V522.385Z" fill="#F9EED8"/>
<path d="M457.352 522.385H444.761V535.026H457.352V522.385Z" fill="#F9EED8"/>
<path d="M419.577 516.064H406.986V522.385H419.577V516.064Z" fill="#F9EED8"/>
<path d="M369.211 535.026H356.62V547.667H369.211V535.026Z" fill="#F9EED8"/>
<path d="M394.394 547.667H381.803V560.308H394.394V547.667Z" fill="#F9EED8"/>
<path d="M419.577 547.667H406.986V560.308H419.577V547.667Z" fill="#F9EED8"/>
<path d="M444.761 547.667H432.169V560.308H444.761V547.667Z" fill="#F9EED8"/>
<path d="M469.944 547.667H457.352V560.308H469.944V547.667Z" fill="#F9EED8"/>
<path d="M495.127 547.667H482.535V560.308H495.127V547.667Z" fill="#F9EED8"/>
<path d="M369.211 547.667H356.62V560.308H369.211V547.667Z" fill="#F9EED8"/>
<path d="M394.394 560.308H381.803V572.949H394.394V560.308Z" fill="#F9EED8"/>
<path d="M419.577 560.308H406.986V572.949H419.577V560.308Z" fill="#F9EED8"/>
<path d="M444.761 560.308H432.169V572.949H444.761V560.308Z" fill="#F9EED8"/>
<path d="M394.394 572.949H381.803V585.59H394.394V572.949Z" fill="#F9EED8"/>
<path d="M406.986 585.59H394.394V598.231H406.986V585.59Z" fill="#F9EED8"/>
<path d="M469.944 560.308H457.352V572.949H469.944V560.308Z" fill="#F9EED8"/>
<path d="M419.577 572.949H406.986V585.59H419.577V572.949Z" fill="#F9EED8"/>
<path d="M419.577 585.59H406.986V598.231H419.577V585.59Z" fill="#F9EED8"/>
<path d="M419.577 598.231H406.986V610.872H419.577V598.231Z" fill="#F9EED8"/>
<path d="M469.944 572.949H457.352V585.59H469.944V572.949Z" fill="#F9EED8"/>
<path d="M469.944 585.59H457.352V598.231H469.944V585.59Z" fill="#F9EED8"/>
<path d="M495.127 560.308H482.535V572.949H495.127V560.308Z" fill="#F9EED8"/>
<path d="M444.761 572.949H432.169V585.59H444.761V572.949Z" fill="#F9EED8"/>
<path d="M444.761 585.59H432.169V598.231H444.761V585.59Z" fill="#F9EED8"/>
<path d="M444.761 598.231H432.169V610.872H444.761V598.231Z" fill="#F9EED8"/>
<path d="M457.352 598.231H444.761V610.872H457.352V598.231Z" fill="#F9EED8"/>
<path d="M495.127 572.949H482.535V585.59H495.127V572.949Z" fill="#F9EED8"/>
<path d="M381.803 560.308H369.211V572.949H381.803V560.308Z" fill="#F9EED8"/>
<path d="M381.803 535.026H369.211V547.667H381.803V535.026Z" fill="#F9EED8"/>
<path d="M406.986 547.667H394.394V560.308H406.986V547.667Z" fill="#F9EED8"/>
<path d="M432.169 547.667H419.577V560.308H432.169V547.667Z" fill="#F9EED8"/>
<path d="M457.352 547.667H444.761V560.308H457.352V547.667Z" fill="#F9EED8"/>
<path d="M482.535 547.667H469.944V560.308H482.535V547.667Z" fill="#F9EED8"/>
<path d="M532.901 547.667H520.31V560.308H532.901V547.667Z" fill="#F9EED8"/>
<path d="M526.606 560.308H520.31V572.949H526.606V560.308Z" fill="#F9EED8"/>
<path d="M520.31 547.667H507.718V560.308H520.31V547.667Z" fill="#F9EED8"/>
<path d="M507.718 547.667H495.127V560.308H507.718V547.667Z" fill="#F9EED8"/>
<path d="M520.31 572.949H507.718V579.269H520.31V572.949Z" fill="#F9EED8"/>
<path d="M514.014 579.269H507.718V585.59H514.014V579.269Z" fill="#F9EED8"/>
<path d="M381.803 547.667H369.211V560.308H381.803V547.667Z" fill="#F9EED8"/>
<path d="M406.986 560.308H394.394V572.949H406.986V560.308Z" fill="#F9EED8"/>
<path d="M432.169 560.308H419.577V572.949H432.169V560.308Z" fill="#F9EED8"/>
<path d="M457.352 560.308H444.761V572.949H457.352V560.308Z" fill="#F9EED8"/>
<path d="M406.986 572.949H394.394V585.59H406.986V572.949Z" fill="#F9EED8"/>
<path d="M482.535 560.308H469.944V572.949H482.535V560.308Z" fill="#F9EED8"/>
<path d="M432.169 572.949H419.577V585.59H432.169V572.949Z" fill="#F9EED8"/>
<path d="M432.169 585.59H419.577V598.231H432.169V585.59Z" fill="#F9EED8"/>
<path d="M432.169 598.231H419.577V610.872H432.169V598.231Z" fill="#F9EED8"/>
<path d="M482.535 572.949H469.944V585.59H482.535V572.949Z" fill="#F9EED8"/>
<path d="M482.535 585.59H469.944V598.231H482.535V585.59Z" fill="#F9EED8"/>
<path d="M507.718 560.308H495.127V572.949H507.718V560.308Z" fill="#F9EED8"/>
<path d="M520.31 560.308H507.718V572.949H520.31V560.308Z" fill="#F9EED8"/>
<path d="M457.352 572.949H444.761V585.59H457.352V572.949Z" fill="#F9EED8"/>
<path d="M457.352 585.59H444.761V598.231H457.352V585.59Z" fill="#F9EED8"/>
<path d="M507.718 572.949H495.127V585.59H507.718V572.949Z" fill="#F9EED8"/>
<path d="M394.394 560.308H381.803V572.949H394.394V560.308Z" fill="#F9EED8"/>
<path d="M394.394 535.026H381.803V547.667H394.394V535.026Z" fill="#F9EED8"/>
<path d="M406.986 535.026H394.394V547.667H406.986V535.026Z" fill="#F9EED8"/>
<path d="M419.577 535.026H406.986V547.667H419.577V535.026Z" fill="#F9EED8"/>
<path d="M356.62 535.026H344.028V547.667H356.62V535.026Z" fill="#F9EED8"/>
<path d="M369.211 471.82H356.62V484.462H369.211V471.82Z" fill="#F9EED8"/>
<path d="M375.507 471.82H369.211V484.462H375.507V471.82Z" fill="#F9EED8"/>
<path d="M369.211 484.462H356.62V497.103H369.211V484.462Z" fill="#F9EED8"/>
<path d="M369.211 497.103H356.62V509.744H369.211V497.103Z" fill="#F9EED8"/>
<path d="M381.803 484.462H369.211V497.103H381.803V484.462Z" fill="#F9EED8"/>
<path d="M381.803 497.103H369.211V509.744H381.803V497.103Z" fill="#F9EED8"/>
<path d="M394.394 497.103H381.803V509.744H394.394V497.103Z" fill="#F9EED8"/>
<path d="M356.62 459.179H344.028V471.82H356.62V459.179Z" fill="#F9EED8"/>
<path d="M369.211 459.179H356.62V471.82H369.211V459.179Z" fill="#F9EED8"/>
<path d="M381.803 452.859H369.211V465.5H381.803V452.859Z" fill="#99ADEB"/>
<path d="M394.394 446.538H381.803V459.179H394.394V446.538Z" fill="#99ADEB"/>
<path d="M406.986 446.538H394.394V459.179H406.986V446.538Z" fill="#B3AAD7"/>
<path d="M419.577 446.538H406.986V459.179H419.577V446.538Z" fill="#B3AAD7"/>
<path d="M419.577 440.218H413.282V446.538H419.577V440.218Z" fill="#B3AAD7"/>
<path d="M432.169 446.538H419.577V459.179H432.169V446.538Z" fill="#D4A9BD"/>
<path d="M432.169 440.218H419.577V446.538H432.169V440.218Z" fill="#D4A9BD"/>
<path d="M444.761 440.218H432.169V446.538H444.761V440.218Z" fill="#D4A9BD"/>
<path d="M457.352 440.218H444.761V446.538H457.352V440.218Z" fill="#D4A9BD"/>
<path d="M432.169 459.179H419.577V471.82H432.169V459.179Z" fill="#D4A9BD"/>
<path d="M432.169 471.82H419.577V484.462H432.169V471.82Z" fill="#D4A9BD"/>
<path d="M444.761 471.82H432.169V484.462H444.761V471.82Z" fill="#D4A9BD"/>
<path d="M457.352 471.82H444.761V484.462H457.352V471.82Z" fill="#D4A9BD"/>
<path d="M432.169 484.462H419.577V497.103H432.169V484.462Z" fill="#D4A9BD"/>
<path d="M444.761 484.462H432.169V497.103H444.761V484.462Z" fill="#D4A9BD"/>
<path d="M457.352 484.462H444.761V497.103H457.352V484.462Z" fill="#D4A9BD"/>
<path d="M469.944 484.462H457.352V497.103H469.944V484.462Z" fill="#D4A9BD"/>
<path d="M432.169 497.103H419.577V509.744H432.169V497.103Z" fill="#D4A9BD"/>
<path d="M444.761 509.744H432.169V522.385H444.761V509.744Z" fill="#D4A9BD"/>
<path d="M444.761 497.103H432.169V509.744H444.761V497.103Z" fill="#D4A9BD"/>
<path d="M457.352 509.744H444.761V522.385H457.352V509.744Z" fill="#D4A9BD"/>
<path d="M457.352 522.385H444.761V528.705H457.352V522.385Z" fill="#D4A9BD"/>
<path d="M444.761 522.385H432.169V528.705H444.761V522.385Z" fill="#D4A9BD"/>
<path d="M457.352 497.103H444.761V509.744H457.352V497.103Z" fill="#D4A9BD"/>
<path d="M469.944 509.744H457.352V522.385H469.944V509.744Z" fill="#D4A9BD"/>
<path d="M469.944 522.385H457.352V535.026H469.944V522.385Z" fill="#D4A9BD"/>
<path d="M469.944 497.103H457.352V509.744H469.944V497.103Z" fill="#D4A9BD"/>
<path d="M482.535 497.103H469.944V509.744H482.535V497.103Z" fill="#D4A9BD"/>
<path d="M482.535 509.744H469.944V522.385H482.535V509.744Z" fill="#D4A9BD"/>
<path d="M482.535 522.385H469.944V535.026H482.535V522.385Z" fill="#D4A9BD"/>
<path d="M444.761 446.538H432.169V459.179H444.761V446.538Z" fill="#D4A9BD"/>
<path d="M457.352 446.538H444.761V459.179H457.352V446.538Z" fill="#D4A9BD"/>
<path d="M469.944 446.538H457.352V459.179H469.944V446.538Z" fill="#FEA79E"/>
<path d="M469.944 471.82H457.352V484.462H469.944V471.82Z" fill="#FEA79E"/>
<path d="M482.535 471.82H469.944V484.462H482.535V471.82Z" fill="#FEA79E"/>
<path d="M495.127 471.82H482.535V484.462H495.127V471.82Z" fill="#FEA79E"/>
<path d="M532.901 471.82H520.31V484.462H532.901V471.82Z" fill="#FEA79E"/>
<path d="M532.901 484.462H520.31V497.103H532.901V484.462Z" fill="#FEA79E"/>
<path d="M507.718 471.82H495.127V484.462H507.718V471.82Z" fill="#FEA79E"/>
<path d="M545.493 471.82H532.901V484.462H545.493V471.82Z" fill="#FEA79E"/>
<path d="M545.493 484.462H532.901V497.103H545.493V484.462Z" fill="#FEA79E"/>
<path d="M570.676 484.462H558.085V497.103H570.676V484.462Z" fill="#FEA79E"/>
<path d="M570.676 497.103H558.085V509.744H570.676V497.103Z" fill="#FEA79E"/>
<path d="M520.31 471.82H507.718V484.462H520.31V471.82Z" fill="#FEA79E"/>
<path d="M558.085 471.82H545.493V484.462H558.085V471.82Z" fill="#FEA79E"/>
<path d="M570.676 471.82H558.085V484.462H570.676V471.82Z" fill="#FEA79E"/>
<path d="M558.085 484.462H545.493V497.103H558.085V484.462Z" fill="#FEA79E"/>
<path d="M558.085 497.103H545.493V509.744H558.085V497.103Z" fill="#FEA79E"/>
<path d="M545.493 497.103H532.901V503.423H545.493V497.103Z" fill="#FEA79E"/>
<path d="M545.493 503.423H539.197V509.744H545.493V503.423Z" fill="#FEA79E"/>
<path d="M589.563 490.782H583.268V497.103H589.563V490.782Z" fill="#FEA79E"/>
<path d="M589.563 497.103H583.268V503.423H589.563V497.103Z" fill="#FEA79E"/>
<path d="M532.901 497.103H520.31V503.423H532.901V497.103Z" fill="#FEA79E"/>
<path d="M583.268 484.462H570.676V497.103H583.268V484.462Z" fill="#FEA79E"/>
<path d="M583.268 497.103H570.676V509.744H583.268V497.103Z" fill="#FEA79E"/>
<path d="M469.944 440.218H457.352V446.538H469.944V440.218Z" fill="#FEA79E"/>
<path d="M476.239 440.218H469.944V446.538H476.239V440.218Z" fill="#FEA79E"/>
<path d="M520.31 452.859H507.718V459.179H520.31V452.859Z" fill="#FEA79E"/>
<path d="M558.085 465.5H545.493V471.82H558.085V465.5Z" fill="#FEA79E"/>
<path d="M583.268 478.141H570.676V484.462H583.268V478.141Z" fill="#FEA79E"/>
<path d="M482.535 446.538H469.944V459.179H482.535V446.538Z" fill="#FEA79E"/>
<path d="M495.127 446.538H482.535V459.179H495.127V446.538Z" fill="#FEA79E"/>
<path d="M507.718 446.538H495.127V459.179H507.718V446.538Z" fill="#FEA79E"/>
<path d="M520.31 459.179H507.718V471.82H520.31V459.179Z" fill="#FEA79E"/>
<path d="M532.901 459.179H520.31V471.82H532.901V459.179Z" fill="#FEA79E"/>
<path d="M545.493 459.179H532.901V471.82H545.493V459.179Z" fill="#FEA79E"/>
<path d="M526.606 452.859H520.31V459.179H526.606V452.859Z" fill="#FEA79E"/>
<path d="M469.944 459.179H457.352V471.82H469.944V459.179Z" fill="#FEA79E"/>
<path d="M482.535 484.462H469.944V497.103H482.535V484.462Z" fill="#FEA79E"/>
<path d="M495.127 484.462H482.535V497.103H495.127V484.462Z" fill="#FEA79E"/>
<path d="M507.718 484.462H495.127V497.103H507.718V484.462Z" fill="#FEA79E"/>
<path d="M520.31 484.462H507.718V497.103H520.31V484.462Z" fill="#FEA79E"/>
<path d="M495.127 497.103H482.535V509.744H495.127V497.103Z" fill="#FEA79E"/>
<path d="M495.127 509.744H482.535V522.385H495.127V509.744Z" fill="#FEA79E"/>
<path d="M507.718 509.744H495.127V522.385H507.718V509.744Z" fill="#FEA79E"/>
<path d="M507.718 497.103H495.127V509.744H507.718V497.103Z" fill="#FEA79E"/>
<path d="M520.31 497.103H507.718V509.744H520.31V497.103Z" fill="#FEA79E"/>
<path d="M514.014 509.744H507.718V516.064H514.014V509.744Z" fill="#FEA79E"/>
<path d="M558.085 509.744H551.789V516.064H558.085V509.744Z" fill="#FEA79E"/>
<path d="M501.423 522.385H495.127V528.705H501.423V522.385Z" fill="#FEA79E"/>
<path d="M495.127 522.385H482.535V528.705H495.127V522.385Z" fill="#FEA79E"/>
<path d="M570.676 509.744H558.085V516.064H570.676V509.744Z" fill="#FEA79E"/>
<path d="M583.268 509.744H570.676V516.064H583.268V509.744Z" fill="#FEA79E"/>
<path d="M482.535 459.179H469.944V471.82H482.535V459.179Z" fill="#FEA79E"/>
<path d="M495.127 459.179H482.535V471.82H495.127V459.179Z" fill="#FEA79E"/>
<path d="M507.718 459.179H495.127V471.82H507.718V459.179Z" fill="#FEA79E"/>
<path d="M444.761 459.179H432.169V471.82H444.761V459.179Z" fill="#D4A9BD"/>
<path d="M457.352 459.179H444.761V471.82H457.352V459.179Z" fill="#D4A9BD"/>
<path d="M406.986 459.179H394.394V471.82H406.986V459.179Z" fill="#B3AAD7"/>
<path d="M406.986 471.82H394.394V484.462H406.986V471.82Z" fill="#B3AAD7"/>
<path d="M406.986 484.462H394.394V497.103H406.986V484.462Z" fill="#B3AAD7"/>
<path d="M406.986 497.103H394.394V509.744H406.986V497.103Z" fill="#B3AAD7"/>
<path d="M419.577 471.82H406.986V484.462H419.577V471.82Z" fill="#B3AAD7"/>
<path d="M419.577 484.462H406.986V497.103H419.577V484.462Z" fill="#B3AAD7"/>
<path d="M419.577 497.103H406.986V509.744H419.577V497.103Z" fill="#B3AAD7"/>
<path d="M432.169 509.744H419.577V522.385H432.169V509.744Z" fill="#B3AAD7"/>
<path d="M419.577 509.744H406.986V516.064H419.577V509.744Z" fill="#B3AAD7"/>
<path d="M419.577 459.179H406.986V471.82H419.577V459.179Z" fill="#B3AAD7"/>
<path d="M394.394 459.179H381.803V471.82H394.394V459.179Z" fill="#99ADEB"/>
<path d="M381.803 471.82H375.507V484.462H381.803V471.82Z" fill="#99ADEB"/>
<path d="M394.394 471.82H381.803V484.462H394.394V471.82Z" fill="#99ADEB"/>
<path d="M394.394 484.462H381.803V490.782H394.394V484.462Z" fill="#99ADEB"/>
<path d="M381.803 465.5H375.507V471.82H381.803V465.5Z" fill="#99ADEB"/>
<path d="M394.394 490.782H388.099V497.103H394.394V490.782Z" fill="#99ADEB"/>
<path d="M306.254 219H293.662V225.321H306.254V219Z" fill="#6867A0"/>
<path d="M293.662 219H281.07V231.641H293.662V219Z" fill="#6867A0"/>
<path d="M281.07 231.641H268.479V237.962H281.07V231.641Z" fill="#6867A0"/>
<path d="M318.845 219H306.254V225.321H318.845V219Z" fill="#6867A0"/>
<path d="M331.437 225.321H318.845V231.641H331.437V225.321Z" fill="#6867A0"/>
<path d="M344.028 231.641H331.437V237.962H344.028V231.641Z" fill="#6867A0"/>
<path d="M350.324 231.641H344.028V244.282H350.324V231.641Z" fill="#6867A0"/>
<path d="M356.62 244.282H350.324V256.923H356.62V244.282Z" fill="#6867A0"/>
<path d="M274.775 256.923H268.479V269.564H274.775V256.923Z" fill="#6867A0"/>
<path d="M268.479 250.603H255.887V256.923H268.479V250.603Z" fill="#6867A0"/>
<path d="M268.479 256.923H255.887V263.244H268.479V256.923Z" fill="#6867A0"/>
<path d="M268.479 269.564H255.887V275.885H268.479V269.564Z" fill="#6867A0"/>
<path d="M356.62 256.923H350.324V269.564H356.62V256.923Z" fill="#6867A0"/>
<path d="M350.324 275.885H344.028V288.526H350.324V275.885Z" fill="#6867A0"/>
<path d="M350.324 288.526H344.028V301.167H350.324V288.526Z" fill="#6867A0"/>
<path d="M350.324 326.449H344.028V339.09H350.324V326.449Z" fill="#6867A0"/>
<path d="M350.324 389.654H344.028V402.295H350.324V389.654Z" fill="#6867A0"/>
<path d="M350.324 301.167H344.028V313.808H350.324V301.167Z" fill="#6867A0"/>
<path d="M350.324 364.372H344.028V377.013H350.324V364.372Z" fill="#6867A0"/>
<path d="M350.324 339.09H344.028V351.731H350.324V339.09Z" fill="#6867A0"/>
<path d="M350.324 402.295H344.028V414.936H350.324V402.295Z" fill="#6867A0"/>
<path d="M356.62 421.256H350.324V433.897H356.62V421.256Z" fill="#6867A0"/>
<path d="M350.324 414.936H344.028V421.256H350.324V414.936Z" fill="#6867A0"/>
<path d="M350.324 313.808H344.028V326.449H350.324V313.808Z" fill="#6867A0"/>
<path d="M350.324 377.013H344.028V389.654H350.324V377.013Z" fill="#6867A0"/>
<path d="M350.324 351.731H344.028V364.372H350.324V351.731Z" fill="#6867A0"/>
<path d="M337.732 225.321H331.437V231.641H337.732V225.321Z" fill="#6867A0"/>
<path d="M281.07 225.321H274.775V231.641H281.07V225.321Z" fill="#6867A0"/>
<path d="M268.479 237.962H262.183V244.282H268.479V237.962Z" fill="#6867A0"/>
<path d="M268.479 244.282H262.183V250.603H268.479V244.282Z" fill="#6867A0"/>
<path d="M255.887 256.923H249.592V263.244H255.887V256.923Z" fill="#6867A0"/>
<path d="M249.592 256.923H243.296V263.244H249.592V256.923Z" fill="#6867A0"/>
<path d="M325.141 219H318.845V225.321H325.141V219Z" fill="#6867A0"/>
<path d="M299.958 237.962H293.662V244.282H299.958V237.962Z" fill="#000301"/>
<path d="M299.958 244.282H293.662V250.603H299.958V244.282Z" fill="#000301"/>
<path d="M306.254 237.962H299.958V244.282H306.254V237.962Z" fill="#FDF9F5"/>
<path d="M299.958 231.641H293.662V237.962H299.958V231.641Z" fill="#FDF9F5"/>
<path d="M293.662 231.641H287.366V237.962H293.662V231.641Z" fill="#3E426F"/>
<path d="M306.254 244.282H299.958V250.603H306.254V244.282Z" fill="#FDF9F5"/>
<path d="M312.549 269.564H306.254V275.885H312.549V269.564Z" fill="#FDF9F5"/>
<path d="M318.845 269.564H312.549V275.885H318.845V269.564Z" fill="#FDF9F5"/>
<path d="M318.845 275.885H312.549V282.205H318.845V275.885Z" fill="#FDF9F5"/>
<path d="M318.845 282.205H312.549V288.526H318.845V282.205Z" fill="#FDF9F5"/>
<path d="M325.141 282.205H318.845V288.526H325.141V282.205Z" fill="#FDF9F5"/>
<path d="M325.141 288.526H318.845V294.846H325.141V288.526Z" fill="#FDF9F5"/>
<path d="M331.437 282.205H325.141V288.526H331.437V282.205Z" fill="#FDF9F5"/>
<path d="M318.845 282.205H312.549V288.526H318.845V282.205Z" fill="#FDF9F5"/>
<path d="M344.028 269.564H337.732V275.885H344.028V269.564Z" fill="#FDF9F5"/>
<path d="M337.732 256.923H325.141V269.564H337.732V256.923Z" fill="#FDF9F5"/>
<path d="M331.437 269.564H318.845V282.205H331.437V269.564Z" fill="#FDF9F5"/>
<path d="M325.141 263.244H318.845V269.564H325.141V263.244Z" fill="#FDF9F5"/>
<path d="M337.732 275.885H331.437V282.205H337.732V275.885Z" fill="#FDF9F5"/>
<path d="M344.028 263.244H337.732V269.564H344.028V263.244Z" fill="#FDF9F5"/>
<path d="M337.732 269.564H331.437V275.885H337.732V269.564Z" fill="#FDF9F5"/>
<path d="M299.958 250.603H293.662V256.923H299.958V250.603Z" fill="#FDF9F5"/>
<path d="M293.662 250.603H287.366V256.923H293.662V250.603Z" fill="#FDF9F5"/>
<path d="M293.662 237.962H287.366V244.282H293.662V237.962Z" fill="black"/>
<path d="M293.662 244.282H287.366V250.603H293.662V244.282Z" fill="#FDF9F5"/>
<path d="M306.254 275.885H299.958V282.205H306.254V275.885Z" fill="#C4BFC0"/>
<path d="M312.549 275.885H306.254V282.205H312.549V275.885Z" fill="#C4BFC0"/>
<path d="M312.549 282.205H306.254V288.526H312.549V282.205Z" fill="#C4BFC0"/>
<path d="M318.845 288.526H312.549V294.846H318.845V288.526Z" fill="#C4BFC0"/>
<path d="M312.549 288.526H306.254V294.846H312.549V288.526Z" fill="#C4BFC0"/>
<path d="M318.845 446.538H306.254V459.179H318.845V446.538Z" fill="#F4E2D0"/>
<path d="M318.845 459.179H306.254V471.82H318.845V459.179Z" fill="#F4E2D0"/>
<path d="M318.845 471.82H306.254V484.462H318.845V471.82Z" fill="#F4E2D0"/>
<path d="M318.845 484.462H306.254V497.103H318.845V484.462Z" fill="#F4E2D0"/>
<path d="M318.845 497.103H306.254V509.744H318.845V497.103Z" fill="#F4E2D0"/>
<path d="M318.845 509.744H312.549V522.385H318.845V509.744Z" fill="#F4E2D0"/>
<path d="M318.845 522.385H312.549V535.026H318.845V522.385Z" fill="#F4E2D0"/>
<path d="M331.437 560.308H325.141V566.628H331.437V560.308Z" fill="#F4E2D0"/>
<path d="M344.028 579.269H337.732V585.59H344.028V579.269Z" fill="#F4E2D0"/>
<path d="M394.394 604.551H388.099V610.872H394.394V604.551Z" fill="#F4E2D0"/>
<path d="M488.831 591.91H482.535V598.231H488.831V591.91Z" fill="#F9EED8"/>
<path d="M438.465 610.872H432.169V617.192H438.465V610.872Z" fill="#F9EED8"/>
<path d="M501.423 585.59H495.127V591.91H501.423V585.59Z" fill="#F9EED8"/>
<path d="M419.577 610.872H413.282V617.192H419.577V610.872Z" fill="#F9EED8"/>
<path d="M356.62 585.59H350.324V591.91H356.62V585.59Z" fill="#F4E2D0"/>
<path d="M381.803 598.231H375.507V604.551H381.803V598.231Z" fill="#F4E2D0"/>
<path d="M337.732 522.385H331.437V535.026H337.732V522.385Z" fill="#F4E2D0"/>
<path d="M337.732 535.026H331.437V547.667H337.732V535.026Z" fill="#F4E2D0"/>
<path d="M337.732 509.744H331.437V522.385H337.732V509.744Z" fill="#F4E2D0"/>
<path d="M331.437 497.103H318.845V509.744H331.437V497.103Z" fill="#F4E2D0"/>
<path d="M331.437 509.744H318.845V522.385H331.437V509.744Z" fill="#F4E2D0"/>
<path d="M331.437 522.385H318.845V535.026H331.437V522.385Z" fill="#F4E2D0"/>
<path d="M331.437 535.026H318.845V547.667H331.437V535.026Z" fill="#F4E2D0"/>
<path d="M331.437 547.667H318.845V560.308H331.437V547.667Z" fill="#F4E2D0"/>
<path d="M344.028 547.667H331.437V560.308H344.028V547.667Z" fill="#F4E2D0"/>
<path d="M356.62 547.667H344.028V560.308H356.62V547.667Z" fill="#F4E2D0"/>
<path d="M344.028 560.308H331.437V572.949H344.028V560.308Z" fill="#F4E2D0"/>
<path d="M356.62 572.949H344.028V585.59H356.62V572.949Z" fill="#F4E2D0"/>
<path d="M369.211 572.949H356.62V585.59H369.211V572.949Z" fill="#F4E2D0"/>
<path d="M369.211 585.59H356.62V598.231H369.211V585.59Z" fill="#F4E2D0"/>
<path d="M381.803 572.949H369.211V585.59H381.803V572.949Z" fill="#F4E2D0"/>
<path d="M381.803 585.59H369.211V598.231H381.803V585.59Z" fill="#F4E2D0"/>
<path d="M394.394 585.59H381.803V598.231H394.394V585.59Z" fill="#F4E2D0"/>
<path d="M406.986 598.231H394.394V610.872H406.986V598.231Z" fill="#F4E2D0"/>
<path d="M356.62 560.308H344.028V572.949H356.62V560.308Z" fill="#F4E2D0"/>
<path d="M369.211 560.308H356.62V572.949H369.211V560.308Z" fill="#F4E2D0"/>
<path d="M344.028 572.949H331.437V579.269H344.028V572.949Z" fill="#F4E2D0"/>
<path d="M394.394 598.231H381.803V604.551H394.394V598.231Z" fill="#F4E2D0"/>
<path d="M495.127 585.59H482.535V591.91H495.127V585.59Z" fill="#F9EED8"/>
<path d="M469.944 598.231H457.352V604.551H469.944V598.231Z" fill="#F9EED8"/>
<path d="M432.169 610.872H419.577V617.192H432.169V610.872Z" fill="#F9EED8"/>
<path d="M325.141 484.462H318.845V497.103H325.141V484.462Z" fill="#F4E2D0"/>
<path d="M312.549 433.897H306.254V446.538H312.549V433.897Z" fill="#F4E2D0"/>
<path d="M318.845 440.218H312.549V446.538H318.845V440.218Z" fill="#F4E2D0"/>
<path d="M268.479 269.564H255.887V275.885H268.479V269.564Z" fill="#3E426F"/>
<path d="M293.662 244.282H287.366V250.603H293.662V244.282Z" fill="#000301"/>
<path d="M406.852 328.019C407.014 326.66 408.986 326.66 409.148 328.019L410.5 339.421C412.247 354.145 423.855 365.753 438.578 367.5L449.981 368.852C451.34 369.014 451.34 370.986 449.981 371.148L438.578 372.5C423.855 374.247 412.247 385.855 410.5 400.578L409.148 411.981C408.986 413.34 407.014 413.34 406.852 411.981L405.5 400.578C403.753 385.855 392.145 374.247 377.421 372.5L366.019 371.148C364.66 370.986 364.66 369.014 366.019 368.852L377.421 367.5C392.145 365.753 403.753 354.145 405.5 339.421L406.852 328.019Z" fill="#FC6D83"/>
<path d="M210.494 729.031C213.048 731.624 216.251 733.204 219.599 733.763C224.638 734.604 229.996 733.129 233.92 729.331C233.93 729.324 233.941 729.315 233.951 729.307C233.96 729.298 233.969 729.289 233.978 729.28L233.992 729.266C234.002 729.257 234.011 729.247 234.02 729.238L247.942 715.567L256.671 733.019C256.679 733.037 256.688 733.052 256.697 733.069C256.701 733.076 256.705 733.084 256.709 733.092C260.832 741.243 270.815 744.553 278.996 740.471C287.184 736.391 290.527 726.417 286.479 718.221L286.471 718.2C286.464 718.183 286.458 718.171 286.448 718.156L277.745 700.7L297.049 697.8C306.117 696.438 312.392 687.949 311.028 678.885C309.665 669.821 301.179 663.548 292.105 664.9L272.806 667.776L276.011 648.521C277.511 639.48 271.377 630.893 262.333 629.383C253.289 627.874 244.7 634.004 243.182 643.051L239.955 662.285L222.635 653.298C222.628 653.297 222.619 653.294 222.611 653.29C222.6 653.285 222.589 653.279 222.58 653.272C214.448 649.082 204.418 652.265 200.196 660.38C195.973 668.495 199.125 678.524 207.214 682.774C207.221 682.778 207.228 682.782 207.234 682.786L207.262 682.803L207.275 682.81L224.583 691.82L210.683 705.504C210.678 705.512 210.671 705.519 210.663 705.526C210.655 705.533 210.648 705.54 210.643 705.548C204.144 711.984 204.074 722.513 210.494 729.031Z" fill="#7676E8"/>
<path d="M521.707 169.23C525.175 170.334 528.746 170.238 531.968 169.172C536.819 167.567 540.871 163.764 542.572 158.576C542.578 158.564 542.583 158.552 542.588 158.539C542.592 158.527 542.596 158.515 542.6 158.503L542.606 158.484C542.61 158.471 542.613 158.459 542.617 158.447L548.561 139.861L564.419 151.232C564.435 151.245 564.45 151.254 564.465 151.264C564.472 151.269 564.479 151.274 564.487 151.279C571.934 156.568 582.309 154.843 587.644 147.418C592.986 139.991 591.294 129.609 583.892 124.245L583.875 124.231C583.861 124.219 583.85 124.21 583.834 124.203L567.998 112.816L583.724 101.252C591.111 95.8198 592.706 85.3842 587.274 78.0005C581.842 70.6172 571.411 69.0232 564.013 74.4499L548.28 85.9904L542.139 67.4617C539.252 58.7634 529.822 54.0257 521.118 56.9064C512.413 59.787 507.671 69.2142 510.545 77.9258L516.657 96.4466L497.145 96.5698C497.138 96.5721 497.129 96.5733 497.12 96.5738C497.108 96.5745 497.095 96.5738 497.084 96.5723C487.936 96.6562 480.547 104.148 480.594 113.296C480.642 122.443 488.105 129.846 497.242 129.836C497.251 129.836 497.258 129.836 497.266 129.837L497.299 129.838L497.313 129.839L516.825 129.741L510.907 148.327C510.906 148.337 510.903 148.346 510.9 148.356C510.896 148.366 510.893 148.376 510.892 148.385C508.143 157.109 512.989 166.456 521.707 169.23Z" fill="#FC6D83"/>
<path d="M632.275 482.821C635.22 484.959 638.64 485.99 642.035 485.99C647.143 485.99 652.185 483.653 655.43 479.262C655.44 479.252 655.448 479.243 655.457 479.232C655.465 479.222 655.472 479.212 655.48 479.201L655.491 479.185C655.499 479.175 655.506 479.164 655.513 479.154L666.996 463.377L678.478 479.154C678.489 479.171 678.501 479.184 678.512 479.199C678.518 479.205 678.522 479.212 678.528 479.22C683.936 486.581 694.328 488.202 701.725 482.83C709.13 477.457 710.786 467.069 705.444 459.651L705.432 459.632C705.423 459.617 705.415 459.605 705.402 459.593L693.945 443.807L712.508 437.769C721.228 434.933 726.02 425.527 723.183 416.81C720.346 408.095 710.944 403.304 702.216 406.132L683.653 412.145L683.645 392.625C683.636 383.46 676.173 376 667.004 376C657.835 376 650.372 383.46 650.363 392.634L650.347 412.137L631.784 406.124C631.777 406.124 631.768 406.122 631.759 406.119C631.747 406.116 631.735 406.112 631.726 406.107C623.014 403.312 613.645 408.103 610.817 416.803C607.988 425.502 612.747 434.875 621.425 437.736C621.433 437.738 621.44 437.741 621.447 437.744L621.478 437.756L621.492 437.761L640.046 443.799L628.589 459.584C628.585 459.593 628.578 459.601 628.572 459.609C628.566 459.618 628.56 459.626 628.556 459.634C623.206 467.053 624.87 477.449 632.275 482.821Z" fill="#86E9DA"/>
<path d="M345.799 776.067C345.968 774.644 348.032 774.644 348.201 776.067L349.617 787.999C351.445 803.407 363.593 815.555 379.001 817.383L390.933 818.799C392.356 818.968 392.356 821.032 390.933 821.201L379.001 822.617C363.593 824.445 351.445 836.593 349.617 852.001L348.201 863.933C348.032 865.356 345.968 865.356 345.799 863.933L344.383 852.001C342.555 836.593 330.407 824.445 314.999 822.617L303.067 821.201C301.644 821.032 301.644 818.968 303.067 818.799L314.999 817.383C330.407 815.555 342.555 803.407 344.383 787.999L345.799 776.067Z" fill="#86E9DA"/>
</svg>
