<svg width="447" height="493" viewBox="0 0 447 493" fill="none" xmlns="http://www.w3.org/2000/svg">
<path d="M81.8451 12.641H69.2535V25.282H81.8451V12.641Z" fill="#3E426F"/>
<path d="M81.8451 6.32051H69.2535V12.641H81.8451V6.32051Z" fill="#3E426F"/>
<path d="M69.2535 6.32051H56.662V12.641H69.2535V6.32051Z" fill="#3E426F"/>
<path d="M31.4789 44.2436H18.8873V50.5641H31.4789V44.2436Z" fill="#3E426F"/>
<path d="M56.662 50.5641H44.0704V56.8846H56.662V50.5641Z" fill="#3E426F"/>
<path d="M18.8873 44.2436H6.29578V50.5641H18.8873V44.2436Z" fill="#3E426F"/>
<path d="M18.8873 50.5641H6.29578V56.8846H18.8873V50.5641Z" fill="#3E426F"/>
<path d="M31.4789 50.5641H18.8873V56.8846H31.4789V50.5641Z" fill="#3E426F"/>
<path d="M69.2535 50.5641H56.662V56.8846H69.2535V50.5641Z" fill="#3E426F"/>
<path d="M6.29578 44.2436H0V50.5641H6.29578V44.2436Z" fill="#3E426F"/>
<path d="M56.662 56.8846H50.3662V63.2051H56.662V56.8846Z" fill="#3E426F"/>
<path d="M62.9578 56.8846H56.662V63.2051H62.9578V56.8846Z" fill="#3E426F"/>
<path d="M37.7746 50.5641H31.4789V56.8846H37.7746V50.5641Z" fill="#6867A0"/>
<path d="M44.0704 50.5641H37.7746V56.8846H44.0704V50.5641Z" fill="#6867A0"/>
<path d="M50.3662 31.6026H44.0704V37.9231H50.3662V31.6026Z" fill="#3E426F"/>
<path d="M50.3662 18.9615H44.0704V25.282H50.3662V18.9615Z" fill="#3E426F"/>
<path d="M69.2535 12.641H62.9578V18.9615H69.2535V12.641Z" fill="#3E426F"/>
<path d="M50.3662 12.641H44.0704V18.9615H50.3662V12.641Z" fill="#3E426F"/>
<path d="M69.2535 31.6026H62.9578V37.9231H69.2535V31.6026Z" fill="#3E426F"/>
<path d="M50.3662 25.282H44.0704V31.6026H50.3662V25.282Z" fill="#3E426F"/>
<path d="M88.1408 37.9231H81.8451V44.2436H88.1408V37.9231Z" fill="#3E426F"/>
<path d="M107.028 37.9231H100.732V44.2436H107.028V37.9231Z" fill="#3E426F"/>
<path d="M113.324 50.5641H107.028V56.8846H113.324V50.5641Z" fill="#3E426F"/>
<path d="M107.028 56.8846H100.732V63.2051H107.028V56.8846Z" fill="#3E426F"/>
<path d="M94.4366 69.5256H88.1408V75.8461H94.4366V69.5256Z" fill="#3E426F"/>
<path d="M107.028 63.2051H94.4366V75.8461H107.028V63.2051Z" fill="#3E426F"/>
<path d="M81.8451 75.8461H69.2535V88.4872H81.8451V75.8461Z" fill="#3E426F"/>
<path d="M81.8451 113.769H69.2535V126.41H81.8451V113.769Z" fill="#3E426F"/>
<path d="M81.8451 164.333H69.2535V176.974H81.8451V164.333Z" fill="#3E426F"/>
<path d="M94.4366 75.8461H81.8451V88.4872H94.4366V75.8461Z" fill="#3E426F"/>
<path d="M94.4366 113.769H81.8451V126.41H94.4366V113.769Z" fill="#3E426F"/>
<path d="M94.4366 164.333H81.8451V176.974H94.4366V164.333Z" fill="#3E426F"/>
<path d="M107.028 75.8461H94.4366V88.4872H107.028V75.8461Z" fill="#3E426F"/>
<path d="M107.028 113.769H94.4366V126.41H107.028V113.769Z" fill="#3E426F"/>
<path d="M107.028 164.333H94.4366V176.974H107.028V164.333Z" fill="#3E426F"/>
<path d="M371.451 278.103H358.859V290.744H371.451V278.103Z" fill="#3E426F"/>
<path d="M295.901 278.103H283.31V290.744H295.901V278.103Z" fill="#3E426F"/>
<path d="M258.127 303.385H245.535V316.026H258.127V303.385Z" fill="#3E426F"/>
<path d="M270.718 303.385H258.127V316.026H270.718V303.385Z" fill="#3E426F"/>
<path d="M295.901 316.026H289.606V328.667H295.901V316.026Z" fill="#6867A0"/>
<path d="M283.31 303.385H270.718V316.026H283.31V303.385Z" fill="#3E426F"/>
<path d="M295.901 303.385H283.31V316.026H295.901V303.385Z" fill="#3E426F"/>
<path d="M308.493 303.385H295.901V316.026H308.493V303.385Z" fill="#3E426F"/>
<path d="M308.493 316.026H295.901V328.667H308.493V316.026Z" fill="#6867A0"/>
<path d="M308.493 328.667H295.901V341.308H308.493V328.667Z" fill="#6867A0"/>
<path d="M308.493 341.308H295.901V353.949H308.493V341.308Z" fill="#6867A0"/>
<path d="M308.493 341.308H295.901V353.949H308.493V341.308Z" fill="#6867A0"/>
<path d="M295.901 341.308H283.31V353.949H295.901V341.308Z" fill="#6867A0"/>
<path d="M295.901 347.628H283.31V360.269H295.901V347.628Z" fill="#6867A0"/>
<path d="M302.197 347.628H289.606V360.269H302.197V347.628Z" fill="#6867A0"/>
<path d="M283.31 353.949H270.718V366.59H283.31V353.949Z" fill="#6867A0"/>
<path d="M314.789 341.308H302.197V353.949H314.789V341.308Z" fill="#6867A0"/>
<path d="M195.169 404.513H182.577V417.154H195.169V404.513Z" fill="#6867A0"/>
<path d="M195.169 417.154H182.577V429.795H195.169V417.154Z" fill="#6867A0"/>
<path d="M182.577 467.718H169.986V480.359H182.577V467.718Z" fill="#6867A0"/>
<path d="M157.394 467.718H169.986V480.359H157.394V467.718Z" fill="#6867A0"/>
<path d="M144.803 467.718H157.394V480.359H144.803V467.718Z" fill="#6867A0"/>
<path d="M144.803 480.359H157.394V486.679H144.803V480.359Z" fill="#6867A0"/>
<path d="M132.211 467.718H144.803V474.038H132.211V467.718Z" fill="#6867A0"/>
<path d="M132.211 474.038H144.803V480.359H132.211V474.038Z" fill="#6867A0"/>
<path d="M163.69 461.397H176.282V467.718H163.69V461.397Z" fill="#6867A0"/>
<path d="M125.915 467.718H132.211V474.038H125.915V467.718Z" fill="#6867A0"/>
<path d="M188.873 467.718H195.169V474.038H188.873V467.718Z" fill="#6867A0"/>
<path d="M195.169 467.718H201.465V474.038H195.169V467.718Z" fill="#6867A0"/>
<path d="M144.803 486.679H151.099V493H144.803V486.679Z" fill="#6867A0"/>
<path d="M157.394 480.359H163.69V486.679H157.394V480.359Z" fill="#6867A0"/>
<path d="M188.873 429.795H182.577V442.436H188.873V429.795Z" fill="#6867A0"/>
<path d="M188.873 442.436H182.577V455.077H188.873V442.436Z" fill="#6867A0"/>
<path d="M188.873 455.077H182.577V467.718H188.873V455.077Z" fill="#6867A0"/>
<path d="M188.873 467.718H182.577V480.359H188.873V467.718Z" fill="#6867A0"/>
<path d="M195.169 455.077H188.873V467.718H195.169V455.077Z" fill="#6867A0"/>
<path d="M182.577 442.436H176.282V455.077H182.577V442.436Z" fill="#6867A0"/>
<path d="M182.577 455.077H176.282V467.718H182.577V455.077Z" fill="#6867A0"/>
<path d="M195.169 391.872H182.577V404.513H195.169V391.872Z" fill="#6867A0"/>
<path d="M333.676 334.987H321.085V347.628H333.676V334.987Z" fill="#6867A0"/>
<path d="M321.085 341.308H308.493V347.628H321.085V341.308Z" fill="#6867A0"/>
<path d="M321.085 316.026H308.493V328.667H321.085V316.026Z" fill="#6867A0"/>
<path d="M321.085 328.667H308.493V341.308H321.085V328.667Z" fill="#6867A0"/>
<path d="M333.676 316.026H321.085V328.667H333.676V316.026Z" fill="#6867A0"/>
<path d="M333.676 328.667H321.085V341.308H333.676V328.667Z" fill="#6867A0"/>
<path d="M346.268 316.026H333.676V328.667H346.268V316.026Z" fill="#6867A0"/>
<path d="M346.268 328.667H333.676V341.308H346.268V328.667Z" fill="#6867A0"/>
<path d="M358.859 316.026H346.268V328.667H358.859V316.026Z" fill="#6867A0"/>
<path d="M358.859 328.667H346.268V341.308H358.859V328.667Z" fill="#6867A0"/>
<path d="M358.859 303.385H346.268V316.026H358.859V303.385Z" fill="#6867A0"/>
<path d="M371.451 316.026H358.859V328.667H371.451V316.026Z" fill="#6867A0"/>
<path d="M371.451 328.667H358.859V341.308H371.451V328.667Z" fill="#6867A0"/>
<path d="M384.042 328.667H371.451V341.308H384.042V328.667Z" fill="#6867A0"/>
<path d="M371.451 303.385H358.859V316.026H371.451V303.385Z" fill="#6867A0"/>
<path d="M384.042 316.026H371.451V328.667H384.042V316.026Z" fill="#6867A0"/>
<path d="M321.085 303.385H308.493V316.026H321.085V303.385Z" fill="#3E426F"/>
<path d="M333.676 303.385H321.085V316.026H333.676V303.385Z" fill="#3E426F"/>
<path d="M346.268 303.385H333.676V316.026H346.268V303.385Z" fill="#3E426F"/>
<path d="M358.859 303.385H346.268V309.705H358.859V303.385Z" fill="#3E426F"/>
<path d="M371.451 303.385H358.859V309.705H371.451V303.385Z" fill="#3E426F"/>
<path d="M390.338 290.744H384.042V297.064H390.338V290.744Z" fill="#3E426F"/>
<path d="M396.634 328.667H390.338V334.987H396.634V328.667Z" fill="#3E426F"/>
<path d="M402.93 334.987H396.634V341.308H402.93V334.987Z" fill="#3E426F"/>
<path d="M409.225 341.308H402.93V347.628H409.225V341.308Z" fill="#3E426F"/>
<path d="M415.521 341.308H409.225V347.628H415.521V341.308Z" fill="#3E426F"/>
<path d="M415.521 353.949H409.225V360.269H415.521V353.949Z" fill="#3E426F"/>
<path d="M402.93 347.628H396.634V353.949H402.93V347.628Z" fill="#3E426F"/>
<path d="M428.113 360.269H421.817V366.59H428.113V360.269Z" fill="#3E426F"/>
<path d="M447 360.269H440.704V366.59H447V360.269Z" fill="#3E426F"/>
<path d="M409.225 334.987H402.93V341.308H409.225V334.987Z" fill="#3E426F"/>
<path d="M390.338 297.064H384.042V303.385H390.338V297.064Z" fill="#3E426F"/>
<path d="M396.634 334.987H390.338V341.308H396.634V334.987Z" fill="#3E426F"/>
<path d="M402.93 341.308H396.634V347.628H402.93V341.308Z" fill="#3E426F"/>
<path d="M396.634 341.308H390.338V347.628H396.634V341.308Z" fill="#3E426F"/>
<path d="M409.225 347.628H402.93V353.949H409.225V347.628Z" fill="#3E426F"/>
<path d="M415.521 347.628H409.225V353.949H415.521V347.628Z" fill="#3E426F"/>
<path d="M390.338 322.346H384.042V328.667H390.338V322.346Z" fill="#3E426F"/>
<path d="M390.338 328.667H384.042V334.987H390.338V328.667Z" fill="#3E426F"/>
<path d="M390.338 334.987H384.042V341.308H390.338V334.987Z" fill="#6867A0"/>
<path d="M295.901 290.744H283.31V303.385H295.901V290.744Z" fill="#3E426F"/>
<path d="M308.493 290.744H295.901V303.385H308.493V290.744Z" fill="#3E426F"/>
<path d="M321.085 290.744H308.493V303.385H321.085V290.744Z" fill="#3E426F"/>
<path d="M333.676 290.744H321.085V303.385H333.676V290.744Z" fill="#3E426F"/>
<path d="M346.268 290.744H333.676V303.385H346.268V290.744Z" fill="#3E426F"/>
<path d="M358.859 290.744H346.268V303.385H358.859V290.744Z" fill="#3E426F"/>
<path d="M371.451 290.744H358.859V303.385H371.451V290.744Z" fill="#3E426F"/>
<path d="M384.042 290.744H371.451V303.385H384.042V290.744Z" fill="#3E426F"/>
<path d="M283.31 290.744H270.718V303.385H283.31V290.744Z" fill="#3E426F"/>
<path d="M377.746 278.103H371.451V290.744H377.746V278.103Z" fill="#3E426F"/>
<path d="M421.817 347.628H415.521V360.269H421.817V347.628Z" fill="#3E426F"/>
<path d="M428.113 347.628H421.817V360.269H428.113V347.628Z" fill="#3E426F"/>
<path d="M434.408 353.949H428.113V366.59H434.408V353.949Z" fill="#3E426F"/>
<path d="M440.704 353.949H434.408V366.59H440.704V353.949Z" fill="#3E426F"/>
<path d="M358.859 278.103H346.268V290.744H358.859V278.103Z" fill="#3E426F"/>
<path d="M358.859 265.462H346.268V278.103H358.859V265.462Z" fill="#3E426F"/>
<path d="M365.155 271.782H358.859V278.103H365.155V271.782Z" fill="#3E426F"/>
<path d="M302.197 284.423H295.901V290.744H302.197V284.423Z" fill="#3E426F"/>
<path d="M384.042 284.423H377.746V290.744H384.042V284.423Z" fill="#3E426F"/>
<path d="M107.028 88.4872H94.4366V101.128H107.028V88.4872Z" fill="#3E426F"/>
<path d="M107.028 126.41H94.4366V139.051H107.028V126.41Z" fill="#3E426F"/>
<path d="M107.028 176.974H94.4366V189.615H107.028V176.974Z" fill="#3E426F"/>
<path d="M107.028 101.128H94.4366V113.769H107.028V101.128Z" fill="#3E426F"/>
<path d="M107.028 151.692H94.4366V164.333H107.028V151.692Z" fill="#3E426F"/>
<path d="M107.028 139.051H94.4366V151.692H107.028V139.051Z" fill="#3E426F"/>
<path d="M107.028 189.615H94.4366V202.256H107.028V189.615Z" fill="#3E426F"/>
<path d="M113.324 202.256H107.028V214.897H113.324V202.256Z" fill="#3E426F"/>
<path d="M113.324 214.897H107.028V227.538H113.324V214.897Z" fill="#3E426F"/>
<path d="M107.028 202.256H94.4366V214.897H107.028V202.256Z" fill="#3E426F"/>
<path d="M107.028 214.897H94.4366V227.538H107.028V214.897Z" fill="#3E426F"/>
<path d="M119.62 227.538H107.028V240.179H119.62V227.538Z" fill="#3E426F"/>
<path d="M94.4366 88.4872H81.8451V101.128H94.4366V88.4872Z" fill="#3E426F"/>
<path d="M94.4366 126.41H81.8451V139.051H94.4366V126.41Z" fill="#3E426F"/>
<path d="M94.4366 176.974H81.8451V189.615H94.4366V176.974Z" fill="#3E426F"/>
<path d="M94.4366 101.128H81.8451V113.769H94.4366V101.128Z" fill="#3E426F"/>
<path d="M94.4366 151.692H81.8451V164.333H94.4366V151.692Z" fill="#3E426F"/>
<path d="M94.4366 139.051H81.8451V151.692H94.4366V139.051Z" fill="#3E426F"/>
<path d="M94.4366 189.615H81.8451V202.256H94.4366V189.615Z" fill="#3E426F"/>
<path d="M94.4366 202.256H81.8451V214.897H94.4366V202.256Z" fill="#3E426F"/>
<path d="M94.4366 214.897H81.8451V227.538H94.4366V214.897Z" fill="#3E426F"/>
<path d="M94.4366 227.538H81.8451V233.859H94.4366V227.538Z" fill="#3E426F"/>
<path d="M107.028 227.538H94.4366V233.859H107.028V227.538Z" fill="#3E426F"/>
<path d="M81.8451 214.897H75.5493V221.218H81.8451V214.897Z" fill="#3E426F"/>
<path d="M163.69 474.038H157.394V480.359H163.69V474.038Z" fill="#3E426F"/>
<path d="M169.986 474.038H163.69V480.359H169.986V474.038Z" fill="#3E426F"/>
<path d="M176.282 474.038H169.986V480.359H176.282V474.038Z" fill="#3E426F"/>
<path d="M182.577 474.038H176.282V480.359H182.577V474.038Z" fill="#3E426F"/>
<path d="M188.873 474.038H182.577V480.359H188.873V474.038Z" fill="#3E426F"/>
<path d="M188.873 448.756H182.577V455.077H188.873V448.756Z" fill="#3E426F"/>
<path d="M188.873 455.077H182.577V461.397H188.873V455.077Z" fill="#3E426F"/>
<path d="M195.169 455.077H188.873V461.397H195.169V455.077Z" fill="#3E426F"/>
<path d="M163.69 480.359H157.394V486.679H163.69V480.359Z" fill="#3E426F"/>
<path d="M157.394 480.359H151.099V486.679H157.394V480.359Z" fill="#3E426F"/>
<path d="M151.099 486.679H144.803V493H151.099V486.679Z" fill="#3E426F"/>
<path d="M119.62 221.218H113.324V227.538H119.62V221.218Z" fill="#3E426F"/>
<path d="M125.915 233.859H119.62V240.179H125.915V233.859Z" fill="#3E426F"/>
<path d="M107.028 233.859H100.732V240.179H107.028V233.859Z" fill="#3E426F"/>
<path d="M119.62 214.897H113.324V221.218H119.62V214.897Z" fill="#6867A0"/>
<path d="M125.915 221.218H119.62V227.538H125.915V221.218Z" fill="#6867A0"/>
<path d="M125.915 227.538H119.62V233.859H125.915V227.538Z" fill="#6867A0"/>
<path d="M132.211 233.859H125.915V240.179H132.211V233.859Z" fill="#6867A0"/>
<path d="M81.8451 88.4872H69.2535V101.128H81.8451V88.4872Z" fill="#3E426F"/>
<path d="M81.8451 126.41H69.2535V139.051H81.8451V126.41Z" fill="#3E426F"/>
<path d="M81.8451 176.974H69.2535V189.615H81.8451V176.974Z" fill="#3E426F"/>
<path d="M81.8451 101.128H69.2535V113.769H81.8451V101.128Z" fill="#3E426F"/>
<path d="M81.8451 151.692H69.2535V164.333H81.8451V151.692Z" fill="#3E426F"/>
<path d="M81.8451 139.051H69.2535V151.692H81.8451V139.051Z" fill="#3E426F"/>
<path d="M81.8451 189.615H69.2535V202.256H81.8451V189.615Z" fill="#3E426F"/>
<path d="M81.8451 202.256H69.2535V214.897H81.8451V202.256Z" fill="#3E426F"/>
<path d="M31.4789 37.9231H18.8873V44.2436H31.4789V37.9231Z" fill="#3E426F"/>
<path d="M107.028 18.9615H94.4366V25.282H107.028V18.9615Z" fill="#3E426F"/>
<path d="M94.4366 25.282H81.8451V37.9231H94.4366V25.282Z" fill="#3E426F"/>
<path d="M81.8451 25.282H69.2535V37.9231H81.8451V25.282Z" fill="#3E426F"/>
<path d="M81.8451 37.9231H69.2535V50.5641H81.8451V37.9231Z" fill="#3E426F"/>
<path d="M69.2535 37.9231H56.662V50.5641H69.2535V37.9231Z" fill="#3E426F"/>
<path d="M56.662 37.9231H44.0704V50.5641H56.662V37.9231Z" fill="#3E426F"/>
<path d="M44.0704 37.9231H37.7746V50.5641H44.0704V37.9231Z" fill="#3E426F"/>
<path d="M44.0704 25.282H31.4789V37.9231H44.0704V25.282Z" fill="#3E426F"/>
<path d="M44.0704 18.9615H31.4789V25.282H44.0704V18.9615Z" fill="#3E426F"/>
<path d="M107.028 25.282H94.4366V37.9231H107.028V25.282Z" fill="#3E426F"/>
<path d="M113.324 25.282H107.028V37.9231H113.324V25.282Z" fill="#3E426F"/>
<path d="M113.324 37.9231H107.028V50.5641H113.324V37.9231Z" fill="#3E426F"/>
<path d="M94.4366 12.641H81.8451V25.282H94.4366V12.641Z" fill="#3E426F"/>
<path d="M94.4366 233.859H81.8451V246.5H94.4366V233.859Z" fill="#F9EED8"/>
<path d="M94.4366 246.5H81.8451V252.82H94.4366V246.5Z" fill="#F9EED8"/>
<path d="M100.732 233.859H94.4366V240.179H100.732V233.859Z" fill="#F9EED8"/>
<path d="M138.507 246.5H132.211V252.82H138.507V246.5Z" fill="#F9EED8"/>
<path d="M151.099 271.782H144.803V278.103H151.099V271.782Z" fill="#F9EED8"/>
<path d="M107.028 240.179H94.4366V252.82H107.028V240.179Z" fill="#F9EED8"/>
<path d="M94.4366 252.82H81.8451V265.462H94.4366V252.82Z" fill="#F9EED8"/>
<path d="M107.028 265.462H94.4366V278.103H107.028V265.462Z" fill="#F9EED8"/>
<path d="M107.028 278.103H94.4366V290.744H107.028V278.103Z" fill="#F9EED8"/>
<path d="M113.324 290.744H100.732V303.385H113.324V290.744Z" fill="#F9EED8"/>
<path d="M113.324 303.385H100.732V316.026H113.324V303.385Z" fill="#F9EED8"/>
<path d="M113.324 316.026H100.732V328.667H113.324V316.026Z" fill="#F9EED8"/>
<path d="M94.4366 265.462H88.1408V278.103H94.4366V265.462Z" fill="#F9EED8"/>
<path d="M107.028 252.82H94.4366V265.462H107.028V252.82Z" fill="#F9EED8"/>
<path d="M119.62 252.82H107.028V265.462H119.62V252.82Z" fill="#F9EED8"/>
<path d="M119.62 265.462H107.028V278.103H119.62V265.462Z" fill="#F9EED8"/>
<path d="M119.62 278.103H107.028V290.744H119.62V278.103Z" fill="#F9EED8"/>
<path d="M157.394 290.744H144.803V303.385H157.394V290.744Z" fill="#F9EED8"/>
<path d="M169.986 290.744H157.394V303.385H169.986V290.744Z" fill="#F9EED8"/>
<path d="M144.803 290.744H132.211V303.385H144.803V290.744Z" fill="#F9EED8"/>
<path d="M132.211 290.744H119.62V303.385H132.211V290.744Z" fill="#F9EED8"/>
<path d="M119.62 290.744H107.028V303.385H119.62V290.744Z" fill="#F9EED8"/>
<path d="M119.62 303.385H107.028V316.026H119.62V303.385Z" fill="#F9EED8"/>
<path d="M132.211 303.385H119.62V316.026H132.211V303.385Z" fill="#F9EED8"/>
<path d="M144.803 303.385H132.211V316.026H144.803V303.385Z" fill="#F9EED8"/>
<path d="M157.394 303.385H144.803V316.026H157.394V303.385Z" fill="#F9EED8"/>
<path d="M169.986 303.385H157.394V316.026H169.986V303.385Z" fill="#F9EED8"/>
<path d="M182.577 303.385H169.986V316.026H182.577V303.385Z" fill="#F9EED8"/>
<path d="M195.169 303.385H182.577V316.026H195.169V303.385Z" fill="#F9EED8"/>
<path d="M195.169 316.026H182.577V328.667H195.169V316.026Z" fill="#F9EED8"/>
<path d="M207.761 316.026H195.169V328.667H207.761V316.026Z" fill="#F9EED8"/>
<path d="M220.352 316.026H207.761V328.667H220.352V316.026Z" fill="#F9EED8"/>
<path d="M232.944 316.026H220.352V328.667H232.944V316.026Z" fill="#F9EED8"/>
<path d="M245.535 316.026H232.944V328.667H245.535V316.026Z" fill="#F9EED8"/>
<path d="M258.127 316.026H245.535V328.667H258.127V316.026Z" fill="#F9EED8"/>
<path d="M270.718 316.026H258.127V328.667H270.718V316.026Z" fill="#F9EED8"/>
<path d="M283.31 316.026H270.718V328.667H283.31V316.026Z" fill="#F9EED8"/>
<path d="M289.606 316.026H283.31V328.667H289.606V316.026Z" fill="#F9EED8"/>
<path d="M207.761 303.385H195.169V316.026H207.761V303.385Z" fill="#F9EED8"/>
<path d="M220.352 303.385H207.761V316.026H220.352V303.385Z" fill="#F9EED8"/>
<path d="M182.577 297.064H169.986V303.385H182.577V297.064Z" fill="#F9EED8"/>
<path d="M132.211 316.026H119.62V328.667H132.211V316.026Z" fill="#F9EED8"/>
<path d="M157.394 328.667H144.803V341.308H157.394V328.667Z" fill="#F9EED8"/>
<path d="M182.577 328.667H169.986V341.308H182.577V328.667Z" fill="#F9EED8"/>
<path d="M207.761 328.667H195.169V341.308H207.761V328.667Z" fill="#F9EED8"/>
<path d="M232.944 328.667H220.352V341.308H232.944V328.667Z" fill="#F9EED8"/>
<path d="M258.127 328.667H245.535V341.308H258.127V328.667Z" fill="#F9EED8"/>
<path d="M132.211 328.667H119.62V341.308H132.211V328.667Z" fill="#F9EED8"/>
<path d="M157.394 341.308H144.803V353.949H157.394V341.308Z" fill="#F9EED8"/>
<path d="M182.577 341.308H169.986V353.949H182.577V341.308Z" fill="#F9EED8"/>
<path d="M207.761 341.308H195.169V353.949H207.761V341.308Z" fill="#F9EED8"/>
<path d="M157.394 353.949H144.803V366.59H157.394V353.949Z" fill="#F9EED8"/>
<path d="M169.986 366.59H157.394V379.231H169.986V366.59Z" fill="#F9EED8"/>
<path d="M232.944 341.308H220.352V353.949H232.944V341.308Z" fill="#F9EED8"/>
<path d="M182.577 353.949H169.986V366.59H182.577V353.949Z" fill="#F9EED8"/>
<path d="M182.577 366.59H169.986V379.231H182.577V366.59Z" fill="#F9EED8"/>
<path d="M182.577 379.231H169.986V391.872H182.577V379.231Z" fill="#F9EED8"/>
<path d="M232.944 353.949H220.352V366.59H232.944V353.949Z" fill="#F9EED8"/>
<path d="M232.944 366.59H220.352V379.231H232.944V366.59Z" fill="#F9EED8"/>
<path d="M258.127 341.308H245.535V353.949H258.127V341.308Z" fill="#F9EED8"/>
<path d="M207.761 353.949H195.169V366.59H207.761V353.949Z" fill="#F9EED8"/>
<path d="M207.761 366.59H195.169V379.231H207.761V366.59Z" fill="#F9EED8"/>
<path d="M207.761 379.231H195.169V391.872H207.761V379.231Z" fill="#F9EED8"/>
<path d="M220.352 379.231H207.761V391.872H220.352V379.231Z" fill="#F9EED8"/>
<path d="M258.127 353.949H245.535V366.59H258.127V353.949Z" fill="#F9EED8"/>
<path d="M144.803 341.308H132.211V353.949H144.803V341.308Z" fill="#F9EED8"/>
<path d="M144.803 316.026H132.211V328.667H144.803V316.026Z" fill="#F9EED8"/>
<path d="M169.986 328.667H157.394V341.308H169.986V328.667Z" fill="#F9EED8"/>
<path d="M195.169 328.667H182.577V341.308H195.169V328.667Z" fill="#F9EED8"/>
<path d="M220.352 328.667H207.761V341.308H220.352V328.667Z" fill="#F9EED8"/>
<path d="M245.535 328.667H232.944V341.308H245.535V328.667Z" fill="#F9EED8"/>
<path d="M295.901 328.667H283.31V341.308H295.901V328.667Z" fill="#F9EED8"/>
<path d="M289.606 341.308H283.31V353.949H289.606V341.308Z" fill="#F9EED8"/>
<path d="M283.31 328.667H270.718V341.308H283.31V328.667Z" fill="#F9EED8"/>
<path d="M270.718 328.667H258.127V341.308H270.718V328.667Z" fill="#F9EED8"/>
<path d="M283.31 353.949H270.718V360.269H283.31V353.949Z" fill="#F9EED8"/>
<path d="M277.014 360.269H270.718V366.59H277.014V360.269Z" fill="#F9EED8"/>
<path d="M144.803 328.667H132.211V341.308H144.803V328.667Z" fill="#F9EED8"/>
<path d="M169.986 341.308H157.394V353.949H169.986V341.308Z" fill="#F9EED8"/>
<path d="M195.169 341.308H182.577V353.949H195.169V341.308Z" fill="#F9EED8"/>
<path d="M220.352 341.308H207.761V353.949H220.352V341.308Z" fill="#F9EED8"/>
<path d="M169.986 353.949H157.394V366.59H169.986V353.949Z" fill="#F9EED8"/>
<path d="M245.535 341.308H232.944V353.949H245.535V341.308Z" fill="#F9EED8"/>
<path d="M195.169 353.949H182.577V366.59H195.169V353.949Z" fill="#F9EED8"/>
<path d="M195.169 366.59H182.577V379.231H195.169V366.59Z" fill="#F9EED8"/>
<path d="M195.169 379.231H182.577V391.872H195.169V379.231Z" fill="#F9EED8"/>
<path d="M245.535 353.949H232.944V366.59H245.535V353.949Z" fill="#F9EED8"/>
<path d="M245.535 366.59H232.944V379.231H245.535V366.59Z" fill="#F9EED8"/>
<path d="M270.718 341.308H258.127V353.949H270.718V341.308Z" fill="#F9EED8"/>
<path d="M283.31 341.308H270.718V353.949H283.31V341.308Z" fill="#F9EED8"/>
<path d="M220.352 353.949H207.761V366.59H220.352V353.949Z" fill="#F9EED8"/>
<path d="M220.352 366.59H207.761V379.231H220.352V366.59Z" fill="#F9EED8"/>
<path d="M270.718 353.949H258.127V366.59H270.718V353.949Z" fill="#F9EED8"/>
<path d="M157.394 341.308H144.803V353.949H157.394V341.308Z" fill="#F9EED8"/>
<path d="M157.394 316.026H144.803V328.667H157.394V316.026Z" fill="#F9EED8"/>
<path d="M169.986 316.026H157.394V328.667H169.986V316.026Z" fill="#F9EED8"/>
<path d="M182.577 316.026H169.986V328.667H182.577V316.026Z" fill="#F9EED8"/>
<path d="M119.62 316.026H107.028V328.667H119.62V316.026Z" fill="#F9EED8"/>
<path d="M132.211 252.82H119.62V265.462H132.211V252.82Z" fill="#F9EED8"/>
<path d="M138.507 252.82H132.211V265.462H138.507V252.82Z" fill="#F9EED8"/>
<path d="M132.211 265.462H119.62V278.103H132.211V265.462Z" fill="#F9EED8"/>
<path d="M132.211 278.103H119.62V290.744H132.211V278.103Z" fill="#F9EED8"/>
<path d="M144.803 265.462H132.211V278.103H144.803V265.462Z" fill="#F9EED8"/>
<path d="M144.803 278.103H132.211V290.744H144.803V278.103Z" fill="#F9EED8"/>
<path d="M157.394 278.103H144.803V290.744H157.394V278.103Z" fill="#F9EED8"/>
<path d="M119.62 240.179H107.028V252.82H119.62V240.179Z" fill="#F9EED8"/>
<path d="M132.211 240.179H119.62V252.82H132.211V240.179Z" fill="#F9EED8"/>
<path d="M144.803 233.859H132.211V246.5H144.803V233.859Z" fill="#99ADEB"/>
<path d="M157.394 227.538H144.803V240.179H157.394V227.538Z" fill="#99ADEB"/>
<path d="M169.986 227.538H157.394V240.179H169.986V227.538Z" fill="#B3AAD7"/>
<path d="M182.577 227.538H169.986V240.179H182.577V227.538Z" fill="#B3AAD7"/>
<path d="M182.577 221.218H176.282V227.538H182.577V221.218Z" fill="#B3AAD7"/>
<path d="M195.169 227.538H182.577V240.179H195.169V227.538Z" fill="#D4A9BD"/>
<path d="M195.169 221.218H182.577V227.538H195.169V221.218Z" fill="#D4A9BD"/>
<path d="M207.761 221.218H195.169V227.538H207.761V221.218Z" fill="#D4A9BD"/>
<path d="M220.352 221.218H207.761V227.538H220.352V221.218Z" fill="#D4A9BD"/>
<path d="M195.169 240.179H182.577V252.82H195.169V240.179Z" fill="#D4A9BD"/>
<path d="M195.169 252.82H182.577V265.462H195.169V252.82Z" fill="#D4A9BD"/>
<path d="M207.761 252.82H195.169V265.462H207.761V252.82Z" fill="#D4A9BD"/>
<path d="M220.352 252.82H207.761V265.462H220.352V252.82Z" fill="#D4A9BD"/>
<path d="M195.169 265.462H182.577V278.103H195.169V265.462Z" fill="#D4A9BD"/>
<path d="M207.761 265.462H195.169V278.103H207.761V265.462Z" fill="#D4A9BD"/>
<path d="M220.352 265.462H207.761V278.103H220.352V265.462Z" fill="#D4A9BD"/>
<path d="M232.944 265.462H220.352V278.103H232.944V265.462Z" fill="#D4A9BD"/>
<path d="M195.169 278.103H182.577V290.744H195.169V278.103Z" fill="#D4A9BD"/>
<path d="M207.761 290.744H195.169V303.385H207.761V290.744Z" fill="#D4A9BD"/>
<path d="M207.761 278.103H195.169V290.744H207.761V278.103Z" fill="#D4A9BD"/>
<path d="M220.352 290.744H207.761V303.385H220.352V290.744Z" fill="#D4A9BD"/>
<path d="M220.352 303.385H207.761V309.705H220.352V303.385Z" fill="#D4A9BD"/>
<path d="M207.761 303.385H195.169V309.705H207.761V303.385Z" fill="#D4A9BD"/>
<path d="M220.352 278.103H207.761V290.744H220.352V278.103Z" fill="#D4A9BD"/>
<path d="M232.944 290.744H220.352V303.385H232.944V290.744Z" fill="#D4A9BD"/>
<path d="M232.944 303.385H220.352V316.026H232.944V303.385Z" fill="#D4A9BD"/>
<path d="M232.944 278.103H220.352V290.744H232.944V278.103Z" fill="#D4A9BD"/>
<path d="M245.535 278.103H232.944V290.744H245.535V278.103Z" fill="#D4A9BD"/>
<path d="M245.535 290.744H232.944V303.385H245.535V290.744Z" fill="#D4A9BD"/>
<path d="M245.535 303.385H232.944V316.026H245.535V303.385Z" fill="#D4A9BD"/>
<path d="M207.761 227.538H195.169V240.179H207.761V227.538Z" fill="#D4A9BD"/>
<path d="M220.352 227.538H207.761V240.179H220.352V227.538Z" fill="#D4A9BD"/>
<path d="M232.944 227.538H220.352V240.179H232.944V227.538Z" fill="#FEA79E"/>
<path d="M232.944 252.82H220.352V265.462H232.944V252.82Z" fill="#FEA79E"/>
<path d="M245.535 252.82H232.944V265.462H245.535V252.82Z" fill="#FEA79E"/>
<path d="M258.127 252.82H245.535V265.462H258.127V252.82Z" fill="#FEA79E"/>
<path d="M295.901 252.82H283.31V265.462H295.901V252.82Z" fill="#FEA79E"/>
<path d="M295.901 265.462H283.31V278.103H295.901V265.462Z" fill="#FEA79E"/>
<path d="M270.718 252.82H258.127V265.462H270.718V252.82Z" fill="#FEA79E"/>
<path d="M308.493 252.82H295.901V265.462H308.493V252.82Z" fill="#FEA79E"/>
<path d="M308.493 265.462H295.901V278.103H308.493V265.462Z" fill="#FEA79E"/>
<path d="M333.676 265.462H321.085V278.103H333.676V265.462Z" fill="#FEA79E"/>
<path d="M333.676 278.103H321.085V290.744H333.676V278.103Z" fill="#FEA79E"/>
<path d="M283.31 252.82H270.718V265.462H283.31V252.82Z" fill="#FEA79E"/>
<path d="M321.085 252.82H308.493V265.462H321.085V252.82Z" fill="#FEA79E"/>
<path d="M333.676 252.82H321.085V265.462H333.676V252.82Z" fill="#FEA79E"/>
<path d="M321.085 265.462H308.493V278.103H321.085V265.462Z" fill="#FEA79E"/>
<path d="M321.085 278.103H308.493V290.744H321.085V278.103Z" fill="#FEA79E"/>
<path d="M308.493 278.103H295.901V284.423H308.493V278.103Z" fill="#FEA79E"/>
<path d="M308.493 284.423H302.197V290.744H308.493V284.423Z" fill="#FEA79E"/>
<path d="M352.563 271.782H346.268V278.103H352.563V271.782Z" fill="#FEA79E"/>
<path d="M352.563 278.103H346.268V284.423H352.563V278.103Z" fill="#FEA79E"/>
<path d="M295.901 278.103H283.31V284.423H295.901V278.103Z" fill="#FEA79E"/>
<path d="M346.268 265.462H333.676V278.103H346.268V265.462Z" fill="#FEA79E"/>
<path d="M346.268 278.103H333.676V290.744H346.268V278.103Z" fill="#FEA79E"/>
<path d="M232.944 221.218H220.352V227.538H232.944V221.218Z" fill="#FEA79E"/>
<path d="M239.239 221.218H232.944V227.538H239.239V221.218Z" fill="#FEA79E"/>
<path d="M283.31 233.859H270.718V240.179H283.31V233.859Z" fill="#FEA79E"/>
<path d="M321.085 246.5H308.493V252.82H321.085V246.5Z" fill="#FEA79E"/>
<path d="M346.268 259.141H333.676V265.462H346.268V259.141Z" fill="#FEA79E"/>
<path d="M245.535 227.538H232.944V240.179H245.535V227.538Z" fill="#FEA79E"/>
<path d="M258.127 227.538H245.535V240.179H258.127V227.538Z" fill="#FEA79E"/>
<path d="M270.718 227.538H258.127V240.179H270.718V227.538Z" fill="#FEA79E"/>
<path d="M283.31 240.179H270.718V252.82H283.31V240.179Z" fill="#FEA79E"/>
<path d="M295.901 240.179H283.31V252.82H295.901V240.179Z" fill="#FEA79E"/>
<path d="M308.493 240.179H295.901V252.82H308.493V240.179Z" fill="#FEA79E"/>
<path d="M289.606 233.859H283.31V240.179H289.606V233.859Z" fill="#FEA79E"/>
<path d="M232.944 240.179H220.352V252.82H232.944V240.179Z" fill="#FEA79E"/>
<path d="M245.535 265.462H232.944V278.103H245.535V265.462Z" fill="#FEA79E"/>
<path d="M258.127 265.462H245.535V278.103H258.127V265.462Z" fill="#FEA79E"/>
<path d="M270.718 265.462H258.127V278.103H270.718V265.462Z" fill="#FEA79E"/>
<path d="M283.31 265.462H270.718V278.103H283.31V265.462Z" fill="#FEA79E"/>
<path d="M258.127 278.103H245.535V290.744H258.127V278.103Z" fill="#FEA79E"/>
<path d="M258.127 290.744H245.535V303.385H258.127V290.744Z" fill="#FEA79E"/>
<path d="M270.718 290.744H258.127V303.385H270.718V290.744Z" fill="#FEA79E"/>
<path d="M270.718 278.103H258.127V290.744H270.718V278.103Z" fill="#FEA79E"/>
<path d="M283.31 278.103H270.718V290.744H283.31V278.103Z" fill="#FEA79E"/>
<path d="M277.014 290.744H270.718V297.064H277.014V290.744Z" fill="#FEA79E"/>
<path d="M321.085 290.744H314.789V297.064H321.085V290.744Z" fill="#FEA79E"/>
<path d="M264.423 303.385H258.127V309.705H264.423V303.385Z" fill="#FEA79E"/>
<path d="M258.127 303.385H245.535V309.705H258.127V303.385Z" fill="#FEA79E"/>
<path d="M333.676 290.744H321.085V297.064H333.676V290.744Z" fill="#FEA79E"/>
<path d="M346.268 290.744H333.676V297.064H346.268V290.744Z" fill="#FEA79E"/>
<path d="M245.535 240.179H232.944V252.82H245.535V240.179Z" fill="#FEA79E"/>
<path d="M258.127 240.179H245.535V252.82H258.127V240.179Z" fill="#FEA79E"/>
<path d="M270.718 240.179H258.127V252.82H270.718V240.179Z" fill="#FEA79E"/>
<path d="M207.761 240.179H195.169V252.82H207.761V240.179Z" fill="#D4A9BD"/>
<path d="M220.352 240.179H207.761V252.82H220.352V240.179Z" fill="#D4A9BD"/>
<path d="M169.986 240.179H157.394V252.82H169.986V240.179Z" fill="#B3AAD7"/>
<path d="M169.986 252.82H157.394V265.462H169.986V252.82Z" fill="#B3AAD7"/>
<path d="M169.986 265.462H157.394V278.103H169.986V265.462Z" fill="#B3AAD7"/>
<path d="M169.986 278.103H157.394V290.744H169.986V278.103Z" fill="#B3AAD7"/>
<path d="M182.577 252.82H169.986V265.462H182.577V252.82Z" fill="#B3AAD7"/>
<path d="M182.577 265.462H169.986V278.103H182.577V265.462Z" fill="#B3AAD7"/>
<path d="M182.577 278.103H169.986V290.744H182.577V278.103Z" fill="#B3AAD7"/>
<path d="M195.169 290.744H182.577V303.385H195.169V290.744Z" fill="#B3AAD7"/>
<path d="M182.577 290.744H169.986V297.064H182.577V290.744Z" fill="#B3AAD7"/>
<path d="M182.577 240.179H169.986V252.82H182.577V240.179Z" fill="#B3AAD7"/>
<path d="M157.394 240.179H144.803V252.82H157.394V240.179Z" fill="#99ADEB"/>
<path d="M144.803 252.82H138.507V265.462H144.803V252.82Z" fill="#99ADEB"/>
<path d="M157.394 252.82H144.803V265.462H157.394V252.82Z" fill="#99ADEB"/>
<path d="M157.394 265.462H144.803V271.782H157.394V265.462Z" fill="#99ADEB"/>
<path d="M144.803 246.5H138.507V252.82H144.803V246.5Z" fill="#99ADEB"/>
<path d="M157.394 271.782H151.099V278.103H157.394V271.782Z" fill="#99ADEB"/>
<path d="M69.2535 0H56.662V6.32051H69.2535V0Z" fill="#6867A0"/>
<path d="M56.662 0H44.0704V12.641H56.662V0Z" fill="#6867A0"/>
<path d="M44.0704 12.641H31.4789V18.9615H44.0704V12.641Z" fill="#6867A0"/>
<path d="M81.8451 0H69.2535V6.32051H81.8451V0Z" fill="#6867A0"/>
<path d="M94.4366 6.32051H81.8451V12.641H94.4366V6.32051Z" fill="#6867A0"/>
<path d="M107.028 12.641H94.4366V18.9615H107.028V12.641Z" fill="#6867A0"/>
<path d="M113.324 12.641H107.028V25.282H113.324V12.641Z" fill="#6867A0"/>
<path d="M119.62 25.282H113.324V37.9231H119.62V25.282Z" fill="#6867A0"/>
<path d="M37.7746 37.9231H31.4789V50.5641H37.7746V37.9231Z" fill="#6867A0"/>
<path d="M31.4789 31.6026H18.8873V37.9231H31.4789V31.6026Z" fill="#6867A0"/>
<path d="M31.4789 37.9231H18.8873V44.2436H31.4789V37.9231Z" fill="#6867A0"/>
<path d="M31.4789 50.5641H18.8873V56.8846H31.4789V50.5641Z" fill="#6867A0"/>
<path d="M119.62 37.9231H113.324V50.5641H119.62V37.9231Z" fill="#6867A0"/>
<path d="M113.324 56.8846H107.028V69.5256H113.324V56.8846Z" fill="#6867A0"/>
<path d="M113.324 69.5256H107.028V82.1667H113.324V69.5256Z" fill="#6867A0"/>
<path d="M113.324 107.449H107.028V120.09H113.324V107.449Z" fill="#6867A0"/>
<path d="M113.324 170.654H107.028V183.295H113.324V170.654Z" fill="#6867A0"/>
<path d="M113.324 82.1667H107.028V94.8077H113.324V82.1667Z" fill="#6867A0"/>
<path d="M113.324 145.372H107.028V158.013H113.324V145.372Z" fill="#6867A0"/>
<path d="M113.324 120.09H107.028V132.731H113.324V120.09Z" fill="#6867A0"/>
<path d="M113.324 183.295H107.028V195.936H113.324V183.295Z" fill="#6867A0"/>
<path d="M119.62 202.256H113.324V214.897H119.62V202.256Z" fill="#6867A0"/>
<path d="M113.324 195.936H107.028V202.256H113.324V195.936Z" fill="#6867A0"/>
<path d="M113.324 94.8077H107.028V107.449H113.324V94.8077Z" fill="#6867A0"/>
<path d="M113.324 158.013H107.028V170.654H113.324V158.013Z" fill="#6867A0"/>
<path d="M113.324 132.731H107.028V145.372H113.324V132.731Z" fill="#6867A0"/>
<path d="M100.732 6.32051H94.4366V12.641H100.732V6.32051Z" fill="#6867A0"/>
<path d="M44.0704 6.32051H37.7746V12.641H44.0704V6.32051Z" fill="#6867A0"/>
<path d="M31.4789 18.9615H25.1831V25.282H31.4789V18.9615Z" fill="#6867A0"/>
<path d="M31.4789 25.282H25.1831V31.6026H31.4789V25.282Z" fill="#6867A0"/>
<path d="M18.8873 37.9231H12.5916V44.2436H18.8873V37.9231Z" fill="#6867A0"/>
<path d="M12.5916 37.9231H6.29578V44.2436H12.5916V37.9231Z" fill="#6867A0"/>
<path d="M88.1408 0H81.8451V6.32051H88.1408V0Z" fill="#6867A0"/>
<path d="M62.9578 18.9615H56.662V25.282H62.9578V18.9615Z" fill="#000301"/>
<path d="M62.9578 25.282H56.662V31.6026H62.9578V25.282Z" fill="#000301"/>
<path d="M69.2535 18.9615H62.9578V25.282H69.2535V18.9615Z" fill="#FDF9F5"/>
<path d="M62.9578 12.641H56.662V18.9615H62.9578V12.641Z" fill="#FDF9F5"/>
<path d="M56.662 12.641H50.3662V18.9615H56.662V12.641Z" fill="#3E426F"/>
<path d="M69.2535 25.282H62.9578V31.6026H69.2535V25.282Z" fill="#FDF9F5"/>
<path d="M75.5493 50.5641H69.2535V56.8846H75.5493V50.5641Z" fill="#FDF9F5"/>
<path d="M81.8451 50.5641H75.5493V56.8846H81.8451V50.5641Z" fill="#FDF9F5"/>
<path d="M81.8451 56.8846H75.5493V63.2051H81.8451V56.8846Z" fill="#FDF9F5"/>
<path d="M81.8451 63.2051H75.5493V69.5256H81.8451V63.2051Z" fill="#FDF9F5"/>
<path d="M88.1408 63.2051H81.8451V69.5256H88.1408V63.2051Z" fill="#FDF9F5"/>
<path d="M88.1408 69.5256H81.8451V75.8461H88.1408V69.5256Z" fill="#FDF9F5"/>
<path d="M94.4366 63.2051H88.1408V69.5256H94.4366V63.2051Z" fill="#FDF9F5"/>
<path d="M81.8451 63.2051H75.5493V69.5256H81.8451V63.2051Z" fill="#FDF9F5"/>
<path d="M107.028 50.5641H100.732V56.8846H107.028V50.5641Z" fill="#FDF9F5"/>
<path d="M100.732 37.9231H88.1408V50.5641H100.732V37.9231Z" fill="#FDF9F5"/>
<path d="M94.4366 50.5641H81.8451V63.2051H94.4366V50.5641Z" fill="#FDF9F5"/>
<path d="M88.1408 44.2436H81.8451V50.5641H88.1408V44.2436Z" fill="#FDF9F5"/>
<path d="M100.732 56.8846H94.4366V63.2051H100.732V56.8846Z" fill="#FDF9F5"/>
<path d="M107.028 44.2436H100.732V50.5641H107.028V44.2436Z" fill="#FDF9F5"/>
<path d="M100.732 50.5641H94.4366V56.8846H100.732V50.5641Z" fill="#FDF9F5"/>
<path d="M62.9578 31.6026H56.662V37.9231H62.9578V31.6026Z" fill="#FDF9F5"/>
<path d="M56.662 31.6026H50.3662V37.9231H56.662V31.6026Z" fill="#FDF9F5"/>
<path d="M56.662 18.9615H50.3662V25.282H56.662V18.9615Z" fill="black"/>
<path d="M56.662 25.282H50.3662V31.6026H56.662V25.282Z" fill="#FDF9F5"/>
<path d="M69.2535 56.8846H62.9578V63.2051H69.2535V56.8846Z" fill="#C4BFC0"/>
<path d="M75.5493 56.8846H69.2535V63.2051H75.5493V56.8846Z" fill="#C4BFC0"/>
<path d="M75.5493 63.2051H69.2535V69.5256H75.5493V63.2051Z" fill="#C4BFC0"/>
<path d="M81.8451 69.5256H75.5493V75.8461H81.8451V69.5256Z" fill="#C4BFC0"/>
<path d="M75.5493 69.5256H69.2535V75.8461H75.5493V69.5256Z" fill="#C4BFC0"/>
<path d="M81.8451 227.538H69.2535V240.179H81.8451V227.538Z" fill="#F4E2D0"/>
<path d="M81.8451 240.179H69.2535V252.82H81.8451V240.179Z" fill="#F4E2D0"/>
<path d="M81.8451 252.82H69.2535V265.462H81.8451V252.82Z" fill="#F4E2D0"/>
<path d="M81.8451 265.462H69.2535V278.103H81.8451V265.462Z" fill="#F4E2D0"/>
<path d="M81.8451 278.103H69.2535V290.744H81.8451V278.103Z" fill="#F4E2D0"/>
<path d="M81.8451 290.744H75.5493V303.385H81.8451V290.744Z" fill="#F4E2D0"/>
<path d="M81.8451 303.385H75.5493V316.026H81.8451V303.385Z" fill="#F4E2D0"/>
<path d="M94.4366 341.308H88.1408V347.628H94.4366V341.308Z" fill="#F4E2D0"/>
<path d="M107.028 360.269H100.732V366.59H107.028V360.269Z" fill="#F4E2D0"/>
<path d="M157.394 385.551H151.099V391.872H157.394V385.551Z" fill="#F4E2D0"/>
<path d="M251.831 372.91H245.535V379.231H251.831V372.91Z" fill="#F9EED8"/>
<path d="M201.465 391.872H195.169V398.192H201.465V391.872Z" fill="#F9EED8"/>
<path d="M264.423 366.59H258.127V372.91H264.423V366.59Z" fill="#F9EED8"/>
<path d="M182.577 391.872H176.282V398.192H182.577V391.872Z" fill="#F9EED8"/>
<path d="M119.62 366.59H113.324V372.91H119.62V366.59Z" fill="#F4E2D0"/>
<path d="M144.803 379.231H138.507V385.551H144.803V379.231Z" fill="#F4E2D0"/>
<path d="M100.732 303.385H94.4366V316.026H100.732V303.385Z" fill="#F4E2D0"/>
<path d="M100.732 316.026H94.4366V328.667H100.732V316.026Z" fill="#F4E2D0"/>
<path d="M100.732 290.744H94.4366V303.385H100.732V290.744Z" fill="#F4E2D0"/>
<path d="M94.4366 278.103H81.8451V290.744H94.4366V278.103Z" fill="#F4E2D0"/>
<path d="M94.4366 290.744H81.8451V303.385H94.4366V290.744Z" fill="#F4E2D0"/>
<path d="M94.4366 303.385H81.8451V316.026H94.4366V303.385Z" fill="#F4E2D0"/>
<path d="M94.4366 316.026H81.8451V328.667H94.4366V316.026Z" fill="#F4E2D0"/>
<path d="M94.4366 328.667H81.8451V341.308H94.4366V328.667Z" fill="#F4E2D0"/>
<path d="M107.028 328.667H94.4366V341.308H107.028V328.667Z" fill="#F4E2D0"/>
<path d="M119.62 328.667H107.028V341.308H119.62V328.667Z" fill="#F4E2D0"/>
<path d="M107.028 341.308H94.4366V353.949H107.028V341.308Z" fill="#F4E2D0"/>
<path d="M119.62 353.949H107.028V366.59H119.62V353.949Z" fill="#F4E2D0"/>
<path d="M132.211 353.949H119.62V366.59H132.211V353.949Z" fill="#F4E2D0"/>
<path d="M132.211 366.59H119.62V379.231H132.211V366.59Z" fill="#F4E2D0"/>
<path d="M144.803 353.949H132.211V366.59H144.803V353.949Z" fill="#F4E2D0"/>
<path d="M144.803 366.59H132.211V379.231H144.803V366.59Z" fill="#F4E2D0"/>
<path d="M157.394 366.59H144.803V379.231H157.394V366.59Z" fill="#F4E2D0"/>
<path d="M169.986 379.231H157.394V391.872H169.986V379.231Z" fill="#F4E2D0"/>
<path d="M119.62 341.308H107.028V353.949H119.62V341.308Z" fill="#F4E2D0"/>
<path d="M132.211 341.308H119.62V353.949H132.211V341.308Z" fill="#F4E2D0"/>
<path d="M107.028 353.949H94.4366V360.269H107.028V353.949Z" fill="#F4E2D0"/>
<path d="M157.394 379.231H144.803V385.551H157.394V379.231Z" fill="#F4E2D0"/>
<path d="M258.127 366.59H245.535V372.91H258.127V366.59Z" fill="#F9EED8"/>
<path d="M232.944 379.231H220.352V385.551H232.944V379.231Z" fill="#F9EED8"/>
<path d="M195.169 391.872H182.577V398.192H195.169V391.872Z" fill="#F9EED8"/>
<path d="M88.1408 265.462H81.8451V278.103H88.1408V265.462Z" fill="#F4E2D0"/>
<path d="M75.5493 214.897H69.2535V227.538H75.5493V214.897Z" fill="#F4E2D0"/>
<path d="M81.8451 221.218H75.5493V227.538H81.8451V221.218Z" fill="#F4E2D0"/>
<path d="M31.4789 50.5641H18.8873V56.8846H31.4789V50.5641Z" fill="#3E426F"/>
<path d="M56.662 25.282H50.3662V31.6026H56.662V25.282Z" fill="#000301"/>
</svg>
