<svg viewBox="0 0 271 304" fill="none" xmlns="http://www.w3.org/2000/svg">
<path fill-rule="evenodd" clip-rule="evenodd" d="M135.304 0.00205564L265.149 75.727L256.698 80.4687L135.302 10.5308L14.4292 80.4685L5.97021 75.7268L135.3 0.00242143V0L135.302 0.00120832L135.304 0.000357628V0.00205564Z" fill="#FEA2AE"/>
<path fill-rule="evenodd" clip-rule="evenodd" d="M5.98835 225.763L135.458 300.354L135.458 290.25L14.4381 220.84L14.4381 80.4666L5.98825 75.6795L5.98826 225.762L6.00489 225.753L5.98835 225.763Z" fill="#CC5769"/>
<path fill-rule="evenodd" clip-rule="evenodd" d="M264.922 225.777L265.143 75.7172L256.7 80.4627L256.453 220.818L256.467 220.826L135.457 290.232L135.457 300.336L264.893 225.763L264.825 225.72L264.922 225.777Z" fill="#FB6D82"/>
<path d="M14.4004 80.4656L135.262 10.422L135.725 149.922L14.4004 220.887L14.4004 80.4656Z" fill="#F0CCD1"/>
<path d="M256.698 80.4597L135.288 10.4358L135.753 149.919L256.457 220.83L256.698 80.4597Z" fill="#FFE7EB"/>
<path d="M14.4678 220.866L135.755 149.886L256.484 220.83L135.448 290.262L14.4678 220.866Z" fill="#F9EEDB"/>
<path d="M193.793 73.904L164.355 57.3116V112.843L193.793 128.097L193.793 73.904Z" fill="url(#paint0_linear_117_14020)"/>
<path d="M157.759 54.6764L157.759 116.284L165.028 112.425L165.103 58.8502L157.759 54.6764Z" fill="#98C5D3"/>
<path d="M192.418 126.41L166.58 111.517L157.745 116.252L192.418 136.271L192.418 126.41Z" fill="#AEDAE8"/>
<path fill-rule="evenodd" clip-rule="evenodd" d="M155.825 50.3868L194.424 72.6813L194.424 75.9463L194.424 75.9463L194.424 105.045L194.424 105.045L194.424 108.31L194.424 108.31L194.424 137.41L194.424 137.41L194.424 140.675L155.825 118.331L155.825 115.115L155.826 115.116L155.826 53.603L155.825 53.6023L155.825 50.3868ZM157.778 54.7333L157.778 116.244L192.471 136.282L192.471 107.187L166.563 92.2865L166.583 111.52L165.002 112.375V58.9146L157.778 54.7333ZM166.529 59.7988L166.56 89.0691L192.471 103.926L192.471 74.8161L166.529 59.7988Z" fill="#5071A8"/>
<path d="M241.786 102.268L212.348 85.6752V141.206L241.786 156.46L241.786 102.268Z" fill="url(#paint1_linear_117_14020)"/>
<path d="M205.751 83.0399L205.751 144.647L213.02 140.788L213.095 87.2137L205.751 83.0399Z" fill="#98C5D3"/>
<path d="M240.41 154.773L214.573 139.881L205.737 144.616L240.41 164.634L240.41 154.773Z" fill="#AEDAE8"/>
<path fill-rule="evenodd" clip-rule="evenodd" d="M203.817 78.7504L242.416 101.045L242.416 104.31L242.416 104.31L242.416 133.409L242.416 133.409L242.416 136.674L242.416 136.674L242.416 165.773L242.416 165.773L242.416 169.038L203.817 146.694L203.817 143.479L203.818 143.479L203.818 81.9666L203.817 81.9658L203.817 78.7504ZM205.771 83.0968L205.771 144.607L240.463 164.645L240.464 135.551L214.555 120.65L214.576 139.884L212.994 140.739V87.2781L205.771 83.0968ZM214.521 88.1623L214.552 117.433L240.464 132.289L240.464 103.18L214.521 88.1623Z" fill="#5071A8"/>
<path d="M130.688 104.773L132.341 103.776L133.018 177.199H130.688V104.773Z" fill="#C2B9B9"/>
<path d="M130.689 104.773L128.341 103.776L129.017 177.199H130.689V104.773Z" fill="#C2B9B9"/>
<path d="M128.829 103.953L130.314 102.715L132.328 103.781L130.676 104.782L128.829 103.953Z" fill="#C2B9B9"/>
<path d="M46.7866 113.313L126.014 69.2615L134.069 142.765L54.7759 188.831L46.7866 113.313Z" fill="#FFFBF3"/>
<path d="M56.6505 189.793L135.461 144.557L134.069 142.765L54.7759 188.83L56.6505 189.793Z" fill="#DBDBDB"/>
<path d="M46.7868 113.313L126.014 69.2614L123.371 68.0974L44.8614 112.534L46.7868 113.313Z" fill="#DBDBDB"/>
<path d="M46.7868 113.313L54.7809 188.83L52.2288 186.209L44.8613 112.534L46.7868 113.313Z" fill="#DBDBDB"/>
<path d="M49.1924 212.354L39.8659 207.071C39.8659 207.071 35.3589 208.078 35.9288 210.279C36.4987 212.48 40.0257 209.892 40.0257 209.892L47.5634 214.743L49.1924 212.354Z" fill="#C2B9B9"/>
<path d="M48.1133 151.643L49.7663 150.775L50.4425 214.703H48.1133V151.643Z" fill="#C2B9B9"/>
<path d="M48.1134 151.643L45.7656 150.775L46.4419 214.703H48.1134V151.643Z" fill="#C2B9B9"/>
<path d="M46.2539 150.928L47.7386 149.85L49.7528 150.778L48.1004 151.65L46.2539 150.928Z" fill="#C2B9B9"/>
<path d="M49.2698 212.502L58.3841 218.143C58.3841 218.143 59.6675 222.579 57.4634 223.137C55.2594 223.695 55.8338 219.358 55.8338 219.358L47.957 215.079L49.2698 212.502Z" fill="#DBDBDB"/>
<path d="M119.742 162.1L144.048 148.596L144.141 204.329L119.742 217.911V162.1Z" fill="#84605D"/>
<path d="M119.742 162.1L100.877 168.389L100.877 207.561L119.742 218.047V162.1Z" fill="#723631"/>
<path d="M122.923 161.093L97.8779 169.419V167.6L122.923 159.588V161.093Z" fill="#723631"/>
<path d="M122.923 161.093L147.328 146.662V144.844L122.923 159.588V161.093Z" fill="#84605D"/>
<path d="M97.8638 167.604L131.279 149.128L147.328 144.844L122.923 159.588L97.8638 167.604Z" fill="#814540"/>
<path d="M174.514 185.704L171.791 183.903V203.9L174.514 205.564V185.704Z" fill="#8D89C8"/>
<path d="M176.819 186.924L174.514 185.486V205.483L176.819 203.989V186.924Z" fill="#D9D9D9"/>
<path d="M190.576 195.115L188.063 193.315V213.311L190.576 214.976V195.115Z" fill="#8D89C8"/>
<path d="M193.93 193.594L190.576 194.897V214.894L193.93 212.772V193.594Z" fill="#D9D9D9"/>
<path d="M206.847 185.704L204.334 183.903V203.9L206.847 205.564V185.704Z" fill="#8D89C8"/>
<path d="M210.202 184.183L206.847 185.486V205.482L210.202 203.36V184.183Z" fill="#D9D9D9"/>
<path d="M210.202 180.308L192.12 170.088L171.791 181.631L190.321 192.55L210.202 180.308Z" fill="#DF9B4E"/>
<path d="M215.331 152.834L195.396 164.76L190.529 192.548L210.35 180.783L215.331 152.834Z" fill="#FFC480"/>
<path d="M195.406 164.752L192.608 162.844L187.551 190.849L190.529 192.631L195.406 164.752Z" fill="#DDA566"/>
<path d="M210.35 180.585L190.476 192.529L190.476 196.438L210.35 184.812L210.35 180.585Z" fill="#FFC480"/>
<path d="M190.514 192.529L171.791 181.626L171.984 185.756L190.514 196.439V192.529Z" fill="#FFC480"/>
<path d="M215.332 152.835L212.365 151.398L192.603 162.848L195.398 164.76L215.332 152.835Z" fill="#DDA566"/>
<path d="M145.892 202.199L143.169 200.399V220.395L145.892 222.06V202.199Z" fill="#8D89C8"/>
<path d="M148.197 203.419L145.892 201.981V221.978L148.197 220.484V203.419Z" fill="#D9D9D9"/>
<path d="M161.954 211.611L159.441 209.81V229.807L161.954 231.471V211.611Z" fill="#8D89C8"/>
<path d="M165.308 210.09L161.954 211.392V231.389L165.308 229.267V210.09Z" fill="#D9D9D9"/>
<path d="M178.225 202.199L175.712 200.399V220.395L178.225 222.06V202.199Z" fill="#8D89C8"/>
<path d="M181.58 200.678L178.225 201.981V221.978L181.58 219.856V200.678Z" fill="#D9D9D9"/>
<path d="M181.58 196.803L163.498 186.583L143.169 198.127L161.699 209.045L181.58 196.803Z" fill="#DF9B4E"/>
<path d="M186.708 169.329L166.774 181.256L161.907 209.043L181.728 197.279L186.708 169.329Z" fill="#FFC480"/>
<path d="M166.784 181.247L163.986 179.339L158.929 207.344L161.907 209.126L166.784 181.247Z" fill="#DDA566"/>
<path d="M181.728 197.081L161.854 209.025L161.854 212.933L181.728 201.307L181.728 197.081Z" fill="#FFC480"/>
<path d="M161.892 209.025L143.169 198.121L143.362 202.251L161.892 212.935V209.025Z" fill="#FFC480"/>
<path d="M186.709 169.33L183.743 167.894L163.981 179.343L166.776 181.255L186.709 169.33Z" fill="#DDA566"/>
<path d="M117.27 218.489L114.547 216.688V236.685L117.27 238.349V218.489Z" fill="#8D89C8"/>
<path d="M119.575 219.708L117.27 218.27V238.267L119.575 236.773V219.708Z" fill="#D9D9D9"/>
<path d="M133.332 227.9L130.819 226.099V246.096L133.332 247.76V227.9Z" fill="#8D89C8"/>
<path d="M136.686 226.379L133.331 227.682V247.678L136.686 245.556V226.379Z" fill="#D9D9D9"/>
<path d="M149.603 218.489L147.09 216.688V236.685L149.603 238.349V218.489Z" fill="#8D89C8"/>
<path d="M152.958 216.968L149.603 218.27V238.267L152.958 236.145V216.968Z" fill="#D9D9D9"/>
<path d="M152.958 213.093L134.876 202.873L114.547 214.416L133.077 225.335L152.958 213.093Z" fill="#DF9B4E"/>
<path d="M158.086 185.619L138.152 197.545L133.285 225.332L153.106 213.568L158.086 185.619Z" fill="#FFC480"/>
<path d="M138.162 197.537L135.364 195.628L130.307 223.634L133.285 225.415L138.162 197.537Z" fill="#DDA566"/>
<path d="M153.106 213.37L133.232 225.314L133.232 229.222L153.106 217.597L153.106 213.37Z" fill="#FFC480"/>
<path d="M133.27 225.314L114.547 214.411L114.74 218.54L133.27 229.224V225.314Z" fill="#FFC480"/>
<path d="M158.087 185.62L155.121 184.183L135.359 195.632L138.154 197.544L158.087 185.62Z" fill="#DDA566"/>
<path d="M88.6479 235.549L85.9246 233.748V253.745L88.6479 255.409V235.549Z" fill="#8D89C8"/>
<path d="M90.9531 236.768L88.648 235.331V255.327L90.9531 253.833V236.768Z" fill="#D9D9D9"/>
<path d="M104.709 244.96L102.197 243.16V263.156L104.709 264.821V244.96Z" fill="#8D89C8"/>
<path d="M108.064 243.439L104.709 244.742V264.739L108.064 262.617V243.439Z" fill="#D9D9D9"/>
<path d="M120.981 235.549L118.468 233.748V253.745L120.981 255.409V235.549Z" fill="#8D89C8"/>
<path d="M124.335 234.028L120.981 235.331V255.327L124.335 253.205V234.028Z" fill="#D9D9D9"/>
<path d="M124.335 230.153L106.254 219.933L85.9247 231.476L104.455 242.395L124.335 230.153Z" fill="#DF9B4E"/>
<path d="M129.464 202.679L109.53 214.605L104.663 242.392L124.484 230.628L129.464 202.679Z" fill="#FFC480"/>
<path d="M109.54 214.597L106.742 212.688L101.685 240.694L104.663 242.475L109.54 214.597Z" fill="#DDA566"/>
<path d="M124.484 230.43L104.61 242.374L104.61 246.282L124.484 234.657L124.484 230.43Z" fill="#FFC480"/>
<path d="M104.648 242.374L85.9246 231.471L86.118 235.601L104.648 246.284V242.374Z" fill="#FFC480"/>
<path d="M129.465 202.68L126.499 201.243L106.736 212.693L109.532 214.605L129.465 202.68Z" fill="#DDA566"/>
<path d="M208.314 205.863L205.591 204.062V224.059L208.314 225.724V205.863Z" fill="#8D89C8"/>
<path d="M210.619 207.083L208.314 205.645V225.642L210.619 224.148V207.083Z" fill="#D9D9D9"/>
<path d="M224.375 215.275L221.863 213.474V233.471L224.375 235.135V215.275Z" fill="#8D89C8"/>
<path d="M227.73 213.754L224.375 215.056V235.053L227.73 232.931V213.754Z" fill="#D9D9D9"/>
<path d="M240.647 205.863L238.134 204.062V224.059L240.647 225.724V205.863Z" fill="#8D89C8"/>
<path d="M244.001 204.342L240.647 205.645V225.642L244.001 223.52V204.342Z" fill="#D9D9D9"/>
<path d="M244.001 200.467L225.92 190.247L205.591 201.791L224.121 212.709L244.001 200.467Z" fill="#4CC09F"/>
<path d="M249.13 172.993L229.196 184.92L224.329 212.707L244.15 200.943L249.13 172.993Z" fill="#80FFDC"/>
<path d="M229.206 184.911L226.408 183.003L221.351 211.008L224.329 212.79L229.206 184.911Z" fill="#66DDBC"/>
<path d="M244.15 200.745L224.276 212.688L224.276 216.597L244.15 204.971L244.15 200.745Z" fill="#80FFDC"/>
<path d="M224.314 212.688L205.591 201.785L205.784 205.915L224.314 216.599V212.688Z" fill="#80FFDC"/>
<path d="M249.131 172.994L246.165 171.558L226.402 183.007L229.198 184.919L249.131 172.994Z" fill="#66DDBC"/>
<path d="M179.692 222.358L176.969 220.558V240.554L179.692 242.219V222.358Z" fill="#8D89C8"/>
<path d="M181.997 223.578L179.692 222.14V242.137L181.997 240.643V223.578Z" fill="#D9D9D9"/>
<path d="M195.753 231.77L193.24 229.969V249.966L195.753 251.63V231.77Z" fill="#8D89C8"/>
<path d="M199.108 230.249L195.753 231.552V251.548L199.108 249.426V230.249Z" fill="#D9D9D9"/>
<path d="M212.025 222.358L209.512 220.558V240.554L212.025 242.219V222.358Z" fill="#8D89C8"/>
<path d="M215.379 220.838L212.025 222.14V242.137L215.379 240.015V220.838Z" fill="#D9D9D9"/>
<path d="M215.379 216.963L197.297 206.742L176.969 218.286L195.499 229.204L215.379 216.963Z" fill="#4CC09F"/>
<path d="M220.508 189.488L200.574 201.415L195.707 229.202L215.528 217.438L220.508 189.488Z" fill="#80FFDC"/>
<path d="M200.584 201.406L197.786 199.498L192.729 227.504L195.707 229.285L200.584 201.406Z" fill="#66DDBC"/>
<path d="M215.528 217.24L195.654 229.184L195.654 233.092L215.528 221.466L215.528 217.24Z" fill="#80FFDC"/>
<path d="M195.692 229.184L176.969 218.281L177.162 222.41L195.692 233.094V229.184Z" fill="#80FFDC"/>
<path d="M220.509 189.489L217.542 188.053L197.78 199.502L200.576 201.414L220.509 189.489Z" fill="#66DDBC"/>
<path d="M151.07 238.648L148.346 236.847V256.844L151.07 258.508V238.648Z" fill="#8D89C8"/>
<path d="M153.375 239.868L151.07 238.43V258.426L153.375 256.933V239.868Z" fill="#D9D9D9"/>
<path d="M167.131 248.059L164.618 246.259V266.255L167.131 267.92V248.059Z" fill="#8D89C8"/>
<path d="M170.486 246.538L167.131 247.841V267.838L170.486 265.716V246.538Z" fill="#D9D9D9"/>
<path d="M183.403 238.648L180.89 236.847V256.844L183.403 258.508V238.648Z" fill="#8D89C8"/>
<path d="M186.757 237.127L183.403 238.43V258.426L186.757 256.304V237.127Z" fill="#D9D9D9"/>
<path d="M186.757 233.252L168.675 223.032L148.347 234.575L166.876 245.494L186.757 233.252Z" fill="#4CC09F"/>
<path d="M191.886 205.778L171.952 217.704L167.085 245.491L186.906 233.727L191.886 205.778Z" fill="#80FFDC"/>
<path d="M171.962 217.696L169.164 215.787L164.107 243.793L167.084 245.574L171.962 217.696Z" fill="#66DDBC"/>
<path d="M186.906 233.529L167.032 245.473L167.032 249.381L186.906 237.756L186.906 233.529Z" fill="#80FFDC"/>
<path d="M167.07 245.473L148.346 234.57L148.54 238.7L167.07 249.383V245.473Z" fill="#80FFDC"/>
<path d="M191.887 205.779L188.92 204.342L169.158 215.792L171.953 217.703L191.887 205.779Z" fill="#66DDBC"/>
<path d="M122.448 255.708L119.724 253.907V273.904L122.448 275.568V255.708Z" fill="#8D89C8"/>
<path d="M124.753 256.928L122.448 255.49V275.486L124.753 273.993V256.928Z" fill="#D9D9D9"/>
<path d="M138.509 265.119L135.996 263.319V283.315L138.509 284.98V265.119Z" fill="#8D89C8"/>
<path d="M141.864 263.599L138.509 264.901V284.898L141.864 282.776V263.599Z" fill="#D9D9D9"/>
<path d="M154.781 255.708L152.268 253.907V273.904L154.781 275.568V255.708Z" fill="#8D89C8"/>
<path d="M158.135 254.187L154.781 255.49V275.486L158.135 273.364V254.187Z" fill="#D9D9D9"/>
<path d="M158.135 250.312L140.053 240.092L119.724 251.635L138.254 262.554L158.135 250.312Z" fill="#4CC09F"/>
<path d="M163.264 222.838L143.33 234.765L138.463 262.552L158.283 250.787L163.264 222.838Z" fill="#80FFDC"/>
<path d="M143.34 234.756L140.542 232.848L135.484 260.853L138.462 262.635L143.34 234.756Z" fill="#66DDBC"/>
<path d="M158.284 250.589L138.409 262.533L138.409 266.442L158.284 254.816L158.284 250.589Z" fill="#80FFDC"/>
<path d="M138.448 262.533L119.724 251.63L119.918 255.76L138.448 266.443V262.533Z" fill="#80FFDC"/>
<path d="M163.265 222.839L160.298 221.402L140.536 232.852L143.331 234.764L163.265 222.839Z" fill="#66DDBC"/>
<defs>
<linearGradient id="paint0_linear_117_14020" x1="186.442" y1="57.3116" x2="171.41" y2="128.097" gradientUnits="userSpaceOnUse">
<stop stop-color="#B4FFF9"/>
<stop offset="1" stop-color="white"/>
</linearGradient>
<linearGradient id="paint1_linear_117_14020" x1="234.435" y1="85.6752" x2="219.402" y2="156.46" gradientUnits="userSpaceOnUse">
<stop stop-color="#B4FFF9"/>
<stop offset="1" stop-color="white"/>
</linearGradient>
</defs>
</svg>
