
<svg width="500" height="401" viewBox="0 0 500 401" fill="none" xmlns="http://www.w3.org/2000/svg">
    <g clip-path="url(#clip0_562_5660)">
    <path d="M349.76 219.347C416.724 258.009 416.724 320.693 349.76 359.355C282.796 398.017 174.225 398.016 107.26 359.355C40.296 320.693 40.296 258.009 107.26 219.347C174.225 180.686 282.796 180.686 349.76 219.347Z" fill="#ADB4F9"/>
    <path d="M349.76 219.347C416.724 258.009 416.724 320.693 349.76 359.355C282.796 398.017 174.225 398.016 107.26 359.355C40.296 320.693 40.296 258.009 107.26 219.347C174.225 180.686 282.796 180.686 349.76 219.347Z" fill="#ADB4F9"/>
    <path fill-rule="evenodd" clip-rule="evenodd" d="M191.829 251.978C191.788 251.204 192.279 250.422 193.303 249.83L277.688 201.11C279.658 199.973 282.85 199.974 284.819 201.111L417.935 277.965C418.88 278.511 419.372 279.219 419.41 279.934L419.41 281.934C419.372 281.219 418.88 280.511 417.935 279.965L284.819 203.111C282.85 201.974 279.658 201.973 277.688 203.11L193.303 251.83C192.279 252.422 191.788 253.204 191.829 253.978L191.829 251.978Z" fill="#3D3D75"/>
    <path fill-rule="evenodd" clip-rule="evenodd" d="M419.41 279.934C419.451 280.708 418.959 281.491 417.935 282.082L333.55 330.802C331.581 331.939 328.387 331.938 326.419 330.802L193.303 253.947C192.358 253.402 191.866 252.693 191.829 251.978L191.829 253.978C191.866 254.693 192.358 255.402 193.303 255.947L326.419 332.802C328.387 333.938 331.581 333.939 333.55 332.802L417.935 284.082C418.959 283.491 419.451 282.708 419.41 281.934L419.41 279.934Z" fill="#3D3D75"/>
    <g clip-path="url(#clip1_562_5660)">
    <rect width="105.674" height="161.943" rx="4.11719" transform="matrix(0.866025 -0.5 0.866025 0.5 189.738 251.889)" fill="white"/>
    <mask id="path-7-outside-1_562_5660" maskUnits="userSpaceOnUse" x="197.549" y="203.369" width="216.506" height="125" fill="black">
    <rect fill="white" x="197.549" y="203.369" width="216.506" height="125"/>
    <path d="M200.47 252.555C199.813 252.176 199.813 251.562 200.47 251.183L280.035 205.246C280.692 204.867 281.756 204.867 282.412 205.246L410.214 279.032C410.871 279.411 410.871 280.026 410.214 280.405L330.649 326.342C329.992 326.721 328.928 326.721 328.272 326.342L200.47 252.555Z"/>
    </mask>
    <path d="M328.272 326.342L328.985 325.93L328.272 326.342ZM410.214 279.032L409.501 279.444L410.214 279.032ZM282.412 205.246L283.126 204.834L282.412 205.246ZM200.47 252.555L199.757 252.967L200.47 252.555ZM201.183 251.595L280.749 205.657L279.322 204.834L199.757 250.771L201.183 251.595ZM281.699 205.657L409.501 279.444L410.928 278.62L283.126 204.834L281.699 205.657ZM409.501 279.993L329.936 325.93L331.362 326.754L410.928 280.816L409.501 279.993ZM328.985 325.93L201.183 252.144L199.757 252.967L327.559 326.754L328.985 325.93ZM329.936 325.93C329.673 326.082 329.247 326.082 328.985 325.93L327.559 326.754C328.609 327.36 330.312 327.36 331.362 326.754L329.936 325.93ZM409.501 279.444C409.764 279.596 409.764 279.841 409.501 279.993L410.928 280.816C411.978 280.21 411.978 279.227 410.928 278.62L409.501 279.444ZM280.749 205.657C281.011 205.506 281.437 205.506 281.699 205.657L283.126 204.834C282.075 204.228 280.373 204.228 279.322 204.834L280.749 205.657ZM199.757 250.771C198.706 251.378 198.706 252.361 199.757 252.967L201.183 252.144C200.92 251.992 200.92 251.746 201.183 251.595L199.757 250.771Z" fill="#3D3D75" mask="url(#path-7-outside-1_562_5660)"/>
    <path fill-rule="evenodd" clip-rule="evenodd" d="M394.944 277.546C393.891 277.478 392.797 277.677 391.99 278.143C390.582 278.955 390.582 280.273 391.99 281.086C393.398 281.899 395.68 281.899 397.088 281.086C397.231 281.004 397.36 280.916 397.474 280.824C397.611 281.209 397.938 281.577 398.456 281.876C399.864 282.689 402.147 282.689 403.555 281.876C404.963 281.063 404.963 279.745 403.555 278.932C403.037 278.633 402.4 278.444 401.732 278.365C401.892 278.299 402.044 278.225 402.187 278.143C403.595 277.33 403.595 276.012 402.187 275.199C400.779 274.386 398.496 274.386 397.088 275.199C396.234 275.692 395.898 276.372 396.08 277.011C395.637 276.418 395.381 275.897 395.171 275.188L391.954 277.045C393.137 277.183 394.012 277.327 394.944 277.546Z" fill="#3D3D75"/>
    <mask id="path-10-outside-2_562_5660" maskUnits="userSpaceOnUse" x="202.167" y="246.575" width="19.9186" height="11.5" fill="black">
    <rect fill="white" x="202.167" y="246.575" width="19.9186" height="11.5"/>
    <path d="M210.951 247.77C211.09 247.881 211.291 248.012 211.552 248.163C212.067 248.46 212.529 248.656 212.938 248.752L212.729 248.872C212.45 248.822 212.141 248.724 211.801 248.578C211.426 248.432 211.099 248.339 210.82 248.299C210.533 248.253 210.167 248.289 209.722 248.404C209.278 248.52 208.733 248.764 208.088 249.137C207.975 249.202 207.857 249.28 207.735 249.371L216.468 254.413C216.642 254.513 216.821 254.566 217.004 254.571C217.187 254.566 217.362 254.516 217.527 254.42C217.667 254.34 217.793 254.237 217.906 254.111L218.233 254.299L215.291 255.998L214.965 255.809C215.191 255.739 215.37 255.666 215.501 255.59C215.666 255.495 215.749 255.396 215.749 255.296C215.749 255.185 215.662 255.079 215.488 254.979L206.754 249.937C206.597 250.007 206.467 250.073 206.362 250.133C205.717 250.505 205.294 250.82 205.094 251.076C204.893 251.333 204.832 251.544 204.911 251.71C204.981 251.871 205.142 252.06 205.395 252.277C205.647 252.473 205.817 252.651 205.904 252.812L205.695 252.933C205.53 252.697 205.19 252.43 204.676 252.133C204.414 251.982 204.187 251.866 203.996 251.786L203.577 251.59L210.611 247.529L210.951 247.77Z"/>
    </mask>
    <path d="M210.951 247.77C211.09 247.881 211.291 248.012 211.552 248.163C212.067 248.46 212.529 248.656 212.938 248.752L212.729 248.872C212.45 248.822 212.141 248.724 211.801 248.578C211.426 248.432 211.099 248.339 210.82 248.299C210.533 248.253 210.167 248.289 209.722 248.404C209.278 248.52 208.733 248.764 208.088 249.137C207.975 249.202 207.857 249.28 207.735 249.371L216.468 254.413C216.642 254.513 216.821 254.566 217.004 254.571C217.187 254.566 217.362 254.516 217.527 254.42C217.667 254.34 217.793 254.237 217.906 254.111L218.233 254.299L215.291 255.998L214.965 255.809C215.191 255.739 215.37 255.666 215.501 255.59C215.666 255.495 215.749 255.396 215.749 255.296C215.749 255.185 215.662 255.079 215.488 254.979L206.754 249.937C206.597 250.007 206.467 250.073 206.362 250.133C205.717 250.505 205.294 250.82 205.094 251.076C204.893 251.333 204.832 251.544 204.911 251.71C204.981 251.871 205.142 252.06 205.395 252.277C205.647 252.473 205.817 252.651 205.904 252.812L205.695 252.933C205.53 252.697 205.19 252.43 204.676 252.133C204.414 251.982 204.187 251.866 203.996 251.786L203.577 251.59L210.611 247.529L210.951 247.77Z" fill="#3D3D75"/>
    <path d="M210.951 247.77L211.223 247.656L211.218 247.652L211.212 247.648L210.951 247.77ZM212.938 248.752L213.176 248.889L213.535 248.682L213.064 248.572L212.938 248.752ZM212.729 248.872L212.629 249.058L212.823 249.093L212.967 249.01L212.729 248.872ZM211.801 248.578L212.002 248.422L211.989 248.417L211.801 248.578ZM210.82 248.299L210.732 248.486L210.739 248.487L210.82 248.299ZM209.722 248.404L209.584 248.227L209.584 248.227L209.722 248.404ZM207.735 249.371L207.469 249.251L207.287 249.387L207.497 249.508L207.735 249.371ZM217.004 254.571L216.988 254.765L217.004 254.766L217.02 254.765L217.004 254.571ZM217.906 254.111L218.144 253.974L217.82 253.786L217.608 254.021L217.906 254.111ZM218.233 254.299L218.471 254.437L218.709 254.299L218.471 254.162L218.233 254.299ZM215.291 255.998L215.054 256.135L215.291 256.272L215.529 256.135L215.291 255.998ZM214.965 255.809L214.805 255.638L214.407 255.762L214.727 255.946L214.965 255.809ZM215.749 255.296L216.085 255.296L215.749 255.296ZM206.754 249.937L206.992 249.799L206.782 249.678L206.548 249.783L206.754 249.937ZM204.911 251.71L205.237 251.663L205.235 251.659L204.911 251.71ZM205.395 252.277L205.116 252.385L205.125 252.392L205.395 252.277ZM205.904 252.812L206.142 252.95L206.286 252.867L206.225 252.755L205.904 252.812ZM205.695 252.933L205.384 253.006L205.574 253.278L205.933 253.071L205.695 252.933ZM203.996 251.786L203.784 251.937L203.791 251.94L203.798 251.943L203.996 251.786ZM203.577 251.59L203.34 251.452L203.076 251.605L203.365 251.74L203.577 251.59ZM210.611 247.529L210.872 247.406L210.637 247.239L210.373 247.392L210.611 247.529ZM210.679 247.884C210.833 248.007 211.047 248.145 211.315 248.3L211.79 248.026C211.535 247.878 211.348 247.755 211.223 247.656L210.679 247.884ZM211.315 248.3C211.843 248.605 212.342 248.822 212.812 248.932L213.064 248.572C212.715 248.49 212.29 248.314 211.79 248.026L211.315 248.3ZM212.7 248.614L212.491 248.735L212.967 249.01L213.176 248.889L212.7 248.614ZM212.829 248.687C212.599 248.646 212.323 248.56 212.001 248.422L211.6 248.734C211.958 248.887 212.301 248.999 212.629 249.058L212.829 248.687ZM211.989 248.417C211.598 248.265 211.234 248.158 210.902 248.11L210.739 248.487C210.964 248.52 211.254 248.599 211.613 248.739L211.989 248.417ZM210.909 248.111C210.511 248.049 210.058 248.104 209.584 248.227L209.86 248.581C210.276 248.473 210.554 248.458 210.732 248.486L210.909 248.111ZM209.584 248.227C209.083 248.358 208.503 248.622 207.85 248.999L208.326 249.274C208.962 248.906 209.472 248.682 209.86 248.581L209.584 248.227ZM207.85 248.999C207.725 249.072 207.598 249.156 207.469 249.251L208 249.49C208.116 249.404 208.224 249.332 208.326 249.274L207.85 248.999ZM207.497 249.508L216.23 254.55L216.706 254.275L207.973 249.233L207.497 249.508ZM216.23 254.55C216.443 254.673 216.696 254.757 216.988 254.765L217.02 254.377C216.946 254.375 216.842 254.354 216.706 254.275L216.23 254.55ZM217.02 254.765C217.308 254.757 217.557 254.677 217.765 254.557L217.289 254.283C217.166 254.354 217.066 254.375 216.988 254.377L217.02 254.765ZM217.765 254.557C217.934 254.46 218.079 254.34 218.205 254.2L217.608 254.021C217.507 254.134 217.399 254.219 217.289 254.283L217.765 254.557ZM217.669 254.248L217.995 254.437L218.471 254.162L218.144 253.974L217.669 254.248ZM217.995 254.162L215.054 255.861L215.529 256.135L218.471 254.437L217.995 254.162ZM215.529 255.861L215.202 255.672L214.727 255.946L215.054 256.135L215.529 255.861ZM215.124 255.98C215.369 255.904 215.577 255.82 215.738 255.727L215.263 255.453C215.162 255.511 215.013 255.574 214.805 255.638L215.124 255.98ZM215.738 255.727C215.945 255.608 216.085 255.464 216.085 255.296L215.413 255.296C215.413 255.329 215.388 255.381 215.263 255.453L215.738 255.727ZM216.085 255.296C216.085 255.12 215.944 254.968 215.725 254.842L215.25 255.116C215.38 255.191 215.413 255.25 215.413 255.296L216.085 255.296ZM215.725 254.842L206.992 249.799L206.517 250.074L215.25 255.116L215.725 254.842ZM206.548 249.783C206.383 249.857 206.241 249.928 206.124 249.996L206.6 250.27C206.692 250.217 206.811 250.157 206.961 250.09L206.548 249.783ZM206.124 249.996C205.471 250.373 205.013 250.707 204.787 250.997L205.4 251.156C205.575 250.932 205.963 250.638 206.6 250.27L206.124 249.996ZM204.787 250.997C204.574 251.27 204.478 251.532 204.587 251.762L205.235 251.659C205.187 251.557 205.213 251.396 205.4 251.156L204.787 250.997ZM204.585 251.758C204.668 251.949 204.852 252.159 205.116 252.385L205.673 252.168C205.431 251.961 205.293 251.794 205.237 251.663L204.585 251.758ZM205.125 252.392C205.364 252.578 205.512 252.737 205.584 252.87L206.225 252.755C206.123 252.566 205.93 252.367 205.664 252.161L205.125 252.392ZM205.667 252.675L205.458 252.796L205.933 253.071L206.142 252.95L205.667 252.675ZM206.007 252.861C205.817 252.589 205.441 252.301 204.913 251.996L204.438 252.27C204.938 252.559 205.242 252.804 205.384 253.006L206.007 252.861ZM204.913 251.996C204.645 251.841 204.405 251.718 204.193 251.629L203.798 251.943C203.97 252.015 204.183 252.123 204.438 252.27L204.913 251.996ZM204.208 251.635L203.789 251.439L203.365 251.74L203.784 251.937L204.208 251.635ZM203.815 251.727L210.849 247.666L210.373 247.392L203.34 251.452L203.815 251.727ZM210.35 247.651L210.69 247.893L211.212 247.648L210.872 247.406L210.35 247.651Z" fill="#3D3D75" mask="url(#path-10-outside-2_562_5660)"/>
    <mask id="path-12-outside-3_562_5660" maskUnits="userSpaceOnUse" x="376.253" y="266.112" width="21.6506" height="12.5" fill="black">
    <rect fill="white" x="376.253" y="266.112" width="21.6506" height="12.5"/>
    <path d="M386.36 267.09L386.687 267.279C386.461 267.349 386.269 267.43 386.112 267.52C385.894 267.646 385.763 267.777 385.72 267.913C385.685 268.044 385.75 268.157 385.916 268.253L395.081 273.544L394.78 273.718L380.02 271.868L387.969 276.442C388.134 276.538 388.343 276.568 388.596 276.533C388.858 276.493 389.106 276.405 389.341 276.269C389.524 276.163 389.672 276.047 389.786 275.922L390.113 276.11L387.263 277.756L386.936 277.567C387.154 277.502 387.345 277.421 387.511 277.326C387.72 277.205 387.838 277.081 387.864 276.956C387.899 276.825 387.833 276.712 387.668 276.616L379.562 271.936C379.396 271.841 379.2 271.803 378.974 271.823C378.747 271.843 378.529 271.914 378.32 272.034C378.172 272.12 378.037 272.228 377.915 272.359L377.588 272.17L379.64 270.985L392.727 272.532L385.615 268.426C385.45 268.331 385.245 268.298 385.001 268.328C384.757 268.358 384.521 268.439 384.295 268.57C384.12 268.67 383.977 268.784 383.863 268.909L383.536 268.721L386.36 267.09Z"/>
    </mask>
    <path d="M386.36 267.09L386.687 267.279C386.461 267.349 386.269 267.43 386.112 267.52C385.894 267.646 385.763 267.777 385.72 267.913C385.685 268.044 385.75 268.157 385.916 268.253L395.081 273.544L394.78 273.718L380.02 271.868L387.969 276.442C388.134 276.538 388.343 276.568 388.596 276.533C388.858 276.493 389.106 276.405 389.341 276.269C389.524 276.163 389.672 276.047 389.786 275.922L390.113 276.11L387.263 277.756L386.936 277.567C387.154 277.502 387.345 277.421 387.511 277.326C387.72 277.205 387.838 277.081 387.864 276.956C387.899 276.825 387.833 276.712 387.668 276.616L379.562 271.936C379.396 271.841 379.2 271.803 378.974 271.823C378.747 271.843 378.529 271.914 378.32 272.034C378.172 272.12 378.037 272.228 377.915 272.359L377.588 272.17L379.64 270.985L392.727 272.532L385.615 268.426C385.45 268.331 385.245 268.298 385.001 268.328C384.757 268.358 384.521 268.439 384.295 268.57C384.12 268.67 383.977 268.784 383.863 268.909L383.536 268.721L386.36 267.09Z" fill="#3D3D75"/>
    <path d="M386.36 267.09L386.598 266.953L386.36 266.816L386.123 266.953L386.36 267.09ZM386.687 267.279L386.847 267.45L387.244 267.326L386.925 267.142L386.687 267.279ZM385.72 267.913L385.389 267.878L385.388 267.883L385.72 267.913ZM395.081 273.544L395.318 273.681L395.556 273.544L395.318 273.407L395.081 273.544ZM394.78 273.718L394.709 273.907L394.888 273.93L395.018 273.855L394.78 273.718ZM380.02 271.868L380.091 271.679L378.97 271.538L379.782 272.006L380.02 271.868ZM387.969 276.442L388.206 276.305L388.206 276.305L387.969 276.442ZM388.596 276.533L388.675 276.722L388.683 276.721L388.596 276.533ZM389.786 275.922L390.023 275.784L389.699 275.597L389.488 275.832L389.786 275.922ZM390.113 276.11L390.35 276.248L390.588 276.11L390.35 275.973L390.113 276.11ZM387.263 277.756L387.025 277.893L387.263 278.03L387.5 277.893L387.263 277.756ZM386.936 277.567L386.781 277.395L386.374 277.517L386.698 277.704L386.936 277.567ZM387.864 276.956L387.531 276.926L387.53 276.933L387.864 276.956ZM377.915 272.359L377.677 272.496L377.997 272.681L378.211 272.451L377.915 272.359ZM377.588 272.17L377.35 272.033L377.112 272.17L377.35 272.307L377.588 272.17ZM379.64 270.985L379.708 270.795L379.531 270.774L379.403 270.848L379.64 270.985ZM392.727 272.532L392.66 272.723L393.757 272.852L392.965 272.395L392.727 272.532ZM385.001 268.328L385.071 268.518L385.071 268.518L385.001 268.328ZM383.863 268.909L383.626 269.047L383.95 269.234L384.162 268.999L383.863 268.909ZM383.536 268.721L383.299 268.583L383.061 268.721L383.299 268.858L383.536 268.721ZM386.123 267.227L386.45 267.416L386.925 267.142L386.598 266.953L386.123 267.227ZM386.528 267.108C386.277 267.186 386.058 267.277 385.874 267.383L386.35 267.658C386.48 267.582 386.644 267.513 386.847 267.45L386.528 267.108ZM385.874 267.383C385.622 267.529 385.448 267.693 385.389 267.878L386.05 267.948C386.078 267.861 386.166 267.764 386.35 267.658L385.874 267.383ZM385.388 267.883C385.336 268.077 385.439 268.252 385.678 268.39L386.154 268.115C386.062 268.062 386.034 268.011 386.052 267.942L385.388 267.883ZM385.678 268.39L394.843 273.681L395.318 273.407L386.154 268.115L385.678 268.39ZM394.843 273.407L394.542 273.58L395.018 273.855L395.318 273.681L394.843 273.407ZM394.851 273.528L380.091 271.679L379.948 272.058L394.709 273.907L394.851 273.528ZM379.782 272.006L387.731 276.58L388.206 276.305L380.257 271.731L379.782 272.006ZM387.731 276.58C387.99 276.729 388.323 276.771 388.675 276.722L388.517 276.344C388.363 276.366 388.279 276.347 388.206 276.305L387.731 276.58ZM388.683 276.721C389.013 276.67 389.311 276.561 389.579 276.406L389.104 276.132C388.901 276.249 388.702 276.316 388.509 276.345L388.683 276.721ZM389.579 276.406C389.785 276.287 389.954 276.155 390.084 276.011L389.488 275.832C389.391 275.939 389.264 276.039 389.104 276.132L389.579 276.406ZM389.548 276.059L389.875 276.248L390.35 275.973L390.023 275.784L389.548 276.059ZM389.875 275.973L387.025 277.619L387.5 277.893L390.35 276.248L389.875 275.973ZM387.5 277.619L387.173 277.43L386.698 277.704L387.025 277.893L387.5 277.619ZM387.091 277.739C387.338 277.665 387.558 277.573 387.749 277.463L387.273 277.188C387.133 277.269 386.97 277.338 386.781 277.395L387.091 277.739ZM387.749 277.463C387.993 277.322 388.16 277.161 388.198 276.979L387.53 276.933C387.516 277.002 387.448 277.088 387.273 277.188L387.749 277.463ZM388.196 276.985C388.248 276.792 388.145 276.617 387.906 276.479L387.43 276.753C387.522 276.806 387.55 276.858 387.532 276.926L388.196 276.985ZM387.906 276.479L379.8 271.799L379.324 272.073L387.43 276.753L387.906 276.479ZM379.8 271.799C379.56 271.661 379.258 271.601 378.923 271.631L379.025 272.015C379.143 272.004 379.233 272.02 379.324 272.073L379.8 271.799ZM378.923 271.631C378.607 271.659 378.327 271.756 378.082 271.897L378.558 272.172C378.731 272.071 378.887 272.027 379.025 272.015L378.923 271.631ZM378.082 271.897C377.906 271.999 377.753 272.123 377.619 272.267L378.211 272.451C378.321 272.333 378.437 272.241 378.558 272.172L378.082 271.897ZM378.152 272.222L377.826 272.033L377.35 272.307L377.677 272.496L378.152 272.222ZM377.826 272.307L379.878 271.122L379.403 270.848L377.35 272.033L377.826 272.307ZM379.573 271.175L392.66 272.723L392.795 272.342L379.708 270.795L379.573 271.175ZM392.965 272.395L385.853 268.289L385.378 268.563L392.49 272.67L392.965 272.395ZM385.853 268.289C385.601 268.143 385.277 268.095 384.93 268.138L385.071 268.518C385.213 268.5 385.299 268.518 385.378 268.563L385.853 268.289ZM384.93 268.138C384.607 268.178 384.317 268.283 384.057 268.432L384.532 268.707C384.726 268.595 384.906 268.538 385.071 268.518L384.93 268.138ZM384.057 268.432C383.859 268.547 383.694 268.676 383.565 268.82L384.162 268.999C384.259 268.891 384.382 268.794 384.532 268.707L384.057 268.432ZM384.101 268.772L383.774 268.583L383.299 268.858L383.626 269.047L384.101 268.772ZM383.774 268.858L386.598 267.227L386.123 266.953L383.299 268.583L383.774 268.858Z" fill="#3D3D75" mask="url(#path-12-outside-3_562_5660)"/>
    <path fill-rule="evenodd" clip-rule="evenodd" d="M315.212 273.959C315.668 276.297 314.343 278.729 311.238 280.522C305.822 283.649 297.042 283.649 291.627 280.522C286.212 277.396 286.212 272.326 291.627 269.2C292.177 268.882 292.762 268.597 293.375 268.344C290.806 268.04 288.358 267.313 286.365 266.162C280.95 263.036 280.95 257.966 286.365 254.84C291.781 251.713 300.561 251.713 305.976 254.84C307.969 255.99 309.228 257.404 309.755 258.887C310.193 258.533 310.688 258.195 311.238 257.878C316.653 254.751 325.433 254.751 330.849 257.878C336.264 261.004 336.264 266.073 330.849 269.2C327.564 271.096 323.04 271.843 318.781 271.438C322.73 272.422 326.198 272.99 330.92 273.457L318.548 280.6C317.632 277.972 316.67 276.029 315.212 273.959Z" fill="#3D3D75"/>
    <path fill-rule="evenodd" clip-rule="evenodd" d="M225.869 260.916C225.988 261.524 225.643 262.156 224.836 262.622C223.428 263.435 221.145 263.435 219.737 262.622C218.33 261.809 218.33 260.491 219.737 259.678C219.881 259.596 220.033 259.521 220.192 259.456C219.524 259.377 218.888 259.188 218.37 258.888C216.962 258.076 216.962 256.758 218.37 255.945C219.777 255.132 222.06 255.132 223.468 255.945C223.986 256.244 224.314 256.611 224.45 256.997C224.564 256.905 224.693 256.817 224.836 256.735C226.244 255.922 228.527 255.922 229.935 256.735C231.342 257.547 231.342 258.865 229.935 259.678C229.08 260.172 227.903 260.366 226.795 260.26C227.822 260.516 228.724 260.664 229.953 260.785L226.736 262.642C226.498 261.959 226.248 261.454 225.869 260.916Z" fill="#3D3D75"/>
    </g>
    <rect x="0.713118" width="104.851" height="161.119" rx="3.70547" transform="matrix(0.866025 -0.5 0.866025 0.5 189.834 252.246)" stroke="#3D3D75" stroke-width="0.823437"/>
    <path fill-rule="evenodd" clip-rule="evenodd" d="M115.498 253.547C115.457 252.773 115.949 251.991 116.973 251.399L201.358 202.68C203.327 201.543 206.52 201.543 208.489 202.68L341.605 279.534C342.55 280.08 343.041 280.788 343.079 281.503L343.079 283.503C343.041 282.788 342.55 282.08 341.605 281.534L208.489 204.68C206.52 203.543 203.327 203.543 201.358 204.68L116.973 253.399C115.949 253.991 115.457 254.773 115.498 255.547L115.498 253.547Z" fill="#3D3D75"/>
    <path fill-rule="evenodd" clip-rule="evenodd" d="M343.079 281.503C343.12 282.278 342.629 283.06 341.605 283.651L257.219 332.371C255.25 333.508 252.057 333.508 250.088 332.371L116.973 255.517C116.027 254.971 115.536 254.263 115.498 253.548L115.498 255.548C115.536 256.263 116.027 256.971 116.973 257.517L250.088 334.371C252.057 335.508 255.25 335.508 257.219 334.371L341.605 285.651C342.629 285.06 343.12 284.278 343.079 283.503L343.079 281.503Z" fill="#3D3D75"/>
    <g clip-path="url(#clip2_562_5660)">
    <rect width="105.674" height="161.943" rx="4.11719" transform="matrix(0.866025 -0.5 0.866025 0.5 113.407 253.458)" fill="white"/>
    <mask id="path-20-outside-4_562_5660" maskUnits="userSpaceOnUse" x="121.218" y="204.938" width="216.506" height="125" fill="black">
    <rect fill="white" x="121.218" y="204.938" width="216.506" height="125"/>
    <path d="M124.139 254.125C123.482 253.746 123.482 253.131 124.139 252.752L203.704 206.815C204.361 206.436 205.425 206.436 206.081 206.815L333.883 280.602C334.54 280.981 334.54 281.595 333.883 281.974L254.318 327.911C253.661 328.29 252.597 328.29 251.941 327.911L124.139 254.125Z"/>
    </mask>
    <path d="M254.318 327.911L253.605 327.499L254.318 327.911ZM333.883 281.974L334.597 282.386L333.883 281.974ZM203.704 206.815L202.991 206.403L203.704 206.815ZM124.139 252.752L124.852 253.164L124.139 252.752ZM124.852 253.164L204.417 207.227L202.991 206.403L123.426 252.341L124.852 253.164ZM205.368 207.227L333.17 281.013L334.597 280.19L206.795 206.403L205.368 207.227ZM333.17 281.562L253.605 327.499L255.031 328.323L334.597 282.386L333.17 281.562ZM252.654 327.499L124.852 253.713L123.426 254.536L251.228 328.323L252.654 327.499ZM253.605 327.499C253.342 327.651 252.916 327.651 252.654 327.499L251.228 328.323C252.278 328.929 253.981 328.929 255.031 328.323L253.605 327.499ZM333.17 281.013C333.433 281.165 333.433 281.411 333.17 281.562L334.597 282.386C335.647 281.779 335.647 280.796 334.597 280.19L333.17 281.013ZM204.417 207.227C204.68 207.075 205.106 207.075 205.368 207.227L206.795 206.403C205.744 205.797 204.042 205.797 202.991 206.403L204.417 207.227ZM123.426 252.341C122.375 252.947 122.375 253.93 123.426 254.536L124.852 253.713C124.589 253.561 124.589 253.316 124.852 253.164L123.426 252.341Z" fill="#3D3D75" mask="url(#path-20-outside-4_562_5660)"/>
    <path d="M211.435 277.392C211.795 267.896 210.657 262.693 205.588 253.761C220.463 256.833 229.391 257.611 246.517 257.137C246.196 266.969 247.851 272.204 253.095 281.189C237.071 277.885 227.982 276.913 211.435 277.392Z" fill="#3D3D75" stroke="#3D3D75" stroke-width="1.68788"/>
    <path d="M144.568 263.763C144.652 261.535 144.385 260.314 143.196 258.219C146.686 258.939 148.781 259.122 152.799 259.011C152.724 261.318 153.113 262.546 154.343 264.655C150.583 263.879 148.45 263.651 144.568 263.763Z" fill="#3D3D75" stroke="#3D3D75" stroke-width="0.396059"/>
    <path d="M316.667 282.703C316.751 280.475 316.484 279.254 315.295 277.158C318.785 277.879 320.88 278.061 324.899 277.95C324.823 280.257 325.212 281.485 326.442 283.594C322.682 282.818 320.549 282.59 316.667 282.703Z" fill="#3D3D75" stroke="#3D3D75" stroke-width="0.396059"/>
    <mask id="path-25-outside-5_562_5660" maskUnits="userSpaceOnUse" x="125.836" y="248.145" width="19.9186" height="11.5" fill="black">
    <rect fill="white" x="125.836" y="248.145" width="19.9186" height="11.5"/>
    <path d="M134.62 249.34C134.759 249.45 134.96 249.581 135.221 249.732C135.736 250.029 136.198 250.225 136.607 250.321L136.398 250.442C136.119 250.391 135.81 250.293 135.47 250.147C135.095 250.001 134.768 249.908 134.489 249.868C134.202 249.823 133.836 249.858 133.391 249.974C132.946 250.089 132.402 250.333 131.757 250.706C131.643 250.771 131.526 250.849 131.404 250.94L140.137 255.982C140.311 256.083 140.49 256.136 140.673 256.141C140.856 256.136 141.03 256.085 141.196 255.99C141.336 255.909 141.462 255.806 141.575 255.68L141.902 255.869L138.96 257.567L138.634 257.378C138.86 257.308 139.039 257.235 139.17 257.16C139.335 257.064 139.418 256.966 139.418 256.865C139.418 256.754 139.331 256.649 139.157 256.548L130.423 251.506C130.266 251.576 130.136 251.642 130.031 251.702C129.386 252.075 128.963 252.389 128.763 252.646C128.562 252.902 128.501 253.114 128.58 253.28C128.65 253.441 128.811 253.63 129.064 253.846C129.316 254.042 129.486 254.221 129.573 254.382L129.364 254.503C129.199 254.266 128.859 253.999 128.344 253.702C128.083 253.552 127.856 253.436 127.665 253.355L127.246 253.159L134.28 249.098L134.62 249.34Z"/>
    </mask>
    <path d="M134.62 249.34C134.759 249.45 134.96 249.581 135.221 249.732C135.736 250.029 136.198 250.225 136.607 250.321L136.398 250.442C136.119 250.391 135.81 250.293 135.47 250.147C135.095 250.001 134.768 249.908 134.489 249.868C134.202 249.823 133.836 249.858 133.391 249.974C132.946 250.089 132.402 250.333 131.757 250.706C131.643 250.771 131.526 250.849 131.404 250.94L140.137 255.982C140.311 256.083 140.49 256.136 140.673 256.141C140.856 256.136 141.03 256.085 141.196 255.99C141.336 255.909 141.462 255.806 141.575 255.68L141.902 255.869L138.96 257.567L138.634 257.378C138.86 257.308 139.039 257.235 139.17 257.16C139.335 257.064 139.418 256.966 139.418 256.865C139.418 256.754 139.331 256.649 139.157 256.548L130.423 251.506C130.266 251.576 130.136 251.642 130.031 251.702C129.386 252.075 128.963 252.389 128.763 252.646C128.562 252.902 128.501 253.114 128.58 253.28C128.65 253.441 128.811 253.63 129.064 253.846C129.316 254.042 129.486 254.221 129.573 254.382L129.364 254.503C129.199 254.266 128.859 253.999 128.344 253.702C128.083 253.552 127.856 253.436 127.665 253.355L127.246 253.159L134.28 249.098L134.62 249.34Z" fill="#3D3D75"/>
    <path d="M134.62 249.34L134.892 249.225L134.887 249.221L134.881 249.217L134.62 249.34ZM136.607 250.321L136.845 250.458L137.204 250.251L136.733 250.141L136.607 250.321ZM136.398 250.442L136.298 250.627L136.492 250.662L136.636 250.579L136.398 250.442ZM135.47 250.147L135.671 249.991L135.658 249.986L135.47 250.147ZM134.489 249.868L134.401 250.055L134.408 250.056L134.489 249.868ZM133.391 249.974L133.253 249.797L133.253 249.797L133.391 249.974ZM131.404 250.94L131.138 250.821L130.956 250.956L131.166 251.077L131.404 250.94ZM140.673 256.141L140.657 256.334L140.673 256.335L140.689 256.334L140.673 256.141ZM141.575 255.68L141.813 255.543L141.489 255.356L141.277 255.591L141.575 255.68ZM141.902 255.869L142.14 256.006L142.377 255.869L142.14 255.732L141.902 255.869ZM138.96 257.567L138.723 257.704L138.96 257.842L139.198 257.704L138.96 257.567ZM138.634 257.378L138.474 257.208L138.076 257.331L138.396 257.516L138.634 257.378ZM139.418 256.865L139.754 256.865L139.418 256.865ZM130.423 251.506L130.661 251.369L130.451 251.248L130.217 251.353L130.423 251.506ZM128.58 253.28L128.906 253.233L128.904 253.229L128.58 253.28ZM129.064 253.846L128.785 253.955L128.794 253.962L129.064 253.846ZM129.573 254.382L129.811 254.519L129.955 254.436L129.894 254.324L129.573 254.382ZM129.364 254.503L129.053 254.575L129.243 254.847L129.602 254.64L129.364 254.503ZM127.665 253.355L127.453 253.506L127.46 253.509L127.467 253.512L127.665 253.355ZM127.246 253.159L127.009 253.022L126.745 253.174L127.034 253.31L127.246 253.159ZM134.28 249.098L134.541 248.976L134.306 248.809L134.042 248.961L134.28 249.098ZM134.348 249.454C134.502 249.576 134.716 249.715 134.984 249.869L135.459 249.595C135.204 249.448 135.017 249.325 134.892 249.225L134.348 249.454ZM134.984 249.869C135.512 250.174 136.011 250.391 136.481 250.501L136.733 250.141C136.384 250.059 135.959 249.884 135.459 249.595L134.984 249.869ZM136.369 250.184L136.16 250.304L136.636 250.579L136.845 250.458L136.369 250.184ZM136.498 250.256C136.268 250.215 135.992 250.13 135.67 249.992L135.269 250.303C135.627 250.457 135.97 250.568 136.298 250.627L136.498 250.256ZM135.658 249.986C135.267 249.834 134.903 249.728 134.571 249.68L134.408 250.056C134.633 250.089 134.923 250.169 135.282 250.308L135.658 249.986ZM134.578 249.681C134.18 249.618 133.726 249.673 133.253 249.797L133.529 250.151C133.945 250.042 134.223 250.027 134.401 250.055L134.578 249.681ZM133.253 249.797C132.752 249.927 132.172 250.192 131.519 250.569L131.994 250.843C132.631 250.475 133.141 250.252 133.529 250.151L133.253 249.797ZM131.519 250.569C131.394 250.641 131.267 250.725 131.138 250.821L131.669 251.059C131.785 250.973 131.893 250.902 131.994 250.843L131.519 250.569ZM131.166 251.077L139.899 256.119L140.375 255.845L131.641 250.803L131.166 251.077ZM139.899 256.119C140.112 256.242 140.365 256.326 140.657 256.334L140.689 255.947C140.615 255.945 140.511 255.923 140.375 255.845L139.899 256.119ZM140.689 256.334C140.977 256.327 141.226 256.247 141.434 256.127L140.958 255.852C140.835 255.924 140.735 255.945 140.657 255.947L140.689 256.334ZM141.434 256.127C141.603 256.029 141.748 255.909 141.873 255.77L141.277 255.591C141.176 255.703 141.068 255.789 140.958 255.852L141.434 256.127ZM141.337 255.817L141.664 256.006L142.14 255.732L141.813 255.543L141.337 255.817ZM141.664 255.732L138.723 257.43L139.198 257.704L142.14 256.006L141.664 255.732ZM139.198 257.43L138.871 257.241L138.396 257.516L138.723 257.704L139.198 257.43ZM138.793 257.549C139.038 257.473 139.246 257.39 139.407 257.297L138.932 257.022C138.831 257.08 138.682 257.143 138.474 257.208L138.793 257.549ZM139.407 257.297C139.614 257.178 139.754 257.033 139.754 256.865L139.082 256.865C139.082 256.899 139.057 256.95 138.932 257.022L139.407 257.297ZM139.754 256.865C139.754 256.689 139.613 256.537 139.394 256.411L138.919 256.685C139.049 256.761 139.082 256.82 139.082 256.865L139.754 256.865ZM139.394 256.411L130.661 251.369L130.186 251.643L138.919 256.685L139.394 256.411ZM130.217 251.353C130.052 251.427 129.91 251.497 129.793 251.565L130.269 251.839C130.361 251.786 130.48 251.726 130.63 251.659L130.217 251.353ZM129.793 251.565C129.14 251.942 128.682 252.277 128.456 252.566L129.069 252.726C129.244 252.502 129.632 252.207 130.269 251.839L129.793 251.565ZM128.456 252.566C128.243 252.839 128.147 253.101 128.256 253.331L128.904 253.229C128.856 253.126 128.882 252.965 129.069 252.726L128.456 252.566ZM128.254 253.327C128.337 253.519 128.521 253.729 128.785 253.954L129.342 253.737C129.1 253.53 128.962 253.363 128.906 253.233L128.254 253.327ZM128.794 253.962C129.033 254.148 129.181 254.307 129.253 254.44L129.894 254.324C129.792 254.135 129.599 253.937 129.333 253.73L128.794 253.962ZM129.336 254.245L129.127 254.365L129.602 254.64L129.811 254.519L129.336 254.245ZM129.676 254.43C129.486 254.159 129.11 253.87 128.582 253.565L128.107 253.84C128.607 254.129 128.911 254.374 129.053 254.575L129.676 254.43ZM128.582 253.565C128.314 253.411 128.074 253.287 127.862 253.198L127.467 253.512C127.639 253.584 127.852 253.692 128.107 253.84L128.582 253.565ZM127.877 253.205L127.458 253.008L127.034 253.31L127.453 253.506L127.877 253.205ZM127.484 253.296L134.518 249.235L134.042 248.961L127.009 253.022L127.484 253.296ZM134.019 249.221L134.359 249.462L134.881 249.217L134.541 248.976L134.019 249.221Z" fill="#3D3D75" mask="url(#path-25-outside-5_562_5660)"/>
    <mask id="path-27-outside-6_562_5660" maskUnits="userSpaceOnUse" x="297.069" y="266.584" width="21.6506" height="12.5" fill="black">
    <rect fill="white" x="297.069" y="266.584" width="21.6506" height="12.5"/>
    <path d="M307.177 267.562L307.504 267.75C307.277 267.821 307.085 267.901 306.928 267.992C306.711 268.118 306.58 268.249 306.536 268.384C306.501 268.515 306.567 268.628 306.732 268.724L315.897 274.015L315.596 274.189L300.836 272.34L308.785 276.914C308.951 277.009 309.16 277.04 309.412 277.004C309.674 276.964 309.922 276.876 310.158 276.74C310.341 276.635 310.489 276.519 310.602 276.393L310.929 276.582L308.079 278.227L307.752 278.039C307.97 277.973 308.162 277.893 308.327 277.797C308.537 277.676 308.654 277.553 308.68 277.427C308.715 277.296 308.65 277.183 308.484 277.087L300.378 272.408C300.213 272.312 300.017 272.274 299.79 272.294C299.564 272.315 299.346 272.385 299.136 272.506C298.988 272.591 298.853 272.699 298.731 272.83L298.404 272.642L300.457 271.457L313.544 273.004L306.432 268.898C306.266 268.802 306.061 268.769 305.817 268.8C305.573 268.83 305.338 268.91 305.111 269.041C304.937 269.142 304.793 269.255 304.68 269.381L304.353 269.192L307.177 267.562Z"/>
    </mask>
    <path d="M307.177 267.562L307.504 267.75C307.277 267.821 307.085 267.901 306.928 267.992C306.711 268.118 306.58 268.249 306.536 268.384C306.501 268.515 306.567 268.628 306.732 268.724L315.897 274.015L315.596 274.189L300.836 272.34L308.785 276.914C308.951 277.009 309.16 277.04 309.412 277.004C309.674 276.964 309.922 276.876 310.158 276.74C310.341 276.635 310.489 276.519 310.602 276.393L310.929 276.582L308.079 278.227L307.752 278.039C307.97 277.973 308.162 277.893 308.327 277.797C308.537 277.676 308.654 277.553 308.68 277.427C308.715 277.296 308.65 277.183 308.484 277.087L300.378 272.408C300.213 272.312 300.017 272.274 299.79 272.294C299.564 272.315 299.346 272.385 299.136 272.506C298.988 272.591 298.853 272.699 298.731 272.83L298.404 272.642L300.457 271.457L313.544 273.004L306.432 268.898C306.266 268.802 306.061 268.769 305.817 268.8C305.573 268.83 305.338 268.91 305.111 269.041C304.937 269.142 304.793 269.255 304.68 269.381L304.353 269.192L307.177 267.562Z" fill="#3D3D75"/>
    <path d="M307.177 267.562L307.415 267.424L307.177 267.287L306.939 267.424L307.177 267.562ZM307.504 267.75L307.663 267.921L308.061 267.798L307.741 267.613L307.504 267.75ZM306.536 268.384L306.206 268.349L306.204 268.355L306.536 268.384ZM315.897 274.015L316.135 274.153L316.372 274.015L316.135 273.878L315.897 274.015ZM315.596 274.189L315.525 274.379L315.704 274.401L315.834 274.326L315.596 274.189ZM300.836 272.34L300.907 272.15L299.786 272.01L300.599 272.477L300.836 272.34ZM308.785 276.914L309.023 276.777L309.022 276.776L308.785 276.914ZM309.412 277.004L309.491 277.193L309.499 277.192L309.412 277.004ZM310.602 276.393L310.84 276.256L310.516 276.069L310.304 276.303L310.602 276.393ZM310.929 276.582L311.167 276.719L311.404 276.582L311.167 276.444L310.929 276.582ZM308.079 278.227L307.841 278.364L308.079 278.502L308.317 278.364L308.079 278.227ZM307.752 278.039L307.597 277.866L307.19 277.989L307.514 278.176L307.752 278.039ZM308.68 277.427L308.348 277.398L308.347 277.404L308.68 277.427ZM298.731 272.83L298.493 272.968L298.813 273.152L299.027 272.922L298.731 272.83ZM298.404 272.642L298.167 272.504L297.929 272.642L298.167 272.779L298.404 272.642ZM300.457 271.457L300.524 271.266L300.347 271.245L300.219 271.319L300.457 271.457ZM313.544 273.004L313.476 273.194L314.573 273.324L313.781 272.867L313.544 273.004ZM305.817 268.8L305.888 268.989L305.888 268.989L305.817 268.8ZM304.68 269.381L304.442 269.518L304.766 269.705L304.978 269.47L304.68 269.381ZM304.353 269.192L304.115 269.055L303.877 269.192L304.115 269.329L304.353 269.192ZM306.939 267.699L307.266 267.888L307.741 267.613L307.415 267.424L306.939 267.699ZM307.344 267.579C307.093 267.657 306.874 267.749 306.691 267.855L307.166 268.129C307.297 268.054 307.461 267.984 307.663 267.921L307.344 267.579ZM306.691 267.855C306.439 268 306.265 268.165 306.206 268.349L306.867 268.42C306.895 268.332 306.983 268.235 307.166 268.129L306.691 267.855ZM306.204 268.355C306.152 268.548 306.255 268.723 306.495 268.861L306.97 268.587C306.878 268.534 306.85 268.482 306.868 268.414L306.204 268.355ZM306.495 268.861L315.659 274.153L316.135 273.878L306.97 268.587L306.495 268.861ZM315.659 273.878L315.359 274.052L315.834 274.326L316.135 274.153L315.659 273.878ZM315.668 273.999L300.907 272.15L300.765 272.529L315.525 274.379L315.668 273.999ZM300.599 272.477L308.548 277.051L309.022 276.776L301.073 272.202L300.599 272.477ZM308.547 277.051C308.806 277.201 309.14 277.242 309.491 277.193L309.334 276.816C309.18 276.837 309.095 276.818 309.023 276.777L308.547 277.051ZM309.499 277.192C309.829 277.141 310.128 277.032 310.395 276.877L309.92 276.603C309.717 276.72 309.518 276.787 309.326 276.817L309.499 277.192ZM310.395 276.877C310.601 276.759 310.77 276.627 310.9 276.483L310.304 276.303C310.207 276.411 310.08 276.511 309.92 276.603L310.395 276.877ZM310.364 276.53L310.691 276.719L311.167 276.444L310.84 276.256L310.364 276.53ZM310.691 276.444L307.841 278.09L308.317 278.364L311.167 276.719L310.691 276.444ZM308.317 278.09L307.99 277.901L307.514 278.176L307.841 278.364L308.317 278.09ZM307.907 278.211C308.154 278.137 308.374 278.045 308.565 277.934L308.09 277.66C307.949 277.741 307.786 277.81 307.597 277.866L307.907 278.211ZM308.565 277.934C308.809 277.793 308.976 277.632 309.014 277.45L308.347 277.404C308.332 277.474 308.264 277.559 308.09 277.66L308.565 277.934ZM309.013 277.457C309.064 277.263 308.961 277.088 308.722 276.95L308.247 277.225C308.338 277.278 308.366 277.329 308.348 277.398L309.013 277.457ZM308.722 276.95L300.616 272.27L300.141 272.545L308.247 277.225L308.722 276.95ZM300.616 272.27C300.377 272.132 300.074 272.073 299.739 272.103L299.841 272.486C299.959 272.476 300.049 272.492 300.141 272.545L300.616 272.27ZM299.739 272.103C299.424 272.131 299.144 272.227 298.899 272.368L299.374 272.643C299.547 272.543 299.703 272.498 299.841 272.486L299.739 272.103ZM298.899 272.368C298.723 272.47 298.569 272.594 298.435 272.738L299.027 272.922C299.137 272.804 299.254 272.713 299.374 272.643L298.899 272.368ZM298.969 272.693L298.642 272.504L298.167 272.779L298.493 272.968L298.969 272.693ZM298.642 272.779L300.695 271.594L300.219 271.319L298.167 272.504L298.642 272.779ZM300.389 271.647L313.476 273.194L313.611 272.814L300.524 271.266L300.389 271.647ZM313.781 272.867L306.669 268.76L306.194 269.035L313.306 273.141L313.781 272.867ZM306.669 268.76C306.417 268.615 306.093 268.567 305.747 268.61L305.888 268.989C306.029 268.972 306.115 268.989 306.194 269.035L306.669 268.76ZM305.747 268.61C305.424 268.65 305.133 268.754 304.873 268.904L305.349 269.178C305.543 269.067 305.723 269.01 305.888 268.989L305.747 268.61ZM304.873 268.904C304.675 269.018 304.511 269.148 304.381 269.291L304.978 269.47C305.075 269.362 305.199 269.265 305.349 269.178L304.873 268.904ZM304.917 269.244L304.591 269.055L304.115 269.329L304.442 269.518L304.917 269.244ZM304.591 269.329L307.415 267.699L306.939 267.424L304.115 269.055L304.591 269.329Z" fill="#3D3D75" mask="url(#path-27-outside-6_562_5660)"/>
    </g>
    <rect x="0.713118" width="104.851" height="161.119" rx="3.70547" transform="matrix(0.866025 -0.5 0.866025 0.5 113.503 253.815)" stroke="#3D3D75" stroke-width="0.823437"/>
    <path fill-rule="evenodd" clip-rule="evenodd" d="M335.201 185.476C335.096 193.215 329.877 200.885 319.57 206.651C298.956 218.182 265.794 217.733 245.501 205.646C235.76 199.845 230.754 192.417 230.462 184.985L230.343 193.73C230.636 201.162 235.641 208.59 245.382 214.392C265.676 226.478 298.838 226.928 319.452 215.396C329.759 209.63 334.977 201.96 335.082 194.222L335.201 185.476Z" fill="#CD5769"/>
    <path fill-rule="evenodd" clip-rule="evenodd" d="M230.462 184.985C230.146 176.934 235.361 168.879 246.08 162.882C266.694 151.35 299.856 151.8 320.15 163.886C330.297 169.929 335.306 177.738 335.201 185.476L335.082 194.222C335.187 186.483 330.178 178.675 320.032 172.632C299.738 160.545 266.576 160.096 245.962 171.627C235.242 177.624 230.027 185.679 230.343 193.73L230.462 184.985Z" fill="#CD5769"/>
    <path d="M320.15 163.886C340.444 175.973 340.184 195.119 319.57 206.651C298.956 218.182 265.794 217.733 245.5 205.646C225.207 193.56 225.466 174.414 246.08 162.882C266.694 151.35 299.856 151.8 320.15 163.886Z" fill="#D9D9D9"/>
    <path fill-rule="evenodd" clip-rule="evenodd" d="M335.341 175.157C335.236 182.896 330.018 190.565 319.711 196.331C299.097 207.863 265.935 207.413 245.641 195.327C235.9 189.526 230.894 182.098 230.602 174.666L230.484 183.411C230.776 190.843 235.781 198.271 245.522 204.072C265.816 216.159 298.978 216.608 319.592 205.076C329.899 199.311 335.117 191.641 335.222 183.902L335.341 175.157Z" fill="#CD5769"/>
    <path fill-rule="evenodd" clip-rule="evenodd" d="M230.602 174.666C230.286 166.615 235.501 158.559 246.22 152.563C266.834 141.031 299.996 141.481 320.29 153.567C330.437 159.61 335.446 167.418 335.341 175.157L335.222 183.902C335.327 176.163 330.319 168.355 320.172 162.312C299.878 150.226 266.716 149.776 246.102 161.308C235.383 167.305 230.167 175.36 230.483 183.411L230.602 174.666Z" fill="#CD5769"/>
    <path d="M320.29 153.567C340.584 165.653 340.324 184.799 319.71 196.331C299.096 207.863 265.934 207.413 245.641 195.327C225.347 183.241 225.606 164.095 246.22 152.563C266.834 141.031 299.996 141.481 320.29 153.567Z" fill="#D9D9D9"/>
    <path fill-rule="evenodd" clip-rule="evenodd" d="M335.479 165.012C335.374 172.751 330.155 180.421 319.848 186.187C299.234 197.718 266.072 197.269 245.778 185.183C236.037 179.381 231.032 171.953 230.74 164.521L230.621 173.267C230.913 180.698 235.919 188.126 245.66 193.928C265.954 206.014 299.116 206.464 319.73 194.932C330.037 189.166 335.255 181.497 335.36 173.758L335.479 165.012Z" fill="#CD5769"/>
    <path fill-rule="evenodd" clip-rule="evenodd" d="M230.74 164.521C230.423 156.47 235.639 148.415 246.358 142.418C266.972 130.886 300.134 131.336 320.428 143.422C330.575 149.466 335.583 157.274 335.478 165.012L335.36 173.758C335.465 166.019 330.456 158.211 320.309 152.168C300.016 140.081 266.853 139.632 246.239 151.164C235.52 157.16 230.305 165.215 230.621 173.267L230.74 164.521Z" fill="#CD5769"/>
    <path d="M320.428 143.422C340.722 155.509 340.462 174.655 319.848 186.187C299.234 197.718 266.072 197.269 245.778 185.183C225.485 173.096 225.744 153.95 246.358 142.418C266.972 130.886 300.134 131.336 320.428 143.422Z" fill="#D9D9D9"/>
    <path fill-rule="evenodd" clip-rule="evenodd" d="M335.617 155.238C335.512 162.977 330.294 170.646 319.987 176.412C299.373 187.944 266.211 187.494 245.917 175.408C236.176 169.606 231.171 162.178 230.879 154.747L230.76 163.492C231.052 170.924 236.058 178.352 245.799 184.153C266.092 196.239 299.254 196.689 319.868 185.157C330.175 179.391 335.394 171.722 335.499 163.983L335.617 155.238Z" fill="#CD5769"/>
    <path fill-rule="evenodd" clip-rule="evenodd" d="M230.878 154.747C230.562 146.696 235.777 138.64 246.497 132.644C267.111 121.112 300.273 121.561 320.567 133.648C330.713 139.691 335.722 147.499 335.617 155.238L335.499 163.983C335.603 156.244 330.595 148.436 320.448 142.393C300.154 130.307 266.992 129.857 246.378 141.389C235.659 147.385 230.443 155.441 230.76 163.492L230.878 154.747Z" fill="#CD5769"/>
    <path d="M320.567 133.648C340.86 145.734 340.601 164.88 319.987 176.412C299.373 187.944 266.211 187.494 245.917 175.408C225.623 163.322 225.883 144.175 246.497 132.644C267.111 121.112 300.273 121.561 320.567 133.648Z" fill="#D9D9D9"/>
    <circle cx="42.7682" cy="42.7682" r="42.7682" transform="matrix(0.872723 -0.488215 0.859168 0.511693 209.173 153.436)" fill="#FC6D83"/>
    <circle cx="42.7682" cy="42.7682" r="36.6459" transform="matrix(0.872723 -0.488215 0.859168 0.511693 209.173 153.436)" stroke="white" stroke-width="12.2445" stroke-linejoin="round" stroke-dasharray="13.99 13.99"/>
    <circle cx="27.9874" cy="27.9874" r="26.6754" transform="matrix(0.872723 -0.488215 0.859168 0.511693 234.621 153.781)" stroke="white" stroke-width="2.62381" stroke-linejoin="bevel" stroke-dasharray="3.5 3.5"/>
    <path fill-rule="evenodd" clip-rule="evenodd" d="M326.418 80.6741C329.608 87.7257 328.138 96.885 321.253 106.481C307.483 125.672 277.265 139.34 253.76 137.01C242.478 135.892 234.793 131.291 231.374 124.686L234.979 132.655C238.397 139.26 246.082 143.861 257.365 144.979C280.87 147.309 311.087 133.64 324.858 114.449C331.743 104.854 333.212 95.6944 330.023 88.6428L326.418 80.6741Z" fill="#CD5769"/>
    <path fill-rule="evenodd" clip-rule="evenodd" d="M231.374 124.686C227.67 117.53 228.973 108.023 236.134 98.0435C249.904 78.8524 280.121 65.1837 303.626 67.5136C315.379 68.6785 323.228 73.6225 326.418 80.6741L330.023 88.6428C326.833 81.5912 318.984 76.6472 307.231 75.4823C283.726 73.1524 253.509 86.8211 239.738 106.012C232.578 115.992 231.275 125.499 234.978 132.655L231.374 124.686Z" fill="#CD5769"/>
    <path d="M303.626 67.5136C327.132 69.8434 335.023 87.2894 321.253 106.481C307.483 125.672 277.265 139.34 253.76 137.01C230.255 134.681 222.363 117.235 236.134 98.0435C249.904 78.8524 280.121 65.1837 303.626 67.5136Z" fill="#D9D9D9"/>
    <circle cx="42.7682" cy="42.7682" r="42.7682" transform="matrix(0.582984 -0.812484 0.995124 0.0986367 211.165 132.712)" fill="#FC6D83"/>
    <circle cx="42.7682" cy="42.7682" r="36.6459" transform="matrix(0.582984 -0.812484 0.995124 0.0986367 211.165 132.712)" stroke="white" stroke-width="12.2445" stroke-linejoin="round" stroke-dasharray="13.99 13.99"/>
    <circle cx="27.9874" cy="27.9874" r="26.6754" transform="matrix(0.582984 -0.812484 0.995124 0.0986367 234.352 122.224)" stroke="white" stroke-width="2.62381" stroke-linejoin="bevel" stroke-dasharray="3.5 3.5"/>
    <path fill-rule="evenodd" clip-rule="evenodd" d="M204.751 102.331C202.318 100.41 200.985 97.1214 201.049 92.4488C201.275 75.7609 219.221 47.7409 241.134 29.8641C256.91 16.9928 270.441 12.8891 276.697 17.8289L284.628 24.6658C278.372 19.726 264.842 23.8297 249.065 36.701C227.153 54.5778 209.206 82.5978 208.98 99.2857C208.916 103.958 210.249 107.247 212.682 109.168L204.751 102.331Z" fill="#CD5769"/>
    <path fill-rule="evenodd" clip-rule="evenodd" d="M276.698 17.829C279.131 19.75 280.463 23.0387 280.4 27.7113C280.174 44.3992 262.227 72.4192 240.315 90.296C224.538 103.167 211.007 107.271 204.751 102.331L212.682 109.168C218.938 114.108 232.469 110.004 248.246 97.1329C270.158 79.2561 288.105 51.2361 288.331 34.5482C288.394 29.8756 287.062 26.5869 284.629 24.6659L276.698 17.829Z" fill="#CD5769"/>
    <path d="M280.399 27.7112C280.173 44.3991 262.227 72.4191 240.314 90.2959C218.402 108.173 200.822 109.137 201.049 92.4488C201.275 75.7609 219.221 47.7409 241.134 29.8641C263.046 11.9873 280.626 11.0234 280.399 27.7112Z" fill="#D9D9D9"/>
    <circle cx="42.7682" cy="42.7682" r="42.7682" transform="matrix(0.881111 -0.472909 -0.338355 0.941019 217.909 40.72)" fill="#FC6D83"/>
    <circle cx="42.7682" cy="42.7682" r="36.6459" transform="matrix(0.881111 -0.472909 -0.338355 0.941019 217.909 40.72)" stroke="white" stroke-width="12.2445" stroke-linejoin="round" stroke-dasharray="13.99 13.99"/>
    <circle cx="27.9874" cy="27.9874" r="26.6754" transform="matrix(0.881111 -0.472909 -0.338355 0.941019 225.884 47.5981)" stroke="white" stroke-width="2.62381" stroke-linejoin="bevel" stroke-dasharray="3.5 3.5"/>
    <ellipse cx="231.535" cy="193.255" rx="48.7155" ry="40.1444" transform="rotate(-82.1005 231.535 193.255)" fill="#CD5769"/>
    <ellipse cx="223.738" cy="192.173" rx="48.7155" ry="40.1444" transform="rotate(-82.1005 223.738 192.173)" fill="#FC6D83"/>
    <path d="M205.532 150.056C210.483 146.722 215.979 144.56 221.712 143.854L222.461 149.93C224.802 149.642 227.188 149.651 229.592 149.984C231.997 150.318 234.294 150.959 236.469 151.874L238.843 146.231C244.168 148.471 248.868 152.048 252.724 156.604L248.05 160.559C251.154 164.227 253.673 168.706 255.395 173.765L261.191 171.793C262.998 177.107 264.005 182.911 264.065 188.968L257.943 189.029C257.968 191.587 257.805 194.201 257.438 196.849C257.07 199.498 256.516 202.058 255.795 204.512L261.669 206.237C259.962 212.049 257.413 217.36 254.227 221.98L249.187 218.505C246.153 222.905 242.51 226.528 238.525 229.213L241.945 234.29C236.994 237.625 231.498 239.787 225.764 240.493L225.016 234.416C222.675 234.705 220.289 234.696 217.885 234.363C215.48 234.029 213.182 233.388 211.008 232.473L208.633 238.116C203.309 235.876 198.609 232.299 194.753 227.742L199.426 223.788C196.322 220.12 193.804 215.641 192.082 210.582L186.286 212.553C184.479 207.24 183.472 201.436 183.412 195.378L189.534 195.318C189.508 192.76 189.672 190.146 190.039 187.498C190.407 184.849 190.961 182.289 191.682 179.835L185.808 178.11C187.515 172.298 190.064 166.987 193.25 162.367L198.29 165.842C201.324 161.442 204.967 157.819 208.952 155.134L205.532 150.056Z" stroke="white" stroke-width="12.2445" stroke-linejoin="round" stroke-dasharray="13.99 13.99"/>
    <path d="M223.643 158.623C224.746 158.498 225.862 158.463 226.984 158.523L226.913 159.833C227.431 159.861 227.95 159.911 228.47 159.983C228.99 160.055 229.503 160.149 230.009 160.263L230.297 158.983C231.393 159.23 232.457 159.567 233.485 159.989L232.988 161.202C233.952 161.597 234.884 162.072 235.781 162.621L236.466 161.502C237.41 162.08 238.316 162.733 239.179 163.457L238.336 164.462C239.134 165.131 239.895 165.864 240.617 166.658L241.588 165.775C242.328 166.589 243.027 167.461 243.68 168.385L242.609 169.143C243.215 170 243.782 170.905 244.306 171.855L245.455 171.221C245.986 172.183 246.475 173.187 246.918 174.228L245.711 174.742C246.126 175.716 246.499 176.724 246.83 177.764L248.08 177.366C248.414 178.416 248.705 179.494 248.95 180.598L247.67 180.883C247.901 181.922 248.091 182.985 248.238 184.069L249.538 183.893C249.686 184.985 249.791 186.096 249.852 187.223L248.542 187.294C248.599 188.36 248.616 189.442 248.589 190.537L249.9 190.569C249.873 191.671 249.804 192.786 249.691 193.909L248.386 193.777C248.332 194.313 248.267 194.85 248.192 195.39C248.117 195.93 248.033 196.465 247.939 196.995L249.231 197.224C249.034 198.335 248.797 199.426 248.523 200.494L247.253 200.168C246.98 201.228 246.67 202.265 246.324 203.276L247.566 203.7C247.2 204.768 246.797 205.809 246.357 206.82L245.154 206.296C244.718 207.299 244.245 208.27 243.74 209.207L244.894 209.83C244.357 210.825 243.784 211.784 243.177 212.702L242.082 211.979C241.481 212.89 240.847 213.758 240.183 214.582L241.205 215.405C240.495 216.286 239.751 217.12 238.978 217.901L238.045 216.978C237.282 217.749 236.49 218.466 235.674 219.125L236.499 220.146C235.618 220.857 234.708 221.506 233.774 222.088L233.081 220.974C232.17 221.541 231.238 222.04 230.288 222.466L230.825 223.663C229.798 224.124 228.748 224.507 227.682 224.805L227.328 223.542C226.316 223.826 225.289 224.029 224.254 224.146L224.402 225.45C223.298 225.575 222.183 225.61 221.061 225.55L221.132 224.24C220.614 224.212 220.095 224.162 219.575 224.09C219.055 224.018 218.542 223.924 218.036 223.81L217.748 225.09C216.652 224.843 215.588 224.505 214.56 224.084L215.057 222.87C214.093 222.475 213.161 222.001 212.264 221.452L211.579 222.571C210.635 221.993 209.729 221.339 208.866 220.616L209.709 219.61C208.911 218.942 208.149 218.208 207.428 217.415L206.457 218.298C205.717 217.483 205.018 216.611 204.364 215.687L205.435 214.93C204.83 214.073 204.263 213.168 203.739 212.218L202.59 212.852C202.059 211.89 201.57 210.886 201.127 209.844L202.334 209.331C201.919 208.357 201.546 207.349 201.215 206.309L199.965 206.707C199.631 205.657 199.34 204.579 199.094 203.475L200.375 203.19C200.144 202.151 199.954 201.088 199.807 200.004L198.507 200.18C198.359 199.088 198.254 197.977 198.193 196.85L199.503 196.779C199.445 195.712 199.429 194.63 199.456 193.536L198.144 193.504C198.171 192.401 198.241 191.287 198.354 190.164L199.659 190.296C199.713 189.76 199.778 189.222 199.853 188.683C199.927 188.143 200.012 187.608 200.106 187.078L198.814 186.849C199.011 185.738 199.247 184.647 199.522 183.579L200.792 183.905C201.065 182.845 201.375 181.808 201.72 180.797L200.479 180.373C200.844 179.304 201.248 178.264 201.688 177.253L202.891 177.777C203.327 176.774 203.8 175.803 204.305 174.866L203.15 174.243C203.687 173.248 204.261 172.289 204.868 171.37L205.962 172.093C206.564 171.183 207.198 170.314 207.862 169.491L206.84 168.667C207.55 167.786 208.294 166.953 209.067 166.172L209.999 167.095C210.763 166.324 211.554 165.607 212.371 164.947L211.546 163.927C212.427 163.216 213.337 162.567 214.271 161.985L214.964 163.099C215.875 162.532 216.807 162.033 217.757 161.607L217.22 160.41C218.247 159.949 219.296 159.566 220.363 159.267L220.717 160.531C221.729 160.247 222.755 160.044 223.791 159.926L223.643 158.623Z" stroke="white" stroke-width="2.62381" stroke-linejoin="bevel" stroke-dasharray="3.5 3.5"/>
    <path fill-rule="evenodd" clip-rule="evenodd" d="M214.022 336.918C213.917 344.657 208.699 352.326 198.392 358.092C177.778 369.624 144.616 369.174 124.322 357.088C114.581 351.286 109.575 343.858 109.283 336.427L109.148 346.396C109.44 353.828 114.446 361.256 124.187 367.057C144.481 379.144 177.643 379.593 198.257 368.062C208.564 362.296 213.782 354.626 213.887 346.887L214.022 336.918Z" fill="#CD5769"/>
    <path fill-rule="evenodd" clip-rule="evenodd" d="M109.283 336.427C108.967 328.376 114.182 320.32 124.901 314.324C145.515 302.792 178.678 303.241 198.971 315.328C209.118 321.371 214.127 329.179 214.022 336.918L213.887 346.887C213.992 339.149 208.983 331.34 198.836 325.297C178.542 313.211 145.38 312.761 124.766 324.293C114.047 330.29 108.832 338.345 109.148 346.396L109.283 336.427Z" fill="#CD5769"/>
    <path d="M198.971 315.328C219.265 327.414 219.006 346.56 198.392 358.092C177.778 369.624 144.616 369.174 124.322 357.088C104.028 345.001 104.288 325.855 124.901 314.324C145.515 302.792 178.678 303.241 198.971 315.328Z" fill="#D9D9D9"/>
    <circle cx="42.7682" cy="42.7682" r="42.7682" transform="matrix(0.872723 -0.488215 0.859168 0.511693 87.5781 335.116)" fill="#FC6D83"/>
    <circle cx="42.7682" cy="42.7682" r="36.6459" transform="matrix(0.872723 -0.488215 0.859168 0.511693 87.5781 335.116)" stroke="white" stroke-width="12.2445" stroke-linejoin="round" stroke-dasharray="13.99 13.99"/>
    <circle cx="27.9874" cy="27.9874" r="26.6754" transform="matrix(0.872723 -0.488215 0.859168 0.511693 113.025 335.461)" stroke="white" stroke-width="2.62381" stroke-linejoin="bevel" stroke-dasharray="3.5 3.5"/>
    <path fill-rule="evenodd" clip-rule="evenodd" d="M314.882 355.605C314.777 363.343 309.559 371.013 299.252 376.779C278.638 388.31 245.476 387.861 225.182 375.775C215.441 369.973 210.436 362.545 210.144 355.113L210.009 365.083C210.301 372.515 215.306 379.943 225.047 385.744C245.341 397.83 278.503 398.28 299.117 386.748C309.424 380.982 314.642 373.313 314.747 365.574L314.882 355.605Z" fill="#CD5769"/>
    <path fill-rule="evenodd" clip-rule="evenodd" d="M210.144 355.113C209.827 347.062 215.043 339.007 225.762 333.01C246.376 321.479 279.538 321.928 299.832 334.014C309.979 340.058 314.987 347.866 314.882 355.605L314.747 365.574C314.852 357.835 309.843 350.027 299.697 343.984C279.403 331.898 246.241 331.448 225.627 342.98C214.907 348.976 209.692 357.032 210.008 365.083L210.144 355.113Z" fill="#CD5769"/>
    <path d="M299.832 334.014C320.125 346.101 319.866 365.247 299.252 376.779C278.638 388.31 245.476 387.861 225.182 375.775C204.888 363.688 205.148 344.542 225.762 333.01C246.376 321.479 279.538 321.928 299.832 334.014Z" fill="#D9D9D9"/>
    <circle cx="42.7682" cy="42.7682" r="42.7682" transform="matrix(0.872723 -0.488215 0.859168 0.511693 188.438 353.803)" fill="#FC6D83"/>
    <circle cx="42.7682" cy="42.7682" r="36.6459" transform="matrix(0.872723 -0.488215 0.859168 0.511693 188.438 353.803)" stroke="white" stroke-width="12.2445" stroke-linejoin="round" stroke-dasharray="13.99 13.99"/>
    <circle cx="27.9874" cy="27.9874" r="26.6754" transform="matrix(0.872723 -0.488215 0.859168 0.511693 213.886 354.148)" stroke="white" stroke-width="2.62381" stroke-linejoin="bevel" stroke-dasharray="3.5 3.5"/>
    <path fill-rule="evenodd" clip-rule="evenodd" d="M203.377 322.079C203.272 329.818 198.054 337.487 187.747 343.253C167.133 354.785 133.971 354.336 113.677 342.249C103.936 336.448 98.9303 329.02 98.6383 321.588L98.5031 331.558C98.7952 338.989 103.801 346.417 113.542 352.219C133.836 364.305 166.998 364.755 187.612 353.223C197.919 347.457 203.137 339.788 203.242 332.049L203.377 322.079Z" fill="#CD5769"/>
    <path fill-rule="evenodd" clip-rule="evenodd" d="M98.6382 321.588C98.3218 313.537 103.537 305.481 114.256 299.485C134.87 287.953 168.033 288.403 188.326 300.489C198.473 306.532 203.482 314.34 203.377 322.079L203.242 332.049C203.347 324.31 198.338 316.502 188.191 310.459C167.897 298.372 134.735 297.923 114.121 309.454C103.402 315.451 98.1866 323.506 98.503 331.558L98.6382 321.588Z" fill="#CD5769"/>
    <path d="M188.326 300.489C208.62 312.575 208.361 331.722 187.747 343.253C167.133 354.785 133.971 354.336 113.677 342.249C93.383 330.163 93.6425 311.017 114.256 299.485C134.87 287.953 168.033 288.403 188.326 300.489Z" fill="#D9D9D9"/>
    <circle cx="42.7682" cy="42.7682" r="42.7682" transform="matrix(0.872723 -0.488215 0.859168 0.511693 76.9331 320.277)" fill="#FC6D83"/>
    <circle cx="42.7682" cy="42.7682" r="36.6459" transform="matrix(0.872723 -0.488215 0.859168 0.511693 76.9331 320.277)" stroke="white" stroke-width="12.2445" stroke-linejoin="round" stroke-dasharray="13.99 13.99"/>
    <circle cx="27.9874" cy="27.9874" r="26.6754" transform="matrix(0.872723 -0.488215 0.859168 0.511693 102.38 320.622)" stroke="white" stroke-width="2.62381" stroke-linejoin="bevel" stroke-dasharray="3.5 3.5"/>
    <path d="M388.452 304.691C383.597 302.506 381.139 295.994 379.314 291.492" stroke="black" stroke-width="1.00325" stroke-linecap="round"/>
    <path d="M418.128 330.267C417.785 333.821 418.011 337.352 417.77 340.886C417.619 343.111 414.735 342.55 413.176 342.647" stroke="black" stroke-width="1.00325" stroke-linecap="round"/>
    <path d="M402.776 329.771C398.432 331.869 396.749 336.693 393.698 340.061C392.521 341.358 392.118 338.144 391.882 337.199" stroke="black" stroke-width="1.00325" stroke-linecap="round"/>
    <rect width="44.9009" height="62.6863" rx="14.5782" transform="matrix(-1 1.31508e-09 -9.48574e-08 1 432.92 267.304)" fill="#FFBD81"/>
    <circle cx="1.31204" cy="1.31204" r="1.31204" transform="matrix(-1 1.31508e-09 -9.48574e-08 1 407.263 304.625)" fill="black"/>
    <circle cx="1.31204" cy="1.31204" r="1.31204" transform="matrix(-1 1.31508e-09 -9.48574e-08 1 397.874 304.625)" fill="black"/>
    <path d="M400.636 309.361C401.463 309.591 401.803 311.344 401.922 312.046C402.052 312.814 402.059 313.691 401.358 314.19C400.937 314.489 400.299 314.696 399.936 314.235C398.939 312.965 399.473 310.855 400.027 309.564" stroke="black" stroke-width="1.00325" stroke-linecap="round"/>
    <path d="M423.594 309.336C433.652 308.893 444.635 307.33 453.038 301.417" stroke="black" stroke-width="1.00325" stroke-linecap="round"/>
    <ellipse cx="226.386" cy="47.7714" rx="23.8659" ry="22.5873" fill="#7676E8"/>
    <circle cx="210.16" cy="40.1002" r="1.84676" fill="black"/>
    <circle cx="220.388" cy="40.1002" r="1.84676" fill="black"/>
    <path d="M213.666 42.6048C213.902 42.5913 217.422 42.4064 217.448 42.6776C217.54 43.6518 217.456 44.6705 217.456 45.6493C217.456 46.8316 217.558 47.934 216.201 48.3781C215.243 48.6914 214.569 47.9616 214.083 47.2283C213.588 46.4816 213.067 45.5508 212.869 44.6696C212.748 44.1348 212.719 43.6038 212.719 43.0582C212.719 42.464 212.95 42.6233 213.52 42.6776" stroke="black" stroke-width="0.852353" stroke-linecap="round"/>
    <path d="M212.001 66.0266C209.619 67.7119 207.196 69.3634 204.976 71.2624C204.047 72.0573 203.278 73.1257 202.319 73.8671C201.478 74.517 198.081 67.7205 197.557 66.737" stroke="black" stroke-width="0.852353" stroke-linecap="round"/>
    <path d="M229.05 62.0012C226.271 65.364 223.564 68.7927 220.604 71.9991C219.498 73.198 218.995 74.6053 218.039 75.8799C217.065 77.1787 216.143 74.3762 215.842 73.7619C215.157 72.3662 214.451 71.0243 213.895 69.5786" stroke="black" stroke-width="0.852353" stroke-linecap="round"/>
    <path d="M202.529 44.4785C199.461 41.7879 198.205 37.7183 197.188 33.8755C196.601 31.6557 197.082 29.6136 197.557 27.4294" stroke="black" stroke-width="0.852353" stroke-linecap="round"/>
    <path d="M233.786 45.4256C238.292 43.2882 242.9 42.1387 245.125 37.2431C246.932 33.2688 247.557 28.6167 246.572 24.3511" stroke="black" stroke-width="0.852353" stroke-linecap="round"/>
    <path d="M113.262 249.088C111.325 252.054 109.473 255.692 106.889 258.194C106.121 258.937 104.786 258.671 103.989 258.12C100.966 256.031 100.638 251.182 99.4922 247.98" stroke="black" stroke-width="0.990323" stroke-linecap="round"/>
    <path d="M132.015 264.085C131.941 266.939 132.003 269.757 132.285 272.601C132.498 274.756 132.728 274.859 130.624 275.142C129.732 275.262 127.031 275.349 127.931 275.343C128.755 275.338 129.587 275.206 130.407 275.134" stroke="black" stroke-width="0.990323" stroke-linecap="round"/>
    <path d="M140.721 264.105C141.885 267.639 142.692 271.58 144.698 274.76C145.184 275.529 145.97 275.937 145.131 276.61C143.873 277.618 142.369 278.227 141.068 279.129" stroke="black" stroke-width="0.990323" stroke-linecap="round"/>
    <ellipse cx="135.786" cy="243.567" rx="26.0223" ry="22.2733" transform="rotate(2.10959 135.786 243.567)" fill="#FFA69E"/>
    <circle cx="120.76" cy="244.117" r="1.32317" transform="rotate(2.10959 120.76 244.117)" fill="black"/>
    <circle cx="128.253" cy="244.393" r="1.32317" transform="rotate(2.10959 128.253 244.393)" fill="black"/>
    <path d="M119.645 247.521C119.864 249.015 120.227 250.538 121.586 251.409C123.235 252.465 126.97 252.992 128.574 251.552C129.301 250.9 129.261 248.909 129.376 248.005" stroke="black" stroke-width="0.990323" stroke-linecap="round"/>
    <path d="M147.055 247.03C154.103 253.295 163.358 258.02 165.493 268.125" stroke="black" stroke-width="0.990323" stroke-linecap="round"/>
    <path d="M63.5363 273.565C63.5363 275.42 62.9625 277.448 63.3014 279.279C63.4122 279.876 63.0664 281.266 63.571 281.67C64.0725 282.071 65.3888 280.278 65.7104 279.992C65.9654 279.765 66.7111 279.425 66.8236 279.2" stroke="black" stroke-width="1.03286" stroke-linecap="round"/>
    <path d="M53.7716 272.737C53.4641 273.901 49.545 281.335 51.6 281.878C52.5339 282.124 53.489 282.03 54.4085 281.972" stroke="black" stroke-width="1.03286" stroke-linecap="round"/>
    <path d="M75.2946 253.184C76.5835 254.351 79.1204 256.779 81.0724 256.396C82.8797 256.041 83.8003 253.848 84.6596 252.445C85.9392 250.356 87.051 248.262 87.9997 246.008" stroke="black" stroke-width="1.03286" stroke-linecap="round"/>
    <rect x="39.3667" y="225.351" width="40.2814" height="48.1625" rx="8.75682" fill="#BD60A2"/>
    <circle cx="61.3509" cy="250.699" r="1.84354" fill="black"/>
    <circle cx="71.6746" cy="249.962" r="1.84354" fill="black"/>
    <mask id="path-108-inside-7_562_5660" fill="white">
    <path d="M62.1342 253.811C61.1669 253.811 60.3601 254.608 60.615 255.541C60.6875 255.807 60.7769 256.068 60.8828 256.324C61.2128 257.121 61.6966 257.845 62.3064 258.455C62.9163 259.064 63.6403 259.548 64.4371 259.878C65.234 260.208 66.088 260.378 66.9504 260.378C67.8129 260.378 68.6669 260.208 69.4638 259.878C70.2606 259.548 70.9846 259.064 71.5945 258.455C72.2043 257.845 72.6881 257.121 73.0181 256.324C73.124 256.068 73.2134 255.807 73.2859 255.541C73.5408 254.608 72.734 253.811 71.7667 253.811L66.9504 253.811H62.1342Z"/>
    </mask>
    <path d="M62.1342 253.811C61.1669 253.811 60.3601 254.608 60.615 255.541C60.6875 255.807 60.7769 256.068 60.8828 256.324C61.2128 257.121 61.6966 257.845 62.3064 258.455C62.9163 259.064 63.6403 259.548 64.4371 259.878C65.234 260.208 66.088 260.378 66.9504 260.378C67.8129 260.378 68.6669 260.208 69.4638 259.878C70.2606 259.548 70.9846 259.064 71.5945 258.455C72.2043 257.845 72.6881 257.121 73.0181 256.324C73.124 256.068 73.2134 255.807 73.2859 255.541C73.5408 254.608 72.734 253.811 71.7667 253.811L66.9504 253.811H62.1342Z" stroke="black" stroke-width="1.75136" mask="url(#path-108-inside-7_562_5660)"/>
    <path d="M45.1021 252.205C44.3501 252.372 43.5094 253.812 42.968 254.32C40.751 256.398 38.2887 258.295 35.906 260.179C33.6098 261.995 31.6086 262.444 29.0381 263.729" stroke="black" stroke-width="1.03286" stroke-linecap="round"/>
    <path d="M366.224 317.348C366.84 317.378 367.387 317.493 368.015 317.409C370.286 317.107 372.444 315.932 374.359 314.741C375.843 313.818 377.172 312.727 378.238 311.337C379.164 310.13 380.266 309.072 381.233 307.897" stroke="black" stroke-width="1.04215" stroke-linecap="round"/>
    <path d="M351.992 332.246C351.616 334.462 351.214 336.651 351.214 338.905C351.214 339.568 351.187 339.969 351.436 340.529C351.579 340.85 352.025 341.023 352.375 341.029C353.982 341.059 355.518 340.783 357.106 340.585" stroke="black" stroke-width="1.04215" stroke-linecap="round"/>
    <path d="M342.097 331.023C341.911 333.163 340.748 335.315 340.12 337.361C340.037 337.633 339.271 340.222 339.712 340.474C340.266 340.79 340.755 341.03 341.374 341.19C342.769 341.552 344.258 340.585 345.655 340.585" stroke="black" stroke-width="1.04215" stroke-linecap="round"/>
    <ellipse cx="347.055" cy="312.637" rx="24.0167" ry="20.3218" fill="#86E9DA"/>
    <path d="M353.419 315.524C354.308 315.808 355.428 315.954 356.361 315.809C356.872 315.73 357.324 315.525 357.826 315.447C358.092 315.405 358.311 315.236 358.563 315.197C358.833 315.155 358.637 315.403 358.549 315.634C358.257 316.394 357.97 317.157 357.673 317.914C357.154 319.238 356.78 320.711 355.816 321.789C355.107 322.584 354.418 321.703 354.107 321.017C353.555 319.798 353.209 318.525 353.123 317.189C353.084 316.581 353.014 316.007 353.201 315.423" stroke="black" stroke-width="1.04215" stroke-linecap="round"/>
    <path d="M348.604 312.844C348.827 312.288 348.94 311.696 349.183 311.147C349.437 310.575 349.757 309.839 350.452 309.731C352.22 309.457 353.016 311.57 353.592 312.819" stroke="black" stroke-width="1.04215" stroke-linecap="round"/>
    <path d="M357.002 312.595C357.225 312.039 357.338 311.446 357.582 310.897C357.835 310.326 358.156 309.59 358.85 309.482C360.618 309.208 361.414 311.321 361.991 312.57" stroke="black" stroke-width="1.04215" stroke-linecap="round"/>
    <path d="M343.653 317.903C341.211 315.462 339.643 312.41 338.675 309.083C337.472 304.952 336.76 300.864 336.76 296.556" stroke="black" stroke-width="1.04215" stroke-linecap="round"/>
    <path d="M117.786 204.998C119.922 205.504 121.302 204.147 122.711 202.641C124.283 200.96 125.597 198.848 126.626 196.79" stroke="black" stroke-linecap="round"/>
    <path d="M80.2808 205.503C79.5051 205.532 78.8844 205.855 78.0638 205.742C77.2948 205.636 76.448 204.94 75.9872 204.339C74.9674 203.007 74.4335 201.051 73.7843 199.519C73.0576 197.804 72.3999 196.056 71.5674 194.391" stroke="black" stroke-linecap="round"/>
    <path d="M96.5739 219.477C96.5739 221.308 96.2733 223.133 96.139 224.956C96.0172 226.609 96.1649 228.266 96.0618 229.916C96.0219 230.555 94.7701 229.587 94.4552 229.453C93.9761 229.249 93.5246 229.004 93.0381 228.822" stroke="black" stroke-linecap="round"/>
    <path d="M102.004 219.351C102.004 221.904 101.663 224.478 101.779 227.026C101.824 228.001 101.777 229.186 102.13 230.113C102.464 230.989 103.049 230.32 103.715 229.86C104.395 229.392 105.082 229.102 105.792 228.696" stroke="black" stroke-linecap="round"/>
    <path fill-rule="evenodd" clip-rule="evenodd" d="M118.038 192.522C118.038 183.039 109.531 175.351 99.0381 175.351C88.5447 175.351 80.0381 183.039 80.0381 192.522V219.351H118.038V192.522Z" fill="#90E0EF"/>
    <circle cx="92.5381" cy="206.851" r="1.5" fill="black"/>
    <circle cx="106.538" cy="206.851" r="1.5" fill="black"/>
    <path d="M95.4482 208.246C95.6415 210.952 98.4884 211.579 100.761 211.579C102.218 211.579 104.165 210.282 104.165 208.631" stroke="black" stroke-linecap="round"/>
    </g>
    <defs>
    <clipPath id="clip0_562_5660">
    <rect width="500" height="400" fill="white" transform="translate(0 0.5)"/>
    </clipPath>
    <clipPath id="clip1_562_5660">
    <rect width="105.674" height="161.943" rx="4.11719" transform="matrix(0.866025 -0.5 0.866025 0.5 189.738 251.889)" fill="white"/>
    </clipPath>
    <clipPath id="clip2_562_5660">
    <rect width="105.674" height="161.943" rx="4.11719" transform="matrix(0.866025 -0.5 0.866025 0.5 113.407 253.458)" fill="white"/>
    </clipPath>
    </defs>
    </svg>
    