
<svg width="267" height="42" viewBox="0 0 267 42" fill="none" xmlns="http://www.w3.org/2000/svg">
    <g filter="url(#filter0_d_562_5867)">
    <rect x="227.095" y="5.36133" width="34.3318" height="34.3318" rx="1.37327" transform="rotate(-6.42094 227.095 5.36133)" fill="#F6CDA5"/>
    <rect x="226.715" y="5.05856" width="35.0185" height="35.0185" rx="1.71659" transform="rotate(-6.42094 226.715 5.05856)" stroke="#19123C" stroke-width="0.686637"/>
    </g>
    <path d="M244.982 33.0601L242.9 14.5553L236.218 15.3072L235.721 10.8857L254.193 8.80694L254.69 13.2284L247.812 14.0025L249.895 32.5072L244.982 33.0601Z" fill="#19123C"/>
    <path d="M261.422 30.8783L261.377 30.4819L262.275 30.3808L262.664 33.8341L262.225 33.8836L261.881 30.8267L261.422 30.8783Z" fill="#19123C"/>
    <g filter="url(#filter1_d_562_5867)">
    <rect x="76.9688" y="3.33301" width="34.3318" height="34.3318" rx="1.37327" fill="#F6CDA5"/>
    <rect x="76.6254" y="2.98969" width="35.0185" height="35.0185" rx="1.71659" stroke="#19123C" stroke-width="0.686637"/>
    </g>
    <path d="M84.0879 32.8583V9.78735H88.5043L101.259 27.0247H100.336C100.249 26.3435 100.172 25.6844 100.106 25.0472C100.04 24.388 99.9739 23.7288 99.908 23.0697C99.8641 22.3885 99.8201 21.6964 99.7762 20.9933C99.7542 20.2682 99.7322 19.5101 99.7102 18.7191C99.6883 17.9061 99.6773 17.0273 99.6773 16.0824V9.78735H104.522V32.8583H100.04L87.0212 15.4562L88.2736 15.4892C88.3835 16.6317 88.4714 17.6095 88.5373 18.4225C88.6252 19.2135 88.6911 19.9056 88.735 20.4989C88.779 21.0921 88.812 21.6085 88.8339 22.0479C88.8779 22.4874 88.8998 22.9049 88.8998 23.3004C88.9218 23.6959 88.9328 24.1133 88.9328 24.5528V32.8583H84.0879Z" fill="#19123C"/>
    <path d="M108.227 32.5288V32.1298H109.131V35.6049H108.689V32.5288H108.227Z" fill="#19123C"/>
    <g filter="url(#filter2_d_562_5867)">
    <rect x="113.348" y="5.10645" width="34.3318" height="34.3318" rx="1.37327" transform="rotate(-5.64907 113.348 5.10645)" fill="#F6CDA5"/>
    <rect x="112.972" y="4.79859" width="35.0185" height="35.0185" rx="1.71659" transform="rotate(-5.64907 112.972 4.79859)" stroke="#19123C" stroke-width="0.686637"/>
    </g>
    <path d="M123.338 33.7876L121.067 10.8286L125.462 10.3939L139.852 26.292L138.934 26.3828C138.779 25.7136 138.638 25.0652 138.51 24.4376C138.379 23.7881 138.249 23.1386 138.118 22.4892C138.007 21.8156 137.895 21.1312 137.783 20.4358C137.689 19.7164 137.593 18.9642 137.493 18.1792C137.391 17.3723 137.294 16.4988 137.201 15.5586L136.581 9.29407L141.402 8.81716L143.673 31.7761L139.213 32.2173L124.544 16.1812L125.794 16.0907C126.016 17.2169 126.2 18.1813 126.345 18.9838C126.511 19.7624 126.644 20.4446 126.746 21.0307C126.848 21.6167 126.932 22.1273 126.997 22.5625C127.084 22.9955 127.147 23.4088 127.186 23.8023C127.247 24.1938 127.299 24.6081 127.342 25.0454L128.16 33.3107L123.338 33.7876Z" fill="#19123C"/>
    <path d="M147.328 31.0834L147.289 30.6864L148.188 30.5975L148.53 34.0557L148.09 34.0992L147.787 31.038L147.328 31.0834Z" fill="#19123C"/>
    <g filter="url(#filter3_d_562_5867)">
    <rect x="40.458" y="1.97705" width="34.3318" height="34.3318" rx="1.37327" transform="rotate(4.72959 40.458 1.97705)" fill="#F6CDA5"/>
    <rect x="40.1442" y="1.60659" width="35.0185" height="35.0185" rx="1.71659" transform="rotate(4.72959 40.1442 1.60659)" stroke="#19123C" stroke-width="0.686637"/>
    </g>
    <path d="M55.2737 33.1598C53.5875 33.0203 52.0573 32.5961 50.6828 31.8871C49.3084 31.1781 48.1282 30.2537 47.1422 29.1138C46.1799 27.9539 45.4738 26.6277 45.0241 25.1354C44.5761 23.6211 44.4228 22.01 44.5641 20.302C44.7072 18.5721 45.1223 17.019 45.8094 15.6428C46.4983 14.2446 47.4127 13.0526 48.5526 12.0665C49.7143 11.0823 51.0313 10.3535 52.5036 9.88003C53.9759 9.40655 55.555 9.23956 57.2411 9.37906C58.9492 9.52038 60.4794 9.94462 61.832 10.6518C63.2064 11.3608 64.3747 12.2953 65.3371 13.4552C66.3213 14.617 67.0383 15.944 67.488 17.4364C67.9378 18.9287 68.092 20.5289 67.9507 22.2369C67.8094 23.9449 67.3943 25.498 66.7054 26.8961C66.0165 28.2942 65.0911 29.4854 63.9294 30.4696C62.7895 31.4556 61.4835 32.1854 60.0112 32.6589C58.5608 33.1341 56.9817 33.3011 55.2737 33.1598ZM55.6595 28.4956C56.623 28.5754 57.5244 28.4735 58.3636 28.1902C59.2247 27.9087 59.978 27.4639 60.6236 26.8559C61.2692 26.2479 61.7924 25.5195 62.1934 24.6708C62.6162 23.8239 62.8711 22.8749 62.9581 21.8238C63.045 20.7727 62.9495 19.7947 62.6717 18.8899C62.4157 17.9868 62.0183 17.1933 61.4796 16.5093C60.9427 15.8035 60.2727 15.241 59.4696 14.8218C58.6902 14.3825 57.8188 14.123 56.8553 14.0432C55.8918 13.9635 54.9895 14.0763 54.1485 14.3815C53.3093 14.6648 52.556 15.1096 51.8885 15.7158C51.2228 16.3001 50.6895 17.0166 50.2886 17.8653C49.9096 18.7159 49.6766 19.6667 49.5896 20.7178C49.5026 21.7689 49.5762 22.745 49.8103 23.6463C50.0663 24.5494 50.4737 25.3547 51.0325 26.0624C51.5912 26.7701 52.2612 27.3326 53.0425 27.75C53.8237 28.1674 54.696 28.4159 55.6595 28.4956Z" fill="#19123C"/>
    <path d="M69.2027 33.6508L69.2356 33.2532L70.1361 33.3277L69.8496 36.791L69.4089 36.7545L69.6626 33.6889L69.2027 33.6508Z" fill="#19123C"/>
    <g filter="url(#filter4_d_562_5867)">
    <rect x="190.923" y="3.3335" width="34.3318" height="34.3318" rx="1.37327" fill="#F6CDA5"/>
    <rect x="190.58" y="2.99018" width="35.0185" height="35.0185" rx="1.71659" stroke="#19123C" stroke-width="0.686637"/>
    </g>
    <path d="M209.877 33.1884C208.185 33.1884 206.625 32.9028 205.197 32.3315C203.791 31.7382 202.56 30.9143 201.506 29.8596C200.473 28.783 199.671 27.5195 199.1 26.0694C198.528 24.5972 198.243 22.9932 198.243 21.2574C198.243 19.5655 198.539 18.0055 199.133 16.5773C199.726 15.1271 200.561 13.8747 201.637 12.82C202.714 11.7434 203.977 10.9084 205.428 10.3152C206.878 9.72192 208.449 9.42529 210.141 9.42529C211.239 9.42529 212.316 9.5791 213.371 9.88671C214.447 10.1724 215.425 10.6008 216.304 11.1721C217.205 11.7434 217.974 12.4245 218.611 13.2155L215.513 16.6432C214.986 16.1159 214.436 15.6654 213.865 15.2919C213.316 14.8964 212.722 14.5998 212.085 14.402C211.47 14.1823 210.811 14.0724 210.108 14.0724C209.163 14.0724 208.273 14.2482 207.438 14.5998C206.625 14.9513 205.911 15.4457 205.296 16.0829C204.681 16.6981 204.186 17.4562 203.813 18.3571C203.461 19.236 203.285 20.2137 203.285 21.2904C203.285 22.389 203.461 23.3887 203.813 24.2896C204.164 25.1685 204.659 25.9265 205.296 26.5637C205.933 27.179 206.691 27.6624 207.57 28.0139C208.471 28.3435 209.46 28.5083 210.536 28.5083C211.239 28.5083 211.92 28.4094 212.58 28.2117C213.239 28.0139 213.843 27.7393 214.392 27.3877C214.964 27.0362 215.469 26.6297 215.908 26.1682L218.314 30.0244C217.787 30.6177 217.073 31.156 216.172 31.6394C215.293 32.1228 214.304 32.5073 213.206 32.7929C212.107 33.0566 210.998 33.1884 209.877 33.1884Z" fill="#19123C"/>
    <path d="M220.996 33.0051C221.019 32.7103 221.133 32.4796 221.338 32.313C221.543 32.1463 221.809 32.063 222.136 32.063C222.353 32.063 222.541 32.1031 222.698 32.1832C222.858 32.2601 222.978 32.3658 223.058 32.5004C223.142 32.635 223.183 32.7872 223.183 32.957C223.183 33.1557 223.126 33.3271 223.01 33.4713C222.898 33.6155 222.751 33.7084 222.568 33.7501V33.7741C222.776 33.8254 222.941 33.9263 223.063 34.0769C223.185 34.2275 223.246 34.4246 223.246 34.6681C223.246 34.8508 223.204 35.0158 223.121 35.1632C223.038 35.3074 222.913 35.4211 222.746 35.5044C222.579 35.5878 222.379 35.6294 222.145 35.6294C221.805 35.6294 221.527 35.5413 221.309 35.3651C221.091 35.1856 220.969 34.9325 220.944 34.6056H221.366C221.389 34.7979 221.467 34.9549 221.602 35.0767C221.737 35.1984 221.916 35.2593 222.14 35.2593C222.365 35.2593 222.534 35.2016 222.65 35.0863C222.768 34.9677 222.828 34.8155 222.828 34.6297C222.828 34.3893 222.748 34.2163 222.587 34.1106C222.427 34.0048 222.185 33.952 221.862 33.952H221.751V33.5867H221.866C222.161 33.5835 222.384 33.5354 222.534 33.4425C222.685 33.3463 222.76 33.1989 222.76 33.0003C222.76 32.8305 222.704 32.6943 222.592 32.5917C222.483 32.4892 222.326 32.4379 222.121 32.4379C221.922 32.4379 221.762 32.4892 221.64 32.5917C221.519 32.6943 221.447 32.8321 221.424 33.0051H220.996Z" fill="#19123C"/>
    <g filter="url(#filter5_d_562_5867)">
    <rect x="1" y="3.3335" width="34.3318" height="34.3318" rx="1.37327" fill="#F6CDA5"/>
    <rect x="0.656682" y="2.99018" width="35.0185" height="35.0185" rx="1.71659" stroke="#19123C" stroke-width="0.686637"/>
    </g>
    <path d="M19.9542 33.1884C18.2623 33.1884 16.7023 32.9028 15.2741 32.3315C13.8678 31.7382 12.6374 30.9143 11.5827 29.8596C10.55 28.783 9.74803 27.5195 9.17675 26.0694C8.60547 24.5972 8.31982 22.9932 8.31982 21.2574C8.31982 19.5655 8.61645 18.0055 9.20971 16.5773C9.80296 15.1271 10.6379 13.8747 11.7146 12.82C12.7912 11.7434 14.0546 10.9084 15.5048 10.3152C16.955 9.72192 18.526 9.42529 20.2179 9.42529C21.3165 9.42529 22.3931 9.5791 23.4478 9.88671C24.5245 10.1724 25.5022 10.6008 26.3811 11.1721C27.282 11.7434 28.051 12.4245 28.6882 13.2155L25.5901 16.6432C25.0628 16.1159 24.5135 15.6654 23.9422 15.2919C23.3929 14.8964 22.7996 14.5998 22.1624 14.402C21.5472 14.1823 20.888 14.0724 20.1849 14.0724C19.2401 14.0724 18.3502 14.2482 17.5153 14.5998C16.7023 14.9513 15.9882 15.4457 15.373 16.0829C14.7577 16.6981 14.2634 17.4562 13.8898 18.3571C13.5383 19.236 13.3625 20.2137 13.3625 21.2904C13.3625 22.389 13.5383 23.3887 13.8898 24.2896C14.2414 25.1685 14.7358 25.9265 15.373 26.5637C16.0102 27.179 16.7682 27.6624 17.6471 28.0139C18.548 28.3435 19.5367 28.5083 20.6134 28.5083C21.3165 28.5083 21.9976 28.4094 22.6568 28.2117C23.316 28.0139 23.9202 27.7393 24.4695 27.3877C25.0408 27.0362 25.5462 26.6297 25.9856 26.1682L28.3916 30.0244C27.8643 30.6177 27.1502 31.156 26.2493 31.6394C25.3704 32.1228 24.3816 32.5073 23.283 32.7929C22.1844 33.0566 21.0748 33.1884 19.9542 33.1884Z" fill="#19123C"/>
    <path d="M31.0735 33.0051C31.096 32.7103 31.2097 32.4796 31.4148 32.313C31.6199 32.1463 31.8858 32.063 32.2127 32.063C32.4306 32.063 32.618 32.1031 32.775 32.1832C32.9352 32.2601 33.0554 32.3658 33.1355 32.5004C33.2188 32.635 33.2605 32.7872 33.2605 32.957C33.2605 33.1557 33.2028 33.3271 33.0875 33.4713C32.9753 33.6155 32.8279 33.7084 32.6453 33.7501V33.7741C32.8535 33.8254 33.0186 33.9263 33.1403 34.0769C33.2621 34.2275 33.323 34.4246 33.323 34.6681C33.323 34.8508 33.2813 35.0158 33.198 35.1632C33.1147 35.3074 32.9897 35.4211 32.8231 35.5044C32.6565 35.5878 32.4562 35.6294 32.2223 35.6294C31.8826 35.6294 31.6039 35.5413 31.386 35.3651C31.1681 35.1856 31.0463 34.9325 31.0207 34.6056H31.4436C31.4661 34.7979 31.5446 34.9549 31.6792 35.0767C31.8137 35.1984 31.9932 35.2593 32.2175 35.2593C32.4418 35.2593 32.6116 35.2016 32.727 35.0863C32.8455 34.9677 32.9048 34.8155 32.9048 34.6297C32.9048 34.3893 32.8247 34.2163 32.6645 34.1106C32.5043 34.0048 32.2623 33.952 31.9387 33.952H31.8282V33.5867H31.9435C32.2383 33.5835 32.461 33.5354 32.6116 33.4425C32.7622 33.3463 32.8375 33.1989 32.8375 33.0003C32.8375 32.8305 32.7814 32.6943 32.6693 32.5917C32.5603 32.4892 32.4033 32.4379 32.1983 32.4379C31.9996 32.4379 31.8394 32.4892 31.7176 32.5917C31.5958 32.6943 31.5237 32.8321 31.5013 33.0051H31.0735Z" fill="#19123C"/>
    <g filter="url(#filter6_d_562_5867)">
    <rect x="153.526" y="2.76465" width="34.3318" height="34.3318" rx="1.37327" transform="rotate(1.93189 153.526 2.76465)" fill="#F6CDA5"/>
    <rect x="153.195" y="2.40995" width="35.0185" height="35.0185" rx="1.71659" transform="rotate(1.93189 153.195 2.40995)" stroke="#19123C" stroke-width="0.686637"/>
    </g>
    <path d="M162.391 32.6057L163.169 9.54785L178.749 10.0734L178.603 14.4215L167.831 14.0581L167.347 28.4199L178.349 28.791L178.202 33.1391L162.391 32.6057ZM165.023 23.0321L165.165 18.8158L176.858 19.2103L176.716 23.4266L165.023 23.0321Z" fill="#19123C"/>
    <path d="M183.783 32.9975L183.796 32.5988L184.699 32.6293L184.582 36.1024L184.14 36.0875L184.244 33.0131L183.783 32.9975Z" fill="#19123C"/>
    <defs>
    <filter id="filter0_d_562_5867" x="226.553" y="0.97998" width="40.0695" height="40.0698" filterUnits="userSpaceOnUse" color-interpolation-filters="sRGB">
    <feFlood flood-opacity="0" result="BackgroundImageFix"/>
    <feColorMatrix in="SourceAlpha" type="matrix" values="0 0 0 0 0 0 0 0 0 0 0 0 0 0 0 0 0 0 127 0" result="hardAlpha"/>
    <feMorphology radius="0.343318" operator="dilate" in="SourceAlpha" result="effect1_dropShadow_562_5867"/>
    <feOffset dx="0.686637" dy="0.686637"/>
    <feComposite in2="hardAlpha" operator="out"/>
    <feColorMatrix type="matrix" values="0 0 0 0 0.0980392 0 0 0 0 0.0705882 0 0 0 0 0.235294 0 0 0 1 0"/>
    <feBlend mode="normal" in2="BackgroundImageFix" result="effect1_dropShadow_562_5867"/>
    <feBlend mode="normal" in="SourceGraphic" in2="effect1_dropShadow_562_5867" result="shape"/>
    </filter>
    <filter id="filter1_d_562_5867" x="76.2822" y="2.64648" width="36.735" height="36.735" filterUnits="userSpaceOnUse" color-interpolation-filters="sRGB">
    <feFlood flood-opacity="0" result="BackgroundImageFix"/>
    <feColorMatrix in="SourceAlpha" type="matrix" values="0 0 0 0 0 0 0 0 0 0 0 0 0 0 0 0 0 0 127 0" result="hardAlpha"/>
    <feMorphology radius="0.343318" operator="dilate" in="SourceAlpha" result="effect1_dropShadow_562_5867"/>
    <feOffset dx="0.686637" dy="0.686637"/>
    <feComposite in2="hardAlpha" operator="out"/>
    <feColorMatrix type="matrix" values="0 0 0 0 0.0980392 0 0 0 0 0.0705882 0 0 0 0 0.235294 0 0 0 1 0"/>
    <feBlend mode="normal" in2="BackgroundImageFix" result="effect1_dropShadow_562_5867"/>
    <feBlend mode="normal" in="SourceGraphic" in2="effect1_dropShadow_562_5867" result="shape"/>
    </filter>
    <filter id="filter2_d_562_5867" x="112.79" y="1.1687" width="39.6911" height="39.6911" filterUnits="userSpaceOnUse" color-interpolation-filters="sRGB">
    <feFlood flood-opacity="0" result="BackgroundImageFix"/>
    <feColorMatrix in="SourceAlpha" type="matrix" values="0 0 0 0 0 0 0 0 0 0 0 0 0 0 0 0 0 0 127 0" result="hardAlpha"/>
    <feMorphology radius="0.343318" operator="dilate" in="SourceAlpha" result="effect1_dropShadow_562_5867"/>
    <feOffset dx="0.686637" dy="0.686637"/>
    <feComposite in2="hardAlpha" operator="out"/>
    <feColorMatrix type="matrix" values="0 0 0 0 0.0980392 0 0 0 0 0.0705882 0 0 0 0 0.235294 0 0 0 1 0"/>
    <feBlend mode="normal" in2="BackgroundImageFix" result="effect1_dropShadow_562_5867"/>
    <feBlend mode="normal" in="SourceGraphic" in2="effect1_dropShadow_562_5867" result="shape"/>
    </filter>
    <filter id="filter3_d_562_5867" x="37.0488" y="1.39893" width="39.2321" height="39.2319" filterUnits="userSpaceOnUse" color-interpolation-filters="sRGB">
    <feFlood flood-opacity="0" result="BackgroundImageFix"/>
    <feColorMatrix in="SourceAlpha" type="matrix" values="0 0 0 0 0 0 0 0 0 0 0 0 0 0 0 0 0 0 127 0" result="hardAlpha"/>
    <feMorphology radius="0.343318" operator="dilate" in="SourceAlpha" result="effect1_dropShadow_562_5867"/>
    <feOffset dx="0.686637" dy="0.686637"/>
    <feComposite in2="hardAlpha" operator="out"/>
    <feColorMatrix type="matrix" values="0 0 0 0 0.0980392 0 0 0 0 0.0705882 0 0 0 0 0.235294 0 0 0 1 0"/>
    <feBlend mode="normal" in2="BackgroundImageFix" result="effect1_dropShadow_562_5867"/>
    <feBlend mode="normal" in="SourceGraphic" in2="effect1_dropShadow_562_5867" result="shape"/>
    </filter>
    <filter id="filter4_d_562_5867" x="190.236" y="2.64697" width="36.735" height="36.735" filterUnits="userSpaceOnUse" color-interpolation-filters="sRGB">
    <feFlood flood-opacity="0" result="BackgroundImageFix"/>
    <feColorMatrix in="SourceAlpha" type="matrix" values="0 0 0 0 0 0 0 0 0 0 0 0 0 0 0 0 0 0 127 0" result="hardAlpha"/>
    <feMorphology radius="0.343318" operator="dilate" in="SourceAlpha" result="effect1_dropShadow_562_5867"/>
    <feOffset dx="0.686637" dy="0.686637"/>
    <feComposite in2="hardAlpha" operator="out"/>
    <feColorMatrix type="matrix" values="0 0 0 0 0.0980392 0 0 0 0 0.0705882 0 0 0 0 0.235294 0 0 0 1 0"/>
    <feBlend mode="normal" in2="BackgroundImageFix" result="effect1_dropShadow_562_5867"/>
    <feBlend mode="normal" in="SourceGraphic" in2="effect1_dropShadow_562_5867" result="shape"/>
    </filter>
    <filter id="filter5_d_562_5867" x="0.313477" y="2.64697" width="36.735" height="36.735" filterUnits="userSpaceOnUse" color-interpolation-filters="sRGB">
    <feFlood flood-opacity="0" result="BackgroundImageFix"/>
    <feColorMatrix in="SourceAlpha" type="matrix" values="0 0 0 0 0 0 0 0 0 0 0 0 0 0 0 0 0 0 127 0" result="hardAlpha"/>
    <feMorphology radius="0.343318" operator="dilate" in="SourceAlpha" result="effect1_dropShadow_562_5867"/>
    <feOffset dx="0.686637" dy="0.686637"/>
    <feComposite in2="hardAlpha" operator="out"/>
    <feColorMatrix type="matrix" values="0 0 0 0 0.0980392 0 0 0 0 0.0705882 0 0 0 0 0.235294 0 0 0 1 0"/>
    <feBlend mode="normal" in2="BackgroundImageFix" result="effect1_dropShadow_562_5867"/>
    <feBlend mode="normal" in="SourceGraphic" in2="effect1_dropShadow_562_5867" result="shape"/>
    </filter>
    <filter id="filter6_d_562_5867" x="151.728" y="2.12354" width="37.7819" height="37.7819" filterUnits="userSpaceOnUse" color-interpolation-filters="sRGB">
    <feFlood flood-opacity="0" result="BackgroundImageFix"/>
    <feColorMatrix in="SourceAlpha" type="matrix" values="0 0 0 0 0 0 0 0 0 0 0 0 0 0 0 0 0 0 127 0" result="hardAlpha"/>
    <feMorphology radius="0.343318" operator="dilate" in="SourceAlpha" result="effect1_dropShadow_562_5867"/>
    <feOffset dx="0.686637" dy="0.686637"/>
    <feComposite in2="hardAlpha" operator="out"/>
    <feColorMatrix type="matrix" values="0 0 0 0 0.0980392 0 0 0 0 0.0705882 0 0 0 0 0.235294 0 0 0 1 0"/>
    <feBlend mode="normal" in2="BackgroundImageFix" result="effect1_dropShadow_562_5867"/>
    <feBlend mode="normal" in="SourceGraphic" in2="effect1_dropShadow_562_5867" result="shape"/>
    </filter>
    </defs>
    </svg>
    