<svg width="111" height="115" viewBox="0 0 111 115" fill="none" xmlns="http://www.w3.org/2000/svg">
<path d="M41.7072 113.23C45.175 114.334 48.7456 114.239 51.9684 113.172C56.8186 111.567 60.8711 107.765 62.5719 102.576C62.5778 102.564 62.5831 102.552 62.5877 102.54C62.592 102.527 62.5962 102.515 62.5999 102.503L62.6055 102.484C62.6096 102.472 62.6132 102.459 62.6169 102.447L68.5611 83.8616L84.4186 95.2323C84.4346 95.245 84.4499 95.2538 84.4652 95.2642C84.4725 95.269 84.4793 95.274 84.4868 95.2797C91.9339 100.569 102.309 98.8432 107.644 91.4185C112.986 83.9916 111.294 73.6095 103.892 68.245L103.875 68.2311C103.861 68.2193 103.85 68.2106 103.834 68.2029L87.9978 56.816L103.724 45.252C111.111 39.82 112.706 29.3844 107.274 22.0008C101.842 14.6174 91.411 13.0235 84.0132 18.4502L68.2798 29.9907L62.1394 11.462C59.2516 2.76362 49.8223 -1.97402 41.1177 0.906608C32.413 3.78723 27.6713 13.2144 30.5455 21.926L36.657 40.4468L17.1449 40.57C17.1379 40.5723 17.1289 40.5736 17.1196 40.574C17.1075 40.5747 17.0947 40.574 17.0843 40.5725C7.93605 40.6565 0.546689 48.1478 0.594237 57.2958C0.641586 66.4434 8.10467 73.8465 17.2422 73.8362C17.2506 73.836 17.2583 73.8365 17.2658 73.8371L17.2985 73.8387L17.3133 73.8389L36.8251 73.7417L30.9075 92.3277C30.9061 92.3369 30.9029 92.3467 30.8996 92.3566C30.8962 92.3664 30.893 92.3763 30.8916 92.3855C28.1431 101.109 32.9891 110.456 41.7072 113.23Z" fill="#ADB4F9"/>
</svg>
