<svg width="228" height="187" viewBox="0 0 228 187" fill="none" xmlns="http://www.w3.org/2000/svg">
<path d="M72.1298 142.06C70.6904 149.852 67.8636 156.707 65.701 164.236C64.2856 169.164 62.9951 175.47 66.8216 179.6C71.9449 185.13 82.0866 184.525 89.1161 184.525" stroke="black" stroke-width="3" stroke-linecap="round"/>
<path d="M137 147C137.095 157.721 137.451 167.815 140.84 177.299C143.616 185.065 148.342 185.301 153.528 184.873C158.351 184.476 157 184 169 181" stroke="black" stroke-width="3" stroke-linecap="round"/>
<path d="M182.01 86.854C193.643 86.5479 202.862 84.1895 210.969 75.3529C218.056 67.6278 223.407 57.154 226.068 47.0425" stroke="black" stroke-width="3" stroke-linecap="round"/>
<ellipse cx="101.611" cy="79.5" rx="84" ry="79.5" fill="#7676E8"/>
<circle cx="105.111" cy="86.5" r="6.5" fill="black"/>
<circle cx="141.111" cy="86.5" r="6.5" fill="black"/>
<path d="M113.333 97.8571C114.518 103.361 119.239 108.299 125.204 107.933C131.039 107.576 133.44 102.325 133.805 97.2173" stroke="black" stroke-width="3" stroke-linecap="round"/>
<path d="M33.9107 76.2378C25.0566 76.8628 15.171 77.3491 7.95945 83.2564C1.80498 88.2979 1.72471 96.8655 2.14992 104.165C2.71004 113.78 7.60767 123.026 14.8011 129.32" stroke="black" stroke-width="3" stroke-linecap="round"/>
</svg>
