<svg width="124" height="236" viewBox="0 0 124 236" fill="none" xmlns="http://www.w3.org/2000/svg">
<ellipse cx="1.08061" cy="124.597" rx="88.9829" ry="79.1747" transform="rotate(26.7208 1.08061 124.597)" fill="#5B5BA9"/>
<ellipse cx="8.06107" cy="110.73" rx="88.9829" ry="79.1747" transform="rotate(26.7208 8.06107 110.73)" fill="#ADB4F9"/>
<path d="M93.4979 102.475C95.7805 113.334 95.7723 124.487 93.2032 135.254L75.3023 130.982C74.369 134.894 72.9797 138.738 71.1032 142.466C69.2268 146.193 66.9665 149.599 64.3806 152.678L78.474 164.513C71.3557 172.99 62.4017 179.64 52.3204 184.274L44.6341 167.552C37.0754 171.027 28.5418 173.099 19.5231 173.516L20.3721 191.9C9.6913 192.393 -1.3613 191.023 -12.2334 187.642L-6.76823 170.069C-10.9657 168.763 -15.1475 167.084 -19.2643 165.011C-23.3811 162.939 -27.2209 160.58 -30.7696 157.986L-41.6301 172.843C-50.8218 166.124 -58.5059 158.063 -64.4716 149.189L-49.199 138.921C-54.2364 131.429 -57.6545 123.34 -59.3659 115.199L-77.3757 118.985C-79.6583 108.126 -79.6501 96.9732 -77.0811 86.2063L-59.1802 90.4776C-58.2469 86.5661 -56.8575 82.722 -54.9811 78.9944C-53.1046 75.2669 -50.8444 71.8612 -48.2584 68.7817L-62.3518 56.9469C-55.2336 48.4701 -46.2796 41.8202 -36.1982 37.1861L-28.5119 53.9076C-20.9533 50.4332 -12.4196 48.3606 -3.40094 47.944L-4.24998 29.5602C6.43084 29.0669 17.4835 30.4371 28.3555 33.8183L22.8904 51.3915C27.0878 52.6969 31.2696 54.3763 35.3864 56.4487C39.5032 58.5211 43.3431 60.8798 46.8918 63.4739L57.7522 48.6166C66.944 55.3357 74.628 63.3975 80.5938 72.2707L65.3212 82.5389C70.3585 90.0313 73.7767 98.1205 75.4881 106.261L93.4979 102.475Z" stroke="white" stroke-width="36.8069" stroke-linejoin="round" stroke-dasharray="42.07 42.07"/>
<path d="M67.4682 123.132C67.1759 126.793 66.4313 130.407 65.207 133.911L61.4841 132.61C60.9385 134.171 60.2877 135.71 59.5283 137.218C58.7689 138.727 57.921 140.166 56.9917 141.534L60.254 143.75C58.1686 146.82 55.7097 149.571 52.9433 151.986L50.3496 149.015C47.8411 151.205 45.0428 153.104 42.0075 154.692L43.8357 158.186C40.624 159.867 37.1848 161.218 33.5782 162.227L32.5156 158.43C29.2795 159.335 25.8857 159.948 22.3836 160.251L22.724 164.18C19.126 164.492 15.4335 164.496 11.6947 164.184L12.0235 160.254C8.63456 159.97 5.19889 159.409 1.75758 158.559L0.811932 162.387C-2.69398 161.522 -6.19996 160.374 -9.66774 158.935L-8.15693 155.293C-9.75227 154.631 -11.34 153.904 -12.9159 153.111C-14.4917 152.318 -16.0213 151.475 -17.5031 150.588L-19.5292 153.971C-22.75 152.042 -25.7603 149.91 -28.5441 147.61L-26.0321 144.57C-28.7647 142.312 -31.2619 139.886 -33.5083 137.333L-36.4691 139.938C-38.9474 137.121 -41.1428 134.152 -43.0356 131.076L-39.677 129.01C-41.5193 126.016 -43.0488 122.925 -44.249 119.786L-47.9325 121.195C-49.2701 117.697 -50.233 114.129 -50.7962 110.548L-46.9005 109.935C-47.4328 106.551 -47.5746 103.173 -47.3096 99.8533L-51.2407 99.5394C-50.9484 95.8786 -50.2037 92.2652 -48.9795 88.7612L-45.2566 90.0619C-44.711 88.5004 -44.0602 86.9623 -43.3008 85.4537C-42.5413 83.9451 -41.6935 82.5062 -40.7642 81.1379L-44.0265 78.9222C-41.9411 75.8516 -39.4822 73.1012 -36.7157 70.6859L-34.1221 73.6566C-31.6136 71.4665 -28.8152 69.568 -25.78 67.9799L-27.6082 64.4857C-24.3964 62.8052 -20.9572 61.4536 -17.3507 60.4444L-16.288 64.2422C-13.052 63.3367 -9.65816 62.7242 -6.15609 62.4208L-6.49642 58.4919C-2.89843 58.1803 0.794009 58.1754 4.53281 58.4882L4.20402 62.4181C7.59298 62.7016 11.0286 63.2629 14.4699 64.1129L15.4156 60.2843C18.9215 61.1503 22.4275 62.2981 25.8953 63.7363L24.3845 67.379C25.9798 68.0407 27.5675 68.7676 29.1434 69.5609C30.7193 70.3542 32.2489 71.1966 33.7306 72.0839L35.7567 68.7006C38.9776 70.6294 41.9878 72.7619 44.7717 75.0623L42.2597 78.1023C44.9922 80.3602 47.4895 82.7856 49.7358 85.3389L52.6967 82.734C55.1749 85.5509 57.3704 88.5197 59.2631 91.5955L55.9045 93.6623C57.7468 96.656 59.2764 99.7469 60.4766 102.886L64.16 101.477C65.4977 104.975 66.4605 108.543 67.0237 112.124L63.128 112.736C63.6603 116.12 63.8021 119.499 63.5371 122.819L67.4682 123.132Z" stroke="white" stroke-width="7.8872" stroke-linejoin="bevel" stroke-dasharray="10.52 10.52"/>
</svg>
