<svg width="230" height="287" viewBox="0 0 230 287" fill="none" xmlns="http://www.w3.org/2000/svg">
<ellipse cx="134.902" cy="144.573" rx="88.9829" ry="79.1746" transform="rotate(80.2792 134.902 144.573)" fill="#CD5769"/>
<ellipse cx="150.204" cy="141.951" rx="88.9829" ry="79.1746" transform="rotate(80.2792 150.204 141.951)" fill="#FFA3AF"/>
<path d="M207.594 205.779C200.215 214.065 191.238 220.683 181.05 225.012L173.853 208.074C170.152 209.647 166.234 210.813 162.121 211.517C158.008 212.222 153.925 212.427 149.912 212.176L148.763 230.543C137.715 229.852 127.047 226.599 117.331 221.242L126.217 205.126C118.932 201.109 112.195 195.475 106.503 188.467L92.2184 200.07C85.4771 191.771 80.0141 182.066 76.2761 171.311L93.6594 165.269C92.2163 161.117 91.0833 156.755 90.305 152.212C89.5268 147.67 89.1435 143.18 89.1223 138.784L70.7191 138.872C70.6644 127.487 72.5855 116.516 76.18 106.447L93.5123 112.633C96.5475 104.131 101.025 96.5758 106.557 90.3632L92.8135 78.1239C100.193 69.8379 109.17 63.2194 119.357 58.8906L126.555 75.8283C130.256 74.2557 134.173 73.09 138.287 72.3853C142.4 71.6807 146.482 71.476 150.496 71.7271L151.645 53.3595C162.692 54.0507 173.361 57.3037 183.077 62.6612L174.191 78.7771C181.476 82.7939 188.212 88.4278 193.904 95.4356L208.189 83.8325C214.93 92.1318 220.393 101.837 224.131 112.592L206.748 118.634C208.191 122.786 209.324 127.148 210.102 131.69C210.881 136.233 211.264 140.723 211.285 145.119L229.688 145.031C229.743 156.416 227.822 167.386 224.227 177.456L206.895 171.269C203.86 179.772 199.383 187.327 193.85 193.54L207.594 205.779Z" stroke="white" stroke-width="36.8069" stroke-linejoin="round" stroke-dasharray="42.07 42.07"/>
<path d="M175.515 197.109C172.396 199.049 169.047 200.596 165.501 201.692L164.336 197.925C162.755 198.414 161.131 198.804 159.467 199.089C157.802 199.374 156.141 199.547 154.488 199.612L154.643 203.552C150.935 203.699 147.261 203.354 143.675 202.563L144.524 198.712C141.272 197.995 138.083 196.872 135.002 195.373L133.277 198.92C130.018 197.334 126.887 195.37 123.933 193.068L126.357 189.958C123.707 187.892 121.198 185.526 118.874 182.889L115.915 185.496C113.527 182.787 111.33 179.82 109.361 176.626L112.717 174.556C110.932 171.662 109.343 168.564 107.983 165.291L104.341 166.804C102.955 163.47 101.796 159.967 100.893 156.323L104.721 155.375C104.306 153.699 103.947 151.989 103.65 150.251C103.352 148.512 103.121 146.781 102.954 145.062L99.0291 145.441C98.6676 141.705 98.595 138.016 98.7919 134.41L102.73 134.625C102.923 131.086 103.391 127.636 104.11 124.313L100.256 123.478C101.05 119.811 102.134 116.281 103.484 112.932L107.142 114.406C108.456 111.146 110.034 108.079 111.846 105.249L108.525 103.123C110.544 99.9687 112.843 97.075 115.389 94.4949L118.196 97.2648C120.602 94.8265 123.236 92.7055 126.063 90.9469L123.981 87.5981C127.099 85.6587 130.448 84.1114 133.995 83.0148L135.16 86.7824C136.74 86.2937 138.364 85.9036 140.028 85.6185C141.693 85.3333 143.354 85.1606 145.007 85.0954L144.852 81.1549C148.561 81.0086 152.234 81.353 155.82 82.1438L154.971 85.9949C158.223 86.7119 161.412 87.8354 164.493 89.3338L166.218 85.7875C169.478 87.373 172.608 89.3369 175.562 91.6388L173.138 94.7495C175.789 96.8149 178.297 99.1813 180.622 101.818L183.58 99.2108C185.968 101.92 188.165 104.888 190.135 108.081L186.778 110.151C188.563 113.046 190.152 116.143 191.512 119.416L195.154 117.903C196.54 121.238 197.699 124.74 198.602 128.384L194.774 129.332C195.189 131.009 195.548 132.718 195.846 134.457C196.144 136.196 196.375 137.927 196.541 139.646L200.466 139.266C200.828 143.003 200.9 146.691 200.703 150.297L196.766 150.082C196.572 153.621 196.105 157.071 195.385 160.395L199.239 161.229C198.445 164.896 197.361 168.426 196.011 171.776L192.353 170.301C191.039 173.562 189.461 176.628 187.649 179.458L190.97 181.585C188.951 184.739 186.653 187.632 184.107 190.212L181.3 187.442C178.893 189.881 176.26 192.002 173.432 193.76L175.515 197.109Z" stroke="white" stroke-width="7.8872" stroke-linejoin="bevel" stroke-dasharray="10.52 10.52"/>
</svg>
