<svg width="214" height="80" viewBox="0 0 214 80" fill="none" xmlns="http://www.w3.org/2000/svg">
<ellipse cx="99.507" cy="110.461" rx="88.9829" ry="79.1746" transform="rotate(75 99.507 110.461)" fill="#CD5769"/>
<ellipse cx="114.503" cy="106.443" rx="88.9829" ry="79.1746" transform="rotate(75 114.503 106.443)" fill="#FFA3AF"/>
<path d="M177.522 164.719C170.937 173.649 162.606 181.065 152.86 186.313L144.135 170.109C140.595 172.016 136.801 173.537 132.77 174.617C128.739 175.697 124.693 176.277 120.673 176.396L121.219 194.791C110.155 195.12 99.2323 192.862 89.0643 188.421L96.43 171.556C88.8064 168.227 81.5802 163.236 75.2673 156.782L62.1107 169.65C54.6345 162.006 48.3017 152.845 43.59 142.48L60.3436 134.864C58.5246 130.862 56.9951 126.623 55.8022 122.172C54.6093 117.72 53.8144 113.284 53.3889 108.909L35.0719 110.69C33.9698 99.3578 34.8734 88.2573 37.5261 77.8994L55.3542 82.4653C57.5941 73.7192 61.3571 65.7845 66.2946 59.0893L51.4832 48.1665C58.0686 39.2367 66.3987 31.8203 76.1448 26.5724L84.8699 42.7761C88.4105 40.8696 92.2043 39.3484 96.2353 38.2683C100.266 37.1882 104.312 36.6087 108.332 36.4895L107.786 18.0941C118.851 17.7659 129.773 20.0235 139.941 24.4643L132.575 41.3295C140.199 44.659 147.425 49.6491 153.738 56.1034L166.894 43.2352C174.371 50.8791 180.704 60.0406 185.415 70.4056L168.662 78.0215C170.481 82.0232 172.01 86.2621 173.203 90.714C174.396 95.166 175.191 99.6018 175.616 103.977L193.933 102.196C195.035 113.528 194.132 124.628 191.479 134.986L173.651 130.42C171.411 139.166 167.648 147.101 162.711 153.796L177.522 164.719Z" stroke="white" stroke-width="36.8069" stroke-linejoin="round" stroke-dasharray="42.07 42.07"/>
<path d="M144.781 159.038C141.854 161.256 138.662 163.105 135.231 164.523L133.725 160.879C132.196 161.511 130.615 162.048 128.983 162.486C127.352 162.923 125.714 163.247 124.074 163.464L124.591 167.374C120.912 167.861 117.222 167.856 113.579 167.399L114.07 163.486C110.766 163.071 107.486 162.246 104.281 161.037L102.89 164.727C99.4978 163.448 96.2002 161.781 93.0468 159.76L95.1742 156.44C92.3448 154.627 89.629 152.501 87.072 150.089L84.366 152.958C81.7389 150.48 79.2779 147.727 77.0232 144.728L80.1753 142.358C78.1315 139.64 76.264 136.702 74.6083 133.568L71.1213 135.41C69.4345 132.217 67.9579 128.836 66.7236 125.291L70.448 123.994C69.8802 122.363 69.3661 120.694 68.9095 118.99C68.4529 117.286 68.0636 115.584 67.7398 113.887L63.8661 114.627C63.1623 110.939 62.7507 107.273 62.615 103.664L66.5558 103.516C66.4226 99.9737 66.571 96.4957 66.9818 93.1198L63.0671 92.6434C63.5203 88.919 64.2752 85.3046 65.3113 81.8449L69.0891 82.9763C70.0975 79.6088 71.3867 76.4102 72.9307 73.4256L69.428 71.6136C71.1488 68.2872 73.1708 65.1943 75.4687 62.3909L78.5187 64.8908C80.6903 62.2415 83.1177 59.8871 85.7717 57.8758L83.3898 54.7328C86.3168 52.5147 89.5093 50.6658 92.9395 49.2476L94.4462 52.892C95.9748 52.26 97.556 51.7222 99.1874 51.285C100.819 50.8479 102.457 50.5231 104.097 50.3062L103.579 46.3966C107.259 45.9097 110.948 45.9146 114.592 46.3721L114.101 50.285C117.405 50.6998 120.685 51.525 123.89 52.7336L125.281 49.0437C128.673 50.3226 131.971 51.9901 135.124 54.0104L132.997 57.331C135.826 59.1437 138.542 61.2692 141.099 63.6813L143.805 60.8126C146.432 63.2907 148.893 66.0435 151.148 69.0423L147.996 71.4122C150.039 74.1304 151.907 77.0683 153.563 80.2026L157.05 78.3605C158.736 81.5536 160.213 84.9343 161.447 88.4798L157.723 89.7764C158.291 91.4075 158.805 93.0763 159.261 94.7805C159.718 96.4846 160.107 98.1869 160.431 99.8834L164.305 99.1441C165.009 102.832 165.42 106.498 165.556 110.106L161.615 110.255C161.748 113.797 161.6 117.275 161.189 120.651L165.104 121.127C164.651 124.852 163.896 128.466 162.86 131.926L159.082 130.794C158.073 134.162 156.784 137.36 155.24 140.345L158.743 142.157C157.022 145.483 155 148.576 152.702 151.38L149.652 148.88C147.481 151.529 145.053 153.884 142.399 155.895L144.781 159.038Z" stroke="white" stroke-width="7.8872" stroke-linejoin="bevel" stroke-dasharray="10.52 10.52"/>
</svg>
