<svg width="86" height="86" viewBox="0 0 86 86" fill="none" xmlns="http://www.w3.org/2000/svg">
<path d="M41.8525 1.01936C42.0139 -0.339788 43.9861 -0.339788 44.1475 1.01936L45.5004 12.4214C47.2474 27.1446 58.8555 38.7526 73.5785 40.4996L84.9805 41.8525C86.3398 42.0139 86.3398 43.9861 84.9805 44.1475L73.5785 45.5004C58.8555 47.2474 47.2474 58.8555 45.5004 73.5785L44.1475 84.9805C43.9861 86.3398 42.0139 86.3398 41.8525 84.9805L40.4996 73.5785C38.7526 58.8555 27.1446 47.2474 12.4214 45.5004L1.01936 44.1475C-0.339788 43.9861 -0.339788 42.0139 1.01936 41.8525L12.4214 40.4996C27.1446 38.7526 38.7526 27.1446 40.4996 12.4214L41.8525 1.01936Z" fill="#FC6D83"/>
</svg>
