<svg width="361" height="49" viewBox="0 0 361 49" fill="none" xmlns="http://www.w3.org/2000/svg">
<g filter="url(#filter0_d_521_3619)">
<rect x="2" y="3.49658" width="39" height="39" rx="2.4" fill="#FC6D83"/>
<rect x="1.4" y="2.89658" width="40.2" height="40.2" rx="3" stroke="#19123C" stroke-width="1.2"/>
</g>
<path d="M18.6734 37.0366V15.883H11.0356V10.8286H32.1518V15.883H24.2894V37.0366H18.6734Z" fill="#FFFAF3"/>
<path d="M37.5087 36.6622V36.209H38.5352V40.1566H38.0329V36.6622H37.5087Z" fill="#FFFAF3"/>
<g filter="url(#filter1_d_521_3619)">
<rect x="46.3999" y="3.49658" width="39" height="39" rx="2.4" fill="#7676E8"/>
<rect x="45.7999" y="2.89658" width="40.2" height="40.2" rx="3" stroke="#19123C" stroke-width="1.2"/>
</g>
<path d="M57.6069 37.0366V10.8286H75.3161V15.7707H63.0732V32.0945H75.5781V37.0366H57.6069ZM60.2277 26.0667V21.2744H73.5189V26.0667H60.2277Z" fill="#FFFAF3"/>
<path d="M81.9085 36.6622V36.209H82.9349V40.1566H82.4326V36.6622H81.9085Z" fill="#FFFAF3"/>
<g filter="url(#filter2_d_521_3619)">
<rect x="90.7998" y="3.49658" width="39.6" height="39" rx="2.4" fill="#86E9DA"/>
<rect x="90.1998" y="2.89658" width="40.8" height="40.2" rx="3" stroke="#19123C" stroke-width="1.2"/>
</g>
<path d="M112.662 37.4112C110.711 37.4112 108.911 37.0868 107.264 36.4378C105.642 35.7639 104.223 34.8279 103.006 33.6298C101.815 32.4068 100.89 30.9716 100.231 29.3242C99.5721 27.6519 99.2427 25.8298 99.2427 23.858C99.2427 21.936 99.5848 20.1639 100.269 18.5415C100.953 16.8941 101.916 15.4714 103.158 14.2733C104.4 13.0503 105.857 12.1018 107.53 11.4279C109.203 10.754 111.015 10.417 112.966 10.417C114.234 10.417 115.476 10.5917 116.692 10.9412C117.934 11.2656 119.062 11.7524 120.075 12.4013C121.115 13.0503 122.002 13.824 122.737 14.7226L119.163 18.6164C118.555 18.0173 117.921 17.5056 117.262 17.0813C116.629 16.632 115.944 16.2951 115.209 16.0704C114.5 15.8208 113.739 15.696 112.928 15.696C111.839 15.696 110.812 15.8957 109.849 16.2951C108.911 16.6944 108.088 17.256 107.378 17.9799C106.668 18.6788 106.098 19.5399 105.667 20.5632C105.262 21.5616 105.059 22.6724 105.059 23.8954C105.059 25.1434 105.262 26.2791 105.667 27.3024C106.073 28.3008 106.643 29.162 107.378 29.8858C108.113 30.5847 108.987 31.1338 110.001 31.5332C111.04 31.9076 112.181 32.0948 113.423 32.0948C114.234 32.0948 115.019 31.9824 115.78 31.7578C116.54 31.5332 117.237 31.2212 117.871 30.8218C118.529 30.4224 119.112 29.9607 119.619 29.4365L122.394 33.817C121.786 34.4909 120.962 35.1024 119.923 35.6516C118.91 36.2007 117.769 36.6375 116.502 36.962C115.235 37.2615 113.955 37.4112 112.662 37.4112Z" fill="#19123C"/>
<path d="M125.488 37.203C125.514 36.8681 125.645 36.606 125.882 36.4167C126.118 36.2275 126.425 36.1328 126.802 36.1328C127.053 36.1328 127.269 36.1783 127.45 36.2693C127.635 36.3567 127.774 36.4768 127.866 36.6297C127.962 36.7826 128.01 36.9555 128.01 37.1484C128.01 37.3741 127.944 37.5688 127.811 37.7326C127.681 37.8964 127.511 38.002 127.301 38.0493V38.0766C127.541 38.1348 127.731 38.2495 127.872 38.4206C128.012 38.5916 128.083 38.8155 128.083 39.0921C128.083 39.2996 128.034 39.4871 127.938 39.6545C127.842 39.8183 127.698 39.9475 127.506 40.0422C127.314 40.1368 127.083 40.1841 126.813 40.1841C126.421 40.1841 126.1 40.084 125.848 39.8838C125.597 39.68 125.456 39.3924 125.427 39.0212H125.915C125.941 39.2396 126.031 39.4179 126.186 39.5562C126.342 39.6946 126.549 39.7637 126.807 39.7637C127.066 39.7637 127.262 39.6982 127.395 39.5672C127.532 39.4325 127.6 39.2596 127.6 39.0485C127.6 38.7755 127.508 38.5789 127.323 38.4588C127.138 38.3387 126.859 38.2786 126.486 38.2786H126.358V37.8636H126.491C126.831 37.86 127.088 37.8054 127.262 37.6998C127.436 37.5906 127.523 37.4232 127.523 37.1975C127.523 37.0046 127.458 36.8499 127.329 36.7334C127.203 36.6169 127.022 36.5587 126.785 36.5587C126.556 36.5587 126.371 36.6169 126.231 36.7334C126.09 36.8499 126.007 37.0064 125.981 37.203H125.488Z" fill="#19123C"/>
<g filter="url(#filter3_d_521_3619)">
<rect x="135.2" y="3.49658" width="39.6" height="39" rx="2.4" fill="#FC6D83"/>
<rect x="134.6" y="2.89658" width="40.8" height="40.2" rx="3" stroke="#19123C" stroke-width="1.2"/>
</g>
<path d="M160.573 37.0366V10.8286H166.275V37.0366H160.573ZM143.808 37.0366V10.8286H149.51V37.0366H143.808ZM146.089 26.516L146.127 21.4241H163.5V26.516H146.089Z" fill="#FFFAF3"/>
<path d="M169.555 39.2776V38.9008L171.501 36.2473H172.106V38.8462H172.66V39.2776H172.106V40.1566H171.607V39.2776H169.555ZM171.629 36.766L170.137 38.8462H171.629V36.766Z" fill="#FFFAF3"/>
<g filter="url(#filter4_d_521_3619)">
<rect x="180.2" y="3.49658" width="39" height="39" rx="2.4" fill="#7676E8"/>
<rect x="179.6" y="2.89658" width="40.2" height="40.2" rx="3" stroke="#19123C" stroke-width="1.2"/>
</g>
<path d="M188.287 37.0366V10.8286H193.304L207.793 30.4097H206.745C206.645 29.636 206.558 28.8872 206.483 28.1633C206.408 27.4145 206.333 26.6657 206.258 25.9169C206.208 25.1432 206.158 24.3569 206.109 23.5582C206.084 22.7345 206.059 21.8734 206.034 20.9749C206.009 20.0513 205.996 19.0529 205.996 17.9797V10.8286H211.5V37.0366H206.408L191.619 17.2683L193.042 17.3057C193.167 18.6037 193.267 19.7144 193.342 20.6379C193.441 21.5365 193.516 22.3227 193.566 22.9966C193.616 23.6705 193.654 24.2571 193.678 24.7563C193.728 25.2555 193.753 25.7297 193.753 26.179C193.778 26.6283 193.791 27.1025 193.791 27.6017V37.0366H188.287Z" fill="#FFFAF3"/>
<path d="M215.709 36.6622V36.209H216.735V40.1566H216.233V36.6622H215.709Z" fill="#FFFAF3"/>
<g filter="url(#filter5_d_521_3619)">
<rect x="224.6" y="3.49658" width="39" height="39" rx="2.4" fill="#86E9DA"/>
<rect x="224" y="2.89658" width="40.2" height="40.2" rx="3" stroke="#19123C" stroke-width="1.2"/>
</g>
<path d="M244.293 37.4108C242.372 37.4108 240.599 37.0738 238.977 36.3999C237.355 35.726 235.932 34.79 234.709 33.5919C233.511 32.3688 232.587 30.9336 231.938 29.2863C231.289 27.614 230.965 25.8044 230.965 23.8575C230.965 21.8856 231.289 20.0885 231.938 18.4661C232.587 16.8188 233.511 15.3836 234.709 14.1605C235.932 12.9375 237.355 11.989 238.977 11.3151C240.599 10.6412 242.372 10.3042 244.293 10.3042C246.24 10.3042 248.013 10.6412 249.61 11.3151C251.232 11.989 252.643 12.9375 253.841 14.1605C255.064 15.3836 256 16.8188 256.649 18.4661C257.298 20.1135 257.622 21.9106 257.622 23.8575C257.622 25.8044 257.298 27.6015 256.649 29.2488C256 30.8962 255.064 32.3314 253.841 33.5544C252.643 34.7775 251.232 35.726 249.61 36.3999C248.013 37.0738 246.24 37.4108 244.293 37.4108ZM244.293 32.0943C245.392 32.0943 246.403 31.8946 247.326 31.4952C248.275 31.0959 249.086 30.5218 249.76 29.773C250.434 29.0242 250.958 28.1506 251.332 27.1522C251.732 26.1538 251.931 25.0556 251.931 23.8575C251.931 22.6594 251.732 21.5612 251.332 20.5628C250.958 19.5644 250.434 18.7032 249.76 17.9794C249.086 17.2306 248.275 16.6565 247.326 16.2572C246.403 15.8328 245.392 15.6207 244.293 15.6207C243.195 15.6207 242.184 15.8328 241.261 16.2572C240.337 16.6565 239.526 17.2306 238.827 17.9794C238.128 18.7032 237.592 19.5644 237.217 20.5628C236.868 21.5612 236.693 22.6594 236.693 23.8575C236.693 25.0556 236.868 26.1538 237.217 27.1522C237.592 28.1506 238.128 29.0242 238.827 29.773C239.526 30.5218 240.337 31.0959 241.261 31.4952C242.184 31.8946 243.195 32.0943 244.293 32.0943Z" fill="#19123C"/>
<path d="M260.109 36.662V36.2088H261.135V40.1564H260.633V36.662H260.109Z" fill="#19123C"/>
<g filter="url(#filter6_d_521_3619)">
<rect x="274.53" y="1" width="39.1895" height="39.1895" rx="2.4" transform="rotate(8.24071 274.53 1)" fill="#FC6D83"/>
<rect x="274.022" y="0.320196" width="40.3895" height="40.3895" rx="3" transform="rotate(8.24071 274.022 0.320196)" stroke="#19123C" stroke-width="1.2"/>
</g>
<path d="M286.702 36.8175L280.089 9.24951L286.009 10.1069L289.401 25.0057C289.588 25.8183 289.737 26.5369 289.849 27.1614C289.99 27.7647 290.097 28.3377 290.171 28.8806C290.273 29.4022 290.362 29.922 290.439 30.44C290.52 30.9332 290.593 31.476 290.659 32.0685L289.574 31.9494C289.884 31.2086 290.185 30.53 290.477 29.9133C290.773 29.2719 291.097 28.6092 291.449 27.9253C291.802 27.2414 292.236 26.43 292.752 25.491L299.934 12.1237L305.817 12.9757L291.58 37.5239L286.702 36.8175Z" fill="#FFFAF3"/>
<path d="M303.024 41.4566L303.078 41.082L305.367 38.7191L305.958 38.8048L305.584 41.3894L306.127 41.4681L306.065 41.897L305.522 41.8184L305.395 42.6926L304.907 42.6218L305.033 41.7476L303.024 41.4566ZM305.417 39.253L303.656 41.1103L305.117 41.3218L305.417 39.253Z" fill="#FFFAF3"/>
<g filter="url(#filter7_d_521_3619)">
<rect x="318.8" y="3.49658" width="39" height="39" rx="2.4" fill="#7676E8"/>
<rect x="318.2" y="2.89658" width="40.2" height="40.2" rx="3" stroke="#19123C" stroke-width="1.2"/>
</g>
<path d="M325.339 37.0366L335.598 10.8286H340.615L350.836 37.0366H345.07L339.791 22.9217C339.641 22.5224 339.454 22.0107 339.23 21.3867C339.03 20.7627 338.818 20.1013 338.593 19.4024C338.368 18.7035 338.156 18.0421 337.957 17.4181C337.757 16.7691 337.607 16.2325 337.507 15.8081L338.518 15.7707C338.368 16.3448 338.194 16.9438 337.994 17.5678C337.819 18.1669 337.632 18.7909 337.432 19.4398C337.233 20.0638 337.021 20.6753 336.796 21.2744C336.571 21.8734 336.359 22.46 336.16 23.0341L330.88 37.0366H325.339ZM330.094 31.5329L331.929 27.0027H343.947L345.819 31.5329H330.094Z" fill="#FFFAF3"/>
<path d="M354.308 36.6622V36.209H355.335V40.1566H354.833V36.6622H354.308Z" fill="#FFFAF3"/>
<defs>
<filter id="filter0_d_521_3619" x="0.799805" y="2.29639" width="43.2004" height="43.2004" filterUnits="userSpaceOnUse" color-interpolation-filters="sRGB">
<feFlood flood-opacity="0" result="BackgroundImageFix"/>
<feColorMatrix in="SourceAlpha" type="matrix" values="0 0 0 0 0 0 0 0 0 0 0 0 0 0 0 0 0 0 127 0" result="hardAlpha"/>
<feMorphology radius="0.6" operator="dilate" in="SourceAlpha" result="effect1_dropShadow_521_3619"/>
<feOffset dx="1.2" dy="1.2"/>
<feComposite in2="hardAlpha" operator="out"/>
<feColorMatrix type="matrix" values="0 0 0 0 0.0980392 0 0 0 0 0.0705882 0 0 0 0 0.235294 0 0 0 1 0"/>
<feBlend mode="normal" in2="BackgroundImageFix" result="effect1_dropShadow_521_3619"/>
<feBlend mode="normal" in="SourceGraphic" in2="effect1_dropShadow_521_3619" result="shape"/>
</filter>
<filter id="filter1_d_521_3619" x="45.1997" y="2.29639" width="43.2004" height="43.2004" filterUnits="userSpaceOnUse" color-interpolation-filters="sRGB">
<feFlood flood-opacity="0" result="BackgroundImageFix"/>
<feColorMatrix in="SourceAlpha" type="matrix" values="0 0 0 0 0 0 0 0 0 0 0 0 0 0 0 0 0 0 127 0" result="hardAlpha"/>
<feMorphology radius="0.6" operator="dilate" in="SourceAlpha" result="effect1_dropShadow_521_3619"/>
<feOffset dx="1.2" dy="1.2"/>
<feComposite in2="hardAlpha" operator="out"/>
<feColorMatrix type="matrix" values="0 0 0 0 0.0980392 0 0 0 0 0.0705882 0 0 0 0 0.235294 0 0 0 1 0"/>
<feBlend mode="normal" in2="BackgroundImageFix" result="effect1_dropShadow_521_3619"/>
<feBlend mode="normal" in="SourceGraphic" in2="effect1_dropShadow_521_3619" result="shape"/>
</filter>
<filter id="filter2_d_521_3619" x="89.5996" y="2.29639" width="43.8" height="43.2004" filterUnits="userSpaceOnUse" color-interpolation-filters="sRGB">
<feFlood flood-opacity="0" result="BackgroundImageFix"/>
<feColorMatrix in="SourceAlpha" type="matrix" values="0 0 0 0 0 0 0 0 0 0 0 0 0 0 0 0 0 0 127 0" result="hardAlpha"/>
<feMorphology radius="0.6" operator="dilate" in="SourceAlpha" result="effect1_dropShadow_521_3619"/>
<feOffset dx="1.2" dy="1.2"/>
<feComposite in2="hardAlpha" operator="out"/>
<feColorMatrix type="matrix" values="0 0 0 0 0.0980392 0 0 0 0 0.0705882 0 0 0 0 0.235294 0 0 0 1 0"/>
<feBlend mode="normal" in2="BackgroundImageFix" result="effect1_dropShadow_521_3619"/>
<feBlend mode="normal" in="SourceGraphic" in2="effect1_dropShadow_521_3619" result="shape"/>
</filter>
<filter id="filter3_d_521_3619" x="134" y="2.29639" width="43.8" height="43.2004" filterUnits="userSpaceOnUse" color-interpolation-filters="sRGB">
<feFlood flood-opacity="0" result="BackgroundImageFix"/>
<feColorMatrix in="SourceAlpha" type="matrix" values="0 0 0 0 0 0 0 0 0 0 0 0 0 0 0 0 0 0 127 0" result="hardAlpha"/>
<feMorphology radius="0.6" operator="dilate" in="SourceAlpha" result="effect1_dropShadow_521_3619"/>
<feOffset dx="1.2" dy="1.2"/>
<feComposite in2="hardAlpha" operator="out"/>
<feColorMatrix type="matrix" values="0 0 0 0 0.0980392 0 0 0 0 0.0705882 0 0 0 0 0.235294 0 0 0 1 0"/>
<feBlend mode="normal" in2="BackgroundImageFix" result="effect1_dropShadow_521_3619"/>
<feBlend mode="normal" in="SourceGraphic" in2="effect1_dropShadow_521_3619" result="shape"/>
</filter>
<filter id="filter4_d_521_3619" x="179" y="2.29639" width="43.2004" height="43.2004" filterUnits="userSpaceOnUse" color-interpolation-filters="sRGB">
<feFlood flood-opacity="0" result="BackgroundImageFix"/>
<feColorMatrix in="SourceAlpha" type="matrix" values="0 0 0 0 0 0 0 0 0 0 0 0 0 0 0 0 0 0 127 0" result="hardAlpha"/>
<feMorphology radius="0.6" operator="dilate" in="SourceAlpha" result="effect1_dropShadow_521_3619"/>
<feOffset dx="1.2" dy="1.2"/>
<feComposite in2="hardAlpha" operator="out"/>
<feColorMatrix type="matrix" values="0 0 0 0 0.0980392 0 0 0 0 0.0705882 0 0 0 0 0.235294 0 0 0 1 0"/>
<feBlend mode="normal" in2="BackgroundImageFix" result="effect1_dropShadow_521_3619"/>
<feBlend mode="normal" in="SourceGraphic" in2="effect1_dropShadow_521_3619" result="shape"/>
</filter>
<filter id="filter5_d_521_3619" x="223.4" y="2.29639" width="43.2004" height="43.2004" filterUnits="userSpaceOnUse" color-interpolation-filters="sRGB">
<feFlood flood-opacity="0" result="BackgroundImageFix"/>
<feColorMatrix in="SourceAlpha" type="matrix" values="0 0 0 0 0 0 0 0 0 0 0 0 0 0 0 0 0 0 127 0" result="hardAlpha"/>
<feMorphology radius="0.6" operator="dilate" in="SourceAlpha" result="effect1_dropShadow_521_3619"/>
<feOffset dx="1.2" dy="1.2"/>
<feComposite in2="hardAlpha" operator="out"/>
<feColorMatrix type="matrix" values="0 0 0 0 0.0980392 0 0 0 0 0.0705882 0 0 0 0 0.235294 0 0 0 1 0"/>
<feBlend mode="normal" in2="BackgroundImageFix" result="effect1_dropShadow_521_3619"/>
<feBlend mode="normal" in="SourceGraphic" in2="effect1_dropShadow_521_3619" result="shape"/>
</filter>
<filter id="filter6_d_521_3619" x="268.031" y="0.118652" width="47.9646" height="47.9646" filterUnits="userSpaceOnUse" color-interpolation-filters="sRGB">
<feFlood flood-opacity="0" result="BackgroundImageFix"/>
<feColorMatrix in="SourceAlpha" type="matrix" values="0 0 0 0 0 0 0 0 0 0 0 0 0 0 0 0 0 0 127 0" result="hardAlpha"/>
<feMorphology radius="0.6" operator="dilate" in="SourceAlpha" result="effect1_dropShadow_521_3619"/>
<feOffset dx="1.2" dy="1.2"/>
<feComposite in2="hardAlpha" operator="out"/>
<feColorMatrix type="matrix" values="0 0 0 0 0.0980392 0 0 0 0 0.0705882 0 0 0 0 0.235294 0 0 0 1 0"/>
<feBlend mode="normal" in2="BackgroundImageFix" result="effect1_dropShadow_521_3619"/>
<feBlend mode="normal" in="SourceGraphic" in2="effect1_dropShadow_521_3619" result="shape"/>
</filter>
<filter id="filter7_d_521_3619" x="317.6" y="2.29639" width="43.2004" height="43.2004" filterUnits="userSpaceOnUse" color-interpolation-filters="sRGB">
<feFlood flood-opacity="0" result="BackgroundImageFix"/>
<feColorMatrix in="SourceAlpha" type="matrix" values="0 0 0 0 0 0 0 0 0 0 0 0 0 0 0 0 0 0 127 0" result="hardAlpha"/>
<feMorphology radius="0.6" operator="dilate" in="SourceAlpha" result="effect1_dropShadow_521_3619"/>
<feOffset dx="1.2" dy="1.2"/>
<feComposite in2="hardAlpha" operator="out"/>
<feColorMatrix type="matrix" values="0 0 0 0 0.0980392 0 0 0 0 0.0705882 0 0 0 0 0.235294 0 0 0 1 0"/>
<feBlend mode="normal" in2="BackgroundImageFix" result="effect1_dropShadow_521_3619"/>
<feBlend mode="normal" in="SourceGraphic" in2="effect1_dropShadow_521_3619" result="shape"/>
</filter>
</defs>
</svg>
